M48
; DRILL file KiCad 10.0.1 date 2026-06-11T14:30:55
; FORMAT={-:-/ absolute / metric / decimal}
; #@! TF.CreationDate,2026-06-11T14:30:55+08:00
; #@! TF.GenerationSoftware,Kicad,Pcbnew,10.0.1
; #@! TF.FileFunction,MixedPlating,1,4
FMAT,2
METRIC
; #@! TA.AperFunction,Plated,PTH,ViaDrill
T1C0.300
; #@! TA.AperFunction,Plated,PTH,ComponentDrill
T2C0.600
; #@! TA.AperFunction,Plated,PTH,ComponentDrill
T3C0.650
; #@! TA.AperFunction,Plated,PTH,ComponentDrill
T4C0.850
%
G90
G05
T1
X93.0Y-94.3
X93.0Y-95.8
X93.0Y-97.268
X93.0Y-102.8
X93.0Y-103.95
X93.0Y-105.1
X103.96Y-106.25
X105.987Y-94.46
X108.85Y-89.287
X127.675Y-93.55
X128.63Y-87.82
X129.5Y-93.7
X130.6Y-88.5
X130.95Y-98.32
X132.34Y-88.55
X132.756Y-105.5
X132.94Y-87.737
X134.35Y-107.733
X135.35Y-96.0
X135.5Y-102.938
X135.6Y-108.233
X137.1Y-108.733
X138.975Y-106.108
X140.0Y-97.5
X141.178Y-98.983
X141.178Y-100.733
X141.178Y-102.483
T2
X107.45Y-100.0
X110.0Y-97.45
X110.0Y-102.55
T3
X140.0Y-111.218
X140.0Y-112.487
T4
X119.46Y-100.0
X120.204Y-98.204
X120.204Y-101.796
X122.0Y-97.46
X122.0Y-102.54
X123.796Y-98.204
X123.796Y-101.796
X124.54Y-100.0
M30
