G04 #@! TF.GenerationSoftware,KiCad,Pcbnew,10.0.1*
G04 #@! TF.CreationDate,2026-06-11T14:30:42+08:00*
G04 #@! TF.ProjectId,photodiodes_kicadproject,70686f74-6f64-4696-9f64-65735f6b6963,rev?*
G04 #@! TF.SameCoordinates,Original*
G04 #@! TF.FileFunction,Copper,L1,Top*
G04 #@! TF.FilePolarity,Positive*
%FSLAX46Y46*%
G04 Gerber Fmt 4.6, Leading zero omitted, Abs format (unit mm)*
G04 Created by KiCad (PCBNEW 10.0.1) date 2026-06-11 14:30:42*
%MOMM*%
%LPD*%
G01*
G04 APERTURE LIST*
G04 Aperture macros list*
%AMRoundRect*
0 Rectangle with rounded corners*
0 $1 Rounding radius*
0 $2 $3 $4 $5 $6 $7 $8 $9 X,Y pos of 4 corners*
0 Add a 4 corners polygon primitive as box body*
4,1,4,$2,$3,$4,$5,$6,$7,$8,$9,$2,$3,0*
0 Add four circle primitives for the rounded corners*
1,1,$1+$1,$2,$3*
1,1,$1+$1,$4,$5*
1,1,$1+$1,$6,$7*
1,1,$1+$1,$8,$9*
0 Add four rect primitives between the rounded corners*
20,1,$1+$1,$2,$3,$4,$5,0*
20,1,$1+$1,$4,$5,$6,$7,0*
20,1,$1+$1,$6,$7,$8,$9,0*
20,1,$1+$1,$8,$9,$2,$3,0*%
G04 Aperture macros list end*
G04 #@! TA.AperFunction,SMDPad,CuDef*
%ADD10RoundRect,0.330000X-3.670000X-0.770000X3.670000X-0.770000X3.670000X0.770000X-3.670000X0.770000X0*%
G04 #@! TD*
G04 #@! TA.AperFunction,SMDPad,CuDef*
%ADD11RoundRect,0.180000X-3.820000X-0.420000X3.820000X-0.420000X3.820000X0.420000X-3.820000X0.420000X0*%
G04 #@! TD*
G04 #@! TA.AperFunction,SMDPad,CuDef*
%ADD12RoundRect,0.237500X0.237500X-0.250000X0.237500X0.250000X-0.237500X0.250000X-0.237500X-0.250000X0*%
G04 #@! TD*
G04 #@! TA.AperFunction,SMDPad,CuDef*
%ADD13RoundRect,0.237500X-0.237500X0.250000X-0.237500X-0.250000X0.237500X-0.250000X0.237500X0.250000X0*%
G04 #@! TD*
G04 #@! TA.AperFunction,SMDPad,CuDef*
%ADD14RoundRect,0.237500X-0.237500X0.300000X-0.237500X-0.300000X0.237500X-0.300000X0.237500X0.300000X0*%
G04 #@! TD*
G04 #@! TA.AperFunction,SMDPad,CuDef*
%ADD15RoundRect,0.237500X0.237500X-0.300000X0.237500X0.300000X-0.237500X0.300000X-0.237500X-0.300000X0*%
G04 #@! TD*
G04 #@! TA.AperFunction,SMDPad,CuDef*
%ADD16RoundRect,0.237500X0.300000X0.237500X-0.300000X0.237500X-0.300000X-0.237500X0.300000X-0.237500X0*%
G04 #@! TD*
G04 #@! TA.AperFunction,SMDPad,CuDef*
%ADD17RoundRect,0.237500X-0.300000X-0.237500X0.300000X-0.237500X0.300000X0.237500X-0.300000X0.237500X0*%
G04 #@! TD*
G04 #@! TA.AperFunction,SMDPad,CuDef*
%ADD18RoundRect,0.162500X0.617500X0.162500X-0.617500X0.162500X-0.617500X-0.162500X0.617500X-0.162500X0*%
G04 #@! TD*
G04 #@! TA.AperFunction,SMDPad,CuDef*
%ADD19RoundRect,0.237500X-0.250000X-0.237500X0.250000X-0.237500X0.250000X0.237500X-0.250000X0.237500X0*%
G04 #@! TD*
G04 #@! TA.AperFunction,ComponentPad*
%ADD20R,1.000000X1.000000*%
G04 #@! TD*
G04 #@! TA.AperFunction,ComponentPad*
%ADD21C,1.000000*%
G04 #@! TD*
G04 #@! TA.AperFunction,HeatsinkPad*
%ADD22R,2.450000X2.450000*%
G04 #@! TD*
G04 #@! TA.AperFunction,ComponentPad*
%ADD23C,1.500000*%
G04 #@! TD*
G04 #@! TA.AperFunction,ViaPad*
%ADD24C,0.600000*%
G04 #@! TD*
G04 #@! TA.AperFunction,ViaPad*
%ADD25C,0.500000*%
G04 #@! TD*
G04 #@! TA.AperFunction,Conductor*
%ADD26C,1.000000*%
G04 #@! TD*
G04 #@! TA.AperFunction,Conductor*
%ADD27C,0.600000*%
G04 #@! TD*
G04 #@! TA.AperFunction,Conductor*
%ADD28C,0.200000*%
G04 #@! TD*
G04 #@! TA.AperFunction,Conductor*
%ADD29C,0.800000*%
G04 #@! TD*
G04 #@! TA.AperFunction,Profile*
%ADD30C,0.050000*%
G04 #@! TD*
G04 APERTURE END LIST*
D10*
G04 #@! TO.P,J2,1,In_1*
G04 #@! TO.N,Net-(J2-In)*
X140020000Y-93500000D03*
D11*
G04 #@! TO.P,J2,2,Ext_2*
G04 #@! TO.N,GND*
X140000000Y-96000000D03*
G04 #@! TD*
D12*
G04 #@! TO.P,R17,1*
G04 #@! TO.N,Net-(C20-Pad2)*
X121100000Y-108025000D03*
G04 #@! TO.P,R17,2*
G04 #@! TO.N,Net-(C22-Pad1)*
X121100000Y-106200000D03*
G04 #@! TD*
D13*
G04 #@! TO.P,R21,1*
G04 #@! TO.N,GND*
X134000000Y-87737500D03*
G04 #@! TO.P,R21,2*
G04 #@! TO.N,Net-(C20-Pad2)*
X134000000Y-89562500D03*
G04 #@! TD*
D14*
G04 #@! TO.P,C21,1*
G04 #@! TO.N,Net-(C21-Pad1)*
X125300000Y-106250000D03*
G04 #@! TO.P,C21,2*
G04 #@! TO.N,Net-(C20-Pad2)*
X125300000Y-107975000D03*
G04 #@! TD*
D15*
G04 #@! TO.P,C25,1*
G04 #@! TO.N,Net-(C25-Pad1)*
X129450000Y-99950000D03*
G04 #@! TO.P,C25,2*
G04 #@! TO.N,Net-(C20-Pad2)*
X129450000Y-98225000D03*
G04 #@! TD*
D13*
G04 #@! TO.P,R13,1*
G04 #@! TO.N,-6V*
X110000000Y-89287500D03*
G04 #@! TO.P,R13,2*
G04 #@! TO.N,Net-(D3-A)*
X110000000Y-91112500D03*
G04 #@! TD*
D12*
G04 #@! TO.P,R19,1*
G04 #@! TO.N,Net-(C20-Pad2)*
X127200000Y-106312500D03*
G04 #@! TO.P,R19,2*
G04 #@! TO.N,Net-(C20-Pad1)*
X127200000Y-104487500D03*
G04 #@! TD*
D14*
G04 #@! TO.P,C20,1*
G04 #@! TO.N,Net-(C20-Pad1)*
X128900000Y-104537500D03*
G04 #@! TO.P,C20,2*
G04 #@! TO.N,Net-(C20-Pad2)*
X128900000Y-106262500D03*
G04 #@! TD*
D15*
G04 #@! TO.P,C24,1*
G04 #@! TO.N,Net-(C24-Pad1)*
X118000000Y-95462500D03*
G04 #@! TO.P,C24,2*
G04 #@! TO.N,Net-(C20-Pad2)*
X118000000Y-93737500D03*
G04 #@! TD*
D16*
G04 #@! TO.P,C26,1*
G04 #@! TO.N,Net-(J2-In)*
X132412500Y-93700000D03*
G04 #@! TO.P,C26,2*
G04 #@! TO.N,GND*
X130687500Y-93700000D03*
G04 #@! TD*
D17*
G04 #@! TO.P,C8,1*
G04 #@! TO.N,+6V*
X125950000Y-92436528D03*
G04 #@! TO.P,C8,2*
G04 #@! TO.N,GND*
X127675000Y-92436528D03*
G04 #@! TD*
D13*
G04 #@! TO.P,R15,1*
G04 #@! TO.N,Net-(C20-Pad2)*
X116400000Y-93700000D03*
G04 #@! TO.P,R15,2*
G04 #@! TO.N,Net-(C24-Pad1)*
X116400000Y-95525000D03*
G04 #@! TD*
D14*
G04 #@! TO.P,C22,1*
G04 #@! TO.N,Net-(C22-Pad1)*
X119500000Y-106250000D03*
G04 #@! TO.P,C22,2*
G04 #@! TO.N,Net-(C20-Pad2)*
X119500000Y-107975000D03*
G04 #@! TD*
G04 #@! TO.P,C23,1*
G04 #@! TO.N,Net-(C23-Pad1)*
X116430000Y-102737500D03*
G04 #@! TO.P,C23,2*
G04 #@! TO.N,Net-(C20-Pad2)*
X116430000Y-104462500D03*
G04 #@! TD*
D12*
G04 #@! TO.P,R16,1*
G04 #@! TO.N,Net-(C20-Pad2)*
X118030000Y-104500000D03*
G04 #@! TO.P,R16,2*
G04 #@! TO.N,Net-(C23-Pad1)*
X118030000Y-102675000D03*
G04 #@! TD*
D18*
G04 #@! TO.P,U4,1*
G04 #@! TO.N,Net-(C20-Pad2)*
X128650000Y-90600000D03*
G04 #@! TO.P,U4,2,VEE_2*
G04 #@! TO.N,-6V*
X128650000Y-89650000D03*
G04 #@! TO.P,U4,3,+_3*
G04 #@! TO.N,GND*
X128650000Y-88700000D03*
G04 #@! TO.P,U4,4,-_4*
G04 #@! TO.N,Net-(D3-K)*
X125950000Y-88700000D03*
G04 #@! TO.P,U4,5,VCC_5*
G04 #@! TO.N,+6V*
X125950000Y-90600000D03*
G04 #@! TD*
D19*
G04 #@! TO.P,R12,1*
G04 #@! TO.N,-9V*
X105320000Y-106250000D03*
G04 #@! TO.P,R12,2*
G04 #@! TO.N,Net-(D3-A)*
X107145000Y-106250000D03*
G04 #@! TD*
D17*
G04 #@! TO.P,C7,1*
G04 #@! TO.N,-6V*
X130600000Y-89650000D03*
G04 #@! TO.P,C7,2*
G04 #@! TO.N,GND*
X132325000Y-89650000D03*
G04 #@! TD*
D13*
G04 #@! TO.P,R20,1*
G04 #@! TO.N,Net-(C20-Pad2)*
X127700000Y-98175000D03*
G04 #@! TO.P,R20,2*
G04 #@! TO.N,Net-(C25-Pad1)*
X127700000Y-100000000D03*
G04 #@! TD*
D12*
G04 #@! TO.P,R18,1*
G04 #@! TO.N,Net-(C20-Pad2)*
X123700000Y-108025000D03*
G04 #@! TO.P,R18,2*
G04 #@! TO.N,Net-(C21-Pad1)*
X123700000Y-106200000D03*
G04 #@! TD*
D20*
G04 #@! TO.P,J1,1,Pin_1_1*
G04 #@! TO.N,/Power Input/+5VIN*
X140000000Y-111217500D03*
D21*
G04 #@! TO.P,J1,2,Pin_2_2*
G04 #@! TO.N,GND*
X140000000Y-112487500D03*
G04 #@! TD*
G04 #@! TO.P,D3,1,A_1*
G04 #@! TO.N,Net-(D3-A)*
X110000000Y-97450000D03*
G04 #@! TO.P,D3,2,Package_2*
G04 #@! TO.N,GND*
X107450000Y-100000000D03*
G04 #@! TO.P,D3,3,K_3*
G04 #@! TO.N,Net-(D3-K)*
X110000000Y-102550000D03*
G04 #@! TD*
D19*
G04 #@! TO.P,R14,1*
G04 #@! TO.N,GND*
X105987500Y-93360000D03*
G04 #@! TO.P,R14,2*
G04 #@! TO.N,Net-(D3-A)*
X107812500Y-93360000D03*
G04 #@! TD*
G04 #@! TO.P,R22,1*
G04 #@! TO.N,Net-(C20-Pad2)*
X130637500Y-91950000D03*
G04 #@! TO.P,R22,2*
G04 #@! TO.N,Net-(J2-In)*
X132462500Y-91950000D03*
G04 #@! TD*
D22*
G04 #@! TO.P,U3,25,EP_25*
G04 #@! TO.N,GND*
X132750000Y-102687500D03*
G04 #@! TD*
D23*
G04 #@! TO.P,SW1,1*
G04 #@! TO.N,Net-(C24-Pad1)*
X120203949Y-98203949D03*
G04 #@! TO.P,SW1,2*
G04 #@! TO.N,Net-(C23-Pad1)*
X119460000Y-100000000D03*
G04 #@! TO.P,SW1,3*
G04 #@! TO.N,Net-(C22-Pad1)*
X120203949Y-101796051D03*
G04 #@! TO.P,SW1,4*
G04 #@! TO.N,Net-(C21-Pad1)*
X122000000Y-102540000D03*
G04 #@! TO.P,SW1,5*
G04 #@! TO.N,Net-(C20-Pad1)*
X123796051Y-101796051D03*
G04 #@! TO.P,SW1,6*
G04 #@! TO.N,Net-(C25-Pad1)*
X124540000Y-100000000D03*
G04 #@! TO.P,SW1,7*
G04 #@! TO.N,N/C*
X123796051Y-98203949D03*
G04 #@! TO.P,SW1,C*
G04 #@! TO.N,Net-(D3-K)*
X122000000Y-97460000D03*
G04 #@! TD*
D24*
G04 #@! TO.N,GND*
X135350000Y-96000000D03*
X140000000Y-97500000D03*
D25*
X141177804Y-100732500D03*
D24*
X105987500Y-94460000D03*
X130950000Y-98320000D03*
X129500000Y-93700000D03*
D25*
X141177804Y-102482500D03*
D24*
X132340000Y-88550000D03*
D25*
X141177804Y-98982500D03*
D24*
X132940000Y-87737500D03*
D25*
X134350000Y-107732500D03*
D24*
X128630000Y-87820000D03*
X127675000Y-93550000D03*
D25*
X137100000Y-108732500D03*
X135600000Y-108232500D03*
D24*
G04 #@! TO.N,-6V*
X108850000Y-89287500D03*
X93000000Y-103950000D03*
X130600000Y-88500000D03*
X93000000Y-102800000D03*
X93000000Y-105100000D03*
G04 #@! TO.N,+6V*
X93000000Y-95800000D03*
X93000000Y-97268408D03*
X93000000Y-94300000D03*
G04 #@! TO.N,-9V*
X103960000Y-106250000D03*
D25*
G04 #@! TO.N,/Power Input/+5VIN*
X138975000Y-106107500D03*
D24*
G04 #@! TO.N,/Voltage Regulator/VIN*
X135500000Y-102937500D03*
X132755999Y-105500000D03*
G04 #@! TD*
G04 #@! TO.N,GND*
D26*
X135350000Y-96000000D02*
X136850000Y-96000000D01*
X140000000Y-97500000D02*
X140000000Y-96000000D01*
G04 #@! TO.N,Net-(J2-In)*
D27*
X135400000Y-93500000D02*
X140020000Y-93500000D01*
X133850000Y-91950000D02*
X135400000Y-93500000D01*
X132462500Y-91950000D02*
X133850000Y-91950000D01*
G04 #@! TO.N,Net-(C20-Pad2)*
D28*
X127200000Y-106312500D02*
X128850000Y-106312500D01*
X118030000Y-104500000D02*
X118040000Y-104510000D01*
X118040000Y-104510000D02*
X118040000Y-107540000D01*
X114962500Y-104462500D02*
X114100000Y-103600000D01*
X130300000Y-105800000D02*
X130300000Y-99075000D01*
X125300000Y-107975000D02*
X126825000Y-107975000D01*
X115492500Y-104462500D02*
X114962500Y-104462500D01*
X128600000Y-91960000D02*
X128600000Y-90650000D01*
X133490000Y-90780000D02*
X134000000Y-90270000D01*
X118475000Y-107975000D02*
X125300000Y-107975000D01*
X127750000Y-98225000D02*
X127700000Y-98175000D01*
X116430000Y-104462500D02*
X117992500Y-104462500D01*
X127700000Y-95450000D02*
X128600000Y-94550000D01*
X128600000Y-90650000D02*
X128650000Y-90600000D01*
X114100000Y-94200000D02*
X114562500Y-93737500D01*
X128900000Y-106262500D02*
X129837500Y-106262500D01*
X134000000Y-90270000D02*
X134000000Y-89562500D01*
X114100000Y-103600000D02*
X114100000Y-94200000D01*
X130637500Y-91112500D02*
X130970000Y-90780000D01*
X117992500Y-104462500D02*
X118030000Y-104500000D01*
X116430000Y-104462500D02*
X115492500Y-104462500D01*
X114562500Y-93737500D02*
X118000000Y-93737500D01*
X130637500Y-91950000D02*
X128610000Y-91950000D01*
X129837500Y-106262500D02*
X130300000Y-105800000D01*
X128610000Y-91950000D02*
X128600000Y-91960000D01*
X130637500Y-91950000D02*
X130637500Y-91112500D01*
X127700000Y-98175000D02*
X127700000Y-95450000D01*
X126825000Y-107975000D02*
X127200000Y-107600000D01*
X127200000Y-107600000D02*
X127200000Y-106312500D01*
X130970000Y-90780000D02*
X133490000Y-90780000D01*
X118040000Y-107540000D02*
X118475000Y-107975000D01*
X130300000Y-99075000D02*
X129450000Y-98225000D01*
X129450000Y-98225000D02*
X127750000Y-98225000D01*
X128850000Y-106312500D02*
X128900000Y-106262500D01*
X128600000Y-94550000D02*
X128600000Y-91960000D01*
G04 #@! TO.N,Net-(C22-Pad1)*
X119550000Y-106200000D02*
X119500000Y-106250000D01*
X121100000Y-106200000D02*
X120203949Y-105303949D01*
X121100000Y-106200000D02*
X119550000Y-106200000D01*
X120203949Y-105303949D02*
X120203949Y-101796051D01*
G04 #@! TO.N,GND*
D29*
X129500000Y-93700000D02*
X130687500Y-93700000D01*
X127675000Y-93550000D02*
X127675000Y-92436528D01*
D27*
X130950000Y-98320000D02*
X130950000Y-100887500D01*
D29*
X105987500Y-93360000D02*
X105987500Y-94460000D01*
X132340000Y-89635000D02*
X132325000Y-89650000D01*
X132340000Y-88550000D02*
X132340000Y-89635000D01*
D27*
X130950000Y-100887500D02*
X132750000Y-102687500D01*
X128630000Y-87820000D02*
X128630000Y-88680000D01*
D29*
X132940000Y-87737500D02*
X134000000Y-87737500D01*
G04 #@! TO.N,Net-(C21-Pad1)*
D28*
X125300000Y-106250000D02*
X123750000Y-106250000D01*
X122024925Y-102540000D02*
X122000000Y-102540000D01*
X123750000Y-106250000D02*
X123700000Y-106200000D01*
X123700000Y-106200000D02*
X123700000Y-104215075D01*
X123700000Y-104215075D02*
X122024925Y-102540000D01*
G04 #@! TO.N,Net-(C25-Pad1)*
X127700000Y-100000000D02*
X124540000Y-100000000D01*
X127750000Y-99950000D02*
X127700000Y-100000000D01*
X129450000Y-99950000D02*
X127750000Y-99950000D01*
G04 #@! TO.N,-6V*
D29*
X108850000Y-89287500D02*
X110000000Y-89287500D01*
X130600000Y-89650000D02*
X130600000Y-88500000D01*
D27*
X130600000Y-89650000D02*
X128650000Y-89650000D01*
G04 #@! TO.N,Net-(D3-A)*
D28*
X107145000Y-102875000D02*
X110000000Y-100020000D01*
X110000000Y-100020000D02*
X110000000Y-97450000D01*
X109250000Y-97450000D02*
X110000000Y-97450000D01*
X107145000Y-106250000D02*
X107145000Y-102875000D01*
X107812500Y-93360000D02*
X107812500Y-96012500D01*
X107812500Y-96012500D02*
X109250000Y-97450000D01*
X110000000Y-97450000D02*
X110000000Y-91112500D01*
G04 #@! TO.N,Net-(C20-Pad1)*
X125000000Y-103800000D02*
X125000000Y-103000000D01*
X125687500Y-104487500D02*
X125000000Y-103800000D01*
X127200000Y-104487500D02*
X125687500Y-104487500D01*
X125000000Y-103000000D02*
X123796051Y-101796051D01*
X128900000Y-104537500D02*
X127250000Y-104537500D01*
X127250000Y-104537500D02*
X127200000Y-104487500D01*
G04 #@! TO.N,Net-(C24-Pad1)*
X120203949Y-96703949D02*
X120203949Y-98203949D01*
X118962500Y-95462500D02*
X120203949Y-96703949D01*
X116400000Y-95525000D02*
X117937500Y-95525000D01*
X118000000Y-95462500D02*
X118962500Y-95462500D01*
X117937500Y-95525000D02*
X118000000Y-95462500D01*
G04 #@! TO.N,Net-(J2-In)*
X132412500Y-93700000D02*
X132412500Y-92000000D01*
D27*
X132412500Y-92000000D02*
X132462500Y-91950000D01*
G04 #@! TO.N,+6V*
D29*
X125950000Y-92436528D02*
X125950000Y-90600000D01*
G04 #@! TO.N,Net-(C23-Pad1)*
D28*
X118030000Y-101430000D02*
X119460000Y-100000000D01*
X117967500Y-102737500D02*
X118030000Y-102675000D01*
X118030000Y-101960000D02*
X118030000Y-101430000D01*
X116430000Y-102737500D02*
X117967500Y-102737500D01*
X118030000Y-102675000D02*
X118030000Y-101960000D01*
G04 #@! TO.N,Net-(D3-K)*
X112060000Y-92670000D02*
X116530000Y-88200000D01*
X112060000Y-100490000D02*
X112060000Y-92670000D01*
X110000000Y-102550000D02*
X112060000Y-100490000D01*
X122000000Y-90300000D02*
X122855000Y-89445000D01*
X123600000Y-88700000D02*
X125950000Y-88700000D01*
X121610000Y-88200000D02*
X122855000Y-89445000D01*
X116530000Y-88200000D02*
X121610000Y-88200000D01*
X122000000Y-97460000D02*
X122000000Y-90300000D01*
X122855000Y-89445000D02*
X123600000Y-88700000D01*
G04 #@! TO.N,-9V*
D29*
X103960000Y-106250000D02*
X105320000Y-106250000D01*
G04 #@! TO.N,/Power Input/+5VIN*
X140000000Y-107132500D02*
X138975000Y-106107500D01*
X140000000Y-111217500D02*
X140000000Y-107132500D01*
G04 #@! TD*
G04 #@! TA.AperFunction,Conductor*
G04 #@! TO.N,+6V*
G36*
X141586195Y-86005581D02*
G01*
X141620841Y-86019937D01*
X141635189Y-86054586D01*
X141625831Y-86083382D01*
X141588366Y-86134949D01*
X141470420Y-86366429D01*
X141390140Y-86613506D01*
X141390139Y-86613509D01*
X141349500Y-86870103D01*
X141349500Y-87129896D01*
X141390139Y-87386490D01*
X141390140Y-87386493D01*
X141450677Y-87572808D01*
X141470421Y-87633572D01*
X141588366Y-87865051D01*
X141740540Y-88074501D01*
X141741070Y-88075230D01*
X141741074Y-88075235D01*
X141924765Y-88258926D01*
X141924769Y-88258929D01*
X141924771Y-88258931D01*
X142134949Y-88411634D01*
X142366428Y-88529579D01*
X142613507Y-88609860D01*
X142870103Y-88650500D01*
X142870104Y-88650500D01*
X143129896Y-88650500D01*
X143129897Y-88650500D01*
X143386493Y-88609860D01*
X143633572Y-88529579D01*
X143865051Y-88411634D01*
X143919109Y-88372358D01*
X143955574Y-88363604D01*
X143987551Y-88383199D01*
X143996909Y-88412001D01*
X143996909Y-92097334D01*
X143982557Y-92131982D01*
X143947909Y-92146334D01*
X143934238Y-92144388D01*
X143789415Y-92102312D01*
X143753674Y-92099500D01*
X143753672Y-92099500D01*
X136286328Y-92099500D01*
X136286325Y-92099500D01*
X136250585Y-92102312D01*
X136250583Y-92102312D01*
X136097604Y-92146758D01*
X135960495Y-92227844D01*
X135960490Y-92227848D01*
X135847848Y-92340490D01*
X135847844Y-92340495D01*
X135766758Y-92477604D01*
X135722312Y-92630583D01*
X135722312Y-92630585D01*
X135719500Y-92666325D01*
X135719500Y-92850500D01*
X135705148Y-92885148D01*
X135670500Y-92899500D01*
X135669031Y-92899500D01*
X135634383Y-92885148D01*
X134333315Y-91584080D01*
X134333313Y-91584077D01*
X134218716Y-91469480D01*
X134106371Y-91404618D01*
X134081785Y-91390423D01*
X134081784Y-91390422D01*
X134081783Y-91390422D01*
X134081781Y-91390421D01*
X133929060Y-91349499D01*
X133929057Y-91349499D01*
X133770943Y-91349499D01*
X133767946Y-91349499D01*
X133767930Y-91349500D01*
X133136762Y-91349500D01*
X133102114Y-91335148D01*
X133097722Y-91330112D01*
X133096500Y-91328500D01*
X133025290Y-91274500D01*
X133017435Y-91268543D01*
X132998499Y-91236172D01*
X133008000Y-91199892D01*
X133040371Y-91180956D01*
X133047043Y-91180500D01*
X133542730Y-91180500D01*
X133542730Y-91180499D01*
X133644588Y-91153207D01*
X133735913Y-91100480D01*
X134320480Y-90515913D01*
X134373207Y-90424588D01*
X134392967Y-90350837D01*
X134415796Y-90321085D01*
X134422311Y-90317940D01*
X134503658Y-90285862D01*
X134621500Y-90196500D01*
X134710862Y-90078658D01*
X134765117Y-89941077D01*
X134766494Y-89929618D01*
X134775500Y-89854621D01*
X134775500Y-89270378D01*
X134765118Y-89183927D01*
X134765117Y-89183925D01*
X134765117Y-89183923D01*
X134710862Y-89046342D01*
X134702373Y-89035148D01*
X134672215Y-88995378D01*
X134621500Y-88928500D01*
X134528942Y-88858311D01*
X134503660Y-88839139D01*
X134503658Y-88839138D01*
X134366077Y-88784883D01*
X134366075Y-88784882D01*
X134366071Y-88784881D01*
X134366072Y-88784881D01*
X134279621Y-88774500D01*
X134279618Y-88774500D01*
X133720382Y-88774500D01*
X133720379Y-88774500D01*
X133633927Y-88784881D01*
X133496339Y-88839139D01*
X133378500Y-88928500D01*
X133289139Y-89046339D01*
X133234881Y-89183927D01*
X133229587Y-89228014D01*
X133211206Y-89260704D01*
X133175094Y-89270821D01*
X133142404Y-89252440D01*
X133135356Y-89240152D01*
X133098362Y-89146342D01*
X133074483Y-89114852D01*
X133050456Y-89083167D01*
X133040500Y-89053560D01*
X133040500Y-88487000D01*
X133054852Y-88452352D01*
X133089500Y-88438000D01*
X133449716Y-88438000D01*
X133479324Y-88447957D01*
X133496342Y-88460862D01*
X133633923Y-88515117D01*
X133633926Y-88515117D01*
X133633928Y-88515118D01*
X133633927Y-88515118D01*
X133720379Y-88525500D01*
X133720382Y-88525500D01*
X134279621Y-88525500D01*
X134366072Y-88515118D01*
X134366073Y-88515117D01*
X134366077Y-88515117D01*
X134503658Y-88460862D01*
X134621500Y-88371500D01*
X134710862Y-88253658D01*
X134765117Y-88116077D01*
X134766633Y-88103460D01*
X134775500Y-88029621D01*
X134775500Y-87445378D01*
X134765118Y-87358927D01*
X134765117Y-87358925D01*
X134765117Y-87358923D01*
X134710862Y-87221342D01*
X134621500Y-87103500D01*
X134520676Y-87027043D01*
X134503660Y-87014139D01*
X134503658Y-87014138D01*
X134366077Y-86959883D01*
X134366075Y-86959882D01*
X134366071Y-86959881D01*
X134366072Y-86959881D01*
X134279621Y-86949500D01*
X134279618Y-86949500D01*
X133720382Y-86949500D01*
X133720379Y-86949500D01*
X133633927Y-86959881D01*
X133496339Y-87014139D01*
X133479324Y-87027043D01*
X133449716Y-87037000D01*
X132871001Y-87037000D01*
X132735681Y-87063917D01*
X132735670Y-87063920D01*
X132608192Y-87116723D01*
X132493460Y-87193383D01*
X132395883Y-87290960D01*
X132319223Y-87405692D01*
X132266420Y-87533170D01*
X132266417Y-87533181D01*
X132239500Y-87668501D01*
X132239500Y-87806491D01*
X132239736Y-87808887D01*
X132238744Y-87808984D01*
X132232047Y-87842623D01*
X132200870Y-87863450D01*
X132135678Y-87876417D01*
X132135669Y-87876420D01*
X132008192Y-87929223D01*
X131893460Y-88005883D01*
X131795883Y-88103460D01*
X131719223Y-88218192D01*
X131666420Y-88345670D01*
X131666417Y-88345681D01*
X131639500Y-88481001D01*
X131639500Y-89013999D01*
X131629544Y-89043606D01*
X131551639Y-89146340D01*
X131551638Y-89146341D01*
X131551638Y-89146342D01*
X131509799Y-89252440D01*
X131508084Y-89256788D01*
X131482022Y-89283755D01*
X131444524Y-89284396D01*
X131417557Y-89258334D01*
X131416916Y-89256788D01*
X131373362Y-89146342D01*
X131310456Y-89063387D01*
X131300500Y-89033780D01*
X131300500Y-88431007D01*
X131300499Y-88431001D01*
X131273582Y-88295681D01*
X131273579Y-88295670D01*
X131220775Y-88168189D01*
X131158174Y-88074500D01*
X131144116Y-88053460D01*
X131046539Y-87955883D01*
X130978074Y-87910137D01*
X130931811Y-87879225D01*
X130931808Y-87879223D01*
X130931807Y-87879223D01*
X130804329Y-87826420D01*
X130804318Y-87826417D01*
X130668998Y-87799500D01*
X130668993Y-87799500D01*
X130531007Y-87799500D01*
X130531001Y-87799500D01*
X130395681Y-87826417D01*
X130395670Y-87826420D01*
X130268192Y-87879223D01*
X130153460Y-87955883D01*
X130055883Y-88053460D01*
X129979223Y-88168192D01*
X129926420Y-88295670D01*
X129926417Y-88295681D01*
X129899500Y-88431001D01*
X129899500Y-89000500D01*
X129885148Y-89035148D01*
X129850500Y-89049500D01*
X129761651Y-89049500D01*
X129727003Y-89035148D01*
X129712651Y-89000500D01*
X129715400Y-88984318D01*
X129727567Y-88949549D01*
X129730500Y-88918272D01*
X129730500Y-88481728D01*
X129727567Y-88450451D01*
X129681469Y-88318711D01*
X129598589Y-88206411D01*
X129486289Y-88123531D01*
X129486287Y-88123530D01*
X129354546Y-88077432D01*
X129354547Y-88077432D01*
X129323283Y-88074501D01*
X129323282Y-88074500D01*
X129323272Y-88074500D01*
X129323262Y-88074500D01*
X129279500Y-88074500D01*
X129244852Y-88060148D01*
X129230500Y-88025500D01*
X129230500Y-87740940D01*
X129230499Y-87740939D01*
X129201730Y-87633572D01*
X129189577Y-87588216D01*
X129189576Y-87588215D01*
X129189576Y-87588213D01*
X129110524Y-87451290D01*
X129110521Y-87451287D01*
X129110520Y-87451284D01*
X128998716Y-87339480D01*
X128998713Y-87339478D01*
X128998709Y-87339475D01*
X128861786Y-87260423D01*
X128861782Y-87260422D01*
X128709060Y-87219500D01*
X128709057Y-87219500D01*
X128550943Y-87219500D01*
X128550940Y-87219500D01*
X128398217Y-87260422D01*
X128398213Y-87260423D01*
X128261290Y-87339475D01*
X128261281Y-87339482D01*
X128149482Y-87451281D01*
X128149475Y-87451290D01*
X128070423Y-87588213D01*
X128070422Y-87588217D01*
X128029500Y-87740939D01*
X128029500Y-88025500D01*
X128015148Y-88060148D01*
X127980500Y-88074500D01*
X127976728Y-88074500D01*
X127976718Y-88074500D01*
X127976716Y-88074501D01*
X127945452Y-88077432D01*
X127813712Y-88123530D01*
X127701411Y-88206411D01*
X127618530Y-88318712D01*
X127572432Y-88450452D01*
X127569501Y-88481716D01*
X127569500Y-88481737D01*
X127569500Y-88918262D01*
X127569501Y-88918283D01*
X127572432Y-88949547D01*
X127572432Y-88949549D01*
X127618528Y-89081284D01*
X127618529Y-89081287D01*
X127666217Y-89145904D01*
X127675244Y-89182304D01*
X127666217Y-89204096D01*
X127618529Y-89268712D01*
X127618528Y-89268715D01*
X127572432Y-89400450D01*
X127572432Y-89400452D01*
X127569501Y-89431716D01*
X127569500Y-89431737D01*
X127569500Y-89868262D01*
X127569501Y-89868283D01*
X127572432Y-89899547D01*
X127572432Y-89899549D01*
X127618528Y-90031284D01*
X127618529Y-90031287D01*
X127666217Y-90095904D01*
X127675244Y-90132304D01*
X127666217Y-90154096D01*
X127618529Y-90218712D01*
X127618528Y-90218715D01*
X127572432Y-90350450D01*
X127572432Y-90350452D01*
X127569501Y-90381716D01*
X127569500Y-90381737D01*
X127569500Y-90818262D01*
X127569501Y-90818283D01*
X127572432Y-90849547D01*
X127610352Y-90957914D01*
X127618531Y-90981289D01*
X127701411Y-91093589D01*
X127813711Y-91176469D01*
X127945451Y-91222567D01*
X127976728Y-91225500D01*
X128150500Y-91225500D01*
X128185148Y-91239852D01*
X128199500Y-91274500D01*
X128199500Y-91637242D01*
X128185148Y-91671890D01*
X128150500Y-91686242D01*
X128132525Y-91682826D01*
X128110584Y-91674174D01*
X128103577Y-91671411D01*
X128103576Y-91671410D01*
X128103574Y-91671410D01*
X128103572Y-91671409D01*
X128017121Y-91661028D01*
X128017118Y-91661028D01*
X127332882Y-91661028D01*
X127332879Y-91661028D01*
X127246427Y-91671409D01*
X127108839Y-91725667D01*
X126991000Y-91815028D01*
X126901639Y-91932867D01*
X126847381Y-92070455D01*
X126837000Y-92156906D01*
X126837000Y-92716149D01*
X126847381Y-92802600D01*
X126847383Y-92802605D01*
X126895692Y-92925109D01*
X126901639Y-92940188D01*
X126919801Y-92964138D01*
X126964543Y-93023139D01*
X126974500Y-93052746D01*
X126974500Y-93618998D01*
X127001417Y-93754318D01*
X127001420Y-93754329D01*
X127048801Y-93868716D01*
X127054225Y-93881811D01*
X127062240Y-93893806D01*
X127130883Y-93996539D01*
X127228460Y-94094116D01*
X127274102Y-94124613D01*
X127343189Y-94170775D01*
X127470672Y-94223580D01*
X127470678Y-94223581D01*
X127470681Y-94223582D01*
X127606001Y-94250499D01*
X127606007Y-94250500D01*
X127743993Y-94250500D01*
X127879328Y-94223580D01*
X128006811Y-94170775D01*
X128121542Y-94094114D01*
X128121541Y-94094114D01*
X128123277Y-94092955D01*
X128160060Y-94085639D01*
X128191242Y-94106474D01*
X128199500Y-94133697D01*
X128199500Y-94363811D01*
X128185148Y-94398459D01*
X127379521Y-95204086D01*
X127379520Y-95204086D01*
X127326794Y-95295408D01*
X127326793Y-95295412D01*
X127312876Y-95347353D01*
X127312876Y-95347354D01*
X127299500Y-95397271D01*
X127299500Y-97377607D01*
X127285148Y-97412255D01*
X127268477Y-97423190D01*
X127196341Y-97451638D01*
X127078500Y-97541000D01*
X126989139Y-97658839D01*
X126934881Y-97796427D01*
X126924500Y-97882878D01*
X126924500Y-98467121D01*
X126934881Y-98553572D01*
X126934883Y-98553577D01*
X126967629Y-98636616D01*
X126989139Y-98691160D01*
X126997015Y-98701546D01*
X127078500Y-98809000D01*
X127196342Y-98898362D01*
X127333923Y-98952617D01*
X127333926Y-98952617D01*
X127333928Y-98952618D01*
X127333927Y-98952618D01*
X127420379Y-98963000D01*
X127420382Y-98963000D01*
X127979621Y-98963000D01*
X128066072Y-98952618D01*
X128066073Y-98952617D01*
X128066077Y-98952617D01*
X128203658Y-98898362D01*
X128321500Y-98809000D01*
X128410862Y-98691158D01*
X128414230Y-98682615D01*
X128424521Y-98656524D01*
X128450583Y-98629556D01*
X128470104Y-98625500D01*
X128640462Y-98625500D01*
X128675110Y-98639852D01*
X128686043Y-98656520D01*
X128730801Y-98770016D01*
X128739139Y-98791160D01*
X128744336Y-98798013D01*
X128828500Y-98909000D01*
X128899710Y-98963000D01*
X128935143Y-98989870D01*
X128946342Y-98998362D01*
X129056788Y-99041916D01*
X129083755Y-99067978D01*
X129084396Y-99105476D01*
X129058334Y-99132443D01*
X129056804Y-99133077D01*
X128986052Y-99160978D01*
X128946339Y-99176639D01*
X128828500Y-99266000D01*
X128739139Y-99383839D01*
X128739138Y-99383842D01*
X128686044Y-99518477D01*
X128659984Y-99545443D01*
X128640462Y-99549500D01*
X128470104Y-99549500D01*
X128435456Y-99535148D01*
X128424521Y-99518476D01*
X128410862Y-99483842D01*
X128364730Y-99423008D01*
X128321500Y-99366000D01*
X128222075Y-99290604D01*
X128203660Y-99276639D01*
X128203658Y-99276638D01*
X128066077Y-99222383D01*
X128066075Y-99222382D01*
X128066071Y-99222381D01*
X128066072Y-99222381D01*
X127979621Y-99212000D01*
X127979618Y-99212000D01*
X127420382Y-99212000D01*
X127420379Y-99212000D01*
X127333927Y-99222381D01*
X127196339Y-99276639D01*
X127078500Y-99366000D01*
X126989137Y-99483842D01*
X126955761Y-99568476D01*
X126929699Y-99595444D01*
X126910178Y-99599500D01*
X125543902Y-99599500D01*
X125509254Y-99585148D01*
X125498632Y-99569252D01*
X125470942Y-99502405D01*
X125470941Y-99502403D01*
X125470941Y-99502402D01*
X125355977Y-99330345D01*
X125209655Y-99184023D01*
X125198602Y-99176638D01*
X125092100Y-99105476D01*
X125037598Y-99069059D01*
X125037596Y-99069058D01*
X124846423Y-98989871D01*
X124846410Y-98989867D01*
X124642877Y-98949382D01*
X124611695Y-98928547D01*
X124604379Y-98891764D01*
X124611695Y-98874101D01*
X124612025Y-98873606D01*
X124612028Y-98873604D01*
X124726992Y-98701547D01*
X124747302Y-98652511D01*
X124773818Y-98625994D01*
X124811321Y-98625993D01*
X124827219Y-98636616D01*
X124890069Y-98699466D01*
X124948742Y-98738670D01*
X125037555Y-98798013D01*
X125201436Y-98865894D01*
X125201442Y-98865895D01*
X125201445Y-98865896D01*
X125375405Y-98900499D01*
X125375411Y-98900500D01*
X125552793Y-98900500D01*
X125688007Y-98873604D01*
X125726758Y-98865896D01*
X125726758Y-98865895D01*
X125726768Y-98865894D01*
X125890649Y-98798013D01*
X126038137Y-98699464D01*
X126163566Y-98574035D01*
X126262115Y-98426547D01*
X126329996Y-98262666D01*
X126364602Y-98088691D01*
X126364602Y-97911309D01*
X126364601Y-97911303D01*
X126329998Y-97737343D01*
X126329995Y-97737332D01*
X126328407Y-97733497D01*
X126262115Y-97573453D01*
X126180721Y-97451639D01*
X126163568Y-97425967D01*
X126038134Y-97300533D01*
X125950123Y-97241726D01*
X125890649Y-97201987D01*
X125890646Y-97201985D01*
X125890645Y-97201985D01*
X125726769Y-97134106D01*
X125726758Y-97134103D01*
X125552798Y-97099500D01*
X125552793Y-97099500D01*
X125375411Y-97099500D01*
X125375405Y-97099500D01*
X125201445Y-97134103D01*
X125201434Y-97134106D01*
X125037558Y-97201985D01*
X124890069Y-97300533D01*
X124764635Y-97425967D01*
X124692883Y-97533352D01*
X124661700Y-97554188D01*
X124624918Y-97546871D01*
X124613911Y-97535867D01*
X124613558Y-97536158D01*
X124612028Y-97534294D01*
X124465705Y-97387971D01*
X124334843Y-97300533D01*
X124293649Y-97273008D01*
X124293647Y-97273007D01*
X124102474Y-97193820D01*
X124102468Y-97193818D01*
X124020623Y-97177538D01*
X123899516Y-97153449D01*
X123692586Y-97153449D01*
X123591571Y-97173541D01*
X123489633Y-97193818D01*
X123489627Y-97193820D01*
X123298454Y-97273007D01*
X123125898Y-97388304D01*
X123089115Y-97395620D01*
X123057933Y-97374785D01*
X123050617Y-97357121D01*
X123010132Y-97153591D01*
X123010132Y-97153590D01*
X123010130Y-97153580D01*
X122930941Y-96962402D01*
X122815977Y-96790345D01*
X122669655Y-96644023D01*
X122497598Y-96529059D01*
X122497595Y-96529057D01*
X122497594Y-96529057D01*
X122430748Y-96501368D01*
X122404230Y-96474849D01*
X122400500Y-96456098D01*
X122400500Y-92720664D01*
X125162500Y-92720664D01*
X125168741Y-92778715D01*
X125168743Y-92778723D01*
X125217730Y-92910062D01*
X125301741Y-93022286D01*
X125413965Y-93106297D01*
X125545304Y-93155284D01*
X125545312Y-93155286D01*
X125603363Y-93161528D01*
X125900000Y-93161528D01*
X126000000Y-93161528D01*
X126296637Y-93161528D01*
X126354687Y-93155286D01*
X126354695Y-93155284D01*
X126486034Y-93106297D01*
X126598258Y-93022286D01*
X126682269Y-92910062D01*
X126731256Y-92778723D01*
X126731258Y-92778715D01*
X126737500Y-92720664D01*
X126737500Y-92486528D01*
X126000000Y-92486528D01*
X126000000Y-93161528D01*
X125900000Y-93161528D01*
X125900000Y-92486528D01*
X125162500Y-92486528D01*
X125162500Y-92720664D01*
X122400500Y-92720664D01*
X122400500Y-92152391D01*
X125162500Y-92152391D01*
X125162500Y-92386528D01*
X125900000Y-92386528D01*
X126000000Y-92386528D01*
X126737500Y-92386528D01*
X126737500Y-92152391D01*
X126731258Y-92094340D01*
X126731256Y-92094332D01*
X126682269Y-91962993D01*
X126598258Y-91850769D01*
X126486034Y-91766758D01*
X126354695Y-91717771D01*
X126354687Y-91717769D01*
X126296637Y-91711528D01*
X126000000Y-91711528D01*
X126000000Y-92386528D01*
X125900000Y-92386528D01*
X125900000Y-91711528D01*
X125603363Y-91711528D01*
X125545312Y-91717769D01*
X125545304Y-91717771D01*
X125413965Y-91766758D01*
X125301741Y-91850769D01*
X125217730Y-91962993D01*
X125168743Y-92094332D01*
X125168741Y-92094340D01*
X125162500Y-92152391D01*
X122400500Y-92152391D01*
X122400500Y-90794962D01*
X124920001Y-90794962D01*
X124935298Y-90891558D01*
X124994616Y-91007977D01*
X124994621Y-91007984D01*
X125087015Y-91100378D01*
X125087022Y-91100383D01*
X125203438Y-91159699D01*
X125300036Y-91174999D01*
X125899999Y-91174999D01*
X126000000Y-91174999D01*
X126599963Y-91174999D01*
X126696558Y-91159701D01*
X126812977Y-91100383D01*
X126812984Y-91100378D01*
X126905378Y-91007984D01*
X126905383Y-91007977D01*
X126964699Y-90891561D01*
X126980000Y-90794963D01*
X126980000Y-90650000D01*
X126000000Y-90650000D01*
X126000000Y-91174999D01*
X125899999Y-91174999D01*
X125900000Y-91174998D01*
X125900000Y-90650000D01*
X124920001Y-90650000D01*
X124920001Y-90794962D01*
X122400500Y-90794962D01*
X122400500Y-90486187D01*
X122414851Y-90451540D01*
X122461355Y-90405036D01*
X124920000Y-90405036D01*
X124920000Y-90550000D01*
X125900000Y-90550000D01*
X126000000Y-90550000D01*
X126979999Y-90550000D01*
X126979999Y-90405037D01*
X126964701Y-90308441D01*
X126905383Y-90192022D01*
X126905378Y-90192015D01*
X126812984Y-90099621D01*
X126812977Y-90099616D01*
X126696561Y-90040300D01*
X126599963Y-90025000D01*
X126000000Y-90025000D01*
X126000000Y-90550000D01*
X125900000Y-90550000D01*
X125900000Y-90025000D01*
X125300037Y-90025000D01*
X125203441Y-90040298D01*
X125087022Y-90099616D01*
X125087015Y-90099621D01*
X124994621Y-90192015D01*
X124994616Y-90192022D01*
X124935300Y-90308438D01*
X124920000Y-90405036D01*
X122461355Y-90405036D01*
X123096878Y-89769512D01*
X123096883Y-89769509D01*
X123100911Y-89765480D01*
X123100913Y-89765480D01*
X123751541Y-89114852D01*
X123786189Y-89100500D01*
X124907973Y-89100500D01*
X124942621Y-89114852D01*
X124947391Y-89120394D01*
X125001411Y-89193589D01*
X125113711Y-89276469D01*
X125245451Y-89322567D01*
X125276728Y-89325500D01*
X125276738Y-89325500D01*
X126623262Y-89325500D01*
X126623272Y-89325500D01*
X126654549Y-89322567D01*
X126786289Y-89276469D01*
X126898589Y-89193589D01*
X126981469Y-89081289D01*
X127027567Y-88949549D01*
X127030500Y-88918272D01*
X127030500Y-88481728D01*
X127027567Y-88450451D01*
X126981469Y-88318711D01*
X126898589Y-88206411D01*
X126786289Y-88123531D01*
X126786287Y-88123530D01*
X126654546Y-88077432D01*
X126654547Y-88077432D01*
X126623283Y-88074501D01*
X126623282Y-88074500D01*
X126623272Y-88074500D01*
X125276728Y-88074500D01*
X125276718Y-88074500D01*
X125276716Y-88074501D01*
X125245452Y-88077432D01*
X125113712Y-88123530D01*
X125001411Y-88206411D01*
X124947397Y-88279598D01*
X124915277Y-88298953D01*
X124907973Y-88299500D01*
X123547270Y-88299500D01*
X123445412Y-88326792D01*
X123445410Y-88326793D01*
X123354086Y-88379520D01*
X123354086Y-88379521D01*
X122889648Y-88843959D01*
X122855000Y-88858311D01*
X122820352Y-88843959D01*
X121855913Y-87879520D01*
X121764589Y-87826793D01*
X121764587Y-87826792D01*
X121662730Y-87799500D01*
X121662727Y-87799500D01*
X116585740Y-87799500D01*
X116585724Y-87799499D01*
X116582727Y-87799499D01*
X116477273Y-87799499D01*
X116477271Y-87799499D01*
X116376816Y-87826417D01*
X116376805Y-87826420D01*
X116375413Y-87826793D01*
X116375412Y-87826793D01*
X116375410Y-87826794D01*
X116284086Y-87879520D01*
X116284086Y-87879521D01*
X111739521Y-92424086D01*
X111739520Y-92424086D01*
X111686793Y-92515410D01*
X111686792Y-92515412D01*
X111674959Y-92559577D01*
X111659500Y-92617269D01*
X111659500Y-100303810D01*
X111645148Y-100338458D01*
X110226865Y-101756740D01*
X110192217Y-101771092D01*
X110182658Y-101770150D01*
X110078847Y-101749500D01*
X110078842Y-101749500D01*
X109921158Y-101749500D01*
X109921152Y-101749500D01*
X109766512Y-101780260D01*
X109766501Y-101780263D01*
X109620824Y-101840604D01*
X109489711Y-101928210D01*
X109378210Y-102039711D01*
X109290604Y-102170824D01*
X109230263Y-102316501D01*
X109230260Y-102316512D01*
X109199500Y-102471152D01*
X109199500Y-102628847D01*
X109230260Y-102783487D01*
X109230263Y-102783498D01*
X109288050Y-102923008D01*
X109290606Y-102929179D01*
X109315956Y-102967118D01*
X109359164Y-103031784D01*
X109378211Y-103060289D01*
X109489711Y-103171789D01*
X109620821Y-103259394D01*
X109766503Y-103319737D01*
X109766509Y-103319738D01*
X109766512Y-103319739D01*
X109921152Y-103350499D01*
X109921158Y-103350500D01*
X110078842Y-103350500D01*
X110233497Y-103319737D01*
X110379179Y-103259394D01*
X110510289Y-103171789D01*
X110621789Y-103060289D01*
X110709394Y-102929179D01*
X110769737Y-102783497D01*
X110800500Y-102628842D01*
X110800500Y-102471158D01*
X110779848Y-102367338D01*
X110787164Y-102330559D01*
X110793253Y-102323138D01*
X112380480Y-100735913D01*
X112433207Y-100644588D01*
X112460499Y-100542730D01*
X112460500Y-100542730D01*
X112460500Y-92856188D01*
X112474852Y-92821540D01*
X116681540Y-88614852D01*
X116716188Y-88600500D01*
X121423811Y-88600500D01*
X121458459Y-88614852D01*
X122253959Y-89410352D01*
X122268311Y-89445000D01*
X122253959Y-89479648D01*
X121679521Y-90054086D01*
X121679520Y-90054086D01*
X121626793Y-90145410D01*
X121626792Y-90145412D01*
X121599500Y-90247269D01*
X121599500Y-96456098D01*
X121585148Y-96490746D01*
X121569252Y-96501368D01*
X121502405Y-96529057D01*
X121330345Y-96644022D01*
X121184022Y-96790345D01*
X121069058Y-96962403D01*
X120989871Y-97153576D01*
X120989867Y-97153590D01*
X120949382Y-97357122D01*
X120928547Y-97388304D01*
X120891764Y-97395620D01*
X120874101Y-97388304D01*
X120826555Y-97356535D01*
X120701547Y-97273008D01*
X120701544Y-97273006D01*
X120701543Y-97273006D01*
X120634697Y-97245317D01*
X120608179Y-97218798D01*
X120604449Y-97200047D01*
X120604449Y-96651219D01*
X120604448Y-96651218D01*
X120578826Y-96555594D01*
X120578825Y-96555590D01*
X120578825Y-96555591D01*
X120577156Y-96549362D01*
X120577156Y-96549361D01*
X120524429Y-96458036D01*
X119208413Y-95142020D01*
X119178068Y-95124500D01*
X119117089Y-95089293D01*
X119117087Y-95089292D01*
X119015230Y-95062000D01*
X119015227Y-95062000D01*
X118809538Y-95062000D01*
X118774890Y-95047648D01*
X118763956Y-95030979D01*
X118710862Y-94896342D01*
X118621500Y-94778500D01*
X118551410Y-94725349D01*
X118503660Y-94689139D01*
X118503658Y-94689138D01*
X118393209Y-94645582D01*
X118366244Y-94619522D01*
X118365603Y-94582024D01*
X118391665Y-94555057D01*
X118393175Y-94554430D01*
X118503658Y-94510862D01*
X118621500Y-94421500D01*
X118710862Y-94303658D01*
X118765117Y-94166077D01*
X118766766Y-94152352D01*
X118775500Y-94079621D01*
X118775500Y-93395378D01*
X118765118Y-93308927D01*
X118765117Y-93308925D01*
X118765117Y-93308923D01*
X118710862Y-93171342D01*
X118699141Y-93155886D01*
X118691588Y-93145925D01*
X118621500Y-93053500D01*
X118537364Y-92989698D01*
X118503660Y-92964139D01*
X118503658Y-92964138D01*
X118366077Y-92909883D01*
X118366075Y-92909882D01*
X118366071Y-92909881D01*
X118366072Y-92909881D01*
X118279621Y-92899500D01*
X118279618Y-92899500D01*
X117720382Y-92899500D01*
X117720379Y-92899500D01*
X117633927Y-92909881D01*
X117496339Y-92964139D01*
X117378500Y-93053500D01*
X117289139Y-93171339D01*
X117243119Y-93288038D01*
X117217056Y-93315005D01*
X117179559Y-93315646D01*
X117152592Y-93289583D01*
X117151963Y-93288069D01*
X117110862Y-93183842D01*
X117021500Y-93066000D01*
X116922306Y-92990779D01*
X116903660Y-92976639D01*
X116903658Y-92976638D01*
X116766077Y-92922383D01*
X116766075Y-92922382D01*
X116766071Y-92922381D01*
X116766072Y-92922381D01*
X116679621Y-92912000D01*
X116679618Y-92912000D01*
X116120382Y-92912000D01*
X116120379Y-92912000D01*
X116033927Y-92922381D01*
X115896339Y-92976639D01*
X115778500Y-93066000D01*
X115689139Y-93183839D01*
X115689138Y-93183842D01*
X115648049Y-93288038D01*
X115640975Y-93305976D01*
X115614913Y-93332943D01*
X115595391Y-93337000D01*
X114509770Y-93337000D01*
X114407912Y-93364292D01*
X114407909Y-93364293D01*
X114387437Y-93376114D01*
X114316586Y-93417020D01*
X114316586Y-93417021D01*
X113779521Y-93954086D01*
X113779520Y-93954086D01*
X113726793Y-94045410D01*
X113726792Y-94045412D01*
X113701985Y-94137998D01*
X113699500Y-94147272D01*
X113699500Y-103652730D01*
X113726792Y-103754587D01*
X113726793Y-103754589D01*
X113779520Y-103845913D01*
X114716587Y-104782980D01*
X114759886Y-104807979D01*
X114807910Y-104835706D01*
X114807912Y-104835707D01*
X114909769Y-104862999D01*
X114909770Y-104863000D01*
X114909773Y-104863000D01*
X115439773Y-104863000D01*
X115620462Y-104863000D01*
X115655110Y-104877352D01*
X115666043Y-104894020D01*
X115716096Y-105020943D01*
X115719139Y-105028660D01*
X115755349Y-105076410D01*
X115808500Y-105146500D01*
X115926342Y-105235862D01*
X116063923Y-105290117D01*
X116063926Y-105290117D01*
X116063928Y-105290118D01*
X116063927Y-105290118D01*
X116150379Y-105300500D01*
X116150382Y-105300500D01*
X116709621Y-105300500D01*
X116796072Y-105290118D01*
X116796073Y-105290117D01*
X116796077Y-105290117D01*
X116933658Y-105235862D01*
X117051500Y-105146500D01*
X117140862Y-105028658D01*
X117186882Y-104911958D01*
X117212942Y-104884994D01*
X117250440Y-104884353D01*
X117277407Y-104910415D01*
X117278047Y-104911959D01*
X117288316Y-104938000D01*
X117319139Y-105016160D01*
X117355349Y-105063910D01*
X117408500Y-105134000D01*
X117467917Y-105179057D01*
X117526340Y-105223361D01*
X117526341Y-105223361D01*
X117526342Y-105223362D01*
X117608475Y-105255750D01*
X117635443Y-105281812D01*
X117639500Y-105301334D01*
X117639500Y-107592730D01*
X117666792Y-107694587D01*
X117666793Y-107694589D01*
X117681185Y-107719516D01*
X117719520Y-107785913D01*
X118229087Y-108295480D01*
X118295938Y-108334077D01*
X118320410Y-108348206D01*
X118320412Y-108348207D01*
X118422269Y-108375499D01*
X118422270Y-108375500D01*
X118422273Y-108375500D01*
X118527727Y-108375500D01*
X118690462Y-108375500D01*
X118725110Y-108389852D01*
X118736043Y-108406520D01*
X118780801Y-108520016D01*
X118789139Y-108541160D01*
X118811400Y-108570515D01*
X118878500Y-108659000D01*
X118970925Y-108729088D01*
X118992546Y-108745484D01*
X118996342Y-108748362D01*
X119133923Y-108802617D01*
X119133926Y-108802617D01*
X119133928Y-108802618D01*
X119133927Y-108802618D01*
X119220379Y-108813000D01*
X119220382Y-108813000D01*
X119779621Y-108813000D01*
X119866072Y-108802618D01*
X119866073Y-108802617D01*
X119866077Y-108802617D01*
X120003658Y-108748362D01*
X120121500Y-108659000D01*
X120210862Y-108541158D01*
X120254417Y-108430709D01*
X120280478Y-108403744D01*
X120317976Y-108403103D01*
X120344943Y-108429165D01*
X120345569Y-108430675D01*
X120380801Y-108520016D01*
X120389139Y-108541160D01*
X120411400Y-108570515D01*
X120478500Y-108659000D01*
X120570925Y-108729088D01*
X120592546Y-108745484D01*
X120596342Y-108748362D01*
X120733923Y-108802617D01*
X120733926Y-108802617D01*
X120733928Y-108802618D01*
X120733927Y-108802618D01*
X120820379Y-108813000D01*
X120820382Y-108813000D01*
X121379621Y-108813000D01*
X121466072Y-108802618D01*
X121466073Y-108802617D01*
X121466077Y-108802617D01*
X121603658Y-108748362D01*
X121721500Y-108659000D01*
X121810862Y-108541158D01*
X121863955Y-108406522D01*
X121890016Y-108379557D01*
X121909538Y-108375500D01*
X122890462Y-108375500D01*
X122925110Y-108389852D01*
X122936043Y-108406520D01*
X122980801Y-108520016D01*
X122989139Y-108541160D01*
X123011400Y-108570515D01*
X123078500Y-108659000D01*
X123170925Y-108729088D01*
X123192546Y-108745484D01*
X123196342Y-108748362D01*
X123333923Y-108802617D01*
X123333926Y-108802617D01*
X123333928Y-108802618D01*
X123333927Y-108802618D01*
X123420379Y-108813000D01*
X123420382Y-108813000D01*
X123979621Y-108813000D01*
X124066072Y-108802618D01*
X124066073Y-108802617D01*
X124066077Y-108802617D01*
X124203658Y-108748362D01*
X124321500Y-108659000D01*
X124410862Y-108541158D01*
X124454417Y-108430709D01*
X124480478Y-108403744D01*
X124517976Y-108403103D01*
X124544943Y-108429165D01*
X124545569Y-108430675D01*
X124580801Y-108520016D01*
X124589139Y-108541160D01*
X124611400Y-108570515D01*
X124678500Y-108659000D01*
X124770925Y-108729088D01*
X124792546Y-108745484D01*
X124796342Y-108748362D01*
X124933923Y-108802617D01*
X124933926Y-108802617D01*
X124933928Y-108802618D01*
X124933927Y-108802618D01*
X125020379Y-108813000D01*
X125020382Y-108813000D01*
X125579621Y-108813000D01*
X125666072Y-108802618D01*
X125666073Y-108802617D01*
X125666077Y-108802617D01*
X125803658Y-108748362D01*
X125921500Y-108659000D01*
X126010862Y-108541158D01*
X126063955Y-108406522D01*
X126090016Y-108379557D01*
X126109538Y-108375500D01*
X126877730Y-108375500D01*
X126877730Y-108375499D01*
X126979588Y-108348207D01*
X127070913Y-108295480D01*
X127520480Y-107845913D01*
X127573207Y-107754588D01*
X127582605Y-107719515D01*
X127598546Y-107660022D01*
X133799500Y-107660022D01*
X133799500Y-107804977D01*
X133837015Y-107944983D01*
X133837016Y-107944987D01*
X133880335Y-108020016D01*
X133909491Y-108070515D01*
X134011985Y-108173009D01*
X134027558Y-108182000D01*
X134137512Y-108245483D01*
X134137514Y-108245483D01*
X134137515Y-108245484D01*
X134172517Y-108254863D01*
X134277522Y-108283000D01*
X134277525Y-108283000D01*
X134422477Y-108283000D01*
X134492480Y-108264242D01*
X134562485Y-108245484D01*
X134688015Y-108173009D01*
X134701002Y-108160022D01*
X135049500Y-108160022D01*
X135049500Y-108304977D01*
X135087015Y-108444983D01*
X135087016Y-108444987D01*
X135142543Y-108541160D01*
X135159491Y-108570515D01*
X135261985Y-108673009D01*
X135307930Y-108699535D01*
X135387512Y-108745483D01*
X135387514Y-108745483D01*
X135387515Y-108745484D01*
X135398256Y-108748362D01*
X135527522Y-108783000D01*
X135527525Y-108783000D01*
X135672477Y-108783000D01*
X135742480Y-108764242D01*
X135812485Y-108745484D01*
X135938015Y-108673009D01*
X135951002Y-108660022D01*
X136549500Y-108660022D01*
X136549500Y-108804977D01*
X136587015Y-108944983D01*
X136587016Y-108944987D01*
X136659491Y-109070515D01*
X136761985Y-109173009D01*
X136807930Y-109199535D01*
X136887512Y-109245483D01*
X136887514Y-109245483D01*
X136887515Y-109245484D01*
X136922517Y-109254863D01*
X137027522Y-109283000D01*
X137027525Y-109283000D01*
X137172477Y-109283000D01*
X137242480Y-109264242D01*
X137312485Y-109245484D01*
X137438015Y-109173009D01*
X137540509Y-109070515D01*
X137612984Y-108944985D01*
X137648350Y-108813000D01*
X137650500Y-108804977D01*
X137650500Y-108660022D01*
X137612984Y-108520016D01*
X137612983Y-108520012D01*
X137561424Y-108430711D01*
X137540509Y-108394485D01*
X137438015Y-108291991D01*
X137422442Y-108283000D01*
X137312487Y-108219516D01*
X137312483Y-108219515D01*
X137172478Y-108182000D01*
X137172475Y-108182000D01*
X137027525Y-108182000D01*
X137027522Y-108182000D01*
X136887516Y-108219515D01*
X136887512Y-108219516D01*
X136761984Y-108291991D01*
X136761984Y-108291992D01*
X136659492Y-108394484D01*
X136659491Y-108394484D01*
X136587016Y-108520012D01*
X136587015Y-108520016D01*
X136549500Y-108660022D01*
X135951002Y-108660022D01*
X136040509Y-108570515D01*
X136112984Y-108444985D01*
X136138916Y-108348206D01*
X136150500Y-108304977D01*
X136150500Y-108160022D01*
X136112984Y-108020016D01*
X136112983Y-108020012D01*
X136040508Y-107894484D01*
X135938015Y-107791991D01*
X135812487Y-107719516D01*
X135812483Y-107719515D01*
X135672478Y-107682000D01*
X135672475Y-107682000D01*
X135527525Y-107682000D01*
X135527522Y-107682000D01*
X135387516Y-107719515D01*
X135387512Y-107719516D01*
X135261984Y-107791991D01*
X135261984Y-107791992D01*
X135159492Y-107894484D01*
X135159491Y-107894484D01*
X135087016Y-108020012D01*
X135087015Y-108020016D01*
X135049500Y-108160022D01*
X134701002Y-108160022D01*
X134790509Y-108070515D01*
X134862984Y-107944985D01*
X134881742Y-107874980D01*
X134900500Y-107804977D01*
X134900500Y-107660022D01*
X134862984Y-107520016D01*
X134862983Y-107520012D01*
X134790508Y-107394484D01*
X134688015Y-107291991D01*
X134562487Y-107219516D01*
X134562483Y-107219515D01*
X134422478Y-107182000D01*
X134422475Y-107182000D01*
X134277525Y-107182000D01*
X134277522Y-107182000D01*
X134137516Y-107219515D01*
X134137512Y-107219516D01*
X134011984Y-107291991D01*
X134011984Y-107291992D01*
X133909492Y-107394484D01*
X133909491Y-107394484D01*
X133837016Y-107520012D01*
X133837015Y-107520016D01*
X133799500Y-107660022D01*
X127598546Y-107660022D01*
X127600500Y-107652730D01*
X127600500Y-107109891D01*
X127614852Y-107075243D01*
X127631520Y-107064308D01*
X127703658Y-107035862D01*
X127821500Y-106946500D01*
X127910862Y-106828658D01*
X127918254Y-106809912D01*
X127944239Y-106744024D01*
X127970301Y-106717056D01*
X127989822Y-106713000D01*
X128110178Y-106713000D01*
X128144826Y-106727352D01*
X128155761Y-106744024D01*
X128189137Y-106828657D01*
X128193188Y-106833999D01*
X128278500Y-106946500D01*
X128368987Y-107015118D01*
X128382677Y-107025500D01*
X128396342Y-107035862D01*
X128533923Y-107090117D01*
X128533926Y-107090117D01*
X128533928Y-107090118D01*
X128533927Y-107090118D01*
X128620379Y-107100500D01*
X128620382Y-107100500D01*
X129179621Y-107100500D01*
X129266072Y-107090118D01*
X129266073Y-107090117D01*
X129266077Y-107090117D01*
X129403658Y-107035862D01*
X129521500Y-106946500D01*
X129610862Y-106828658D01*
X129663955Y-106694022D01*
X129690016Y-106667057D01*
X129709538Y-106663000D01*
X129890230Y-106663000D01*
X129890230Y-106662999D01*
X129992088Y-106635707D01*
X130083413Y-106582980D01*
X130541878Y-106124512D01*
X130541883Y-106124509D01*
X130545911Y-106120480D01*
X130545913Y-106120480D01*
X130620480Y-106045913D01*
X130664088Y-105970382D01*
X130673207Y-105954588D01*
X130700499Y-105852730D01*
X130700500Y-105852730D01*
X130700500Y-105420939D01*
X132155499Y-105420939D01*
X132155499Y-105579060D01*
X132196421Y-105731782D01*
X132196422Y-105731786D01*
X132275474Y-105868709D01*
X132275477Y-105868713D01*
X132275479Y-105868716D01*
X132387283Y-105980520D01*
X132387286Y-105980521D01*
X132387289Y-105980524D01*
X132524212Y-106059576D01*
X132524214Y-106059576D01*
X132524215Y-106059577D01*
X132644664Y-106091851D01*
X132676938Y-106100499D01*
X132676939Y-106100500D01*
X132676942Y-106100500D01*
X132835059Y-106100500D01*
X132835059Y-106100499D01*
X132987783Y-106059577D01*
X132987785Y-106059576D01*
X133024287Y-106038502D01*
X138274500Y-106038502D01*
X138274500Y-106176497D01*
X138301418Y-106311820D01*
X138301420Y-106311829D01*
X138354223Y-106439307D01*
X138354225Y-106439311D01*
X138405561Y-106516141D01*
X138430885Y-106554042D01*
X139285148Y-107408305D01*
X139299500Y-107442953D01*
X139299500Y-110472732D01*
X139285148Y-110507380D01*
X139247794Y-110544733D01*
X139202415Y-110647506D01*
X139199500Y-110672634D01*
X139199500Y-111762358D01*
X139199501Y-111762368D01*
X139202415Y-111787492D01*
X139247794Y-111890266D01*
X139330445Y-111972917D01*
X139329246Y-111974115D01*
X139346156Y-112000055D01*
X139338734Y-112036290D01*
X139290606Y-112108319D01*
X139290604Y-112108323D01*
X139230263Y-112254001D01*
X139230260Y-112254012D01*
X139199500Y-112408652D01*
X139199500Y-112566347D01*
X139230260Y-112720987D01*
X139230263Y-112720998D01*
X139290604Y-112866675D01*
X139290606Y-112866679D01*
X139378211Y-112997789D01*
X139489711Y-113109289D01*
X139620821Y-113196894D01*
X139766503Y-113257237D01*
X139766509Y-113257238D01*
X139766512Y-113257239D01*
X139921152Y-113287999D01*
X139921158Y-113288000D01*
X140078842Y-113288000D01*
X140233497Y-113257237D01*
X140379179Y-113196894D01*
X140510289Y-113109289D01*
X140621789Y-112997789D01*
X140709394Y-112866679D01*
X140769737Y-112720997D01*
X140800500Y-112566342D01*
X140800500Y-112408658D01*
X140769737Y-112254003D01*
X140709394Y-112108321D01*
X140661265Y-112036291D01*
X140653949Y-111999509D01*
X140670728Y-111974090D01*
X140669555Y-111972917D01*
X140752205Y-111890266D01*
X140752206Y-111890265D01*
X140797585Y-111787491D01*
X140800500Y-111762365D01*
X140800499Y-110672636D01*
X140797585Y-110647509D01*
X140752206Y-110544735D01*
X140752205Y-110544734D01*
X140752205Y-110544733D01*
X140714852Y-110507380D01*
X140700500Y-110472732D01*
X140700500Y-107063507D01*
X140700499Y-107063503D01*
X140692939Y-107025500D01*
X140680082Y-106960862D01*
X140680082Y-106960860D01*
X140680082Y-106960859D01*
X140673582Y-106928181D01*
X140673579Y-106928170D01*
X140671678Y-106923580D01*
X140620775Y-106800689D01*
X140544114Y-106685957D01*
X139421543Y-105563386D01*
X139306811Y-105486725D01*
X139306808Y-105486723D01*
X139306807Y-105486723D01*
X139179329Y-105433920D01*
X139179320Y-105433918D01*
X139043997Y-105407000D01*
X139043994Y-105407000D01*
X138906006Y-105407000D01*
X138906002Y-105407000D01*
X138770679Y-105433918D01*
X138770670Y-105433920D01*
X138643192Y-105486723D01*
X138528457Y-105563385D01*
X138430885Y-105660957D01*
X138354223Y-105775692D01*
X138301420Y-105903170D01*
X138301418Y-105903179D01*
X138274500Y-106038502D01*
X133024287Y-106038502D01*
X133101950Y-105993664D01*
X133124708Y-105980524D01*
X133124707Y-105980524D01*
X133124715Y-105980520D01*
X133236519Y-105868716D01*
X133278304Y-105796342D01*
X133315575Y-105731786D01*
X133315575Y-105731785D01*
X133315576Y-105731784D01*
X133356498Y-105579060D01*
X133356499Y-105579060D01*
X133356499Y-105420940D01*
X133356498Y-105420939D01*
X133324226Y-105300500D01*
X133315576Y-105268216D01*
X133315575Y-105268215D01*
X133315575Y-105268213D01*
X133236523Y-105131290D01*
X133236520Y-105131287D01*
X133236519Y-105131284D01*
X133124715Y-105019480D01*
X133124712Y-105019478D01*
X133124708Y-105019475D01*
X132987785Y-104940423D01*
X132987781Y-104940422D01*
X132835059Y-104899500D01*
X132835056Y-104899500D01*
X132676942Y-104899500D01*
X132676939Y-104899500D01*
X132524216Y-104940422D01*
X132524212Y-104940423D01*
X132387289Y-105019475D01*
X132387280Y-105019482D01*
X132275481Y-105131281D01*
X132275474Y-105131290D01*
X132196422Y-105268213D01*
X132196421Y-105268217D01*
X132155499Y-105420939D01*
X130700500Y-105420939D01*
X130700500Y-101605531D01*
X130714852Y-101570883D01*
X130749500Y-101556531D01*
X130784148Y-101570883D01*
X131210148Y-101996883D01*
X131224500Y-102031531D01*
X131224500Y-103957358D01*
X131224501Y-103957368D01*
X131227415Y-103982492D01*
X131272794Y-104085266D01*
X131352233Y-104164705D01*
X131455006Y-104210084D01*
X131455009Y-104210085D01*
X131480135Y-104213000D01*
X134019864Y-104212999D01*
X134044991Y-104210085D01*
X134147765Y-104164706D01*
X134227206Y-104085265D01*
X134272585Y-103982491D01*
X134275500Y-103957365D01*
X134275499Y-102858439D01*
X134899500Y-102858439D01*
X134899500Y-103016560D01*
X134940422Y-103169282D01*
X134940423Y-103169286D01*
X135019475Y-103306209D01*
X135019478Y-103306213D01*
X135019480Y-103306216D01*
X135131284Y-103418020D01*
X135131287Y-103418021D01*
X135131290Y-103418024D01*
X135268213Y-103497076D01*
X135268215Y-103497076D01*
X135268216Y-103497077D01*
X135388665Y-103529351D01*
X135420939Y-103537999D01*
X135420940Y-103538000D01*
X135420943Y-103538000D01*
X135579060Y-103538000D01*
X135579060Y-103537999D01*
X135731784Y-103497077D01*
X135779581Y-103469482D01*
X135868709Y-103418024D01*
X135868708Y-103418024D01*
X135868716Y-103418020D01*
X135980520Y-103306216D01*
X136059577Y-103169284D01*
X136100499Y-103016560D01*
X136100500Y-103016560D01*
X136100500Y-102858440D01*
X136100499Y-102858439D01*
X136090807Y-102822269D01*
X136059577Y-102705716D01*
X136059576Y-102705715D01*
X136059576Y-102705713D01*
X135980524Y-102568790D01*
X135980521Y-102568787D01*
X135980520Y-102568784D01*
X135868716Y-102456980D01*
X135868713Y-102456978D01*
X135868709Y-102456975D01*
X135855325Y-102449248D01*
X135787383Y-102410022D01*
X140627304Y-102410022D01*
X140627304Y-102554977D01*
X140664819Y-102694983D01*
X140664820Y-102694987D01*
X140715923Y-102783498D01*
X140737295Y-102820515D01*
X140839789Y-102923009D01*
X140850469Y-102929175D01*
X140965316Y-102995483D01*
X140965318Y-102995483D01*
X140965319Y-102995484D01*
X141000321Y-103004863D01*
X141105326Y-103033000D01*
X141105329Y-103033000D01*
X141250281Y-103033000D01*
X141320284Y-103014242D01*
X141390289Y-102995484D01*
X141515819Y-102923009D01*
X141618313Y-102820515D01*
X141690788Y-102694985D01*
X141715066Y-102604379D01*
X141728304Y-102554977D01*
X141728304Y-102410022D01*
X141690788Y-102270016D01*
X141690787Y-102270012D01*
X141618312Y-102144484D01*
X141515819Y-102041991D01*
X141390291Y-101969516D01*
X141390287Y-101969515D01*
X141250282Y-101932000D01*
X141250279Y-101932000D01*
X141105329Y-101932000D01*
X141105326Y-101932000D01*
X140965320Y-101969515D01*
X140965316Y-101969516D01*
X140839788Y-102041991D01*
X140839788Y-102041992D01*
X140737296Y-102144484D01*
X140737295Y-102144484D01*
X140664820Y-102270012D01*
X140664819Y-102270016D01*
X140627304Y-102410022D01*
X135787383Y-102410022D01*
X135731786Y-102377923D01*
X135731782Y-102377922D01*
X135579060Y-102337000D01*
X135579057Y-102337000D01*
X135420943Y-102337000D01*
X135420940Y-102337000D01*
X135268217Y-102377922D01*
X135268213Y-102377923D01*
X135131290Y-102456975D01*
X135131281Y-102456982D01*
X135019482Y-102568781D01*
X135019475Y-102568790D01*
X134940423Y-102705713D01*
X134940422Y-102705717D01*
X134899500Y-102858439D01*
X134275499Y-102858439D01*
X134275499Y-102643465D01*
X134275499Y-101417641D01*
X134275498Y-101417631D01*
X134272585Y-101392509D01*
X134227206Y-101289735D01*
X134227205Y-101289734D01*
X134227205Y-101289733D01*
X134147766Y-101210294D01*
X134147767Y-101210294D01*
X134044993Y-101164915D01*
X134019865Y-101162000D01*
X132094031Y-101162000D01*
X132059383Y-101147648D01*
X131571757Y-100660022D01*
X140627304Y-100660022D01*
X140627304Y-100804977D01*
X140664819Y-100944983D01*
X140664820Y-100944987D01*
X140725739Y-101050500D01*
X140737295Y-101070515D01*
X140839789Y-101173009D01*
X140858975Y-101184086D01*
X140965316Y-101245483D01*
X140965318Y-101245483D01*
X140965319Y-101245484D01*
X141000321Y-101254863D01*
X141105326Y-101283000D01*
X141105329Y-101283000D01*
X141250281Y-101283000D01*
X141320284Y-101264242D01*
X141390289Y-101245484D01*
X141515819Y-101173009D01*
X141618313Y-101070515D01*
X141690788Y-100944985D01*
X141725356Y-100815977D01*
X141728304Y-100804977D01*
X141728304Y-100660022D01*
X141700167Y-100555017D01*
X141690788Y-100520015D01*
X141690787Y-100520014D01*
X141690787Y-100520012D01*
X141643017Y-100437273D01*
X141618313Y-100394485D01*
X141515819Y-100291991D01*
X141390291Y-100219516D01*
X141390287Y-100219515D01*
X141250282Y-100182000D01*
X141250279Y-100182000D01*
X141105329Y-100182000D01*
X141105326Y-100182000D01*
X140965320Y-100219515D01*
X140965316Y-100219516D01*
X140839788Y-100291991D01*
X140839788Y-100291992D01*
X140737296Y-100394484D01*
X140737295Y-100394484D01*
X140664820Y-100520012D01*
X140664819Y-100520016D01*
X140627304Y-100660022D01*
X131571757Y-100660022D01*
X131564852Y-100653117D01*
X131550500Y-100618469D01*
X131550500Y-98910022D01*
X140627304Y-98910022D01*
X140627304Y-99054977D01*
X140664819Y-99194983D01*
X140664820Y-99194987D01*
X140737295Y-99320515D01*
X140839789Y-99423009D01*
X140885734Y-99449535D01*
X140965316Y-99495483D01*
X140965318Y-99495483D01*
X140965319Y-99495484D01*
X140991137Y-99502402D01*
X141105326Y-99533000D01*
X141105329Y-99533000D01*
X141250281Y-99533000D01*
X141320284Y-99514242D01*
X141390289Y-99495484D01*
X141515819Y-99423009D01*
X141618313Y-99320515D01*
X141690788Y-99194985D01*
X141714772Y-99105476D01*
X141728304Y-99054977D01*
X141728304Y-98910022D01*
X141690788Y-98770016D01*
X141690787Y-98770012D01*
X141644839Y-98690430D01*
X141618313Y-98644485D01*
X141515819Y-98541991D01*
X141390291Y-98469516D01*
X141390287Y-98469515D01*
X141250282Y-98432000D01*
X141250279Y-98432000D01*
X141105329Y-98432000D01*
X141105326Y-98432000D01*
X140965320Y-98469515D01*
X140965316Y-98469516D01*
X140839788Y-98541991D01*
X140839788Y-98541992D01*
X140737296Y-98644484D01*
X140737295Y-98644484D01*
X140664820Y-98770012D01*
X140664819Y-98770016D01*
X140627304Y-98910022D01*
X131550500Y-98910022D01*
X131550500Y-98240940D01*
X131550499Y-98240939D01*
X131529288Y-98161778D01*
X131509577Y-98088216D01*
X131509576Y-98088215D01*
X131509576Y-98088213D01*
X131430524Y-97951290D01*
X131430521Y-97951287D01*
X131430520Y-97951284D01*
X131318716Y-97839480D01*
X131318713Y-97839478D01*
X131318709Y-97839475D01*
X131181786Y-97760423D01*
X131181782Y-97760422D01*
X131029060Y-97719500D01*
X131029057Y-97719500D01*
X130870943Y-97719500D01*
X130870940Y-97719500D01*
X130718217Y-97760422D01*
X130718213Y-97760423D01*
X130581290Y-97839475D01*
X130581281Y-97839482D01*
X130469482Y-97951281D01*
X130469475Y-97951290D01*
X130390423Y-98088213D01*
X130390422Y-98088217D01*
X130349500Y-98240939D01*
X130349500Y-98439811D01*
X130335148Y-98474459D01*
X130300500Y-98488811D01*
X130265852Y-98474459D01*
X130239852Y-98448459D01*
X130225500Y-98413811D01*
X130225500Y-97882878D01*
X130215118Y-97796427D01*
X130215117Y-97796425D01*
X130215117Y-97796423D01*
X130160862Y-97658842D01*
X130071500Y-97541000D01*
X129969786Y-97463868D01*
X129953660Y-97451639D01*
X129953658Y-97451638D01*
X129816077Y-97397383D01*
X129816075Y-97397382D01*
X129816071Y-97397381D01*
X129816072Y-97397381D01*
X129729621Y-97387000D01*
X129729618Y-97387000D01*
X129170382Y-97387000D01*
X129170379Y-97387000D01*
X129083927Y-97397381D01*
X128946339Y-97451639D01*
X128828500Y-97541000D01*
X128739139Y-97658839D01*
X128739138Y-97658842D01*
X128686044Y-97793477D01*
X128659984Y-97820443D01*
X128640462Y-97824500D01*
X128509538Y-97824500D01*
X128474890Y-97810148D01*
X128463956Y-97793479D01*
X128410862Y-97658842D01*
X128321500Y-97541000D01*
X128203658Y-97451638D01*
X128131523Y-97423190D01*
X128104556Y-97397128D01*
X128100500Y-97377607D01*
X128100500Y-95636189D01*
X128114852Y-95601541D01*
X128920479Y-94795914D01*
X128920480Y-94795913D01*
X128973207Y-94704588D01*
X129000499Y-94602730D01*
X129000500Y-94602730D01*
X129000500Y-94300401D01*
X129014852Y-94265753D01*
X129049500Y-94251401D01*
X129076722Y-94259658D01*
X129168189Y-94320775D01*
X129295672Y-94373580D01*
X129295678Y-94373581D01*
X129295681Y-94373582D01*
X129431001Y-94400499D01*
X129431007Y-94400500D01*
X130091201Y-94400500D01*
X130118218Y-94409586D01*
X130118424Y-94409221D01*
X130120344Y-94410301D01*
X130120807Y-94410456D01*
X130121342Y-94410862D01*
X130258923Y-94465117D01*
X130258926Y-94465117D01*
X130258928Y-94465118D01*
X130258927Y-94465118D01*
X130345379Y-94475500D01*
X130345382Y-94475500D01*
X131029621Y-94475500D01*
X131116072Y-94465118D01*
X131116073Y-94465117D01*
X131116077Y-94465117D01*
X131253658Y-94410862D01*
X131371500Y-94321500D01*
X131460862Y-94203658D01*
X131504417Y-94093209D01*
X131530478Y-94066244D01*
X131567976Y-94065603D01*
X131594943Y-94091665D01*
X131595569Y-94093175D01*
X131624316Y-94166072D01*
X131639139Y-94203660D01*
X131669817Y-94244114D01*
X131728500Y-94321500D01*
X131791687Y-94369416D01*
X131832677Y-94400500D01*
X131846342Y-94410862D01*
X131983923Y-94465117D01*
X131983926Y-94465117D01*
X131983928Y-94465118D01*
X131983927Y-94465118D01*
X132070379Y-94475500D01*
X132070382Y-94475500D01*
X132754621Y-94475500D01*
X132841072Y-94465118D01*
X132841073Y-94465117D01*
X132841077Y-94465117D01*
X132978658Y-94410862D01*
X133096500Y-94321500D01*
X133185862Y-94203658D01*
X133240117Y-94066077D01*
X133250500Y-93979618D01*
X133250500Y-93420382D01*
X133250500Y-93420378D01*
X133240118Y-93333927D01*
X133240117Y-93333925D01*
X133240117Y-93333923D01*
X133185862Y-93196342D01*
X133096500Y-93078500D01*
X133022370Y-93022286D01*
X132978660Y-92989139D01*
X132978658Y-92989138D01*
X132854530Y-92940188D01*
X132844024Y-92936045D01*
X132817057Y-92909982D01*
X132813000Y-92890461D01*
X132813000Y-92759538D01*
X132827352Y-92724890D01*
X132844020Y-92713956D01*
X132978658Y-92660862D01*
X133096500Y-92571500D01*
X133097719Y-92569892D01*
X133098655Y-92569344D01*
X133098870Y-92569130D01*
X133098926Y-92569186D01*
X133130089Y-92550956D01*
X133136762Y-92550500D01*
X133580969Y-92550500D01*
X133615617Y-92564852D01*
X134917764Y-93866999D01*
X134917769Y-93867005D01*
X134919480Y-93868716D01*
X135031284Y-93980520D01*
X135093008Y-94016156D01*
X135117887Y-94030520D01*
X135168212Y-94059576D01*
X135168214Y-94059576D01*
X135168215Y-94059577D01*
X135206397Y-94069808D01*
X135320940Y-94100501D01*
X135320943Y-94100501D01*
X135482054Y-94100501D01*
X135482070Y-94100500D01*
X135670500Y-94100500D01*
X135705148Y-94114852D01*
X135719500Y-94149500D01*
X135719500Y-94333674D01*
X135722312Y-94369414D01*
X135722312Y-94369416D01*
X135766758Y-94522395D01*
X135847844Y-94659504D01*
X135847848Y-94659509D01*
X135960490Y-94772151D01*
X135960495Y-94772155D01*
X136097604Y-94853241D01*
X136097605Y-94853241D01*
X136097608Y-94853243D01*
X136250584Y-94897687D01*
X136286328Y-94900500D01*
X136286339Y-94900500D01*
X143753661Y-94900500D01*
X143753672Y-94900500D01*
X143789416Y-94897687D01*
X143934240Y-94855611D01*
X143971514Y-94859726D01*
X143994963Y-94888994D01*
X143996909Y-94902665D01*
X143996909Y-95062575D01*
X143982557Y-95097223D01*
X143947909Y-95111575D01*
X143930788Y-95108487D01*
X143923186Y-95105652D01*
X143865963Y-95099500D01*
X136134037Y-95099500D01*
X136076816Y-95105651D01*
X136076807Y-95105654D01*
X135947355Y-95153937D01*
X135947352Y-95153939D01*
X135899545Y-95189727D01*
X135870181Y-95199500D01*
X135271152Y-95199500D01*
X135116512Y-95230260D01*
X135116501Y-95230263D01*
X134970824Y-95290604D01*
X134839711Y-95378210D01*
X134728210Y-95489711D01*
X134640604Y-95620824D01*
X134580263Y-95766501D01*
X134580260Y-95766512D01*
X134549500Y-95921152D01*
X134549500Y-96078847D01*
X134580260Y-96233487D01*
X134580263Y-96233498D01*
X134613194Y-96313000D01*
X134640606Y-96379179D01*
X134692002Y-96456098D01*
X134713878Y-96488839D01*
X134728211Y-96510289D01*
X134839711Y-96621789D01*
X134970821Y-96709394D01*
X135116503Y-96769737D01*
X135116509Y-96769738D01*
X135116512Y-96769739D01*
X135271152Y-96800499D01*
X135271158Y-96800500D01*
X135870181Y-96800500D01*
X135899545Y-96810273D01*
X135947352Y-96846060D01*
X135947355Y-96846062D01*
X136076811Y-96894347D01*
X136094144Y-96896210D01*
X136134043Y-96900500D01*
X139150500Y-96900499D01*
X139185148Y-96914851D01*
X139199500Y-96949499D01*
X139199500Y-97578847D01*
X139230260Y-97733487D01*
X139230263Y-97733498D01*
X139287747Y-97872277D01*
X139290606Y-97879179D01*
X139378211Y-98010289D01*
X139489711Y-98121789D01*
X139620821Y-98209394D01*
X139766503Y-98269737D01*
X139766509Y-98269738D01*
X139766512Y-98269739D01*
X139921152Y-98300499D01*
X139921158Y-98300500D01*
X140078842Y-98300500D01*
X140233497Y-98269737D01*
X140379179Y-98209394D01*
X140510289Y-98121789D01*
X140621789Y-98010289D01*
X140709394Y-97879179D01*
X140769737Y-97733497D01*
X140784588Y-97658839D01*
X140800499Y-97578847D01*
X140800500Y-97578842D01*
X140800500Y-96949499D01*
X140814852Y-96914851D01*
X140849500Y-96900499D01*
X143865962Y-96900499D01*
X143923183Y-96894348D01*
X143923185Y-96894347D01*
X143923188Y-96894347D01*
X143930784Y-96891514D01*
X143968263Y-96892852D01*
X143993819Y-96920299D01*
X143996909Y-96937424D01*
X143996909Y-113003441D01*
X143996673Y-113008244D01*
X143978167Y-113196135D01*
X143976293Y-113205556D01*
X143922189Y-113383914D01*
X143918513Y-113392788D01*
X143830655Y-113557159D01*
X143825318Y-113565146D01*
X143707076Y-113709223D01*
X143700284Y-113716015D01*
X143556207Y-113834257D01*
X143548220Y-113839594D01*
X143383849Y-113927452D01*
X143374975Y-113931128D01*
X143196617Y-113985232D01*
X143187196Y-113987106D01*
X142999305Y-114005612D01*
X142994502Y-114005848D01*
X93405507Y-114005848D01*
X93370859Y-113991496D01*
X93356507Y-113956848D01*
X93365865Y-113928047D01*
X93370542Y-113921609D01*
X93411634Y-113865051D01*
X93529579Y-113633572D01*
X93609860Y-113386493D01*
X93650500Y-113129897D01*
X93650500Y-112870103D01*
X93609860Y-112613507D01*
X93529579Y-112366428D01*
X93411634Y-112134949D01*
X93258931Y-111924771D01*
X93258929Y-111924769D01*
X93258926Y-111924765D01*
X93075235Y-111741074D01*
X93075230Y-111741070D01*
X92937074Y-111640694D01*
X92865051Y-111588366D01*
X92633572Y-111470421D01*
X92633571Y-111470420D01*
X92633570Y-111470420D01*
X92386493Y-111390140D01*
X92386490Y-111390139D01*
X92189377Y-111358920D01*
X92129897Y-111349500D01*
X91870103Y-111349500D01*
X91821816Y-111357147D01*
X91613509Y-111390139D01*
X91613506Y-111390140D01*
X91366429Y-111470420D01*
X91134949Y-111588366D01*
X91074975Y-111631939D01*
X91038508Y-111640694D01*
X91006532Y-111621098D01*
X90997174Y-111592294D01*
X90997772Y-106181001D01*
X103259500Y-106181001D01*
X103259500Y-106318998D01*
X103286417Y-106454318D01*
X103286420Y-106454329D01*
X103327723Y-106554043D01*
X103339225Y-106581811D01*
X103362118Y-106616072D01*
X103415883Y-106696539D01*
X103513460Y-106794116D01*
X103546449Y-106816158D01*
X103628189Y-106870775D01*
X103755672Y-106923580D01*
X103755678Y-106923581D01*
X103755681Y-106923582D01*
X103891001Y-106950499D01*
X103891007Y-106950500D01*
X104773701Y-106950500D01*
X104800718Y-106959586D01*
X104800924Y-106959221D01*
X104802844Y-106960301D01*
X104803307Y-106960456D01*
X104803842Y-106960862D01*
X104941423Y-107015117D01*
X104941426Y-107015117D01*
X104941428Y-107015118D01*
X104941427Y-107015118D01*
X105027879Y-107025500D01*
X105027882Y-107025500D01*
X105612121Y-107025500D01*
X105698572Y-107015118D01*
X105698573Y-107015117D01*
X105698577Y-107015117D01*
X105836158Y-106960862D01*
X105954000Y-106871500D01*
X106043362Y-106753658D01*
X106097617Y-106616077D01*
X106097630Y-106615976D01*
X106108000Y-106529621D01*
X106108000Y-105970378D01*
X106357000Y-105970378D01*
X106357000Y-106529621D01*
X106367381Y-106616072D01*
X106367383Y-106616077D01*
X106406849Y-106716157D01*
X106421639Y-106753660D01*
X106452317Y-106794114D01*
X106511000Y-106871500D01*
X106593418Y-106933999D01*
X106615177Y-106950500D01*
X106628842Y-106960862D01*
X106766423Y-107015117D01*
X106766426Y-107015117D01*
X106766428Y-107015118D01*
X106766427Y-107015118D01*
X106852879Y-107025500D01*
X106852882Y-107025500D01*
X107437121Y-107025500D01*
X107523572Y-107015118D01*
X107523573Y-107015117D01*
X107523577Y-107015117D01*
X107661158Y-106960862D01*
X107779000Y-106871500D01*
X107868362Y-106753658D01*
X107922617Y-106616077D01*
X107922630Y-106615976D01*
X107933000Y-106529621D01*
X107933000Y-105970378D01*
X107922618Y-105883927D01*
X107922617Y-105883925D01*
X107922617Y-105883923D01*
X107868362Y-105746342D01*
X107779000Y-105628500D01*
X107689637Y-105560734D01*
X107661157Y-105539137D01*
X107576524Y-105505761D01*
X107549556Y-105479699D01*
X107545500Y-105460178D01*
X107545500Y-103061187D01*
X107559851Y-103026540D01*
X110241878Y-100344512D01*
X110241883Y-100344509D01*
X110245911Y-100340480D01*
X110245913Y-100340480D01*
X110320480Y-100265913D01*
X110373207Y-100174587D01*
X110388693Y-100116793D01*
X110392264Y-100103465D01*
X110400501Y-100072728D01*
X110400501Y-99964277D01*
X110400500Y-99964259D01*
X110400500Y-98171338D01*
X110414852Y-98136690D01*
X110422277Y-98130596D01*
X110435458Y-98121789D01*
X110510289Y-98071789D01*
X110621789Y-97960289D01*
X110709394Y-97829179D01*
X110769737Y-97683497D01*
X110800500Y-97528842D01*
X110800500Y-97371158D01*
X110797591Y-97356535D01*
X110769739Y-97216512D01*
X110769736Y-97216501D01*
X110760341Y-97193819D01*
X110709394Y-97070821D01*
X110621789Y-96939711D01*
X110510289Y-96828211D01*
X110510286Y-96828208D01*
X110422277Y-96769402D01*
X110401441Y-96738219D01*
X110400500Y-96728660D01*
X110400500Y-91909891D01*
X110414852Y-91875243D01*
X110431520Y-91864308D01*
X110503658Y-91835862D01*
X110621500Y-91746500D01*
X110710862Y-91628658D01*
X110765117Y-91491077D01*
X110775500Y-91404618D01*
X110775500Y-90820382D01*
X110775247Y-90818272D01*
X110765118Y-90733927D01*
X110765117Y-90733925D01*
X110765117Y-90733923D01*
X110710862Y-90596342D01*
X110621500Y-90478500D01*
X110524623Y-90405036D01*
X110503660Y-90389139D01*
X110503658Y-90389138D01*
X110366077Y-90334883D01*
X110366075Y-90334882D01*
X110366071Y-90334881D01*
X110366072Y-90334881D01*
X110279621Y-90324500D01*
X110279618Y-90324500D01*
X109720382Y-90324500D01*
X109720379Y-90324500D01*
X109633927Y-90334881D01*
X109496339Y-90389139D01*
X109378500Y-90478500D01*
X109289139Y-90596339D01*
X109234881Y-90733927D01*
X109224500Y-90820378D01*
X109224500Y-91404618D01*
X109234881Y-91491072D01*
X109289139Y-91628660D01*
X109295647Y-91637242D01*
X109378500Y-91746500D01*
X109496342Y-91835862D01*
X109568477Y-91864308D01*
X109595443Y-91890369D01*
X109599500Y-91909891D01*
X109599500Y-96728660D01*
X109585148Y-96763308D01*
X109577723Y-96769402D01*
X109489713Y-96828208D01*
X109376805Y-96941116D01*
X109342157Y-96955468D01*
X109307509Y-96941116D01*
X108227352Y-95860959D01*
X108213000Y-95826311D01*
X108213000Y-94149820D01*
X108227352Y-94115172D01*
X108244023Y-94104237D01*
X108328658Y-94070862D01*
X108446500Y-93981500D01*
X108535862Y-93863658D01*
X108590117Y-93726077D01*
X108600500Y-93639618D01*
X108600500Y-93080382D01*
X108600500Y-93080378D01*
X108590118Y-92993927D01*
X108590117Y-92993925D01*
X108590117Y-92993923D01*
X108535862Y-92856342D01*
X108446500Y-92738500D01*
X108351323Y-92666325D01*
X108328660Y-92649139D01*
X108328658Y-92649138D01*
X108191077Y-92594883D01*
X108191075Y-92594882D01*
X108191071Y-92594881D01*
X108191072Y-92594881D01*
X108104621Y-92584500D01*
X108104618Y-92584500D01*
X107520382Y-92584500D01*
X107520379Y-92584500D01*
X107433927Y-92594881D01*
X107296339Y-92649139D01*
X107178500Y-92738500D01*
X107089139Y-92856339D01*
X107034881Y-92993927D01*
X107024500Y-93080378D01*
X107024500Y-93639621D01*
X107034881Y-93726072D01*
X107089139Y-93863660D01*
X107112000Y-93893806D01*
X107178500Y-93981500D01*
X107243143Y-94030520D01*
X107296340Y-94070861D01*
X107296341Y-94070861D01*
X107296342Y-94070862D01*
X107380975Y-94104236D01*
X107407943Y-94130298D01*
X107412000Y-94149820D01*
X107412000Y-96065230D01*
X107439292Y-96167087D01*
X107439293Y-96167089D01*
X107477635Y-96233498D01*
X107492020Y-96258413D01*
X109004087Y-97770480D01*
X109043917Y-97793476D01*
X109095410Y-97823206D01*
X109095412Y-97823207D01*
X109197269Y-97850499D01*
X109197270Y-97850500D01*
X109197273Y-97850500D01*
X109278661Y-97850500D01*
X109313309Y-97864852D01*
X109319403Y-97872277D01*
X109378208Y-97960286D01*
X109378210Y-97960288D01*
X109378211Y-97960289D01*
X109489711Y-98071789D01*
X109514297Y-98088217D01*
X109577723Y-98130596D01*
X109598558Y-98161778D01*
X109599500Y-98171338D01*
X109599500Y-99833811D01*
X109585148Y-99868459D01*
X106824521Y-102629086D01*
X106824520Y-102629086D01*
X106771793Y-102720410D01*
X106771792Y-102720412D01*
X106753086Y-102790227D01*
X106744500Y-102822269D01*
X106744500Y-105460178D01*
X106730148Y-105494826D01*
X106713476Y-105505761D01*
X106628842Y-105539137D01*
X106511000Y-105628500D01*
X106421639Y-105746339D01*
X106367381Y-105883927D01*
X106357000Y-105970378D01*
X106108000Y-105970378D01*
X106097618Y-105883927D01*
X106097617Y-105883925D01*
X106097617Y-105883923D01*
X106043362Y-105746342D01*
X105954000Y-105628500D01*
X105868133Y-105563385D01*
X105836160Y-105539139D01*
X105836158Y-105539138D01*
X105698577Y-105484883D01*
X105698575Y-105484882D01*
X105698571Y-105484881D01*
X105698572Y-105484881D01*
X105612121Y-105474500D01*
X105612118Y-105474500D01*
X105027882Y-105474500D01*
X105027879Y-105474500D01*
X104941427Y-105484881D01*
X104803844Y-105539137D01*
X104803843Y-105539137D01*
X104803842Y-105539138D01*
X104803307Y-105539543D01*
X104802844Y-105539698D01*
X104800924Y-105540779D01*
X104800718Y-105540413D01*
X104773701Y-105549500D01*
X103891001Y-105549500D01*
X103755681Y-105576417D01*
X103755670Y-105576420D01*
X103628192Y-105629223D01*
X103513460Y-105705883D01*
X103415883Y-105803460D01*
X103339223Y-105918192D01*
X103286420Y-106045670D01*
X103286417Y-106045681D01*
X103259500Y-106181001D01*
X90997772Y-106181001D01*
X90998154Y-102720939D01*
X92399500Y-102720939D01*
X92399500Y-102879060D01*
X92440422Y-103031782D01*
X92440423Y-103031786D01*
X92519475Y-103168709D01*
X92519478Y-103168713D01*
X92519480Y-103168716D01*
X92631284Y-103280520D01*
X92631287Y-103280521D01*
X92631290Y-103280524D01*
X92721428Y-103332565D01*
X92744258Y-103362318D01*
X92739363Y-103399500D01*
X92721428Y-103417435D01*
X92631290Y-103469475D01*
X92631281Y-103469482D01*
X92519482Y-103581281D01*
X92519475Y-103581290D01*
X92440423Y-103718213D01*
X92440422Y-103718217D01*
X92399500Y-103870939D01*
X92399500Y-104029060D01*
X92440422Y-104181782D01*
X92440423Y-104181786D01*
X92519475Y-104318709D01*
X92519478Y-104318713D01*
X92519480Y-104318716D01*
X92631284Y-104430520D01*
X92631287Y-104430521D01*
X92631290Y-104430524D01*
X92721428Y-104482565D01*
X92744258Y-104512318D01*
X92739363Y-104549500D01*
X92721428Y-104567435D01*
X92631290Y-104619475D01*
X92631281Y-104619482D01*
X92519482Y-104731281D01*
X92519475Y-104731290D01*
X92440423Y-104868213D01*
X92440422Y-104868217D01*
X92399500Y-105020939D01*
X92399500Y-105179060D01*
X92440422Y-105331782D01*
X92440423Y-105331786D01*
X92519475Y-105468709D01*
X92519478Y-105468713D01*
X92519480Y-105468716D01*
X92631284Y-105580520D01*
X92631287Y-105580521D01*
X92631290Y-105580524D01*
X92768213Y-105659576D01*
X92768215Y-105659576D01*
X92768216Y-105659577D01*
X92888665Y-105691851D01*
X92920939Y-105700499D01*
X92920940Y-105700500D01*
X92920943Y-105700500D01*
X93079060Y-105700500D01*
X93079060Y-105700499D01*
X93231784Y-105659577D01*
X93285612Y-105628500D01*
X93368709Y-105580524D01*
X93368708Y-105580524D01*
X93368716Y-105580520D01*
X93480520Y-105468716D01*
X93508922Y-105419522D01*
X93559576Y-105331786D01*
X93559576Y-105331785D01*
X93559577Y-105331784D01*
X93600499Y-105179060D01*
X93600500Y-105179060D01*
X93600500Y-105020940D01*
X93600499Y-105020939D01*
X93578925Y-104940423D01*
X93559577Y-104868216D01*
X93559576Y-104868215D01*
X93559576Y-104868213D01*
X93480524Y-104731290D01*
X93480521Y-104731287D01*
X93480520Y-104731284D01*
X93368716Y-104619480D01*
X93278568Y-104567433D01*
X93255740Y-104537683D01*
X93260634Y-104500500D01*
X93278566Y-104482567D01*
X93368716Y-104430520D01*
X93480520Y-104318716D01*
X93543238Y-104210084D01*
X93559576Y-104181786D01*
X93559576Y-104181785D01*
X93559577Y-104181784D01*
X93600499Y-104029060D01*
X93600500Y-104029060D01*
X93600500Y-103870940D01*
X93600499Y-103870939D01*
X93569323Y-103754588D01*
X93559577Y-103718216D01*
X93559576Y-103718215D01*
X93559576Y-103718213D01*
X93480524Y-103581290D01*
X93480521Y-103581287D01*
X93480520Y-103581284D01*
X93368716Y-103469480D01*
X93278568Y-103417433D01*
X93255740Y-103387683D01*
X93260634Y-103350500D01*
X93278566Y-103332567D01*
X93368716Y-103280520D01*
X93480520Y-103168716D01*
X93556220Y-103037598D01*
X93559576Y-103031786D01*
X93559576Y-103031785D01*
X93559577Y-103031784D01*
X93600499Y-102879060D01*
X93600500Y-102879060D01*
X93600500Y-102720940D01*
X93600499Y-102720939D01*
X93579740Y-102643465D01*
X93559577Y-102568216D01*
X93559576Y-102568215D01*
X93559576Y-102568213D01*
X93480524Y-102431290D01*
X93480521Y-102431287D01*
X93480520Y-102431284D01*
X93368716Y-102319480D01*
X93368713Y-102319478D01*
X93368709Y-102319475D01*
X93231786Y-102240423D01*
X93231782Y-102240422D01*
X93079060Y-102199500D01*
X93079057Y-102199500D01*
X92920943Y-102199500D01*
X92920940Y-102199500D01*
X92768217Y-102240422D01*
X92768213Y-102240423D01*
X92631290Y-102319475D01*
X92631281Y-102319482D01*
X92519482Y-102431281D01*
X92519475Y-102431290D01*
X92440423Y-102568213D01*
X92440422Y-102568217D01*
X92399500Y-102720939D01*
X90998154Y-102720939D01*
X90998463Y-99921152D01*
X106649500Y-99921152D01*
X106649500Y-100078847D01*
X106680260Y-100233487D01*
X106680263Y-100233498D01*
X106740604Y-100379175D01*
X106740606Y-100379179D01*
X106828211Y-100510289D01*
X106939711Y-100621789D01*
X107070821Y-100709394D01*
X107216503Y-100769737D01*
X107216509Y-100769738D01*
X107216512Y-100769739D01*
X107371152Y-100800499D01*
X107371158Y-100800500D01*
X107528842Y-100800500D01*
X107643882Y-100777617D01*
X107683487Y-100769739D01*
X107683487Y-100769738D01*
X107683497Y-100769737D01*
X107829179Y-100709394D01*
X107960289Y-100621789D01*
X108071789Y-100510289D01*
X108159394Y-100379179D01*
X108219737Y-100233497D01*
X108250500Y-100078842D01*
X108250500Y-99921158D01*
X108245602Y-99896535D01*
X108219739Y-99766512D01*
X108219736Y-99766501D01*
X108189532Y-99693582D01*
X108159394Y-99620821D01*
X108071789Y-99489711D01*
X107960289Y-99378211D01*
X107829179Y-99290606D01*
X107829176Y-99290604D01*
X107829175Y-99290604D01*
X107683498Y-99230263D01*
X107683487Y-99230260D01*
X107528847Y-99199500D01*
X107528842Y-99199500D01*
X107371158Y-99199500D01*
X107371152Y-99199500D01*
X107216512Y-99230260D01*
X107216501Y-99230263D01*
X107070824Y-99290604D01*
X106939711Y-99378210D01*
X106828210Y-99489711D01*
X106740604Y-99620824D01*
X106680263Y-99766501D01*
X106680260Y-99766512D01*
X106649500Y-99921152D01*
X90998463Y-99921152D01*
X90999218Y-93080378D01*
X105199500Y-93080378D01*
X105199500Y-93639621D01*
X105209881Y-93726072D01*
X105264139Y-93863660D01*
X105277043Y-93880676D01*
X105287000Y-93910284D01*
X105287000Y-94528998D01*
X105313917Y-94664318D01*
X105313920Y-94664329D01*
X105358582Y-94772152D01*
X105366725Y-94791811D01*
X105373292Y-94801639D01*
X105443383Y-94906539D01*
X105540960Y-95004116D01*
X105581160Y-95030976D01*
X105655689Y-95080775D01*
X105783172Y-95133580D01*
X105783178Y-95133581D01*
X105783181Y-95133582D01*
X105918501Y-95160499D01*
X105918507Y-95160500D01*
X106056493Y-95160500D01*
X106191828Y-95133580D01*
X106319311Y-95080775D01*
X106434042Y-95004114D01*
X106531614Y-94906542D01*
X106608275Y-94791811D01*
X106661080Y-94664328D01*
X106688000Y-94528993D01*
X106688000Y-93910284D01*
X106697957Y-93880676D01*
X106707026Y-93868716D01*
X106710862Y-93863658D01*
X106765117Y-93726077D01*
X106775500Y-93639618D01*
X106775500Y-93080382D01*
X106775500Y-93080378D01*
X106765118Y-92993927D01*
X106765117Y-92993925D01*
X106765117Y-92993923D01*
X106710862Y-92856342D01*
X106621500Y-92738500D01*
X106526323Y-92666325D01*
X106503660Y-92649139D01*
X106503658Y-92649138D01*
X106366077Y-92594883D01*
X106366075Y-92594882D01*
X106366071Y-92594881D01*
X106366072Y-92594881D01*
X106279621Y-92584500D01*
X106279618Y-92584500D01*
X105695382Y-92584500D01*
X105695379Y-92584500D01*
X105608927Y-92594881D01*
X105471339Y-92649139D01*
X105353500Y-92738500D01*
X105264139Y-92856339D01*
X105209881Y-92993927D01*
X105199500Y-93080378D01*
X90999218Y-93080378D01*
X90999645Y-89218501D01*
X108149500Y-89218501D01*
X108149500Y-89356498D01*
X108176417Y-89491818D01*
X108176420Y-89491829D01*
X108212785Y-89579621D01*
X108229225Y-89619311D01*
X108260137Y-89665574D01*
X108305883Y-89734039D01*
X108403460Y-89831616D01*
X108437886Y-89854618D01*
X108518189Y-89908275D01*
X108645672Y-89961080D01*
X108645678Y-89961081D01*
X108645681Y-89961082D01*
X108781001Y-89987999D01*
X108781007Y-89988000D01*
X109449716Y-89988000D01*
X109479324Y-89997957D01*
X109496342Y-90010862D01*
X109633923Y-90065117D01*
X109633926Y-90065117D01*
X109633928Y-90065118D01*
X109633927Y-90065118D01*
X109720379Y-90075500D01*
X109720382Y-90075500D01*
X110279621Y-90075500D01*
X110366072Y-90065118D01*
X110366073Y-90065117D01*
X110366077Y-90065117D01*
X110503658Y-90010862D01*
X110621500Y-89921500D01*
X110710862Y-89803658D01*
X110765117Y-89666077D01*
X110770734Y-89619311D01*
X110775500Y-89579621D01*
X110775500Y-88995378D01*
X110765118Y-88908927D01*
X110765117Y-88908925D01*
X110765117Y-88908923D01*
X110710862Y-88771342D01*
X110621500Y-88653500D01*
X110520676Y-88577043D01*
X110503660Y-88564139D01*
X110503658Y-88564138D01*
X110366077Y-88509883D01*
X110366075Y-88509882D01*
X110366071Y-88509881D01*
X110366072Y-88509881D01*
X110279621Y-88499500D01*
X110279618Y-88499500D01*
X109720382Y-88499500D01*
X109720379Y-88499500D01*
X109633927Y-88509881D01*
X109496339Y-88564139D01*
X109479324Y-88577043D01*
X109449716Y-88587000D01*
X108781001Y-88587000D01*
X108645681Y-88613917D01*
X108645670Y-88613920D01*
X108518192Y-88666723D01*
X108403460Y-88743383D01*
X108305883Y-88840960D01*
X108229223Y-88955692D01*
X108176422Y-89083167D01*
X108176417Y-89083181D01*
X108149500Y-89218501D01*
X90999645Y-89218501D01*
X90999763Y-88148180D01*
X90999889Y-87002397D01*
X91000124Y-86997624D01*
X91018653Y-86809708D01*
X91020525Y-86800299D01*
X91074653Y-86621933D01*
X91078323Y-86613076D01*
X91166207Y-86448700D01*
X91171540Y-86440721D01*
X91289804Y-86296649D01*
X91296588Y-86289867D01*
X91440684Y-86171636D01*
X91448658Y-86166309D01*
X91613057Y-86078460D01*
X91621919Y-86074790D01*
X91800294Y-86020702D01*
X91809704Y-86018832D01*
X91997610Y-86000344D01*
X92002401Y-86000110D01*
X141586195Y-86005581D01*
G37*
G04 #@! TD.AperFunction*
G04 #@! TD*
D30*
X90000000Y-86000000D02*
X90000000Y-114000000D01*
X90000000Y-86000000D02*
G75*
G02*
X91000000Y-85000000I1000000J0D01*
G01*
X91000000Y-115000000D02*
G75*
G02*
X90000000Y-114000000I0J1000000D01*
G01*
X91000000Y-115000000D02*
X144000000Y-115000000D01*
X93150000Y-113000000D02*
G75*
G02*
X90850000Y-113000000I-1150000J0D01*
G01*
X90850000Y-113000000D02*
G75*
G02*
X93150000Y-113000000I1150000J0D01*
G01*
X144150000Y-87000000D02*
G75*
G02*
X141850000Y-87000000I-1150000J0D01*
G01*
X141850000Y-87000000D02*
G75*
G02*
X144150000Y-87000000I1150000J0D01*
G01*
X144000000Y-85000000D02*
X91000000Y-85000000D01*
X144000000Y-85000000D02*
G75*
G02*
X145000000Y-86000000I0J-1000000D01*
G01*
X145000000Y-114000000D02*
G75*
G02*
X144000000Y-115000000I-1000000J0D01*
G01*
X145000000Y-114000000D02*
X145000000Y-86000000D01*
G04 #@! TO.C,SW1*
X118935898Y-98000000D02*
G75*
G02*
X118135898Y-98000000I-400000J0D01*
G01*
X118135898Y-98000000D02*
G75*
G02*
X118935898Y-98000000I400000J0D01*
G01*
X122400000Y-104000000D02*
G75*
G02*
X121600000Y-104000000I-400000J0D01*
G01*
X121600000Y-104000000D02*
G75*
G02*
X122400000Y-104000000I400000J0D01*
G01*
X125864102Y-98000000D02*
G75*
G02*
X125064102Y-98000000I-400000J0D01*
G01*
X125064102Y-98000000D02*
G75*
G02*
X125864102Y-98000000I400000J0D01*
G01*
G04 #@! TD*
M02*
