G04 #@! TF.GenerationSoftware,KiCad,Pcbnew,10.0.1*
G04 #@! TF.CreationDate,2026-06-11T14:30:42+08:00*
G04 #@! TF.ProjectId,photodiodes_kicadproject,70686f74-6f64-4696-9f64-65735f6b6963,rev?*
G04 #@! TF.SameCoordinates,Original*
G04 #@! TF.FileFunction,Soldermask,Top*
G04 #@! TF.FilePolarity,Negative*
%FSLAX46Y46*%
G04 Gerber Fmt 4.6, Leading zero omitted, Abs format (unit mm)*
G04 Created by KiCad (PCBNEW 10.0.1) date 2026-06-11 14:30:42*
%MOMM*%
%LPD*%
G01*
G04 APERTURE LIST*
G04 Aperture macros list*
%AMRoundRect*
0 Rectangle with rounded corners*
0 $1 Rounding radius*
0 $2 $3 $4 $5 $6 $7 $8 $9 X,Y pos of 4 corners*
0 Add a 4 corners polygon primitive as box body*
4,1,4,$2,$3,$4,$5,$6,$7,$8,$9,$2,$3,0*
0 Add four circle primitives for the rounded corners*
1,1,$1+$1,$2,$3*
1,1,$1+$1,$4,$5*
1,1,$1+$1,$6,$7*
1,1,$1+$1,$8,$9*
0 Add four rect primitives between the rounded corners*
20,1,$1+$1,$2,$3,$4,$5,0*
20,1,$1+$1,$4,$5,$6,$7,0*
20,1,$1+$1,$6,$7,$8,$9,0*
20,1,$1+$1,$8,$9,$2,$3,0*%
G04 Aperture macros list end*
%ADD10RoundRect,0.330000X-3.670000X-0.770000X3.670000X-0.770000X3.670000X0.770000X-3.670000X0.770000X0*%
%ADD11RoundRect,0.180000X-3.820000X-0.420000X3.820000X-0.420000X3.820000X0.420000X-3.820000X0.420000X0*%
%ADD12RoundRect,0.237500X0.237500X-0.250000X0.237500X0.250000X-0.237500X0.250000X-0.237500X-0.250000X0*%
%ADD13RoundRect,0.237500X-0.237500X0.250000X-0.237500X-0.250000X0.237500X-0.250000X0.237500X0.250000X0*%
%ADD14RoundRect,0.237500X-0.237500X0.300000X-0.237500X-0.300000X0.237500X-0.300000X0.237500X0.300000X0*%
%ADD15RoundRect,0.237500X0.237500X-0.300000X0.237500X0.300000X-0.237500X0.300000X-0.237500X-0.300000X0*%
%ADD16RoundRect,0.237500X0.300000X0.237500X-0.300000X0.237500X-0.300000X-0.237500X0.300000X-0.237500X0*%
%ADD17RoundRect,0.237500X-0.300000X-0.237500X0.300000X-0.237500X0.300000X0.237500X-0.300000X0.237500X0*%
%ADD18RoundRect,0.162500X0.617500X0.162500X-0.617500X0.162500X-0.617500X-0.162500X0.617500X-0.162500X0*%
%ADD19RoundRect,0.237500X-0.250000X-0.237500X0.250000X-0.237500X0.250000X0.237500X-0.250000X0.237500X0*%
%ADD20R,1.000000X1.000000*%
%ADD21C,1.000000*%
%ADD22C,1.500000*%
G04 #@! TA.AperFunction,Profile*
%ADD23C,0.050000*%
G04 #@! TD*
G04 APERTURE END LIST*
D10*
G04 #@! TO.C,J2*
X140020000Y-93500000D03*
D11*
X140000000Y-96000000D03*
G04 #@! TD*
D12*
G04 #@! TO.C,R17*
X121100000Y-108025000D03*
X121100000Y-106200000D03*
G04 #@! TD*
D13*
G04 #@! TO.C,R21*
X134000000Y-87737500D03*
X134000000Y-89562500D03*
G04 #@! TD*
D14*
G04 #@! TO.C,C21*
X125300000Y-106250000D03*
X125300000Y-107975000D03*
G04 #@! TD*
D15*
G04 #@! TO.C,C25*
X129450000Y-99950000D03*
X129450000Y-98225000D03*
G04 #@! TD*
D13*
G04 #@! TO.C,R13*
X110000000Y-89287500D03*
X110000000Y-91112500D03*
G04 #@! TD*
D12*
G04 #@! TO.C,R19*
X127200000Y-106312500D03*
X127200000Y-104487500D03*
G04 #@! TD*
D14*
G04 #@! TO.C,C20*
X128900000Y-104537500D03*
X128900000Y-106262500D03*
G04 #@! TD*
D15*
G04 #@! TO.C,C24*
X118000000Y-95462500D03*
X118000000Y-93737500D03*
G04 #@! TD*
D16*
G04 #@! TO.C,C26*
X132412500Y-93700000D03*
X130687500Y-93700000D03*
G04 #@! TD*
D17*
G04 #@! TO.C,C8*
X125950000Y-92436528D03*
X127675000Y-92436528D03*
G04 #@! TD*
D13*
G04 #@! TO.C,R15*
X116400000Y-93700000D03*
X116400000Y-95525000D03*
G04 #@! TD*
D14*
G04 #@! TO.C,C22*
X119500000Y-106250000D03*
X119500000Y-107975000D03*
G04 #@! TD*
G04 #@! TO.C,C23*
X116430000Y-102737500D03*
X116430000Y-104462500D03*
G04 #@! TD*
D12*
G04 #@! TO.C,R16*
X118030000Y-104500000D03*
X118030000Y-102675000D03*
G04 #@! TD*
D18*
G04 #@! TO.C,U4*
X128650000Y-90600000D03*
X128650000Y-89650000D03*
X128650000Y-88700000D03*
X125950000Y-88700000D03*
X125950000Y-90600000D03*
G04 #@! TD*
D19*
G04 #@! TO.C,R12*
X105320000Y-106250000D03*
X107145000Y-106250000D03*
G04 #@! TD*
D17*
G04 #@! TO.C,C7*
X130600000Y-89650000D03*
X132325000Y-89650000D03*
G04 #@! TD*
D13*
G04 #@! TO.C,R20*
X127700000Y-98175000D03*
X127700000Y-100000000D03*
G04 #@! TD*
D12*
G04 #@! TO.C,R18*
X123700000Y-108025000D03*
X123700000Y-106200000D03*
G04 #@! TD*
D20*
G04 #@! TO.C,J1*
X140000000Y-111217500D03*
D21*
X140000000Y-112487500D03*
G04 #@! TD*
G04 #@! TO.C,D3*
X110000000Y-97450000D03*
X107450000Y-100000000D03*
X110000000Y-102550000D03*
G04 #@! TD*
D19*
G04 #@! TO.C,R14*
X105987500Y-93360000D03*
X107812500Y-93360000D03*
G04 #@! TD*
G04 #@! TO.C,R22*
X130637500Y-91950000D03*
X132462500Y-91950000D03*
G04 #@! TD*
D22*
G04 #@! TO.C,SW1*
X120203949Y-98203949D03*
X119460000Y-100000000D03*
X120203949Y-101796051D03*
X122000000Y-102540000D03*
X123796051Y-101796051D03*
X124540000Y-100000000D03*
X123796051Y-98203949D03*
X122000000Y-97460000D03*
G04 #@! TD*
D23*
X90000000Y-86000000D02*
X90000000Y-114000000D01*
X90000000Y-86000000D02*
G75*
G02*
X91000000Y-85000000I1000000J0D01*
G01*
X91000000Y-115000000D02*
G75*
G02*
X90000000Y-114000000I0J1000000D01*
G01*
X91000000Y-115000000D02*
X144000000Y-115000000D01*
X93150000Y-113000000D02*
G75*
G02*
X90850000Y-113000000I-1150000J0D01*
G01*
X90850000Y-113000000D02*
G75*
G02*
X93150000Y-113000000I1150000J0D01*
G01*
X144150000Y-87000000D02*
G75*
G02*
X141850000Y-87000000I-1150000J0D01*
G01*
X141850000Y-87000000D02*
G75*
G02*
X144150000Y-87000000I1150000J0D01*
G01*
X144000000Y-85000000D02*
X91000000Y-85000000D01*
X144000000Y-85000000D02*
G75*
G02*
X145000000Y-86000000I0J-1000000D01*
G01*
X145000000Y-114000000D02*
G75*
G02*
X144000000Y-115000000I-1000000J0D01*
G01*
X145000000Y-114000000D02*
X145000000Y-86000000D01*
G04 #@! TO.C,SW1*
X118935898Y-98000000D02*
G75*
G02*
X118135898Y-98000000I-400000J0D01*
G01*
X118135898Y-98000000D02*
G75*
G02*
X118935898Y-98000000I400000J0D01*
G01*
X122400000Y-104000000D02*
G75*
G02*
X121600000Y-104000000I-400000J0D01*
G01*
X121600000Y-104000000D02*
G75*
G02*
X122400000Y-104000000I400000J0D01*
G01*
X125864102Y-98000000D02*
G75*
G02*
X125064102Y-98000000I-400000J0D01*
G01*
X125064102Y-98000000D02*
G75*
G02*
X125864102Y-98000000I400000J0D01*
G01*
G04 #@! TD*
M02*
