G04 #@! TF.GenerationSoftware,KiCad,Pcbnew,10.0.1*
G04 #@! TF.CreationDate,2026-06-11T14:30:42+08:00*
G04 #@! TF.ProjectId,photodiodes_kicadproject,70686f74-6f64-4696-9f64-65735f6b6963,rev?*
G04 #@! TF.SameCoordinates,Original*
G04 #@! TF.FileFunction,Paste,Bot*
G04 #@! TF.FilePolarity,Positive*
%FSLAX46Y46*%
G04 Gerber Fmt 4.6, Leading zero omitted, Abs format (unit mm)*
G04 Created by KiCad (PCBNEW 10.0.1) date 2026-06-11 14:30:42*
%MOMM*%
%LPD*%
G01*
G04 APERTURE LIST*
G04 Aperture macros list*
%AMRoundRect*
0 Rectangle with rounded corners*
0 $1 Rounding radius*
0 $2 $3 $4 $5 $6 $7 $8 $9 X,Y pos of 4 corners*
0 Add a 4 corners polygon primitive as box body*
4,1,4,$2,$3,$4,$5,$6,$7,$8,$9,$2,$3,0*
0 Add four circle primitives for the rounded corners*
1,1,$1+$1,$2,$3*
1,1,$1+$1,$4,$5*
1,1,$1+$1,$6,$7*
1,1,$1+$1,$8,$9*
0 Add four rect primitives between the rounded corners*
20,1,$1+$1,$2,$3,$4,$5,0*
20,1,$1+$1,$4,$5,$6,$7,0*
20,1,$1+$1,$6,$7,$8,$9,0*
20,1,$1+$1,$8,$9,$2,$3,0*%
G04 Aperture macros list end*
%ADD10RoundRect,0.237500X0.300000X0.237500X-0.300000X0.237500X-0.300000X-0.237500X0.300000X-0.237500X0*%
%ADD11RoundRect,0.160000X-0.197500X-0.160000X0.197500X-0.160000X0.197500X0.160000X-0.197500X0.160000X0*%
%ADD12RoundRect,0.237500X0.237500X-0.300000X0.237500X0.300000X-0.237500X0.300000X-0.237500X-0.300000X0*%
%ADD13RoundRect,0.241935X-0.508065X-1.508065X0.508065X-1.508065X0.508065X1.508065X-0.508065X1.508065X0*%
%ADD14RoundRect,0.237500X-0.250000X-0.237500X0.250000X-0.237500X0.250000X0.237500X-0.250000X0.237500X0*%
%ADD15RoundRect,0.155000X-0.212500X-0.155000X0.212500X-0.155000X0.212500X0.155000X-0.212500X0.155000X0*%
%ADD16R,2.670000X2.540000*%
%ADD17R,0.762000X1.270000*%
%ADD18RoundRect,0.375000X-0.625000X-0.375000X0.625000X-0.375000X0.625000X0.375000X-0.625000X0.375000X0*%
%ADD19RoundRect,0.500000X-0.500000X-1.400000X0.500000X-1.400000X0.500000X1.400000X-0.500000X1.400000X0*%
%ADD20RoundRect,0.155000X-0.155000X0.212500X-0.155000X-0.212500X0.155000X-0.212500X0.155000X0.212500X0*%
%ADD21RoundRect,0.160000X0.160000X-0.197500X0.160000X0.197500X-0.160000X0.197500X-0.160000X-0.197500X0*%
%ADD22RoundRect,0.237500X-0.237500X0.300000X-0.237500X-0.300000X0.237500X-0.300000X0.237500X0.300000X0*%
%ADD23RoundRect,0.152500X0.152500X0.152500X-0.152500X0.152500X-0.152500X-0.152500X0.152500X-0.152500X0*%
%ADD24RoundRect,0.062500X0.325000X0.062500X-0.325000X0.062500X-0.325000X-0.062500X0.325000X-0.062500X0*%
%ADD25RoundRect,0.062500X0.062500X0.325000X-0.062500X0.325000X-0.062500X-0.325000X0.062500X-0.325000X0*%
%ADD26RoundRect,0.160000X0.197500X0.160000X-0.197500X0.160000X-0.197500X-0.160000X0.197500X-0.160000X0*%
%ADD27RoundRect,0.241935X0.508065X1.508065X-0.508065X1.508065X-0.508065X-1.508065X0.508065X-1.508065X0*%
%ADD28RoundRect,0.155000X0.212500X0.155000X-0.212500X0.155000X-0.212500X-0.155000X0.212500X-0.155000X0*%
%ADD29RoundRect,0.150000X-0.587500X-0.150000X0.587500X-0.150000X0.587500X0.150000X-0.587500X0.150000X0*%
%ADD30RoundRect,0.237500X0.250000X0.237500X-0.250000X0.237500X-0.250000X-0.237500X0.250000X-0.237500X0*%
%ADD31R,2.540000X2.670000*%
%ADD32R,1.270000X0.762000*%
%ADD33RoundRect,0.237500X-0.237500X0.250000X-0.237500X-0.250000X0.237500X-0.250000X0.237500X0.250000X0*%
%ADD34RoundRect,0.155000X0.155000X-0.212500X0.155000X0.212500X-0.155000X0.212500X-0.155000X-0.212500X0*%
G04 #@! TA.AperFunction,Profile*
%ADD35C,0.050000*%
G04 #@! TD*
G04 APERTURE END LIST*
D10*
G04 #@! TO.C,C19*
X100062500Y-101700000D03*
X98337500Y-101700000D03*
G04 #@! TD*
D11*
G04 #@! TO.C,R11*
X128205000Y-104300000D03*
X129400000Y-104300000D03*
G04 #@! TD*
D12*
G04 #@! TO.C,C15*
X104800000Y-112100000D03*
X104800000Y-110375000D03*
G04 #@! TD*
D13*
G04 #@! TO.C,L2*
X131750000Y-111400000D03*
X135450000Y-111400000D03*
G04 #@! TD*
D14*
G04 #@! TO.C,R4*
X99837500Y-97500000D03*
X101662500Y-97500000D03*
G04 #@! TD*
D15*
G04 #@! TO.C,C6*
X136432500Y-102937500D03*
X137567500Y-102937500D03*
G04 #@! TD*
D16*
G04 #@! TO.C,D2*
X131751000Y-107300000D03*
D17*
X129400000Y-107300000D03*
G04 #@! TD*
D18*
G04 #@! TO.C,U2*
X95350000Y-108550000D03*
X95350000Y-106250000D03*
D19*
X101650000Y-106250000D03*
D18*
X95350000Y-103950000D03*
G04 #@! TD*
D20*
G04 #@! TO.C,C12*
X127750000Y-105420000D03*
X127750000Y-106555000D03*
G04 #@! TD*
D15*
G04 #@! TO.C,C1*
X95350000Y-88750000D03*
X96485000Y-88750000D03*
G04 #@! TD*
D14*
G04 #@! TO.C,R2*
X95350000Y-110900000D03*
X97175000Y-110900000D03*
G04 #@! TD*
D21*
G04 #@! TO.C,R3*
X136100000Y-105830000D03*
X136100000Y-104635000D03*
G04 #@! TD*
D22*
G04 #@! TO.C,C16*
X105900000Y-89250000D03*
X105900000Y-90975000D03*
G04 #@! TD*
D18*
G04 #@! TO.C,U1*
X95350000Y-95300000D03*
X95350000Y-93000000D03*
D19*
X101650000Y-93000000D03*
D18*
X95350000Y-90700000D03*
G04 #@! TD*
D22*
G04 #@! TO.C,C14*
X104100000Y-89250000D03*
X104100000Y-90975000D03*
G04 #@! TD*
D23*
G04 #@! TO.C,U3*
X133570000Y-103507500D03*
X133570000Y-102687500D03*
X133570000Y-101867500D03*
X132750000Y-103507500D03*
X132750000Y-102687500D03*
X132750000Y-101867500D03*
X131930000Y-103507500D03*
X131930000Y-102687500D03*
X131930000Y-101867500D03*
D24*
X134737500Y-101437500D03*
X134737500Y-101937500D03*
X134737500Y-102437500D03*
X134737500Y-102937500D03*
X134737500Y-103437500D03*
X134737500Y-103937500D03*
D25*
X134000000Y-104675000D03*
X133500000Y-104675000D03*
X133000000Y-104675000D03*
X132500000Y-104675000D03*
X132000000Y-104675000D03*
X131500000Y-104675000D03*
D24*
X130762500Y-103937500D03*
X130762500Y-103437500D03*
X130762500Y-102937500D03*
X130762500Y-102437500D03*
X130762500Y-101937500D03*
X130762500Y-101437500D03*
D25*
X131500000Y-100700000D03*
X132000000Y-100700000D03*
X132500000Y-100700000D03*
X133000000Y-100700000D03*
X133500000Y-100700000D03*
X134000000Y-100700000D03*
G04 #@! TD*
D11*
G04 #@! TO.C,R9*
X128205000Y-103200000D03*
X129400000Y-103200000D03*
G04 #@! TD*
D12*
G04 #@! TO.C,C17*
X106500000Y-112100000D03*
X106500000Y-110375000D03*
G04 #@! TD*
D26*
G04 #@! TO.C,R7*
X134195000Y-98189447D03*
X133000000Y-98189447D03*
G04 #@! TD*
D27*
G04 #@! TO.C,L1*
X143027804Y-100732500D03*
X139327804Y-100732500D03*
G04 #@! TD*
D28*
G04 #@! TO.C,C5*
X142417500Y-103982500D03*
X141282500Y-103982500D03*
G04 #@! TD*
D29*
G04 #@! TO.C,Q1*
X139162500Y-108932500D03*
X139162500Y-107032500D03*
X141037500Y-107982500D03*
G04 #@! TD*
D26*
G04 #@! TO.C,R6*
X129400000Y-101937500D03*
X128205000Y-101937500D03*
G04 #@! TD*
D30*
G04 #@! TO.C,R1*
X97162500Y-97500000D03*
X95337500Y-97500000D03*
G04 #@! TD*
D11*
G04 #@! TO.C,R8*
X133000000Y-94840000D03*
X134195000Y-94840000D03*
G04 #@! TD*
D31*
G04 #@! TO.C,D1*
X136651700Y-98401145D03*
D32*
X136651700Y-100752145D03*
G04 #@! TD*
D12*
G04 #@! TO.C,C18*
X93000000Y-93000000D03*
X93000000Y-91275000D03*
G04 #@! TD*
D26*
G04 #@! TO.C,R10*
X134195000Y-97089447D03*
X133000000Y-97089447D03*
G04 #@! TD*
D33*
G04 #@! TO.C,R5*
X93000000Y-106250000D03*
X93000000Y-108075000D03*
G04 #@! TD*
D28*
G04 #@! TO.C,C13*
X134135000Y-95989447D03*
X133000000Y-95989447D03*
G04 #@! TD*
D34*
G04 #@! TO.C,C9*
X131950000Y-99467500D03*
X131950000Y-98332500D03*
G04 #@! TD*
D15*
G04 #@! TO.C,C2*
X100515000Y-110900000D03*
X101650000Y-110900000D03*
G04 #@! TD*
D34*
G04 #@! TO.C,C11*
X129950000Y-100467500D03*
X129950000Y-99332500D03*
G04 #@! TD*
G04 #@! TO.C,C4*
X137100000Y-105830000D03*
X137100000Y-104695000D03*
G04 #@! TD*
G04 #@! TO.C,C3*
X138350000Y-105800000D03*
X138350000Y-104665000D03*
G04 #@! TD*
G04 #@! TO.C,C10*
X128800000Y-100467500D03*
X128800000Y-99332500D03*
G04 #@! TD*
D35*
X90000000Y-86000000D02*
X90000000Y-114000000D01*
X90000000Y-86000000D02*
G75*
G02*
X91000000Y-85000000I1000000J0D01*
G01*
X91000000Y-115000000D02*
G75*
G02*
X90000000Y-114000000I0J1000000D01*
G01*
X91000000Y-115000000D02*
X144000000Y-115000000D01*
X93150000Y-113000000D02*
G75*
G02*
X90850000Y-113000000I-1150000J0D01*
G01*
X90850000Y-113000000D02*
G75*
G02*
X93150000Y-113000000I1150000J0D01*
G01*
X144150000Y-87000000D02*
G75*
G02*
X141850000Y-87000000I-1150000J0D01*
G01*
X141850000Y-87000000D02*
G75*
G02*
X144150000Y-87000000I1150000J0D01*
G01*
X144000000Y-85000000D02*
X91000000Y-85000000D01*
X144000000Y-85000000D02*
G75*
G02*
X145000000Y-86000000I0J-1000000D01*
G01*
X145000000Y-114000000D02*
G75*
G02*
X144000000Y-115000000I-1000000J0D01*
G01*
X145000000Y-114000000D02*
X145000000Y-86000000D01*
G04 #@! TO.C,SW1*
X118935898Y-98000000D02*
G75*
G02*
X118135898Y-98000000I-400000J0D01*
G01*
X118135898Y-98000000D02*
G75*
G02*
X118935898Y-98000000I400000J0D01*
G01*
X122400000Y-104000000D02*
G75*
G02*
X121600000Y-104000000I-400000J0D01*
G01*
X121600000Y-104000000D02*
G75*
G02*
X122400000Y-104000000I400000J0D01*
G01*
X125864102Y-98000000D02*
G75*
G02*
X125064102Y-98000000I-400000J0D01*
G01*
X125064102Y-98000000D02*
G75*
G02*
X125864102Y-98000000I400000J0D01*
G01*
G04 #@! TD*
M02*
