G04 #@! TF.GenerationSoftware,KiCad,Pcbnew,10.0.1*
G04 #@! TF.CreationDate,2026-06-11T12:54:59+08:00*
G04 #@! TF.ProjectId,photodiodes_kicadproject,70686f74-6f64-4696-9f64-65735f6b6963,rev?*
G04 #@! TF.SameCoordinates,Original*
G04 #@! TF.FileFunction,AssemblyDrawing,Bot*
%FSLAX46Y46*%
G04 Gerber Fmt 4.6, Leading zero omitted, Abs format (unit mm)*
G04 Created by KiCad (PCBNEW 10.0.1) date 2026-06-11 12:54:59*
%MOMM*%
%LPD*%
G01*
G04 APERTURE LIST*
%ADD10C,0.150000*%
%ADD11C,0.100000*%
G04 #@! TA.AperFunction,Profile*
%ADD12C,0.050000*%
G04 #@! TD*
G04 APERTURE END LIST*
D10*
X128809524Y-107207200D02*
X128666667Y-107254819D01*
X128666667Y-107254819D02*
X128428572Y-107254819D01*
X128428572Y-107254819D02*
X128333334Y-107207200D01*
X128333334Y-107207200D02*
X128285715Y-107159580D01*
X128285715Y-107159580D02*
X128238096Y-107064342D01*
X128238096Y-107064342D02*
X128238096Y-106969104D01*
X128238096Y-106969104D02*
X128285715Y-106873866D01*
X128285715Y-106873866D02*
X128333334Y-106826247D01*
X128333334Y-106826247D02*
X128428572Y-106778628D01*
X128428572Y-106778628D02*
X128619048Y-106731009D01*
X128619048Y-106731009D02*
X128714286Y-106683390D01*
X128714286Y-106683390D02*
X128761905Y-106635771D01*
X128761905Y-106635771D02*
X128809524Y-106540533D01*
X128809524Y-106540533D02*
X128809524Y-106445295D01*
X128809524Y-106445295D02*
X128761905Y-106350057D01*
X128761905Y-106350057D02*
X128714286Y-106302438D01*
X128714286Y-106302438D02*
X128619048Y-106254819D01*
X128619048Y-106254819D02*
X128380953Y-106254819D01*
X128380953Y-106254819D02*
X128238096Y-106302438D01*
X127904762Y-106254819D02*
X127666667Y-107254819D01*
X127666667Y-107254819D02*
X127476191Y-106540533D01*
X127476191Y-106540533D02*
X127285715Y-107254819D01*
X127285715Y-107254819D02*
X127047620Y-106254819D01*
X126904763Y-107350057D02*
X126142858Y-107350057D01*
X125333334Y-107254819D02*
X125666667Y-106778628D01*
X125904762Y-107254819D02*
X125904762Y-106254819D01*
X125904762Y-106254819D02*
X125523810Y-106254819D01*
X125523810Y-106254819D02*
X125428572Y-106302438D01*
X125428572Y-106302438D02*
X125380953Y-106350057D01*
X125380953Y-106350057D02*
X125333334Y-106445295D01*
X125333334Y-106445295D02*
X125333334Y-106588152D01*
X125333334Y-106588152D02*
X125380953Y-106683390D01*
X125380953Y-106683390D02*
X125428572Y-106731009D01*
X125428572Y-106731009D02*
X125523810Y-106778628D01*
X125523810Y-106778628D02*
X125904762Y-106778628D01*
X124761905Y-107254819D02*
X124857143Y-107207200D01*
X124857143Y-107207200D02*
X124904762Y-107159580D01*
X124904762Y-107159580D02*
X124952381Y-107064342D01*
X124952381Y-107064342D02*
X124952381Y-106778628D01*
X124952381Y-106778628D02*
X124904762Y-106683390D01*
X124904762Y-106683390D02*
X124857143Y-106635771D01*
X124857143Y-106635771D02*
X124761905Y-106588152D01*
X124761905Y-106588152D02*
X124619048Y-106588152D01*
X124619048Y-106588152D02*
X124523810Y-106635771D01*
X124523810Y-106635771D02*
X124476191Y-106683390D01*
X124476191Y-106683390D02*
X124428572Y-106778628D01*
X124428572Y-106778628D02*
X124428572Y-107064342D01*
X124428572Y-107064342D02*
X124476191Y-107159580D01*
X124476191Y-107159580D02*
X124523810Y-107207200D01*
X124523810Y-107207200D02*
X124619048Y-107254819D01*
X124619048Y-107254819D02*
X124761905Y-107254819D01*
X124142857Y-106588152D02*
X123761905Y-106588152D01*
X124000000Y-106254819D02*
X124000000Y-107111961D01*
X124000000Y-107111961D02*
X123952381Y-107207200D01*
X123952381Y-107207200D02*
X123857143Y-107254819D01*
X123857143Y-107254819D02*
X123761905Y-107254819D01*
X123000000Y-107254819D02*
X123000000Y-106731009D01*
X123000000Y-106731009D02*
X123047619Y-106635771D01*
X123047619Y-106635771D02*
X123142857Y-106588152D01*
X123142857Y-106588152D02*
X123333333Y-106588152D01*
X123333333Y-106588152D02*
X123428571Y-106635771D01*
X123000000Y-107207200D02*
X123095238Y-107254819D01*
X123095238Y-107254819D02*
X123333333Y-107254819D01*
X123333333Y-107254819D02*
X123428571Y-107207200D01*
X123428571Y-107207200D02*
X123476190Y-107111961D01*
X123476190Y-107111961D02*
X123476190Y-107016723D01*
X123476190Y-107016723D02*
X123428571Y-106921485D01*
X123428571Y-106921485D02*
X123333333Y-106873866D01*
X123333333Y-106873866D02*
X123095238Y-106873866D01*
X123095238Y-106873866D02*
X123000000Y-106826247D01*
X122523809Y-107254819D02*
X122523809Y-106588152D01*
X122523809Y-106778628D02*
X122476190Y-106683390D01*
X122476190Y-106683390D02*
X122428571Y-106635771D01*
X122428571Y-106635771D02*
X122333333Y-106588152D01*
X122333333Y-106588152D02*
X122238095Y-106588152D01*
X121999999Y-106588152D02*
X121761904Y-107254819D01*
X121523809Y-106588152D02*
X121761904Y-107254819D01*
X121761904Y-107254819D02*
X121857142Y-107492914D01*
X121857142Y-107492914D02*
X121904761Y-107540533D01*
X121904761Y-107540533D02*
X121999999Y-107588152D01*
X121380952Y-107350057D02*
X120619047Y-107350057D01*
X119857142Y-107254819D02*
X120428570Y-107254819D01*
X120142856Y-107254819D02*
X120142856Y-106254819D01*
X120142856Y-106254819D02*
X120238094Y-106397676D01*
X120238094Y-106397676D02*
X120333332Y-106492914D01*
X120333332Y-106492914D02*
X120428570Y-106540533D01*
X119523808Y-107254819D02*
X118999999Y-106588152D01*
X119523808Y-106588152D02*
X118999999Y-107254819D01*
X118190475Y-106254819D02*
X118380951Y-106254819D01*
X118380951Y-106254819D02*
X118476189Y-106302438D01*
X118476189Y-106302438D02*
X118523808Y-106350057D01*
X118523808Y-106350057D02*
X118619046Y-106492914D01*
X118619046Y-106492914D02*
X118666665Y-106683390D01*
X118666665Y-106683390D02*
X118666665Y-107064342D01*
X118666665Y-107064342D02*
X118619046Y-107159580D01*
X118619046Y-107159580D02*
X118571427Y-107207200D01*
X118571427Y-107207200D02*
X118476189Y-107254819D01*
X118476189Y-107254819D02*
X118285713Y-107254819D01*
X118285713Y-107254819D02*
X118190475Y-107207200D01*
X118190475Y-107207200D02*
X118142856Y-107159580D01*
X118142856Y-107159580D02*
X118095237Y-107064342D01*
X118095237Y-107064342D02*
X118095237Y-106826247D01*
X118095237Y-106826247D02*
X118142856Y-106731009D01*
X118142856Y-106731009D02*
X118190475Y-106683390D01*
X118190475Y-106683390D02*
X118285713Y-106635771D01*
X118285713Y-106635771D02*
X118476189Y-106635771D01*
X118476189Y-106635771D02*
X118571427Y-106683390D01*
X118571427Y-106683390D02*
X118619046Y-106731009D01*
X118619046Y-106731009D02*
X118666665Y-106826247D01*
X117904761Y-107350057D02*
X117142856Y-107350057D01*
X116904760Y-107254819D02*
X116904760Y-106254819D01*
X116904760Y-106254819D02*
X116571427Y-106969104D01*
X116571427Y-106969104D02*
X116238094Y-106254819D01*
X116238094Y-106254819D02*
X116238094Y-107254819D01*
X115761903Y-107254819D02*
X115761903Y-106254819D01*
X115761903Y-106254819D02*
X115380951Y-106254819D01*
X115380951Y-106254819D02*
X115285713Y-106302438D01*
X115285713Y-106302438D02*
X115238094Y-106350057D01*
X115238094Y-106350057D02*
X115190475Y-106445295D01*
X115190475Y-106445295D02*
X115190475Y-106588152D01*
X115190475Y-106588152D02*
X115238094Y-106683390D01*
X115238094Y-106683390D02*
X115285713Y-106731009D01*
X115285713Y-106731009D02*
X115380951Y-106778628D01*
X115380951Y-106778628D02*
X115761903Y-106778628D01*
X123333332Y-108907200D02*
X123190475Y-108954819D01*
X123190475Y-108954819D02*
X122952380Y-108954819D01*
X122952380Y-108954819D02*
X122857142Y-108907200D01*
X122857142Y-108907200D02*
X122809523Y-108859580D01*
X122809523Y-108859580D02*
X122761904Y-108764342D01*
X122761904Y-108764342D02*
X122761904Y-108669104D01*
X122761904Y-108669104D02*
X122809523Y-108573866D01*
X122809523Y-108573866D02*
X122857142Y-108526247D01*
X122857142Y-108526247D02*
X122952380Y-108478628D01*
X122952380Y-108478628D02*
X123142856Y-108431009D01*
X123142856Y-108431009D02*
X123238094Y-108383390D01*
X123238094Y-108383390D02*
X123285713Y-108335771D01*
X123285713Y-108335771D02*
X123333332Y-108240533D01*
X123333332Y-108240533D02*
X123333332Y-108145295D01*
X123333332Y-108145295D02*
X123285713Y-108050057D01*
X123285713Y-108050057D02*
X123238094Y-108002438D01*
X123238094Y-108002438D02*
X123142856Y-107954819D01*
X123142856Y-107954819D02*
X122904761Y-107954819D01*
X122904761Y-107954819D02*
X122761904Y-108002438D01*
X122428570Y-107954819D02*
X122190475Y-108954819D01*
X122190475Y-108954819D02*
X121999999Y-108240533D01*
X121999999Y-108240533D02*
X121809523Y-108954819D01*
X121809523Y-108954819D02*
X121571428Y-107954819D01*
X120666666Y-108954819D02*
X121238094Y-108954819D01*
X120952380Y-108954819D02*
X120952380Y-107954819D01*
X120952380Y-107954819D02*
X121047618Y-108097676D01*
X121047618Y-108097676D02*
X121142856Y-108192914D01*
X121142856Y-108192914D02*
X121238094Y-108240533D01*
X120447375Y-108454819D02*
X123558332Y-108454819D01*
D11*
X126800001Y-104800001D02*
X117199999Y-94400000D01*
X117199999Y-104800001D02*
X126800001Y-94400000D01*
D12*
X90000000Y-86000000D02*
X90000000Y-114000000D01*
X90000000Y-86000000D02*
G75*
G02*
X91000000Y-85000000I1000000J0D01*
G01*
X91000000Y-115000000D02*
G75*
G02*
X90000000Y-114000000I0J1000000D01*
G01*
X91000000Y-115000000D02*
X144000000Y-115000000D01*
X93150000Y-113000000D02*
G75*
G02*
X90850000Y-113000000I-1150000J0D01*
G01*
X90850000Y-113000000D02*
G75*
G02*
X93150000Y-113000000I1150000J0D01*
G01*
X144150000Y-87000000D02*
G75*
G02*
X141850000Y-87000000I-1150000J0D01*
G01*
X141850000Y-87000000D02*
G75*
G02*
X144150000Y-87000000I1150000J0D01*
G01*
X144000000Y-85000000D02*
X91000000Y-85000000D01*
X144000000Y-85000000D02*
G75*
G02*
X145000000Y-86000000I0J-1000000D01*
G01*
X145000000Y-114000000D02*
G75*
G02*
X144000000Y-115000000I-1000000J0D01*
G01*
X145000000Y-114000000D02*
X145000000Y-86000000D01*
G04 #@! TO.C,SW1*
X118935898Y-98000000D02*
G75*
G02*
X118135898Y-98000000I-400000J0D01*
G01*
X118135898Y-98000000D02*
G75*
G02*
X118935898Y-98000000I400000J0D01*
G01*
X122400000Y-104000000D02*
G75*
G02*
X121600000Y-104000000I-400000J0D01*
G01*
X121600000Y-104000000D02*
G75*
G02*
X122400000Y-104000000I400000J0D01*
G01*
X125864102Y-98000000D02*
G75*
G02*
X125064102Y-98000000I-400000J0D01*
G01*
X125064102Y-98000000D02*
G75*
G02*
X125864102Y-98000000I400000J0D01*
G01*
G04 #@! TD*
M02*
