G04 #@! TF.GenerationSoftware,KiCad,Pcbnew,10.0.1*
G04 #@! TF.CreationDate,2026-06-11T14:30:42+08:00*
G04 #@! TF.ProjectId,photodiodes_kicadproject,70686f74-6f64-4696-9f64-65735f6b6963,rev?*
G04 #@! TF.SameCoordinates,Original*
G04 #@! TF.FileFunction,Legend,Bot*
G04 #@! TF.FilePolarity,Positive*
%FSLAX46Y46*%
G04 Gerber Fmt 4.6, Leading zero omitted, Abs format (unit mm)*
G04 Created by KiCad (PCBNEW 10.0.1) date 2026-06-11 14:30:42*
%MOMM*%
%LPD*%
G01*
G04 APERTURE LIST*
%ADD10C,0.100000*%
%ADD11C,0.150000*%
%ADD12C,0.120000*%
%ADD13C,0.200000*%
G04 #@! TA.AperFunction,Profile*
%ADD14C,0.050000*%
G04 #@! TD*
G04 APERTURE END LIST*
D10*
X114600000Y-100000000D02*
G75*
G02*
X105400000Y-100000000I-4600000J0D01*
G01*
X105400000Y-100000000D02*
G75*
G02*
X114600000Y-100000000I4600000J0D01*
G01*
D11*
G36*
X99436522Y-100395835D02*
G01*
X99442114Y-100444412D01*
X99460274Y-100499944D01*
X99489817Y-100553970D01*
X99534768Y-100609670D01*
X99570809Y-100642564D01*
X99613749Y-100671707D01*
X99664461Y-100697048D01*
X99718098Y-100715220D01*
X99778997Y-100726631D01*
X99848315Y-100730631D01*
X99925838Y-100726707D01*
X99992968Y-100715610D01*
X100055689Y-100696252D01*
X100111365Y-100668960D01*
X100161805Y-100632691D01*
X100209123Y-100585368D01*
X100245816Y-100535432D01*
X100277083Y-100479244D01*
X100301549Y-100418940D01*
X100319215Y-100354070D01*
X100329666Y-100286291D01*
X100333259Y-100212775D01*
X100329101Y-100132428D01*
X100317141Y-100060281D01*
X100297966Y-99995338D01*
X100270581Y-99933546D01*
X100236856Y-99878981D01*
X100196727Y-99830901D01*
X100150259Y-99788945D01*
X100098971Y-99754366D01*
X100042366Y-99726854D01*
X99982486Y-99707111D01*
X99919820Y-99695174D01*
X99853811Y-99691133D01*
X99773575Y-99696801D01*
X99701502Y-99713190D01*
X99636312Y-99739799D01*
X99575797Y-99776140D01*
X99527611Y-99816289D01*
X99490133Y-99860272D01*
X99460578Y-99909939D01*
X99444361Y-99954799D01*
X99439269Y-99996132D01*
X99445493Y-100029475D01*
X99464426Y-100058963D01*
X99492317Y-100079404D01*
X99525243Y-100086135D01*
X99561432Y-100080946D01*
X99584838Y-100067267D01*
X99603931Y-100044356D01*
X99628741Y-100002909D01*
X99657913Y-99955655D01*
X99688768Y-99919210D01*
X99721309Y-99891962D01*
X99758362Y-99872037D01*
X99801590Y-99859633D01*
X99852406Y-99855265D01*
X99912406Y-99861415D01*
X99964325Y-99879127D01*
X100009872Y-99908240D01*
X100050121Y-99949848D01*
X100080453Y-99998351D01*
X100103438Y-100057843D01*
X100118324Y-100130547D01*
X100123699Y-100219125D01*
X100119635Y-100296643D01*
X100108386Y-100360614D01*
X100091092Y-100413176D01*
X100065463Y-100461683D01*
X100034767Y-100499602D01*
X99998891Y-100528459D01*
X99957671Y-100549292D01*
X99911492Y-100562071D01*
X99859245Y-100566500D01*
X99802745Y-100561408D01*
X99754352Y-100546882D01*
X99712516Y-100523391D01*
X99676755Y-100491172D01*
X99646588Y-100449461D01*
X99622024Y-100396568D01*
X99606781Y-100359045D01*
X99589479Y-100331050D01*
X99574632Y-100317391D01*
X99554289Y-100308723D01*
X99526586Y-100305526D01*
X99492219Y-100312010D01*
X99463083Y-100331477D01*
X99443225Y-100360360D01*
X99436522Y-100395835D01*
G37*
G36*
X98972521Y-100618218D02*
G01*
X98972521Y-100001871D01*
X99093394Y-100086728D01*
X99164805Y-100123758D01*
X99204186Y-100132725D01*
X99231702Y-100127015D01*
X99256515Y-100109277D01*
X99273633Y-100083724D01*
X99279229Y-100054872D01*
X99273274Y-100022922D01*
X99256942Y-100002299D01*
X99230022Y-99985255D01*
X99179090Y-99959434D01*
X99102056Y-99917781D01*
X99047321Y-99877674D01*
X99000774Y-99832181D01*
X98959760Y-99781503D01*
X98909629Y-99715558D01*
X98894316Y-99706606D01*
X98864688Y-99702857D01*
X98841289Y-99706116D01*
X98821769Y-99715538D01*
X98805154Y-99731495D01*
X98788862Y-99763825D01*
X98782806Y-99809958D01*
X98782806Y-100591474D01*
X98787874Y-100648187D01*
X98800908Y-100686246D01*
X98819953Y-100710903D01*
X98845079Y-100725462D01*
X98878366Y-100730631D01*
X98905432Y-100727310D01*
X98927845Y-100717821D01*
X98946693Y-100702116D01*
X98960364Y-100681538D01*
X98969243Y-100654240D01*
X98972521Y-100618218D01*
G37*
G36*
X98219789Y-99709557D02*
G01*
X98285710Y-99728930D01*
X98345205Y-99760308D01*
X98395314Y-99801592D01*
X98435877Y-99852124D01*
X98466145Y-99911563D01*
X98484638Y-99976438D01*
X98490874Y-100045469D01*
X98485339Y-100110056D01*
X98468893Y-100171254D01*
X98441986Y-100227765D01*
X98406000Y-100276095D01*
X98361370Y-100315981D01*
X98309036Y-100346071D01*
X98251211Y-100364767D01*
X98188319Y-100371106D01*
X98122609Y-100364210D01*
X98064243Y-100344117D01*
X98011938Y-100311800D01*
X97966546Y-100268279D01*
X97979156Y-100388826D01*
X97999539Y-100469765D01*
X98024676Y-100521559D01*
X98051862Y-100554210D01*
X98083416Y-100577918D01*
X98119001Y-100592844D01*
X98156262Y-100597763D01*
X98197193Y-100591457D01*
X98233687Y-100572606D01*
X98263032Y-100543525D01*
X98282841Y-100506050D01*
X98298783Y-100474840D01*
X98319721Y-100453721D01*
X98345635Y-100440599D01*
X98374798Y-100436196D01*
X98405659Y-100442109D01*
X98430180Y-100459521D01*
X98446578Y-100484636D01*
X98451918Y-100512522D01*
X98448402Y-100543179D01*
X98437342Y-100575751D01*
X98417479Y-100611013D01*
X98391854Y-100642297D01*
X98358728Y-100670736D01*
X98316973Y-100696376D01*
X98271778Y-100714971D01*
X98220399Y-100726572D01*
X98161696Y-100730631D01*
X98102027Y-100726741D01*
X98048297Y-100715497D01*
X97999641Y-100697292D01*
X97954699Y-100671498D01*
X97913951Y-100637858D01*
X97877031Y-100595626D01*
X97846542Y-100548135D01*
X97820465Y-100492251D01*
X97799118Y-100426793D01*
X97784741Y-100359340D01*
X97775596Y-100282426D01*
X97772373Y-100194884D01*
X97779050Y-100080547D01*
X97784326Y-100053285D01*
X97981933Y-100053285D01*
X97988182Y-100107579D01*
X98005930Y-100152325D01*
X98033789Y-100189642D01*
X98068090Y-100216256D01*
X98107415Y-100232814D01*
X98148018Y-100238237D01*
X98190933Y-100232260D01*
X98227961Y-100214753D01*
X98260675Y-100184809D01*
X98284635Y-100146814D01*
X98299796Y-100099686D01*
X98305250Y-100041011D01*
X98299816Y-99981779D01*
X98284666Y-99933802D01*
X98260675Y-99894771D01*
X98227930Y-99863516D01*
X98192211Y-99845632D01*
X98152110Y-99839633D01*
X98116274Y-99843743D01*
X98083722Y-99855875D01*
X98054616Y-99875044D01*
X98029683Y-99900511D01*
X98009825Y-99931119D01*
X97994512Y-99968044D01*
X97985172Y-100008231D01*
X97981933Y-100053285D01*
X97784326Y-100053285D01*
X97797774Y-99983797D01*
X97817963Y-99923006D01*
X97842313Y-99871826D01*
X97870498Y-99829009D01*
X97904696Y-99791074D01*
X97943483Y-99759935D01*
X97987307Y-99735158D01*
X98034590Y-99717535D01*
X98086957Y-99706634D01*
X98145271Y-99702857D01*
X98219789Y-99709557D01*
G37*
G36*
X101477896Y-98344594D02*
G01*
X101508986Y-98354971D01*
X101530965Y-98370593D01*
X101546589Y-98392495D01*
X101556965Y-98423485D01*
X101560885Y-98466641D01*
X101560885Y-99235334D01*
X101557426Y-99275425D01*
X101548079Y-99305814D01*
X101533774Y-99328696D01*
X101513686Y-99346126D01*
X101488648Y-99356822D01*
X101457143Y-99360631D01*
X101427868Y-99357071D01*
X101403433Y-99346876D01*
X101382710Y-99329979D01*
X101367742Y-99307747D01*
X101357846Y-99277007D01*
X101354134Y-99235029D01*
X101354134Y-98915132D01*
X101285013Y-98915132D01*
X101234015Y-98919020D01*
X101196292Y-98929359D01*
X101162795Y-98948606D01*
X101126927Y-98982238D01*
X101092827Y-99026181D01*
X101049013Y-99095200D01*
X100967680Y-99230511D01*
X100922129Y-99303173D01*
X100903479Y-99325962D01*
X100881646Y-99344328D01*
X100855942Y-99356356D01*
X100823272Y-99360631D01*
X100795323Y-99357651D01*
X100771798Y-99349152D01*
X100751733Y-99335449D01*
X100736566Y-99317705D01*
X100726730Y-99297248D01*
X100723621Y-99277405D01*
X100727683Y-99254560D01*
X100745236Y-99206758D01*
X100769985Y-99154724D01*
X100805564Y-99092269D01*
X100846846Y-99030791D01*
X100893553Y-98972773D01*
X100944797Y-98922486D01*
X100992471Y-98890219D01*
X100912669Y-98866239D01*
X100851336Y-98834632D01*
X100805015Y-98796186D01*
X100777830Y-98760914D01*
X100758060Y-98720030D01*
X100745688Y-98672458D01*
X100742371Y-98630101D01*
X100950889Y-98630101D01*
X100954081Y-98663997D01*
X100962903Y-98690802D01*
X100976778Y-98712044D01*
X101007266Y-98736708D01*
X101052066Y-98754176D01*
X101104497Y-98763217D01*
X101174371Y-98766632D01*
X101354134Y-98766632D01*
X101354134Y-98496988D01*
X101168936Y-98496988D01*
X101073385Y-98501708D01*
X101029596Y-98511826D01*
X100996393Y-98531288D01*
X100971771Y-98558232D01*
X100956222Y-98591356D01*
X100950889Y-98630101D01*
X100742371Y-98630101D01*
X100741328Y-98616789D01*
X100746124Y-98563205D01*
X100760318Y-98513047D01*
X100783677Y-98467017D01*
X100815761Y-98427074D01*
X100855013Y-98394326D01*
X100899659Y-98370226D01*
X100940533Y-98355550D01*
X100987586Y-98346535D01*
X101104701Y-98340673D01*
X101434612Y-98340673D01*
X101477896Y-98344594D01*
G37*
G36*
X100134473Y-98330547D02*
G01*
X100160030Y-98346901D01*
X100218832Y-98416755D01*
X100580922Y-98901393D01*
X100606201Y-98934916D01*
X100626107Y-98963431D01*
X100640639Y-98991824D01*
X100645463Y-99018752D01*
X100641559Y-99051567D01*
X100630514Y-99078225D01*
X100612429Y-99100146D01*
X100588571Y-99115925D01*
X100556511Y-99126238D01*
X100513755Y-99130066D01*
X100172792Y-99130066D01*
X100172792Y-99254996D01*
X100169730Y-99288801D01*
X100161437Y-99314433D01*
X100148673Y-99333764D01*
X100121132Y-99353772D01*
X100085414Y-99360631D01*
X100049178Y-99353880D01*
X100021911Y-99334436D01*
X100009398Y-99315518D01*
X100001168Y-99289749D01*
X99998097Y-99254996D01*
X99998097Y-99130066D01*
X99958347Y-99130066D01*
X99909800Y-99124829D01*
X99879212Y-99111564D01*
X99864791Y-99097318D01*
X99855844Y-99078202D01*
X99852590Y-99052580D01*
X99856772Y-99021528D01*
X99867772Y-99001173D01*
X99885135Y-98988405D01*
X99920533Y-98977809D01*
X99970681Y-98973750D01*
X99998097Y-98973750D01*
X100172792Y-98973750D01*
X100460632Y-98973750D01*
X100172792Y-98586931D01*
X100172792Y-98973750D01*
X99998097Y-98973750D01*
X99998097Y-98446064D01*
X100003143Y-98398981D01*
X100016452Y-98366249D01*
X100036772Y-98343967D01*
X100064992Y-98330123D01*
X100103916Y-98325041D01*
X100134473Y-98330547D01*
G37*
G36*
X98847415Y-110039815D02*
G01*
X98317670Y-110039815D01*
X98273030Y-110043790D01*
X98239603Y-110054492D01*
X98214771Y-110070846D01*
X98195718Y-110093498D01*
X98184250Y-110120276D01*
X98180247Y-110152453D01*
X98184309Y-110186110D01*
X98195833Y-110213573D01*
X98214771Y-110236278D01*
X98239645Y-110252631D01*
X98273118Y-110263334D01*
X98317804Y-110267309D01*
X98860176Y-110267309D01*
X98948282Y-110272918D01*
X99013921Y-110287794D01*
X99052266Y-110305192D01*
X99083749Y-110329200D01*
X99109298Y-110360267D01*
X99127043Y-110396602D01*
X99138795Y-110444301D01*
X99143150Y-110506355D01*
X99138003Y-110571584D01*
X99124034Y-110621892D01*
X99102693Y-110660446D01*
X99074304Y-110689586D01*
X99025289Y-110717418D01*
X98957356Y-110736126D01*
X98864676Y-110743185D01*
X98317804Y-110743185D01*
X98272575Y-110747140D01*
X98239042Y-110757731D01*
X98214435Y-110773813D01*
X98195633Y-110796253D01*
X98184245Y-110823140D01*
X98180247Y-110855824D01*
X98184212Y-110888502D01*
X98195564Y-110915754D01*
X98214368Y-110938842D01*
X98239037Y-110955603D01*
X98272570Y-110966587D01*
X98317737Y-110970679D01*
X98847818Y-110970679D01*
X98971896Y-110963732D01*
X99064363Y-110945357D01*
X99119517Y-110923689D01*
X99170191Y-110892096D01*
X99217033Y-110849779D01*
X99250708Y-110807347D01*
X99277686Y-110760661D01*
X99298171Y-110709199D01*
X99316906Y-110625371D01*
X99323694Y-110522139D01*
X99320320Y-110437312D01*
X99310857Y-110364680D01*
X99296156Y-110302705D01*
X99273677Y-110243586D01*
X99245150Y-110193922D01*
X99210720Y-110152453D01*
X99169510Y-110117738D01*
X99120553Y-110089232D01*
X99062684Y-110067017D01*
X98967750Y-110047130D01*
X98847415Y-110039815D01*
G37*
G36*
X99125955Y-111436884D02*
G01*
X99125955Y-111825175D01*
X99132723Y-111879886D01*
X99150404Y-111915984D01*
X99168636Y-111933502D01*
X99190436Y-111943923D01*
X99216966Y-111947553D01*
X99251738Y-111941231D01*
X99280506Y-111922500D01*
X99299404Y-111892800D01*
X99306500Y-111846937D01*
X99306500Y-111293886D01*
X99302641Y-111256997D01*
X99291910Y-111227742D01*
X99274797Y-111204420D01*
X99240007Y-111180175D01*
X99200242Y-111172247D01*
X99171198Y-111176587D01*
X99127836Y-111192665D01*
X99086164Y-111215092D01*
X99057176Y-111237466D01*
X98878446Y-111417943D01*
X98811242Y-111493503D01*
X98780516Y-111533134D01*
X98735459Y-111590897D01*
X98692864Y-111635294D01*
X98647400Y-111671829D01*
X98602793Y-111697289D01*
X98556429Y-111713444D01*
X98512655Y-111718581D01*
X98466990Y-111712804D01*
X98427286Y-111695946D01*
X98393879Y-111669257D01*
X98368784Y-111634354D01*
X98353169Y-111593843D01*
X98347895Y-111549388D01*
X98353328Y-111503072D01*
X98369078Y-111463000D01*
X98395375Y-111427695D01*
X98433801Y-111396382D01*
X98495528Y-111371262D01*
X98542528Y-111351272D01*
X98573911Y-111330962D01*
X98594337Y-111303978D01*
X98601651Y-111264601D01*
X98595192Y-111229091D01*
X98576262Y-111200658D01*
X98547191Y-111181941D01*
X98507282Y-111175269D01*
X98455075Y-111180897D01*
X98398472Y-111198710D01*
X98344895Y-111227683D01*
X98295774Y-111268698D01*
X98254887Y-111320290D01*
X98221420Y-111386643D01*
X98200617Y-111461799D01*
X98193143Y-111553888D01*
X98197496Y-111630284D01*
X98209741Y-111695395D01*
X98228943Y-111750889D01*
X98257785Y-111800651D01*
X98295707Y-111843982D01*
X98341315Y-111879525D01*
X98393904Y-111906380D01*
X98450712Y-111923158D01*
X98509566Y-111928746D01*
X98570948Y-111923475D01*
X98627571Y-111907987D01*
X98680438Y-111882267D01*
X98751489Y-111833376D01*
X98800734Y-111787629D01*
X98936746Y-111626361D01*
X99025885Y-111523657D01*
X99080416Y-111471340D01*
X99125955Y-111436884D01*
G37*
G36*
X93717088Y-88845835D02*
G01*
X93722680Y-88894412D01*
X93740840Y-88949944D01*
X93770383Y-89003970D01*
X93815334Y-89059670D01*
X93851375Y-89092564D01*
X93894315Y-89121707D01*
X93945027Y-89147048D01*
X93998664Y-89165220D01*
X94059563Y-89176631D01*
X94128881Y-89180631D01*
X94206404Y-89176707D01*
X94273534Y-89165610D01*
X94336255Y-89146252D01*
X94391931Y-89118960D01*
X94442371Y-89082691D01*
X94489689Y-89035368D01*
X94526382Y-88985432D01*
X94557649Y-88929244D01*
X94582115Y-88868940D01*
X94599781Y-88804070D01*
X94610232Y-88736291D01*
X94613825Y-88662775D01*
X94609667Y-88582428D01*
X94597707Y-88510281D01*
X94578532Y-88445338D01*
X94551147Y-88383546D01*
X94517422Y-88328981D01*
X94477293Y-88280901D01*
X94430825Y-88238945D01*
X94379537Y-88204366D01*
X94322932Y-88176854D01*
X94263052Y-88157111D01*
X94200386Y-88145174D01*
X94134377Y-88141133D01*
X94054141Y-88146801D01*
X93982068Y-88163190D01*
X93916878Y-88189799D01*
X93856363Y-88226140D01*
X93808177Y-88266289D01*
X93770699Y-88310272D01*
X93741144Y-88359939D01*
X93724927Y-88404799D01*
X93719835Y-88446132D01*
X93726059Y-88479475D01*
X93744992Y-88508963D01*
X93772883Y-88529404D01*
X93805809Y-88536135D01*
X93841998Y-88530946D01*
X93865404Y-88517267D01*
X93884497Y-88494356D01*
X93909307Y-88452909D01*
X93938479Y-88405655D01*
X93969334Y-88369210D01*
X94001875Y-88341962D01*
X94038928Y-88322037D01*
X94082156Y-88309633D01*
X94132972Y-88305265D01*
X94192972Y-88311415D01*
X94244891Y-88329127D01*
X94290438Y-88358240D01*
X94330687Y-88399848D01*
X94361019Y-88448351D01*
X94384004Y-88507843D01*
X94398890Y-88580547D01*
X94404265Y-88669125D01*
X94400201Y-88746643D01*
X94388952Y-88810614D01*
X94371658Y-88863176D01*
X94346029Y-88911683D01*
X94315333Y-88949602D01*
X94279457Y-88978459D01*
X94238237Y-88999292D01*
X94192058Y-89012071D01*
X94139811Y-89016500D01*
X94083311Y-89011408D01*
X94034918Y-88996882D01*
X93993082Y-88973391D01*
X93957321Y-88941172D01*
X93927154Y-88899461D01*
X93902590Y-88846568D01*
X93887347Y-88809045D01*
X93870045Y-88781050D01*
X93855198Y-88767391D01*
X93834855Y-88758723D01*
X93807152Y-88755526D01*
X93772785Y-88762010D01*
X93743649Y-88781477D01*
X93723791Y-88810360D01*
X93717088Y-88845835D01*
G37*
G36*
X93253087Y-89068218D02*
G01*
X93253087Y-88451871D01*
X93373960Y-88536728D01*
X93445371Y-88573758D01*
X93484752Y-88582725D01*
X93512268Y-88577015D01*
X93537081Y-88559277D01*
X93554199Y-88533724D01*
X93559795Y-88504872D01*
X93553840Y-88472922D01*
X93537508Y-88452299D01*
X93510588Y-88435255D01*
X93459656Y-88409434D01*
X93382622Y-88367781D01*
X93327887Y-88327674D01*
X93281340Y-88282181D01*
X93240326Y-88231503D01*
X93190195Y-88165558D01*
X93174882Y-88156606D01*
X93145254Y-88152857D01*
X93121855Y-88156116D01*
X93102335Y-88165538D01*
X93085720Y-88181495D01*
X93069428Y-88213825D01*
X93063372Y-88259958D01*
X93063372Y-89041474D01*
X93068440Y-89098187D01*
X93081474Y-89136246D01*
X93100519Y-89160903D01*
X93125645Y-89175462D01*
X93158932Y-89180631D01*
X93185998Y-89177310D01*
X93208411Y-89167821D01*
X93227259Y-89152116D01*
X93240930Y-89131538D01*
X93249809Y-89104240D01*
X93253087Y-89068218D01*
G37*
G36*
X96990396Y-111744594D02*
G01*
X97021486Y-111754971D01*
X97043465Y-111770593D01*
X97059089Y-111792495D01*
X97069465Y-111823485D01*
X97073385Y-111866641D01*
X97073385Y-112635334D01*
X97069926Y-112675425D01*
X97060579Y-112705814D01*
X97046274Y-112728696D01*
X97026186Y-112746126D01*
X97001148Y-112756822D01*
X96969643Y-112760631D01*
X96940368Y-112757071D01*
X96915933Y-112746876D01*
X96895210Y-112729979D01*
X96880242Y-112707747D01*
X96870346Y-112677007D01*
X96866634Y-112635029D01*
X96866634Y-112315132D01*
X96797513Y-112315132D01*
X96746515Y-112319020D01*
X96708792Y-112329359D01*
X96675295Y-112348606D01*
X96639427Y-112382238D01*
X96605327Y-112426181D01*
X96561513Y-112495200D01*
X96480180Y-112630511D01*
X96434629Y-112703173D01*
X96415979Y-112725962D01*
X96394146Y-112744328D01*
X96368442Y-112756356D01*
X96335772Y-112760631D01*
X96307823Y-112757651D01*
X96284298Y-112749152D01*
X96264233Y-112735449D01*
X96249066Y-112717705D01*
X96239230Y-112697248D01*
X96236121Y-112677405D01*
X96240183Y-112654560D01*
X96257736Y-112606758D01*
X96282485Y-112554724D01*
X96318064Y-112492269D01*
X96359346Y-112430791D01*
X96406053Y-112372773D01*
X96457297Y-112322486D01*
X96504971Y-112290219D01*
X96425169Y-112266239D01*
X96363836Y-112234632D01*
X96317515Y-112196186D01*
X96290330Y-112160914D01*
X96270560Y-112120030D01*
X96258188Y-112072458D01*
X96254871Y-112030101D01*
X96463389Y-112030101D01*
X96466581Y-112063997D01*
X96475403Y-112090802D01*
X96489278Y-112112044D01*
X96519766Y-112136708D01*
X96564566Y-112154176D01*
X96616997Y-112163217D01*
X96686871Y-112166632D01*
X96866634Y-112166632D01*
X96866634Y-111896988D01*
X96681436Y-111896988D01*
X96585885Y-111901708D01*
X96542096Y-111911826D01*
X96508893Y-111931288D01*
X96484271Y-111958232D01*
X96468722Y-111991356D01*
X96463389Y-112030101D01*
X96254871Y-112030101D01*
X96253828Y-112016789D01*
X96258624Y-111963205D01*
X96272818Y-111913047D01*
X96296177Y-111867017D01*
X96328261Y-111827074D01*
X96367513Y-111794326D01*
X96412159Y-111770226D01*
X96453033Y-111755550D01*
X96500086Y-111746535D01*
X96617201Y-111740673D01*
X96947112Y-111740673D01*
X96990396Y-111744594D01*
G37*
G36*
X95857300Y-112580868D02*
G01*
X95504308Y-112580868D01*
X95454571Y-112587021D01*
X95421754Y-112603094D01*
X95405829Y-112619669D01*
X95396355Y-112639487D01*
X95393055Y-112663606D01*
X95398802Y-112695216D01*
X95415831Y-112721369D01*
X95442831Y-112738549D01*
X95484524Y-112745000D01*
X95987298Y-112745000D01*
X96020834Y-112741491D01*
X96047429Y-112731736D01*
X96068631Y-112716179D01*
X96090671Y-112684552D01*
X96097879Y-112648401D01*
X96093933Y-112621998D01*
X96079317Y-112582578D01*
X96058929Y-112544694D01*
X96038589Y-112518342D01*
X95874519Y-112355860D01*
X95805828Y-112294766D01*
X95769800Y-112266833D01*
X95717288Y-112225872D01*
X95676927Y-112187149D01*
X95643713Y-112145818D01*
X95620568Y-112105266D01*
X95605882Y-112063117D01*
X95601211Y-112023323D01*
X95606464Y-111981809D01*
X95621789Y-111945715D01*
X95646052Y-111915345D01*
X95677782Y-111892531D01*
X95714610Y-111878335D01*
X95755023Y-111873541D01*
X95797129Y-111878480D01*
X95833558Y-111892798D01*
X95865653Y-111916705D01*
X95894120Y-111951638D01*
X95916956Y-112007752D01*
X95935129Y-112050480D01*
X95953593Y-112079010D01*
X95978123Y-112097579D01*
X96013921Y-112104228D01*
X96046202Y-112098356D01*
X96072051Y-112081147D01*
X96089066Y-112054719D01*
X96095131Y-112018438D01*
X96090015Y-111970977D01*
X96073821Y-111919520D01*
X96047482Y-111870814D01*
X96010196Y-111826158D01*
X95963294Y-111788988D01*
X95902973Y-111758564D01*
X95834650Y-111739652D01*
X95750932Y-111732857D01*
X95681481Y-111736814D01*
X95622290Y-111747946D01*
X95571841Y-111765403D01*
X95526603Y-111791623D01*
X95487211Y-111826097D01*
X95454899Y-111867559D01*
X95430486Y-111915368D01*
X95415233Y-111967011D01*
X95410152Y-112020514D01*
X95414944Y-112076316D01*
X95429024Y-112127792D01*
X95452406Y-112175853D01*
X95496853Y-112240445D01*
X95538441Y-112285212D01*
X95685048Y-112408860D01*
X95778416Y-112489895D01*
X95825976Y-112539469D01*
X95857300Y-112580868D01*
G37*
G36*
X98197415Y-87579815D02*
G01*
X97667670Y-87579815D01*
X97623030Y-87583790D01*
X97589603Y-87594492D01*
X97564771Y-87610846D01*
X97545718Y-87633498D01*
X97534250Y-87660276D01*
X97530247Y-87692453D01*
X97534309Y-87726110D01*
X97545833Y-87753573D01*
X97564771Y-87776278D01*
X97589645Y-87792631D01*
X97623118Y-87803334D01*
X97667804Y-87807309D01*
X98210176Y-87807309D01*
X98298282Y-87812918D01*
X98363921Y-87827794D01*
X98402266Y-87845192D01*
X98433749Y-87869200D01*
X98459298Y-87900267D01*
X98477043Y-87936602D01*
X98488795Y-87984301D01*
X98493150Y-88046355D01*
X98488003Y-88111584D01*
X98474034Y-88161892D01*
X98452693Y-88200446D01*
X98424304Y-88229586D01*
X98375289Y-88257418D01*
X98307356Y-88276126D01*
X98214676Y-88283185D01*
X97667804Y-88283185D01*
X97622575Y-88287140D01*
X97589042Y-88297731D01*
X97564435Y-88313813D01*
X97545633Y-88336253D01*
X97534245Y-88363140D01*
X97530247Y-88395824D01*
X97534212Y-88428502D01*
X97545564Y-88455754D01*
X97564368Y-88478842D01*
X97589037Y-88495603D01*
X97622570Y-88506587D01*
X97667737Y-88510679D01*
X98197818Y-88510679D01*
X98321896Y-88503732D01*
X98414363Y-88485357D01*
X98469517Y-88463689D01*
X98520191Y-88432096D01*
X98567033Y-88389779D01*
X98600708Y-88347347D01*
X98627686Y-88300661D01*
X98648171Y-88249199D01*
X98666906Y-88165371D01*
X98673694Y-88062139D01*
X98670320Y-87977312D01*
X98660857Y-87904680D01*
X98646156Y-87842705D01*
X98623677Y-87783586D01*
X98595150Y-87733922D01*
X98560720Y-87692453D01*
X98519510Y-87657738D01*
X98470553Y-87629232D01*
X98412684Y-87607017D01*
X98317750Y-87587130D01*
X98197415Y-87579815D01*
G37*
G36*
X98550040Y-89061648D02*
G01*
X97872059Y-89061648D01*
X97965401Y-88928689D01*
X98006133Y-88850136D01*
X98015997Y-88806818D01*
X98009717Y-88776549D01*
X97990205Y-88749256D01*
X97962097Y-88730426D01*
X97930359Y-88724270D01*
X97895215Y-88730821D01*
X97872529Y-88748785D01*
X97853780Y-88778398D01*
X97825378Y-88834423D01*
X97779559Y-88919160D01*
X97735441Y-88979369D01*
X97685400Y-89030571D01*
X97629654Y-89075686D01*
X97557114Y-89130830D01*
X97547267Y-89147674D01*
X97543143Y-89180265D01*
X97546727Y-89206003D01*
X97557092Y-89227476D01*
X97574644Y-89245752D01*
X97610207Y-89263674D01*
X97660953Y-89270335D01*
X98520621Y-89270335D01*
X98583006Y-89264761D01*
X98624870Y-89250423D01*
X98651994Y-89229474D01*
X98668008Y-89201835D01*
X98673694Y-89165219D01*
X98670041Y-89135447D01*
X98659604Y-89110792D01*
X98642327Y-89090060D01*
X98619692Y-89075021D01*
X98589664Y-89065254D01*
X98550040Y-89061648D01*
G37*
G36*
X96977896Y-98414594D02*
G01*
X97008986Y-98424971D01*
X97030965Y-98440593D01*
X97046589Y-98462495D01*
X97056965Y-98493485D01*
X97060885Y-98536641D01*
X97060885Y-99305334D01*
X97057426Y-99345425D01*
X97048079Y-99375814D01*
X97033774Y-99398696D01*
X97013686Y-99416126D01*
X96988648Y-99426822D01*
X96957143Y-99430631D01*
X96927868Y-99427071D01*
X96903433Y-99416876D01*
X96882710Y-99399979D01*
X96867742Y-99377747D01*
X96857846Y-99347007D01*
X96854134Y-99305029D01*
X96854134Y-98985132D01*
X96785013Y-98985132D01*
X96734015Y-98989020D01*
X96696292Y-98999359D01*
X96662795Y-99018606D01*
X96626927Y-99052238D01*
X96592827Y-99096181D01*
X96549013Y-99165200D01*
X96467680Y-99300511D01*
X96422129Y-99373173D01*
X96403479Y-99395962D01*
X96381646Y-99414328D01*
X96355942Y-99426356D01*
X96323272Y-99430631D01*
X96295323Y-99427651D01*
X96271798Y-99419152D01*
X96251733Y-99405449D01*
X96236566Y-99387705D01*
X96226730Y-99367248D01*
X96223621Y-99347405D01*
X96227683Y-99324560D01*
X96245236Y-99276758D01*
X96269985Y-99224724D01*
X96305564Y-99162269D01*
X96346846Y-99100791D01*
X96393553Y-99042773D01*
X96444797Y-98992486D01*
X96492471Y-98960219D01*
X96412669Y-98936239D01*
X96351336Y-98904632D01*
X96305015Y-98866186D01*
X96277830Y-98830914D01*
X96258060Y-98790030D01*
X96245688Y-98742458D01*
X96242371Y-98700101D01*
X96450889Y-98700101D01*
X96454081Y-98733997D01*
X96462903Y-98760802D01*
X96476778Y-98782044D01*
X96507266Y-98806708D01*
X96552066Y-98824176D01*
X96604497Y-98833217D01*
X96674371Y-98836632D01*
X96854134Y-98836632D01*
X96854134Y-98566988D01*
X96668936Y-98566988D01*
X96573385Y-98571708D01*
X96529596Y-98581826D01*
X96496393Y-98601288D01*
X96471771Y-98628232D01*
X96456222Y-98661356D01*
X96450889Y-98700101D01*
X96242371Y-98700101D01*
X96241328Y-98686789D01*
X96246124Y-98633205D01*
X96260318Y-98583047D01*
X96283677Y-98537017D01*
X96315761Y-98497074D01*
X96355013Y-98464326D01*
X96399659Y-98440226D01*
X96440533Y-98425550D01*
X96487586Y-98416535D01*
X96604701Y-98410673D01*
X96934612Y-98410673D01*
X96977896Y-98414594D01*
G37*
G36*
X95767741Y-99318218D02*
G01*
X95767741Y-98701871D01*
X95888614Y-98786728D01*
X95960025Y-98823758D01*
X95999406Y-98832725D01*
X96026922Y-98827015D01*
X96051735Y-98809277D01*
X96068853Y-98783724D01*
X96074449Y-98754872D01*
X96068494Y-98722922D01*
X96052162Y-98702299D01*
X96025242Y-98685255D01*
X95974310Y-98659434D01*
X95897276Y-98617781D01*
X95842541Y-98577674D01*
X95795994Y-98532181D01*
X95754980Y-98481503D01*
X95704849Y-98415558D01*
X95689537Y-98406606D01*
X95659908Y-98402857D01*
X95636509Y-98406116D01*
X95616989Y-98415538D01*
X95600374Y-98431495D01*
X95584082Y-98463825D01*
X95578026Y-98509958D01*
X95578026Y-99291474D01*
X95583094Y-99348187D01*
X95596128Y-99386246D01*
X95615173Y-99410903D01*
X95640299Y-99425462D01*
X95673586Y-99430631D01*
X95700652Y-99427310D01*
X95723065Y-99417821D01*
X95741913Y-99402116D01*
X95755584Y-99381538D01*
X95764464Y-99354240D01*
X95767741Y-99318218D01*
G37*
G36*
X91695835Y-91754710D02*
G01*
X91744412Y-91749118D01*
X91799944Y-91730958D01*
X91853970Y-91701415D01*
X91909670Y-91656464D01*
X91942564Y-91620423D01*
X91971707Y-91577483D01*
X91997048Y-91526771D01*
X92015220Y-91473134D01*
X92026631Y-91412235D01*
X92030631Y-91342917D01*
X92026707Y-91265394D01*
X92015610Y-91198264D01*
X91996252Y-91135543D01*
X91968960Y-91079867D01*
X91932691Y-91029427D01*
X91885368Y-90982109D01*
X91835432Y-90945416D01*
X91779244Y-90914149D01*
X91718940Y-90889683D01*
X91654070Y-90872017D01*
X91586291Y-90861566D01*
X91512775Y-90857973D01*
X91432428Y-90862131D01*
X91360281Y-90874091D01*
X91295338Y-90893266D01*
X91233546Y-90920651D01*
X91178981Y-90954376D01*
X91130901Y-90994505D01*
X91088945Y-91040973D01*
X91054366Y-91092261D01*
X91026854Y-91148866D01*
X91007111Y-91208746D01*
X90995174Y-91271412D01*
X90991133Y-91337421D01*
X90996801Y-91417657D01*
X91013190Y-91489730D01*
X91039799Y-91554920D01*
X91076140Y-91615435D01*
X91116289Y-91663621D01*
X91160272Y-91701099D01*
X91209939Y-91730654D01*
X91254799Y-91746871D01*
X91296132Y-91751963D01*
X91329475Y-91745739D01*
X91358963Y-91726806D01*
X91379404Y-91698915D01*
X91386135Y-91665989D01*
X91380946Y-91629800D01*
X91367267Y-91606394D01*
X91344356Y-91587301D01*
X91302909Y-91562491D01*
X91255655Y-91533319D01*
X91219210Y-91502464D01*
X91191962Y-91469923D01*
X91172037Y-91432870D01*
X91159633Y-91389642D01*
X91155265Y-91338826D01*
X91161415Y-91278826D01*
X91179127Y-91226907D01*
X91208240Y-91181360D01*
X91249848Y-91141111D01*
X91298351Y-91110779D01*
X91357843Y-91087794D01*
X91430547Y-91072908D01*
X91519125Y-91067533D01*
X91596643Y-91071597D01*
X91660614Y-91082846D01*
X91713176Y-91100140D01*
X91761683Y-91125769D01*
X91799602Y-91156465D01*
X91828459Y-91192341D01*
X91849292Y-91233561D01*
X91862071Y-91279740D01*
X91866500Y-91331987D01*
X91861408Y-91388487D01*
X91846882Y-91436880D01*
X91823391Y-91478716D01*
X91791172Y-91514477D01*
X91749461Y-91544644D01*
X91696568Y-91569208D01*
X91659045Y-91584451D01*
X91631050Y-91601753D01*
X91617391Y-91616600D01*
X91608723Y-91636943D01*
X91605526Y-91664646D01*
X91612010Y-91699013D01*
X91631477Y-91728149D01*
X91660360Y-91748007D01*
X91695835Y-91754710D01*
G37*
G36*
X91918218Y-92218711D02*
G01*
X91301871Y-92218711D01*
X91386728Y-92097838D01*
X91423758Y-92026427D01*
X91432725Y-91987046D01*
X91427015Y-91959530D01*
X91409277Y-91934717D01*
X91383724Y-91917599D01*
X91354872Y-91912003D01*
X91322922Y-91917958D01*
X91302299Y-91934290D01*
X91285255Y-91961210D01*
X91259434Y-92012142D01*
X91217781Y-92089176D01*
X91177674Y-92143911D01*
X91132181Y-92190458D01*
X91081503Y-92231472D01*
X91015558Y-92281603D01*
X91006606Y-92296916D01*
X91002857Y-92326544D01*
X91006116Y-92349943D01*
X91015538Y-92369463D01*
X91031495Y-92386078D01*
X91063825Y-92402370D01*
X91109958Y-92408426D01*
X91891474Y-92408426D01*
X91948187Y-92403358D01*
X91986246Y-92390324D01*
X92010903Y-92371279D01*
X92025462Y-92346153D01*
X92030631Y-92312866D01*
X92027310Y-92285800D01*
X92017821Y-92263387D01*
X92002116Y-92244539D01*
X91981538Y-92230868D01*
X91954240Y-92221989D01*
X91918218Y-92218711D01*
G37*
G36*
X91782169Y-92720148D02*
G01*
X91833843Y-92733933D01*
X91881704Y-92756717D01*
X91924146Y-92788106D01*
X91960455Y-92828481D01*
X91990942Y-92879082D01*
X92012329Y-92934501D01*
X92025850Y-92998925D01*
X92030631Y-93073988D01*
X92025910Y-93146269D01*
X92012445Y-93209416D01*
X91990942Y-93264803D01*
X91960438Y-93315389D01*
X91923895Y-93356010D01*
X91880971Y-93387840D01*
X91832645Y-93411032D01*
X91780763Y-93425022D01*
X91724412Y-93429789D01*
X91667328Y-93424726D01*
X91617128Y-93410127D01*
X91571789Y-93385851D01*
X91532070Y-93351936D01*
X91499575Y-93309981D01*
X91474368Y-93259185D01*
X91450168Y-93299909D01*
X91421885Y-93332791D01*
X91389371Y-93358775D01*
X91352588Y-93377996D01*
X91312568Y-93389607D01*
X91268471Y-93393580D01*
X91216602Y-93388546D01*
X91168087Y-93373613D01*
X91123628Y-93348632D01*
X91083152Y-93312369D01*
X91050197Y-93266963D01*
X91024228Y-93209238D01*
X91008506Y-93144471D01*
X91003146Y-93069836D01*
X91135725Y-93069836D01*
X91140458Y-93109878D01*
X91154105Y-93144025D01*
X91175944Y-93172748D01*
X91204541Y-93194156D01*
X91238241Y-93207470D01*
X91276898Y-93212046D01*
X91306022Y-93209442D01*
X91331791Y-93201910D01*
X91355043Y-93189666D01*
X91374717Y-93173334D01*
X91390657Y-93153181D01*
X91402988Y-93128882D01*
X91410552Y-93101997D01*
X91413185Y-93071240D01*
X91412877Y-93068493D01*
X91546053Y-93068493D01*
X91551409Y-93115274D01*
X91566997Y-93156298D01*
X91592481Y-93191063D01*
X91627142Y-93217053D01*
X91668796Y-93233039D01*
X91719160Y-93238669D01*
X91769780Y-93233076D01*
X91812644Y-93217053D01*
X91848803Y-93191223D01*
X91875476Y-93157641D01*
X91892088Y-93117869D01*
X91897763Y-93072584D01*
X91892196Y-93027858D01*
X91875842Y-92988198D01*
X91849479Y-92954531D01*
X91813621Y-92928419D01*
X91771060Y-92912174D01*
X91720565Y-92906499D01*
X91667341Y-92912164D01*
X91625319Y-92927906D01*
X91591971Y-92953027D01*
X91566526Y-92986448D01*
X91551304Y-93024459D01*
X91546053Y-93068493D01*
X91412877Y-93068493D01*
X91408675Y-93030953D01*
X91395811Y-92997267D01*
X91374717Y-92968719D01*
X91346934Y-92946705D01*
X91315194Y-92933564D01*
X91278241Y-92929030D01*
X91237967Y-92933562D01*
X91204238Y-92946501D01*
X91175598Y-92967742D01*
X91153743Y-92995770D01*
X91140414Y-93029269D01*
X91135725Y-93069836D01*
X91003146Y-93069836D01*
X91002857Y-93065806D01*
X91007166Y-93002085D01*
X91019505Y-92946013D01*
X91039310Y-92896424D01*
X91067041Y-92851034D01*
X91099455Y-92814723D01*
X91136763Y-92786392D01*
X91178654Y-92765416D01*
X91221719Y-92753039D01*
X91266639Y-92748901D01*
X91321548Y-92754546D01*
X91368411Y-92770714D01*
X91408930Y-92797165D01*
X91444155Y-92834873D01*
X91474368Y-92885921D01*
X91500922Y-92832230D01*
X91532969Y-92790223D01*
X91570546Y-92758148D01*
X91614313Y-92734985D01*
X91665490Y-92720534D01*
X91725755Y-92715440D01*
X91782169Y-92720148D01*
G37*
G36*
X91915425Y-106355073D02*
G01*
X91945814Y-106364420D01*
X91968696Y-106378725D01*
X91986126Y-106398813D01*
X91996822Y-106423851D01*
X92000631Y-106455356D01*
X91997071Y-106484631D01*
X91986876Y-106509066D01*
X91969979Y-106529789D01*
X91947747Y-106544757D01*
X91917007Y-106554653D01*
X91875029Y-106558365D01*
X91555132Y-106558365D01*
X91555132Y-106627486D01*
X91559020Y-106678484D01*
X91569359Y-106716207D01*
X91588606Y-106749704D01*
X91622238Y-106785572D01*
X91666181Y-106819672D01*
X91735200Y-106863486D01*
X91870511Y-106944819D01*
X91943173Y-106990370D01*
X91965962Y-107009020D01*
X91984328Y-107030853D01*
X91996356Y-107056557D01*
X92000631Y-107089227D01*
X91997651Y-107117176D01*
X91989152Y-107140701D01*
X91975449Y-107160766D01*
X91957705Y-107175933D01*
X91937248Y-107185769D01*
X91917405Y-107188878D01*
X91894560Y-107184816D01*
X91846758Y-107167263D01*
X91794724Y-107142514D01*
X91732269Y-107106935D01*
X91670791Y-107065653D01*
X91612773Y-107018946D01*
X91562486Y-106967702D01*
X91530219Y-106920028D01*
X91506239Y-106999830D01*
X91474632Y-107061163D01*
X91436186Y-107107484D01*
X91400914Y-107134669D01*
X91360030Y-107154439D01*
X91312458Y-107166811D01*
X91256789Y-107171171D01*
X91203205Y-107166375D01*
X91153047Y-107152181D01*
X91107017Y-107128822D01*
X91067074Y-107096738D01*
X91034326Y-107057486D01*
X91010226Y-107012840D01*
X90995550Y-106971966D01*
X90986535Y-106924913D01*
X90980673Y-106807798D01*
X90980673Y-106743563D01*
X91136988Y-106743563D01*
X91141708Y-106839114D01*
X91151826Y-106882903D01*
X91171288Y-106916106D01*
X91198232Y-106940728D01*
X91231356Y-106956277D01*
X91270101Y-106961610D01*
X91303997Y-106958418D01*
X91330802Y-106949596D01*
X91352044Y-106935721D01*
X91376708Y-106905233D01*
X91394176Y-106860433D01*
X91403217Y-106808002D01*
X91406632Y-106738128D01*
X91406632Y-106558365D01*
X91136988Y-106558365D01*
X91136988Y-106743563D01*
X90980673Y-106743563D01*
X90980673Y-106477887D01*
X90984594Y-106434603D01*
X90994971Y-106403513D01*
X91010593Y-106381534D01*
X91032495Y-106365910D01*
X91063485Y-106355534D01*
X91106641Y-106351614D01*
X91875334Y-106351614D01*
X91915425Y-106355073D01*
G37*
G36*
X91152620Y-107899503D02*
G01*
X91152620Y-107576675D01*
X91366332Y-107538695D01*
X91337799Y-107602749D01*
X91321820Y-107661152D01*
X91316751Y-107715038D01*
X91323017Y-107779294D01*
X91341481Y-107838381D01*
X91371010Y-107892352D01*
X91409869Y-107939070D01*
X91457192Y-107977557D01*
X91513244Y-108007153D01*
X91574725Y-108025656D01*
X91641594Y-108031944D01*
X91706787Y-108026846D01*
X91766879Y-108011907D01*
X91822822Y-107987247D01*
X91873366Y-107953245D01*
X91916428Y-107910594D01*
X91952576Y-107858409D01*
X91978883Y-107800589D01*
X91995041Y-107736384D01*
X92000631Y-107664480D01*
X91994993Y-107583592D01*
X91979420Y-107518056D01*
X91955324Y-107465056D01*
X91921867Y-107416809D01*
X91887194Y-107381264D01*
X91851154Y-107356368D01*
X91793151Y-107331516D01*
X91748145Y-107324372D01*
X91722130Y-107329777D01*
X91696243Y-107347148D01*
X91677921Y-107372713D01*
X91671758Y-107404239D01*
X91678869Y-107439053D01*
X91700245Y-107467574D01*
X91739658Y-107491373D01*
X91778093Y-107512202D01*
X91809250Y-107536551D01*
X91834057Y-107564463D01*
X91852847Y-107596458D01*
X91863995Y-107630465D01*
X91867763Y-107667228D01*
X91860822Y-107716479D01*
X91840591Y-107758331D01*
X91808716Y-107792668D01*
X91765730Y-107818781D01*
X91715738Y-107834608D01*
X91657226Y-107840152D01*
X91594781Y-107834043D01*
X91545362Y-107817132D01*
X91504330Y-107789737D01*
X91476303Y-107755705D01*
X91459299Y-107715333D01*
X91453527Y-107669976D01*
X91457785Y-107616200D01*
X91467754Y-107586750D01*
X91517946Y-107514088D01*
X91546452Y-107467077D01*
X91553972Y-107434953D01*
X91547907Y-107402837D01*
X91529364Y-107374137D01*
X91502493Y-107354016D01*
X91473311Y-107347636D01*
X91426844Y-107355147D01*
X91101939Y-107412544D01*
X91048144Y-107427520D01*
X91015600Y-107448692D01*
X91001448Y-107468194D01*
X90992046Y-107495931D01*
X90988489Y-107534726D01*
X90988489Y-107895412D01*
X90994877Y-107947239D01*
X91011121Y-107979110D01*
X91035791Y-107997375D01*
X91071592Y-108003917D01*
X91104603Y-107997196D01*
X91130272Y-107977355D01*
X91146442Y-107946600D01*
X91152620Y-107899503D01*
G37*
G36*
X101049588Y-112155835D02*
G01*
X101055180Y-112204412D01*
X101073340Y-112259944D01*
X101102883Y-112313970D01*
X101147834Y-112369670D01*
X101183875Y-112402564D01*
X101226815Y-112431707D01*
X101277527Y-112457048D01*
X101331164Y-112475220D01*
X101392063Y-112486631D01*
X101461381Y-112490631D01*
X101538904Y-112486707D01*
X101606034Y-112475610D01*
X101668755Y-112456252D01*
X101724431Y-112428960D01*
X101774871Y-112392691D01*
X101822189Y-112345368D01*
X101858882Y-112295432D01*
X101890149Y-112239244D01*
X101914615Y-112178940D01*
X101932281Y-112114070D01*
X101942732Y-112046291D01*
X101946325Y-111972775D01*
X101942167Y-111892428D01*
X101930207Y-111820281D01*
X101911032Y-111755338D01*
X101883647Y-111693546D01*
X101849922Y-111638981D01*
X101809793Y-111590901D01*
X101763325Y-111548945D01*
X101712037Y-111514366D01*
X101655432Y-111486854D01*
X101595552Y-111467111D01*
X101532886Y-111455174D01*
X101466877Y-111451133D01*
X101386641Y-111456801D01*
X101314568Y-111473190D01*
X101249378Y-111499799D01*
X101188863Y-111536140D01*
X101140677Y-111576289D01*
X101103199Y-111620272D01*
X101073644Y-111669939D01*
X101057427Y-111714799D01*
X101052335Y-111756132D01*
X101058559Y-111789475D01*
X101077492Y-111818963D01*
X101105383Y-111839404D01*
X101138309Y-111846135D01*
X101174498Y-111840946D01*
X101197904Y-111827267D01*
X101216997Y-111804356D01*
X101241807Y-111762909D01*
X101270979Y-111715655D01*
X101301834Y-111679210D01*
X101334375Y-111651962D01*
X101371428Y-111632037D01*
X101414656Y-111619633D01*
X101465472Y-111615265D01*
X101525472Y-111621415D01*
X101577391Y-111639127D01*
X101622938Y-111668240D01*
X101663187Y-111709848D01*
X101693519Y-111758351D01*
X101716504Y-111817843D01*
X101731390Y-111890547D01*
X101736765Y-111979125D01*
X101732701Y-112056643D01*
X101721452Y-112120614D01*
X101704158Y-112173176D01*
X101678529Y-112221683D01*
X101647833Y-112259602D01*
X101611957Y-112288459D01*
X101570737Y-112309292D01*
X101524558Y-112322071D01*
X101472311Y-112326500D01*
X101415811Y-112321408D01*
X101367418Y-112306882D01*
X101325582Y-112283391D01*
X101289821Y-112251172D01*
X101259654Y-112209461D01*
X101235090Y-112156568D01*
X101219847Y-112119045D01*
X101202545Y-112091050D01*
X101187698Y-112077391D01*
X101167355Y-112068723D01*
X101139652Y-112065526D01*
X101105285Y-112072010D01*
X101076149Y-112091477D01*
X101056291Y-112120360D01*
X101049588Y-112155835D01*
G37*
G36*
X100662646Y-112310868D02*
G01*
X100309654Y-112310868D01*
X100259917Y-112317021D01*
X100227100Y-112333094D01*
X100211175Y-112349669D01*
X100201701Y-112369487D01*
X100198401Y-112393606D01*
X100204148Y-112425216D01*
X100221177Y-112451369D01*
X100248177Y-112468549D01*
X100289870Y-112475000D01*
X100792644Y-112475000D01*
X100826180Y-112471491D01*
X100852775Y-112461736D01*
X100873977Y-112446179D01*
X100896017Y-112414552D01*
X100903225Y-112378401D01*
X100899279Y-112351998D01*
X100884663Y-112312578D01*
X100864275Y-112274694D01*
X100843935Y-112248342D01*
X100679865Y-112085860D01*
X100611174Y-112024766D01*
X100575146Y-111996833D01*
X100522633Y-111955872D01*
X100482273Y-111917149D01*
X100449059Y-111875818D01*
X100425914Y-111835266D01*
X100411228Y-111793117D01*
X100406557Y-111753323D01*
X100411810Y-111711809D01*
X100427135Y-111675715D01*
X100451398Y-111645345D01*
X100483127Y-111622531D01*
X100519956Y-111608335D01*
X100560369Y-111603541D01*
X100602475Y-111608480D01*
X100638904Y-111622798D01*
X100670999Y-111646705D01*
X100699465Y-111681638D01*
X100722302Y-111737752D01*
X100740475Y-111780480D01*
X100758939Y-111809010D01*
X100783469Y-111827579D01*
X100819267Y-111834228D01*
X100851548Y-111828356D01*
X100877396Y-111811147D01*
X100894412Y-111784719D01*
X100900477Y-111748438D01*
X100895361Y-111700977D01*
X100879167Y-111649520D01*
X100852828Y-111600814D01*
X100815542Y-111556158D01*
X100768640Y-111518988D01*
X100708319Y-111488564D01*
X100639996Y-111469652D01*
X100556278Y-111462857D01*
X100486827Y-111466814D01*
X100427635Y-111477946D01*
X100377187Y-111495403D01*
X100331949Y-111521623D01*
X100292557Y-111556097D01*
X100260245Y-111597559D01*
X100235832Y-111645368D01*
X100220578Y-111697011D01*
X100215498Y-111750514D01*
X100220290Y-111806316D01*
X100234370Y-111857792D01*
X100257752Y-111905853D01*
X100302199Y-111970445D01*
X100343787Y-112015212D01*
X100490394Y-112138860D01*
X100583761Y-112219895D01*
X100631322Y-112269469D01*
X100662646Y-112310868D01*
G37*
D10*
G36*
X122664522Y-93751467D02*
G01*
X122669881Y-93810920D01*
X122685588Y-93865247D01*
X122711661Y-93915537D01*
X122747063Y-93959712D01*
X122792463Y-93997625D01*
X122849353Y-94029476D01*
X122911077Y-94051685D01*
X122982112Y-94065695D01*
X123064043Y-94070631D01*
X123161967Y-94063736D01*
X123242805Y-94044525D01*
X123309568Y-94014516D01*
X123352591Y-93984467D01*
X123389693Y-93948570D01*
X123421309Y-93906378D01*
X123445968Y-93859818D01*
X123459848Y-93816193D01*
X123464295Y-93774609D01*
X123457743Y-93739672D01*
X123438100Y-93710129D01*
X123408669Y-93690109D01*
X123371483Y-93683262D01*
X123340954Y-93688569D01*
X123315979Y-93704145D01*
X123295855Y-93728598D01*
X123277389Y-93765755D01*
X123256885Y-93810906D01*
X123236417Y-93845195D01*
X123210488Y-93873728D01*
X123174501Y-93897646D01*
X123130866Y-93912566D01*
X123069538Y-93918224D01*
X123011160Y-93913163D01*
X122963462Y-93899034D01*
X122924336Y-93876702D01*
X122892651Y-93845826D01*
X122874628Y-93811847D01*
X122868587Y-93773326D01*
X122872115Y-93741823D01*
X122882151Y-93715656D01*
X122898568Y-93693642D01*
X122932220Y-93667063D01*
X122976420Y-93646687D01*
X123104770Y-93611943D01*
X123208029Y-93583186D01*
X123286059Y-93552653D01*
X123332195Y-93526685D01*
X123370599Y-93495761D01*
X123402136Y-93459719D01*
X123425499Y-93418494D01*
X123440012Y-93370262D01*
X123445122Y-93313356D01*
X123439951Y-93259235D01*
X123424824Y-93210251D01*
X123399693Y-93165284D01*
X123365830Y-93126326D01*
X123322575Y-93093218D01*
X123268413Y-93065877D01*
X123210175Y-93047142D01*
X123143413Y-93035303D01*
X123066790Y-93031133D01*
X122977782Y-93037298D01*
X122906628Y-93054214D01*
X122843387Y-93081787D01*
X122794337Y-93115458D01*
X122754674Y-93155769D01*
X122728941Y-93195753D01*
X122713217Y-93238134D01*
X122708242Y-93277941D01*
X122714678Y-93312825D01*
X122734437Y-93344619D01*
X122753478Y-93361218D01*
X122774947Y-93370964D01*
X122799711Y-93374295D01*
X122832218Y-93369519D01*
X122853810Y-93356770D01*
X122871554Y-93335805D01*
X122893683Y-93299740D01*
X122924545Y-93247821D01*
X122958713Y-93211263D01*
X122985889Y-93194985D01*
X123025118Y-93183883D01*
X123080468Y-93179633D01*
X123131425Y-93183825D01*
X123172588Y-93195448D01*
X123205887Y-93213644D01*
X123233233Y-93238995D01*
X123248408Y-93265803D01*
X123253392Y-93295160D01*
X123249283Y-93322841D01*
X123237333Y-93345963D01*
X123218719Y-93365487D01*
X123192881Y-93382965D01*
X123135178Y-93407390D01*
X123038275Y-93433279D01*
X122955709Y-93454630D01*
X122884707Y-93477060D01*
X122819399Y-93504425D01*
X122767410Y-93535434D01*
X122724246Y-93574355D01*
X122691755Y-93622445D01*
X122677123Y-93658564D01*
X122667827Y-93701157D01*
X122664522Y-93751467D01*
G37*
G36*
X121787263Y-93894715D02*
G01*
X121947303Y-93302365D01*
X122109358Y-93894715D01*
X122139889Y-93992901D01*
X122155149Y-94020820D01*
X122179700Y-94046756D01*
X122211675Y-94064287D01*
X122255354Y-94070631D01*
X122291274Y-94066789D01*
X122318186Y-94056343D01*
X122340374Y-94039285D01*
X122358120Y-94016165D01*
X122371607Y-93988646D01*
X122382910Y-93954921D01*
X122400007Y-93889525D01*
X122566703Y-93215293D01*
X122578636Y-93159476D01*
X122581785Y-93125289D01*
X122574777Y-93088637D01*
X122553880Y-93058367D01*
X122522911Y-93038034D01*
X122484882Y-93031133D01*
X122449281Y-93035737D01*
X122425018Y-93047974D01*
X122408922Y-93067281D01*
X122391884Y-93107808D01*
X122375033Y-93171268D01*
X122245585Y-93747864D01*
X122100810Y-93208759D01*
X122071317Y-93112772D01*
X122054258Y-93082166D01*
X122028392Y-93055436D01*
X121994686Y-93037668D01*
X121947303Y-93031133D01*
X121913540Y-93034283D01*
X121887150Y-93042939D01*
X121866520Y-93056474D01*
X121841679Y-93083516D01*
X121826708Y-93111428D01*
X121797155Y-93208759D01*
X121650976Y-93747925D01*
X121521588Y-93171268D01*
X121503392Y-93099277D01*
X121491716Y-93074570D01*
X121473472Y-93052077D01*
X121448604Y-93036794D01*
X121411740Y-93031133D01*
X121374208Y-93037914D01*
X121343107Y-93058000D01*
X121321975Y-93088058D01*
X121314836Y-93125289D01*
X121317881Y-93157451D01*
X121329918Y-93215293D01*
X121496614Y-93889525D01*
X121525068Y-93989909D01*
X121540307Y-94019782D01*
X121563903Y-94046329D01*
X121595393Y-94064053D01*
X121641267Y-94070631D01*
X121684972Y-94064360D01*
X121716921Y-94047062D01*
X121741436Y-94021519D01*
X121756427Y-93994244D01*
X121787263Y-93894715D01*
G37*
G36*
X120897853Y-93958218D02*
G01*
X120897853Y-93341871D01*
X121018725Y-93426728D01*
X121090136Y-93463758D01*
X121129517Y-93472725D01*
X121157034Y-93467015D01*
X121181846Y-93449277D01*
X121198964Y-93423724D01*
X121204561Y-93394872D01*
X121198605Y-93362922D01*
X121182274Y-93342299D01*
X121155353Y-93325255D01*
X121104421Y-93299434D01*
X121027387Y-93257781D01*
X120972652Y-93217674D01*
X120926105Y-93172181D01*
X120885091Y-93121503D01*
X120834960Y-93055558D01*
X120819648Y-93046606D01*
X120790019Y-93042857D01*
X120766621Y-93046116D01*
X120747100Y-93055538D01*
X120730485Y-93071495D01*
X120714193Y-93103825D01*
X120708137Y-93149958D01*
X120708137Y-93931474D01*
X120713205Y-93988187D01*
X120726239Y-94026246D01*
X120745284Y-94050903D01*
X120770411Y-94065462D01*
X120803697Y-94070631D01*
X120830763Y-94067310D01*
X120853177Y-94057821D01*
X120872024Y-94042116D01*
X120885695Y-94021538D01*
X120894575Y-93994240D01*
X120897853Y-93958218D01*
G37*
G04 #@! TO.C,C19*
D12*
X99346267Y-101190000D02*
X99053733Y-101190000D01*
X99346267Y-102210000D02*
X99053733Y-102210000D01*
G04 #@! TO.C,R11*
X128634879Y-103920000D02*
X128970121Y-103920000D01*
X128634879Y-104680000D02*
X128970121Y-104680000D01*
G04 #@! TO.C,C15*
X104290000Y-111383767D02*
X104290000Y-111091233D01*
X105310000Y-111383767D02*
X105310000Y-111091233D01*
G04 #@! TO.C,L2*
X130850000Y-109300000D02*
X130850000Y-113500000D01*
X130850000Y-113500000D02*
X136350000Y-113500000D01*
X136350000Y-109300000D02*
X130850000Y-109300000D01*
X136350000Y-113500000D02*
X136350000Y-109300000D01*
G04 #@! TO.C,R4*
X100495276Y-96977500D02*
X101004724Y-96977500D01*
X100495276Y-98022500D02*
X101004724Y-98022500D01*
G04 #@! TO.C,C6*
X136884165Y-102577500D02*
X137115835Y-102577500D01*
X136884165Y-103297500D02*
X137115835Y-103297500D01*
G04 #@! TO.C,D2*
X129952500Y-106915000D02*
X130252500Y-106915000D01*
X129952500Y-107685000D02*
X130252500Y-107685000D01*
G04 #@! TO.C,U2*
X96650000Y-102840000D02*
X100410000Y-102840000D01*
X96650000Y-109660000D02*
X100410000Y-109660000D01*
X100410000Y-102840000D02*
X100410000Y-104100000D01*
X100410000Y-109660000D02*
X100410000Y-108400000D01*
X95610000Y-109890000D02*
X95130000Y-109890000D01*
X95370000Y-109560000D01*
X95610000Y-109890000D01*
G36*
X95610000Y-109890000D02*
G01*
X95130000Y-109890000D01*
X95370000Y-109560000D01*
X95610000Y-109890000D01*
G37*
G04 #@! TO.C,C12*
X127390000Y-105871665D02*
X127390000Y-106103335D01*
X128110000Y-105871665D02*
X128110000Y-106103335D01*
G04 #@! TO.C,C1*
X95801665Y-88390000D02*
X96033335Y-88390000D01*
X95801665Y-89110000D02*
X96033335Y-89110000D01*
G04 #@! TO.C,R2*
X96007776Y-110377500D02*
X96517224Y-110377500D01*
X96007776Y-111422500D02*
X96517224Y-111422500D01*
G04 #@! TO.C,R3*
X135720000Y-105400121D02*
X135720000Y-105064879D01*
X136480000Y-105400121D02*
X136480000Y-105064879D01*
G04 #@! TO.C,C16*
X105390000Y-89966233D02*
X105390000Y-90258767D01*
X106410000Y-89966233D02*
X106410000Y-90258767D01*
G04 #@! TO.C,U1*
X96650000Y-89590000D02*
X100410000Y-89590000D01*
X96650000Y-96410000D02*
X100410000Y-96410000D01*
X100410000Y-89590000D02*
X100410000Y-90850000D01*
X100410000Y-96410000D02*
X100410000Y-95150000D01*
X95610000Y-96640000D02*
X95130000Y-96640000D01*
X95370000Y-96310000D01*
X95610000Y-96640000D01*
G36*
X95610000Y-96640000D02*
G01*
X95130000Y-96640000D01*
X95370000Y-96310000D01*
X95610000Y-96640000D01*
G37*
G04 #@! TO.C,C14*
X103590000Y-89966233D02*
X103590000Y-90258767D01*
X104610000Y-89966233D02*
X104610000Y-90258767D01*
G04 #@! TO.C,U3*
X130640000Y-100577500D02*
X130640000Y-101052500D01*
X130640000Y-104322500D02*
X130640000Y-104797500D01*
X130640000Y-104797500D02*
X131115000Y-104797500D01*
X131115000Y-100577500D02*
X130640000Y-100577500D01*
X134385000Y-104797500D02*
X134860000Y-104797500D01*
X134860000Y-100577500D02*
X134385000Y-100577500D01*
X134860000Y-101052500D02*
X134860000Y-100577500D01*
X134860000Y-104797500D02*
X134860000Y-104322500D01*
X135720000Y-101677500D02*
X135390000Y-101437500D01*
X135720000Y-101197500D01*
X135720000Y-101677500D01*
G36*
X135720000Y-101677500D02*
G01*
X135390000Y-101437500D01*
X135720000Y-101197500D01*
X135720000Y-101677500D01*
G37*
G04 #@! TO.C,R9*
X128634879Y-102820000D02*
X128970121Y-102820000D01*
X128634879Y-103580000D02*
X128970121Y-103580000D01*
G04 #@! TO.C,C17*
X105990000Y-111383767D02*
X105990000Y-111091233D01*
X107010000Y-111383767D02*
X107010000Y-111091233D01*
G04 #@! TO.C,R7*
X133765121Y-97809447D02*
X133429879Y-97809447D01*
X133765121Y-98569447D02*
X133429879Y-98569447D01*
G04 #@! TO.C,L1*
X138427804Y-98632500D02*
X138427804Y-102832500D01*
X138427804Y-102832500D02*
X143927804Y-102832500D01*
X143927804Y-98632500D02*
X138427804Y-98632500D01*
X143927804Y-102832500D02*
X143927804Y-98632500D01*
G04 #@! TO.C,C5*
X141965835Y-103622500D02*
X141734165Y-103622500D01*
X141965835Y-104342500D02*
X141734165Y-104342500D01*
G04 #@! TO.C,Q1*
X139340000Y-106422500D02*
X139340000Y-106472500D01*
X139340000Y-107592500D02*
X139340000Y-108372500D01*
X139340000Y-109492500D02*
X139340000Y-109542500D01*
X139340000Y-109542500D02*
X140860000Y-109542500D01*
X140860000Y-106422500D02*
X139340000Y-106422500D01*
X140860000Y-107422500D02*
X140860000Y-106422500D01*
X140860000Y-109542500D02*
X140860000Y-108542500D01*
X138800000Y-108362500D02*
X138560000Y-108032500D01*
X139040000Y-108032500D01*
X138800000Y-108362500D01*
G36*
X138800000Y-108362500D02*
G01*
X138560000Y-108032500D01*
X139040000Y-108032500D01*
X138800000Y-108362500D01*
G37*
G04 #@! TO.C,R6*
X128970121Y-101557500D02*
X128634879Y-101557500D01*
X128970121Y-102317500D02*
X128634879Y-102317500D01*
G04 #@! TO.C,R1*
X96504724Y-96977500D02*
X95995276Y-96977500D01*
X96504724Y-98022500D02*
X95995276Y-98022500D01*
G04 #@! TO.C,R8*
X133429879Y-94460000D02*
X133765121Y-94460000D01*
X133429879Y-95220000D02*
X133765121Y-95220000D01*
G04 #@! TO.C,D1*
X136266700Y-100199645D02*
X136266700Y-99899645D01*
X137036700Y-100199645D02*
X137036700Y-99899645D01*
G04 #@! TO.C,C18*
X92490000Y-92283767D02*
X92490000Y-91991233D01*
X93510000Y-92283767D02*
X93510000Y-91991233D01*
G04 #@! TO.C,R10*
X133765121Y-96709447D02*
X133429879Y-96709447D01*
X133765121Y-97469447D02*
X133429879Y-97469447D01*
G04 #@! TO.C,R5*
X92477500Y-106907776D02*
X92477500Y-107417224D01*
X93522500Y-106907776D02*
X93522500Y-107417224D01*
G04 #@! TO.C,C13*
X133683335Y-95629447D02*
X133451665Y-95629447D01*
X133683335Y-96349447D02*
X133451665Y-96349447D01*
G04 #@! TO.C,C9*
X131590000Y-99015835D02*
X131590000Y-98784165D01*
X132310000Y-99015835D02*
X132310000Y-98784165D01*
G04 #@! TO.C,C2*
X100966665Y-110540000D02*
X101198335Y-110540000D01*
X100966665Y-111260000D02*
X101198335Y-111260000D01*
G04 #@! TO.C,C11*
X129590000Y-100015835D02*
X129590000Y-99784165D01*
X130310000Y-100015835D02*
X130310000Y-99784165D01*
G04 #@! TO.C,C4*
X136740000Y-105378335D02*
X136740000Y-105146665D01*
X137460000Y-105378335D02*
X137460000Y-105146665D01*
G04 #@! TO.C,C3*
X137990000Y-105348335D02*
X137990000Y-105116665D01*
X138710000Y-105348335D02*
X138710000Y-105116665D01*
G04 #@! TO.C,SW1*
D13*
X121600000Y-94500000D02*
X122400000Y-94500000D01*
X121600000Y-95300000D02*
X121600000Y-94500000D01*
X122400000Y-95300000D02*
X122400000Y-94500000D01*
X126700000Y-100000000D02*
G75*
G02*
X117300000Y-100000000I-4700000J0D01*
G01*
X117300000Y-100000000D02*
G75*
G02*
X126700000Y-100000000I4700000J0D01*
G01*
G04 #@! TO.C,C10*
D12*
X128440000Y-100015835D02*
X128440000Y-99784165D01*
X129160000Y-100015835D02*
X129160000Y-99784165D01*
G04 #@! TD*
D14*
X90000000Y-86000000D02*
X90000000Y-114000000D01*
X90000000Y-86000000D02*
G75*
G02*
X91000000Y-85000000I1000000J0D01*
G01*
X91000000Y-115000000D02*
G75*
G02*
X90000000Y-114000000I0J1000000D01*
G01*
X91000000Y-115000000D02*
X144000000Y-115000000D01*
X93150000Y-113000000D02*
G75*
G02*
X90850000Y-113000000I-1150000J0D01*
G01*
X90850000Y-113000000D02*
G75*
G02*
X93150000Y-113000000I1150000J0D01*
G01*
X144150000Y-87000000D02*
G75*
G02*
X141850000Y-87000000I-1150000J0D01*
G01*
X141850000Y-87000000D02*
G75*
G02*
X144150000Y-87000000I1150000J0D01*
G01*
X144000000Y-85000000D02*
X91000000Y-85000000D01*
X144000000Y-85000000D02*
G75*
G02*
X145000000Y-86000000I0J-1000000D01*
G01*
X145000000Y-114000000D02*
G75*
G02*
X144000000Y-115000000I-1000000J0D01*
G01*
X145000000Y-114000000D02*
X145000000Y-86000000D01*
G04 #@! TO.C,SW1*
X118935898Y-98000000D02*
G75*
G02*
X118135898Y-98000000I-400000J0D01*
G01*
X118135898Y-98000000D02*
G75*
G02*
X118935898Y-98000000I400000J0D01*
G01*
X122400000Y-104000000D02*
G75*
G02*
X121600000Y-104000000I-400000J0D01*
G01*
X121600000Y-104000000D02*
G75*
G02*
X122400000Y-104000000I400000J0D01*
G01*
X125864102Y-98000000D02*
G75*
G02*
X125064102Y-98000000I-400000J0D01*
G01*
X125064102Y-98000000D02*
G75*
G02*
X125864102Y-98000000I400000J0D01*
G01*
G04 #@! TD*
M02*
