G04 #@! TF.GenerationSoftware,KiCad,Pcbnew,10.0.1*
G04 #@! TF.CreationDate,2026-06-10T21:03:07+08:00*
G04 #@! TF.ProjectId,photodiodes_kicadproject,70686f74-6f64-4696-9f64-65735f6b6963,rev?*
G04 #@! TF.SameCoordinates,Original*
G04 #@! TF.FileFunction,AssemblyDrawing,Top*
%FSLAX46Y46*%
G04 Gerber Fmt 4.6, Leading zero omitted, Abs format (unit mm)*
G04 Created by KiCad (PCBNEW 10.0.1) date 2026-06-10 21:03:07*
%MOMM*%
%LPD*%
G01*
G04 APERTURE LIST*
%ADD10C,0.150000*%
%ADD11C,0.040000*%
%ADD12C,0.105000*%
%ADD13C,0.060000*%
%ADD14C,0.075000*%
%ADD15C,0.100000*%
G04 #@! TA.AperFunction,Profile*
%ADD16C,0.050000*%
G04 #@! TD*
G04 APERTURE END LIST*
D10*
X103224819Y-103987976D02*
X103224819Y-104559404D01*
X103224819Y-104273690D02*
X102224819Y-104273690D01*
X102224819Y-104273690D02*
X102367676Y-104368928D01*
X102367676Y-104368928D02*
X102462914Y-104464166D01*
X102462914Y-104464166D02*
X102510533Y-104559404D01*
X102224819Y-103368928D02*
X102224819Y-103273690D01*
X102224819Y-103273690D02*
X102272438Y-103178452D01*
X102272438Y-103178452D02*
X102320057Y-103130833D01*
X102320057Y-103130833D02*
X102415295Y-103083214D01*
X102415295Y-103083214D02*
X102605771Y-103035595D01*
X102605771Y-103035595D02*
X102843866Y-103035595D01*
X102843866Y-103035595D02*
X103034342Y-103083214D01*
X103034342Y-103083214D02*
X103129580Y-103130833D01*
X103129580Y-103130833D02*
X103177200Y-103178452D01*
X103177200Y-103178452D02*
X103224819Y-103273690D01*
X103224819Y-103273690D02*
X103224819Y-103368928D01*
X103224819Y-103368928D02*
X103177200Y-103464166D01*
X103177200Y-103464166D02*
X103129580Y-103511785D01*
X103129580Y-103511785D02*
X103034342Y-103559404D01*
X103034342Y-103559404D02*
X102843866Y-103607023D01*
X102843866Y-103607023D02*
X102605771Y-103607023D01*
X102605771Y-103607023D02*
X102415295Y-103559404D01*
X102415295Y-103559404D02*
X102320057Y-103511785D01*
X102320057Y-103511785D02*
X102272438Y-103464166D01*
X102272438Y-103464166D02*
X102224819Y-103368928D01*
X103224819Y-102607023D02*
X102224819Y-102607023D01*
X103224819Y-102035595D02*
X102653390Y-102464166D01*
X102224819Y-102035595D02*
X102796247Y-102607023D01*
D11*
X101718200Y-103340832D02*
X101594391Y-103427499D01*
X101718200Y-103489404D02*
X101458200Y-103489404D01*
X101458200Y-103489404D02*
X101458200Y-103390356D01*
X101458200Y-103390356D02*
X101470581Y-103365594D01*
X101470581Y-103365594D02*
X101482962Y-103353213D01*
X101482962Y-103353213D02*
X101507724Y-103340832D01*
X101507724Y-103340832D02*
X101544867Y-103340832D01*
X101544867Y-103340832D02*
X101569629Y-103353213D01*
X101569629Y-103353213D02*
X101582010Y-103365594D01*
X101582010Y-103365594D02*
X101594391Y-103390356D01*
X101594391Y-103390356D02*
X101594391Y-103489404D01*
X101482962Y-103241785D02*
X101470581Y-103229404D01*
X101470581Y-103229404D02*
X101458200Y-103204642D01*
X101458200Y-103204642D02*
X101458200Y-103142737D01*
X101458200Y-103142737D02*
X101470581Y-103117975D01*
X101470581Y-103117975D02*
X101482962Y-103105594D01*
X101482962Y-103105594D02*
X101507724Y-103093213D01*
X101507724Y-103093213D02*
X101532486Y-103093213D01*
X101532486Y-103093213D02*
X101569629Y-103105594D01*
X101569629Y-103105594D02*
X101718200Y-103254166D01*
X101718200Y-103254166D02*
X101718200Y-103093213D01*
D10*
X121524819Y-107787976D02*
X121524819Y-108359404D01*
X121524819Y-108073690D02*
X120524819Y-108073690D01*
X120524819Y-108073690D02*
X120667676Y-108168928D01*
X120667676Y-108168928D02*
X120762914Y-108264166D01*
X120762914Y-108264166D02*
X120810533Y-108359404D01*
X120524819Y-107168928D02*
X120524819Y-107073690D01*
X120524819Y-107073690D02*
X120572438Y-106978452D01*
X120572438Y-106978452D02*
X120620057Y-106930833D01*
X120620057Y-106930833D02*
X120715295Y-106883214D01*
X120715295Y-106883214D02*
X120905771Y-106835595D01*
X120905771Y-106835595D02*
X121143866Y-106835595D01*
X121143866Y-106835595D02*
X121334342Y-106883214D01*
X121334342Y-106883214D02*
X121429580Y-106930833D01*
X121429580Y-106930833D02*
X121477200Y-106978452D01*
X121477200Y-106978452D02*
X121524819Y-107073690D01*
X121524819Y-107073690D02*
X121524819Y-107168928D01*
X121524819Y-107168928D02*
X121477200Y-107264166D01*
X121477200Y-107264166D02*
X121429580Y-107311785D01*
X121429580Y-107311785D02*
X121334342Y-107359404D01*
X121334342Y-107359404D02*
X121143866Y-107407023D01*
X121143866Y-107407023D02*
X120905771Y-107407023D01*
X120905771Y-107407023D02*
X120715295Y-107359404D01*
X120715295Y-107359404D02*
X120620057Y-107311785D01*
X120620057Y-107311785D02*
X120572438Y-107264166D01*
X120572438Y-107264166D02*
X120524819Y-107168928D01*
X121524819Y-106407023D02*
X120524819Y-106407023D01*
X121524819Y-105835595D02*
X120953390Y-106264166D01*
X120524819Y-105835595D02*
X121096247Y-106407023D01*
D11*
X120018200Y-107264642D02*
X119894391Y-107351309D01*
X120018200Y-107413214D02*
X119758200Y-107413214D01*
X119758200Y-107413214D02*
X119758200Y-107314166D01*
X119758200Y-107314166D02*
X119770581Y-107289404D01*
X119770581Y-107289404D02*
X119782962Y-107277023D01*
X119782962Y-107277023D02*
X119807724Y-107264642D01*
X119807724Y-107264642D02*
X119844867Y-107264642D01*
X119844867Y-107264642D02*
X119869629Y-107277023D01*
X119869629Y-107277023D02*
X119882010Y-107289404D01*
X119882010Y-107289404D02*
X119894391Y-107314166D01*
X119894391Y-107314166D02*
X119894391Y-107413214D01*
X120018200Y-107017023D02*
X120018200Y-107165595D01*
X120018200Y-107091309D02*
X119758200Y-107091309D01*
X119758200Y-107091309D02*
X119795343Y-107116071D01*
X119795343Y-107116071D02*
X119820105Y-107140833D01*
X119820105Y-107140833D02*
X119832486Y-107165595D01*
X119758200Y-106930357D02*
X119758200Y-106757023D01*
X119758200Y-106757023D02*
X120018200Y-106868452D01*
D10*
X96404819Y-103833333D02*
X96404819Y-104309523D01*
X96404819Y-104309523D02*
X95404819Y-104309523D01*
X95404819Y-103642856D02*
X95404819Y-103071428D01*
X96404819Y-103357142D02*
X95404819Y-103357142D01*
X96309580Y-102166666D02*
X96357200Y-102214285D01*
X96357200Y-102214285D02*
X96404819Y-102357142D01*
X96404819Y-102357142D02*
X96404819Y-102452380D01*
X96404819Y-102452380D02*
X96357200Y-102595237D01*
X96357200Y-102595237D02*
X96261961Y-102690475D01*
X96261961Y-102690475D02*
X96166723Y-102738094D01*
X96166723Y-102738094D02*
X95976247Y-102785713D01*
X95976247Y-102785713D02*
X95833390Y-102785713D01*
X95833390Y-102785713D02*
X95642914Y-102738094D01*
X95642914Y-102738094D02*
X95547676Y-102690475D01*
X95547676Y-102690475D02*
X95452438Y-102595237D01*
X95452438Y-102595237D02*
X95404819Y-102452380D01*
X95404819Y-102452380D02*
X95404819Y-102357142D01*
X95404819Y-102357142D02*
X95452438Y-102214285D01*
X95452438Y-102214285D02*
X95500057Y-102166666D01*
X95404819Y-101833332D02*
X95404819Y-101214285D01*
X95404819Y-101214285D02*
X95785771Y-101547618D01*
X95785771Y-101547618D02*
X95785771Y-101404761D01*
X95785771Y-101404761D02*
X95833390Y-101309523D01*
X95833390Y-101309523D02*
X95881009Y-101261904D01*
X95881009Y-101261904D02*
X95976247Y-101214285D01*
X95976247Y-101214285D02*
X96214342Y-101214285D01*
X96214342Y-101214285D02*
X96309580Y-101261904D01*
X96309580Y-101261904D02*
X96357200Y-101309523D01*
X96357200Y-101309523D02*
X96404819Y-101404761D01*
X96404819Y-101404761D02*
X96404819Y-101690475D01*
X96404819Y-101690475D02*
X96357200Y-101785713D01*
X96357200Y-101785713D02*
X96309580Y-101833332D01*
X95500057Y-100833332D02*
X95452438Y-100785713D01*
X95452438Y-100785713D02*
X95404819Y-100690475D01*
X95404819Y-100690475D02*
X95404819Y-100452380D01*
X95404819Y-100452380D02*
X95452438Y-100357142D01*
X95452438Y-100357142D02*
X95500057Y-100309523D01*
X95500057Y-100309523D02*
X95595295Y-100261904D01*
X95595295Y-100261904D02*
X95690533Y-100261904D01*
X95690533Y-100261904D02*
X95833390Y-100309523D01*
X95833390Y-100309523D02*
X96404819Y-100880951D01*
X96404819Y-100880951D02*
X96404819Y-100261904D01*
X95404819Y-99404761D02*
X95404819Y-99595237D01*
X95404819Y-99595237D02*
X95452438Y-99690475D01*
X95452438Y-99690475D02*
X95500057Y-99738094D01*
X95500057Y-99738094D02*
X95642914Y-99833332D01*
X95642914Y-99833332D02*
X95833390Y-99880951D01*
X95833390Y-99880951D02*
X96214342Y-99880951D01*
X96214342Y-99880951D02*
X96309580Y-99833332D01*
X96309580Y-99833332D02*
X96357200Y-99785713D01*
X96357200Y-99785713D02*
X96404819Y-99690475D01*
X96404819Y-99690475D02*
X96404819Y-99499999D01*
X96404819Y-99499999D02*
X96357200Y-99404761D01*
X96357200Y-99404761D02*
X96309580Y-99357142D01*
X96309580Y-99357142D02*
X96214342Y-99309523D01*
X96214342Y-99309523D02*
X95976247Y-99309523D01*
X95976247Y-99309523D02*
X95881009Y-99357142D01*
X95881009Y-99357142D02*
X95833390Y-99404761D01*
X95833390Y-99404761D02*
X95785771Y-99499999D01*
X95785771Y-99499999D02*
X95785771Y-99690475D01*
X95785771Y-99690475D02*
X95833390Y-99785713D01*
X95833390Y-99785713D02*
X95881009Y-99833332D01*
X95881009Y-99833332D02*
X95976247Y-99880951D01*
X95404819Y-98690475D02*
X95404819Y-98595237D01*
X95404819Y-98595237D02*
X95452438Y-98499999D01*
X95452438Y-98499999D02*
X95500057Y-98452380D01*
X95500057Y-98452380D02*
X95595295Y-98404761D01*
X95595295Y-98404761D02*
X95785771Y-98357142D01*
X95785771Y-98357142D02*
X96023866Y-98357142D01*
X96023866Y-98357142D02*
X96214342Y-98404761D01*
X96214342Y-98404761D02*
X96309580Y-98452380D01*
X96309580Y-98452380D02*
X96357200Y-98499999D01*
X96357200Y-98499999D02*
X96404819Y-98595237D01*
X96404819Y-98595237D02*
X96404819Y-98690475D01*
X96404819Y-98690475D02*
X96357200Y-98785713D01*
X96357200Y-98785713D02*
X96309580Y-98833332D01*
X96309580Y-98833332D02*
X96214342Y-98880951D01*
X96214342Y-98880951D02*
X96023866Y-98928570D01*
X96023866Y-98928570D02*
X95785771Y-98928570D01*
X95785771Y-98928570D02*
X95595295Y-98880951D01*
X95595295Y-98880951D02*
X95500057Y-98833332D01*
X95500057Y-98833332D02*
X95452438Y-98785713D01*
X95452438Y-98785713D02*
X95404819Y-98690475D01*
X96404819Y-98023808D02*
X95738152Y-97499999D01*
X95738152Y-98023808D02*
X96404819Y-97499999D01*
X96404819Y-97119046D02*
X95404819Y-97119046D01*
X95404819Y-97119046D02*
X95404819Y-96880951D01*
X95404819Y-96880951D02*
X95452438Y-96738094D01*
X95452438Y-96738094D02*
X95547676Y-96642856D01*
X95547676Y-96642856D02*
X95642914Y-96595237D01*
X95642914Y-96595237D02*
X95833390Y-96547618D01*
X95833390Y-96547618D02*
X95976247Y-96547618D01*
X95976247Y-96547618D02*
X96166723Y-96595237D01*
X96166723Y-96595237D02*
X96261961Y-96642856D01*
X96261961Y-96642856D02*
X96357200Y-96738094D01*
X96357200Y-96738094D02*
X96404819Y-96880951D01*
X96404819Y-96880951D02*
X96404819Y-97119046D01*
X95881009Y-96119046D02*
X95881009Y-95785713D01*
X96404819Y-95642856D02*
X96404819Y-96119046D01*
X96404819Y-96119046D02*
X95404819Y-96119046D01*
X95404819Y-96119046D02*
X95404819Y-95642856D01*
D12*
X98466666Y-99618373D02*
X98466666Y-100185040D01*
X98466666Y-100185040D02*
X98500000Y-100251706D01*
X98500000Y-100251706D02*
X98533333Y-100285040D01*
X98533333Y-100285040D02*
X98600000Y-100318373D01*
X98600000Y-100318373D02*
X98733333Y-100318373D01*
X98733333Y-100318373D02*
X98800000Y-100285040D01*
X98800000Y-100285040D02*
X98833333Y-100251706D01*
X98833333Y-100251706D02*
X98866666Y-100185040D01*
X98866666Y-100185040D02*
X98866666Y-99618373D01*
X99133333Y-99618373D02*
X99566666Y-99618373D01*
X99566666Y-99618373D02*
X99333333Y-99885040D01*
X99333333Y-99885040D02*
X99433333Y-99885040D01*
X99433333Y-99885040D02*
X99499999Y-99918373D01*
X99499999Y-99918373D02*
X99533333Y-99951706D01*
X99533333Y-99951706D02*
X99566666Y-100018373D01*
X99566666Y-100018373D02*
X99566666Y-100185040D01*
X99566666Y-100185040D02*
X99533333Y-100251706D01*
X99533333Y-100251706D02*
X99499999Y-100285040D01*
X99499999Y-100285040D02*
X99433333Y-100318373D01*
X99433333Y-100318373D02*
X99233333Y-100318373D01*
X99233333Y-100318373D02*
X99166666Y-100285040D01*
X99166666Y-100285040D02*
X99133333Y-100251706D01*
D10*
X101396071Y-103064819D02*
X100824643Y-103064819D01*
X101110357Y-103064819D02*
X101110357Y-102064819D01*
X101110357Y-102064819D02*
X101015119Y-102207676D01*
X101015119Y-102207676D02*
X100919881Y-102302914D01*
X100919881Y-102302914D02*
X100824643Y-102350533D01*
X102015119Y-102064819D02*
X102110357Y-102064819D01*
X102110357Y-102064819D02*
X102205595Y-102112438D01*
X102205595Y-102112438D02*
X102253214Y-102160057D01*
X102253214Y-102160057D02*
X102300833Y-102255295D01*
X102300833Y-102255295D02*
X102348452Y-102445771D01*
X102348452Y-102445771D02*
X102348452Y-102683866D01*
X102348452Y-102683866D02*
X102300833Y-102874342D01*
X102300833Y-102874342D02*
X102253214Y-102969580D01*
X102253214Y-102969580D02*
X102205595Y-103017200D01*
X102205595Y-103017200D02*
X102110357Y-103064819D01*
X102110357Y-103064819D02*
X102015119Y-103064819D01*
X102015119Y-103064819D02*
X101919881Y-103017200D01*
X101919881Y-103017200D02*
X101872262Y-102969580D01*
X101872262Y-102969580D02*
X101824643Y-102874342D01*
X101824643Y-102874342D02*
X101777024Y-102683866D01*
X101777024Y-102683866D02*
X101777024Y-102445771D01*
X101777024Y-102445771D02*
X101824643Y-102255295D01*
X101824643Y-102255295D02*
X101872262Y-102160057D01*
X101872262Y-102160057D02*
X101919881Y-102112438D01*
X101919881Y-102112438D02*
X102015119Y-102064819D01*
X102777024Y-102398152D02*
X102777024Y-103064819D01*
X102777024Y-102493390D02*
X102824643Y-102445771D01*
X102824643Y-102445771D02*
X102919881Y-102398152D01*
X102919881Y-102398152D02*
X103062738Y-102398152D01*
X103062738Y-102398152D02*
X103157976Y-102445771D01*
X103157976Y-102445771D02*
X103205595Y-102541009D01*
X103205595Y-102541009D02*
X103205595Y-103064819D01*
X104015119Y-102541009D02*
X103681786Y-102541009D01*
X103681786Y-103064819D02*
X103681786Y-102064819D01*
X103681786Y-102064819D02*
X104157976Y-102064819D01*
D11*
X102425833Y-101539765D02*
X102413929Y-101551670D01*
X102413929Y-101551670D02*
X102378214Y-101563574D01*
X102378214Y-101563574D02*
X102354405Y-101563574D01*
X102354405Y-101563574D02*
X102318691Y-101551670D01*
X102318691Y-101551670D02*
X102294881Y-101527860D01*
X102294881Y-101527860D02*
X102282976Y-101504050D01*
X102282976Y-101504050D02*
X102271072Y-101456431D01*
X102271072Y-101456431D02*
X102271072Y-101420717D01*
X102271072Y-101420717D02*
X102282976Y-101373098D01*
X102282976Y-101373098D02*
X102294881Y-101349289D01*
X102294881Y-101349289D02*
X102318691Y-101325479D01*
X102318691Y-101325479D02*
X102354405Y-101313574D01*
X102354405Y-101313574D02*
X102378214Y-101313574D01*
X102378214Y-101313574D02*
X102413929Y-101325479D01*
X102413929Y-101325479D02*
X102425833Y-101337384D01*
X102652024Y-101313574D02*
X102532976Y-101313574D01*
X102532976Y-101313574D02*
X102521072Y-101432622D01*
X102521072Y-101432622D02*
X102532976Y-101420717D01*
X102532976Y-101420717D02*
X102556786Y-101408812D01*
X102556786Y-101408812D02*
X102616310Y-101408812D01*
X102616310Y-101408812D02*
X102640119Y-101420717D01*
X102640119Y-101420717D02*
X102652024Y-101432622D01*
X102652024Y-101432622D02*
X102663929Y-101456431D01*
X102663929Y-101456431D02*
X102663929Y-101515955D01*
X102663929Y-101515955D02*
X102652024Y-101539765D01*
X102652024Y-101539765D02*
X102640119Y-101551670D01*
X102640119Y-101551670D02*
X102616310Y-101563574D01*
X102616310Y-101563574D02*
X102556786Y-101563574D01*
X102556786Y-101563574D02*
X102532976Y-101551670D01*
X102532976Y-101551670D02*
X102521072Y-101539765D01*
D10*
X132358152Y-89435714D02*
X133024819Y-89435714D01*
X131977200Y-89673809D02*
X132691485Y-89911904D01*
X132691485Y-89911904D02*
X132691485Y-89292857D01*
X133024819Y-88911904D02*
X132024819Y-88911904D01*
X133024819Y-88340476D02*
X132453390Y-88769047D01*
X132024819Y-88340476D02*
X132596247Y-88911904D01*
X132024819Y-88007142D02*
X132024819Y-87340476D01*
X132024819Y-87340476D02*
X133024819Y-87769047D01*
D13*
X134181927Y-88907142D02*
X133991451Y-89040475D01*
X134181927Y-89135713D02*
X133781927Y-89135713D01*
X133781927Y-89135713D02*
X133781927Y-88983332D01*
X133781927Y-88983332D02*
X133800975Y-88945237D01*
X133800975Y-88945237D02*
X133820022Y-88926190D01*
X133820022Y-88926190D02*
X133858118Y-88907142D01*
X133858118Y-88907142D02*
X133915260Y-88907142D01*
X133915260Y-88907142D02*
X133953356Y-88926190D01*
X133953356Y-88926190D02*
X133972403Y-88945237D01*
X133972403Y-88945237D02*
X133991451Y-88983332D01*
X133991451Y-88983332D02*
X133991451Y-89135713D01*
X133820022Y-88754761D02*
X133800975Y-88735713D01*
X133800975Y-88735713D02*
X133781927Y-88697618D01*
X133781927Y-88697618D02*
X133781927Y-88602380D01*
X133781927Y-88602380D02*
X133800975Y-88564285D01*
X133800975Y-88564285D02*
X133820022Y-88545237D01*
X133820022Y-88545237D02*
X133858118Y-88526190D01*
X133858118Y-88526190D02*
X133896213Y-88526190D01*
X133896213Y-88526190D02*
X133953356Y-88545237D01*
X133953356Y-88545237D02*
X134181927Y-88773809D01*
X134181927Y-88773809D02*
X134181927Y-88526190D01*
X134181927Y-88145238D02*
X134181927Y-88373809D01*
X134181927Y-88259523D02*
X133781927Y-88259523D01*
X133781927Y-88259523D02*
X133839070Y-88297619D01*
X133839070Y-88297619D02*
X133877165Y-88335714D01*
X133877165Y-88335714D02*
X133896213Y-88373809D01*
D10*
X123094819Y-108469642D02*
X123094819Y-108945832D01*
X123094819Y-108945832D02*
X123571009Y-108993451D01*
X123571009Y-108993451D02*
X123523390Y-108945832D01*
X123523390Y-108945832D02*
X123475771Y-108850594D01*
X123475771Y-108850594D02*
X123475771Y-108612499D01*
X123475771Y-108612499D02*
X123523390Y-108517261D01*
X123523390Y-108517261D02*
X123571009Y-108469642D01*
X123571009Y-108469642D02*
X123666247Y-108422023D01*
X123666247Y-108422023D02*
X123904342Y-108422023D01*
X123904342Y-108422023D02*
X123999580Y-108469642D01*
X123999580Y-108469642D02*
X124047200Y-108517261D01*
X124047200Y-108517261D02*
X124094819Y-108612499D01*
X124094819Y-108612499D02*
X124094819Y-108850594D01*
X124094819Y-108850594D02*
X124047200Y-108945832D01*
X124047200Y-108945832D02*
X123999580Y-108993451D01*
X123999580Y-107993451D02*
X124047200Y-107945832D01*
X124047200Y-107945832D02*
X124094819Y-107993451D01*
X124094819Y-107993451D02*
X124047200Y-108041070D01*
X124047200Y-108041070D02*
X123999580Y-107993451D01*
X123999580Y-107993451D02*
X124094819Y-107993451D01*
X123094819Y-107088690D02*
X123094819Y-107279166D01*
X123094819Y-107279166D02*
X123142438Y-107374404D01*
X123142438Y-107374404D02*
X123190057Y-107422023D01*
X123190057Y-107422023D02*
X123332914Y-107517261D01*
X123332914Y-107517261D02*
X123523390Y-107564880D01*
X123523390Y-107564880D02*
X123904342Y-107564880D01*
X123904342Y-107564880D02*
X123999580Y-107517261D01*
X123999580Y-107517261D02*
X124047200Y-107469642D01*
X124047200Y-107469642D02*
X124094819Y-107374404D01*
X124094819Y-107374404D02*
X124094819Y-107183928D01*
X124094819Y-107183928D02*
X124047200Y-107088690D01*
X124047200Y-107088690D02*
X123999580Y-107041071D01*
X123999580Y-107041071D02*
X123904342Y-106993452D01*
X123904342Y-106993452D02*
X123666247Y-106993452D01*
X123666247Y-106993452D02*
X123571009Y-107041071D01*
X123571009Y-107041071D02*
X123523390Y-107088690D01*
X123523390Y-107088690D02*
X123475771Y-107183928D01*
X123475771Y-107183928D02*
X123475771Y-107374404D01*
X123475771Y-107374404D02*
X123523390Y-107469642D01*
X123523390Y-107469642D02*
X123571009Y-107517261D01*
X123571009Y-107517261D02*
X123666247Y-107564880D01*
X123428152Y-106564880D02*
X124428152Y-106564880D01*
X123475771Y-106564880D02*
X123428152Y-106469642D01*
X123428152Y-106469642D02*
X123428152Y-106279166D01*
X123428152Y-106279166D02*
X123475771Y-106183928D01*
X123475771Y-106183928D02*
X123523390Y-106136309D01*
X123523390Y-106136309D02*
X123618628Y-106088690D01*
X123618628Y-106088690D02*
X123904342Y-106088690D01*
X123904342Y-106088690D02*
X123999580Y-106136309D01*
X123999580Y-106136309D02*
X124047200Y-106183928D01*
X124047200Y-106183928D02*
X124094819Y-106279166D01*
X124094819Y-106279166D02*
X124094819Y-106469642D01*
X124094819Y-106469642D02*
X124047200Y-106564880D01*
X123571009Y-105326785D02*
X123571009Y-105660118D01*
X124094819Y-105660118D02*
X123094819Y-105660118D01*
X123094819Y-105660118D02*
X123094819Y-105183928D01*
D11*
X124889765Y-107273214D02*
X124901670Y-107285118D01*
X124901670Y-107285118D02*
X124913574Y-107320833D01*
X124913574Y-107320833D02*
X124913574Y-107344642D01*
X124913574Y-107344642D02*
X124901670Y-107380356D01*
X124901670Y-107380356D02*
X124877860Y-107404166D01*
X124877860Y-107404166D02*
X124854050Y-107416071D01*
X124854050Y-107416071D02*
X124806431Y-107427975D01*
X124806431Y-107427975D02*
X124770717Y-107427975D01*
X124770717Y-107427975D02*
X124723098Y-107416071D01*
X124723098Y-107416071D02*
X124699289Y-107404166D01*
X124699289Y-107404166D02*
X124675479Y-107380356D01*
X124675479Y-107380356D02*
X124663574Y-107344642D01*
X124663574Y-107344642D02*
X124663574Y-107320833D01*
X124663574Y-107320833D02*
X124675479Y-107285118D01*
X124675479Y-107285118D02*
X124687384Y-107273214D01*
X124687384Y-107177975D02*
X124675479Y-107166071D01*
X124675479Y-107166071D02*
X124663574Y-107142261D01*
X124663574Y-107142261D02*
X124663574Y-107082737D01*
X124663574Y-107082737D02*
X124675479Y-107058928D01*
X124675479Y-107058928D02*
X124687384Y-107047023D01*
X124687384Y-107047023D02*
X124711193Y-107035118D01*
X124711193Y-107035118D02*
X124735003Y-107035118D01*
X124735003Y-107035118D02*
X124770717Y-107047023D01*
X124770717Y-107047023D02*
X124913574Y-107189880D01*
X124913574Y-107189880D02*
X124913574Y-107035118D01*
X124913574Y-106797023D02*
X124913574Y-106939880D01*
X124913574Y-106868452D02*
X124663574Y-106868452D01*
X124663574Y-106868452D02*
X124699289Y-106892261D01*
X124699289Y-106892261D02*
X124723098Y-106916071D01*
X124723098Y-106916071D02*
X124735003Y-106939880D01*
D10*
X130064819Y-100444642D02*
X130064819Y-100920832D01*
X130064819Y-100920832D02*
X130541009Y-100968451D01*
X130541009Y-100968451D02*
X130493390Y-100920832D01*
X130493390Y-100920832D02*
X130445771Y-100825594D01*
X130445771Y-100825594D02*
X130445771Y-100587499D01*
X130445771Y-100587499D02*
X130493390Y-100492261D01*
X130493390Y-100492261D02*
X130541009Y-100444642D01*
X130541009Y-100444642D02*
X130636247Y-100397023D01*
X130636247Y-100397023D02*
X130874342Y-100397023D01*
X130874342Y-100397023D02*
X130969580Y-100444642D01*
X130969580Y-100444642D02*
X131017200Y-100492261D01*
X131017200Y-100492261D02*
X131064819Y-100587499D01*
X131064819Y-100587499D02*
X131064819Y-100825594D01*
X131064819Y-100825594D02*
X131017200Y-100920832D01*
X131017200Y-100920832D02*
X130969580Y-100968451D01*
X130969580Y-99968451D02*
X131017200Y-99920832D01*
X131017200Y-99920832D02*
X131064819Y-99968451D01*
X131064819Y-99968451D02*
X131017200Y-100016070D01*
X131017200Y-100016070D02*
X130969580Y-99968451D01*
X130969580Y-99968451D02*
X131064819Y-99968451D01*
X130064819Y-99063690D02*
X130064819Y-99254166D01*
X130064819Y-99254166D02*
X130112438Y-99349404D01*
X130112438Y-99349404D02*
X130160057Y-99397023D01*
X130160057Y-99397023D02*
X130302914Y-99492261D01*
X130302914Y-99492261D02*
X130493390Y-99539880D01*
X130493390Y-99539880D02*
X130874342Y-99539880D01*
X130874342Y-99539880D02*
X130969580Y-99492261D01*
X130969580Y-99492261D02*
X131017200Y-99444642D01*
X131017200Y-99444642D02*
X131064819Y-99349404D01*
X131064819Y-99349404D02*
X131064819Y-99158928D01*
X131064819Y-99158928D02*
X131017200Y-99063690D01*
X131017200Y-99063690D02*
X130969580Y-99016071D01*
X130969580Y-99016071D02*
X130874342Y-98968452D01*
X130874342Y-98968452D02*
X130636247Y-98968452D01*
X130636247Y-98968452D02*
X130541009Y-99016071D01*
X130541009Y-99016071D02*
X130493390Y-99063690D01*
X130493390Y-99063690D02*
X130445771Y-99158928D01*
X130445771Y-99158928D02*
X130445771Y-99349404D01*
X130445771Y-99349404D02*
X130493390Y-99444642D01*
X130493390Y-99444642D02*
X130541009Y-99492261D01*
X130541009Y-99492261D02*
X130636247Y-99539880D01*
X130398152Y-98539880D02*
X131398152Y-98539880D01*
X130445771Y-98539880D02*
X130398152Y-98444642D01*
X130398152Y-98444642D02*
X130398152Y-98254166D01*
X130398152Y-98254166D02*
X130445771Y-98158928D01*
X130445771Y-98158928D02*
X130493390Y-98111309D01*
X130493390Y-98111309D02*
X130588628Y-98063690D01*
X130588628Y-98063690D02*
X130874342Y-98063690D01*
X130874342Y-98063690D02*
X130969580Y-98111309D01*
X130969580Y-98111309D02*
X131017200Y-98158928D01*
X131017200Y-98158928D02*
X131064819Y-98254166D01*
X131064819Y-98254166D02*
X131064819Y-98444642D01*
X131064819Y-98444642D02*
X131017200Y-98539880D01*
X130541009Y-97301785D02*
X130541009Y-97635118D01*
X131064819Y-97635118D02*
X130064819Y-97635118D01*
X130064819Y-97635118D02*
X130064819Y-97158928D01*
D11*
X129539765Y-99248214D02*
X129551670Y-99260118D01*
X129551670Y-99260118D02*
X129563574Y-99295833D01*
X129563574Y-99295833D02*
X129563574Y-99319642D01*
X129563574Y-99319642D02*
X129551670Y-99355356D01*
X129551670Y-99355356D02*
X129527860Y-99379166D01*
X129527860Y-99379166D02*
X129504050Y-99391071D01*
X129504050Y-99391071D02*
X129456431Y-99402975D01*
X129456431Y-99402975D02*
X129420717Y-99402975D01*
X129420717Y-99402975D02*
X129373098Y-99391071D01*
X129373098Y-99391071D02*
X129349289Y-99379166D01*
X129349289Y-99379166D02*
X129325479Y-99355356D01*
X129325479Y-99355356D02*
X129313574Y-99319642D01*
X129313574Y-99319642D02*
X129313574Y-99295833D01*
X129313574Y-99295833D02*
X129325479Y-99260118D01*
X129325479Y-99260118D02*
X129337384Y-99248214D01*
X129337384Y-99152975D02*
X129325479Y-99141071D01*
X129325479Y-99141071D02*
X129313574Y-99117261D01*
X129313574Y-99117261D02*
X129313574Y-99057737D01*
X129313574Y-99057737D02*
X129325479Y-99033928D01*
X129325479Y-99033928D02*
X129337384Y-99022023D01*
X129337384Y-99022023D02*
X129361193Y-99010118D01*
X129361193Y-99010118D02*
X129385003Y-99010118D01*
X129385003Y-99010118D02*
X129420717Y-99022023D01*
X129420717Y-99022023D02*
X129563574Y-99164880D01*
X129563574Y-99164880D02*
X129563574Y-99010118D01*
X129313574Y-98783928D02*
X129313574Y-98902976D01*
X129313574Y-98902976D02*
X129432622Y-98914880D01*
X129432622Y-98914880D02*
X129420717Y-98902976D01*
X129420717Y-98902976D02*
X129408812Y-98879166D01*
X129408812Y-98879166D02*
X129408812Y-98819642D01*
X129408812Y-98819642D02*
X129420717Y-98795833D01*
X129420717Y-98795833D02*
X129432622Y-98783928D01*
X129432622Y-98783928D02*
X129456431Y-98772023D01*
X129456431Y-98772023D02*
X129515955Y-98772023D01*
X129515955Y-98772023D02*
X129539765Y-98783928D01*
X129539765Y-98783928D02*
X129551670Y-98795833D01*
X129551670Y-98795833D02*
X129563574Y-98819642D01*
X129563574Y-98819642D02*
X129563574Y-98879166D01*
X129563574Y-98879166D02*
X129551670Y-98902976D01*
X129551670Y-98902976D02*
X129539765Y-98914880D01*
D10*
X108024819Y-90747618D02*
X108024819Y-90652380D01*
X108024819Y-90652380D02*
X108072438Y-90557142D01*
X108072438Y-90557142D02*
X108120057Y-90509523D01*
X108120057Y-90509523D02*
X108215295Y-90461904D01*
X108215295Y-90461904D02*
X108405771Y-90414285D01*
X108405771Y-90414285D02*
X108643866Y-90414285D01*
X108643866Y-90414285D02*
X108834342Y-90461904D01*
X108834342Y-90461904D02*
X108929580Y-90509523D01*
X108929580Y-90509523D02*
X108977200Y-90557142D01*
X108977200Y-90557142D02*
X109024819Y-90652380D01*
X109024819Y-90652380D02*
X109024819Y-90747618D01*
X109024819Y-90747618D02*
X108977200Y-90842856D01*
X108977200Y-90842856D02*
X108929580Y-90890475D01*
X108929580Y-90890475D02*
X108834342Y-90938094D01*
X108834342Y-90938094D02*
X108643866Y-90985713D01*
X108643866Y-90985713D02*
X108405771Y-90985713D01*
X108405771Y-90985713D02*
X108215295Y-90938094D01*
X108215295Y-90938094D02*
X108120057Y-90890475D01*
X108120057Y-90890475D02*
X108072438Y-90842856D01*
X108072438Y-90842856D02*
X108024819Y-90747618D01*
X109024819Y-89414285D02*
X108548628Y-89747618D01*
X109024819Y-89985713D02*
X108024819Y-89985713D01*
X108024819Y-89985713D02*
X108024819Y-89604761D01*
X108024819Y-89604761D02*
X108072438Y-89509523D01*
X108072438Y-89509523D02*
X108120057Y-89461904D01*
X108120057Y-89461904D02*
X108215295Y-89414285D01*
X108215295Y-89414285D02*
X108358152Y-89414285D01*
X108358152Y-89414285D02*
X108453390Y-89461904D01*
X108453390Y-89461904D02*
X108501009Y-89509523D01*
X108501009Y-89509523D02*
X108548628Y-89604761D01*
X108548628Y-89604761D02*
X108548628Y-89985713D01*
D13*
X110181927Y-90457142D02*
X109991451Y-90590475D01*
X110181927Y-90685713D02*
X109781927Y-90685713D01*
X109781927Y-90685713D02*
X109781927Y-90533332D01*
X109781927Y-90533332D02*
X109800975Y-90495237D01*
X109800975Y-90495237D02*
X109820022Y-90476190D01*
X109820022Y-90476190D02*
X109858118Y-90457142D01*
X109858118Y-90457142D02*
X109915260Y-90457142D01*
X109915260Y-90457142D02*
X109953356Y-90476190D01*
X109953356Y-90476190D02*
X109972403Y-90495237D01*
X109972403Y-90495237D02*
X109991451Y-90533332D01*
X109991451Y-90533332D02*
X109991451Y-90685713D01*
X110181927Y-90076190D02*
X110181927Y-90304761D01*
X110181927Y-90190475D02*
X109781927Y-90190475D01*
X109781927Y-90190475D02*
X109839070Y-90228571D01*
X109839070Y-90228571D02*
X109877165Y-90266666D01*
X109877165Y-90266666D02*
X109896213Y-90304761D01*
X109781927Y-89942857D02*
X109781927Y-89695238D01*
X109781927Y-89695238D02*
X109934308Y-89828571D01*
X109934308Y-89828571D02*
X109934308Y-89771428D01*
X109934308Y-89771428D02*
X109953356Y-89733333D01*
X109953356Y-89733333D02*
X109972403Y-89714285D01*
X109972403Y-89714285D02*
X110010499Y-89695238D01*
X110010499Y-89695238D02*
X110105737Y-89695238D01*
X110105737Y-89695238D02*
X110143832Y-89714285D01*
X110143832Y-89714285D02*
X110162880Y-89733333D01*
X110162880Y-89733333D02*
X110181927Y-89771428D01*
X110181927Y-89771428D02*
X110181927Y-89885714D01*
X110181927Y-89885714D02*
X110162880Y-89923809D01*
X110162880Y-89923809D02*
X110143832Y-89942857D01*
D10*
X129324819Y-106566666D02*
X129324819Y-107138094D01*
X129324819Y-106852380D02*
X128324819Y-106852380D01*
X128324819Y-106852380D02*
X128467676Y-106947618D01*
X128467676Y-106947618D02*
X128562914Y-107042856D01*
X128562914Y-107042856D02*
X128610533Y-107138094D01*
X128324819Y-105947618D02*
X128324819Y-105852380D01*
X128324819Y-105852380D02*
X128372438Y-105757142D01*
X128372438Y-105757142D02*
X128420057Y-105709523D01*
X128420057Y-105709523D02*
X128515295Y-105661904D01*
X128515295Y-105661904D02*
X128705771Y-105614285D01*
X128705771Y-105614285D02*
X128943866Y-105614285D01*
X128943866Y-105614285D02*
X129134342Y-105661904D01*
X129134342Y-105661904D02*
X129229580Y-105709523D01*
X129229580Y-105709523D02*
X129277200Y-105757142D01*
X129277200Y-105757142D02*
X129324819Y-105852380D01*
X129324819Y-105852380D02*
X129324819Y-105947618D01*
X129324819Y-105947618D02*
X129277200Y-106042856D01*
X129277200Y-106042856D02*
X129229580Y-106090475D01*
X129229580Y-106090475D02*
X129134342Y-106138094D01*
X129134342Y-106138094D02*
X128943866Y-106185713D01*
X128943866Y-106185713D02*
X128705771Y-106185713D01*
X128705771Y-106185713D02*
X128515295Y-106138094D01*
X128515295Y-106138094D02*
X128420057Y-106090475D01*
X128420057Y-106090475D02*
X128372438Y-106042856D01*
X128372438Y-106042856D02*
X128324819Y-105947618D01*
X128324819Y-104995237D02*
X128324819Y-104899999D01*
X128324819Y-104899999D02*
X128372438Y-104804761D01*
X128372438Y-104804761D02*
X128420057Y-104757142D01*
X128420057Y-104757142D02*
X128515295Y-104709523D01*
X128515295Y-104709523D02*
X128705771Y-104661904D01*
X128705771Y-104661904D02*
X128943866Y-104661904D01*
X128943866Y-104661904D02*
X129134342Y-104709523D01*
X129134342Y-104709523D02*
X129229580Y-104757142D01*
X129229580Y-104757142D02*
X129277200Y-104804761D01*
X129277200Y-104804761D02*
X129324819Y-104899999D01*
X129324819Y-104899999D02*
X129324819Y-104995237D01*
X129324819Y-104995237D02*
X129277200Y-105090475D01*
X129277200Y-105090475D02*
X129229580Y-105138094D01*
X129229580Y-105138094D02*
X129134342Y-105185713D01*
X129134342Y-105185713D02*
X128943866Y-105233332D01*
X128943866Y-105233332D02*
X128705771Y-105233332D01*
X128705771Y-105233332D02*
X128515295Y-105185713D01*
X128515295Y-105185713D02*
X128420057Y-105138094D01*
X128420057Y-105138094D02*
X128372438Y-105090475D01*
X128372438Y-105090475D02*
X128324819Y-104995237D01*
X129324819Y-104233332D02*
X128324819Y-104233332D01*
X129324819Y-103661904D02*
X128753390Y-104090475D01*
X128324819Y-103661904D02*
X128896247Y-104233332D01*
D11*
X127818200Y-105567142D02*
X127694391Y-105653809D01*
X127818200Y-105715714D02*
X127558200Y-105715714D01*
X127558200Y-105715714D02*
X127558200Y-105616666D01*
X127558200Y-105616666D02*
X127570581Y-105591904D01*
X127570581Y-105591904D02*
X127582962Y-105579523D01*
X127582962Y-105579523D02*
X127607724Y-105567142D01*
X127607724Y-105567142D02*
X127644867Y-105567142D01*
X127644867Y-105567142D02*
X127669629Y-105579523D01*
X127669629Y-105579523D02*
X127682010Y-105591904D01*
X127682010Y-105591904D02*
X127694391Y-105616666D01*
X127694391Y-105616666D02*
X127694391Y-105715714D01*
X127818200Y-105319523D02*
X127818200Y-105468095D01*
X127818200Y-105393809D02*
X127558200Y-105393809D01*
X127558200Y-105393809D02*
X127595343Y-105418571D01*
X127595343Y-105418571D02*
X127620105Y-105443333D01*
X127620105Y-105443333D02*
X127632486Y-105468095D01*
X127818200Y-105195714D02*
X127818200Y-105146190D01*
X127818200Y-105146190D02*
X127805820Y-105121428D01*
X127805820Y-105121428D02*
X127793439Y-105109047D01*
X127793439Y-105109047D02*
X127756296Y-105084285D01*
X127756296Y-105084285D02*
X127706772Y-105071904D01*
X127706772Y-105071904D02*
X127607724Y-105071904D01*
X127607724Y-105071904D02*
X127582962Y-105084285D01*
X127582962Y-105084285D02*
X127570581Y-105096666D01*
X127570581Y-105096666D02*
X127558200Y-105121428D01*
X127558200Y-105121428D02*
X127558200Y-105170952D01*
X127558200Y-105170952D02*
X127570581Y-105195714D01*
X127570581Y-105195714D02*
X127582962Y-105208095D01*
X127582962Y-105208095D02*
X127607724Y-105220476D01*
X127607724Y-105220476D02*
X127669629Y-105220476D01*
X127669629Y-105220476D02*
X127694391Y-105208095D01*
X127694391Y-105208095D02*
X127706772Y-105195714D01*
X127706772Y-105195714D02*
X127719153Y-105170952D01*
X127719153Y-105170952D02*
X127719153Y-105121428D01*
X127719153Y-105121428D02*
X127706772Y-105096666D01*
X127706772Y-105096666D02*
X127694391Y-105084285D01*
X127694391Y-105084285D02*
X127669629Y-105071904D01*
D10*
X97835595Y-102418152D02*
X97835595Y-103084819D01*
X97597500Y-102037200D02*
X97359405Y-102751485D01*
X97359405Y-102751485D02*
X97978452Y-102751485D01*
X98549881Y-102084819D02*
X98645119Y-102084819D01*
X98645119Y-102084819D02*
X98740357Y-102132438D01*
X98740357Y-102132438D02*
X98787976Y-102180057D01*
X98787976Y-102180057D02*
X98835595Y-102275295D01*
X98835595Y-102275295D02*
X98883214Y-102465771D01*
X98883214Y-102465771D02*
X98883214Y-102703866D01*
X98883214Y-102703866D02*
X98835595Y-102894342D01*
X98835595Y-102894342D02*
X98787976Y-102989580D01*
X98787976Y-102989580D02*
X98740357Y-103037200D01*
X98740357Y-103037200D02*
X98645119Y-103084819D01*
X98645119Y-103084819D02*
X98549881Y-103084819D01*
X98549881Y-103084819D02*
X98454643Y-103037200D01*
X98454643Y-103037200D02*
X98407024Y-102989580D01*
X98407024Y-102989580D02*
X98359405Y-102894342D01*
X98359405Y-102894342D02*
X98311786Y-102703866D01*
X98311786Y-102703866D02*
X98311786Y-102465771D01*
X98311786Y-102465771D02*
X98359405Y-102275295D01*
X98359405Y-102275295D02*
X98407024Y-102180057D01*
X98407024Y-102180057D02*
X98454643Y-102132438D01*
X98454643Y-102132438D02*
X98549881Y-102084819D01*
X99311786Y-103084819D02*
X99311786Y-102084819D01*
X99883214Y-103084819D02*
X99454643Y-102513390D01*
X99883214Y-102084819D02*
X99311786Y-102656247D01*
X100264167Y-102180057D02*
X100311786Y-102132438D01*
X100311786Y-102132438D02*
X100407024Y-102084819D01*
X100407024Y-102084819D02*
X100645119Y-102084819D01*
X100645119Y-102084819D02*
X100740357Y-102132438D01*
X100740357Y-102132438D02*
X100787976Y-102180057D01*
X100787976Y-102180057D02*
X100835595Y-102275295D01*
X100835595Y-102275295D02*
X100835595Y-102370533D01*
X100835595Y-102370533D02*
X100787976Y-102513390D01*
X100787976Y-102513390D02*
X100216548Y-103084819D01*
X100216548Y-103084819D02*
X100835595Y-103084819D01*
D11*
X99054167Y-103918200D02*
X98967500Y-103794391D01*
X98905595Y-103918200D02*
X98905595Y-103658200D01*
X98905595Y-103658200D02*
X99004643Y-103658200D01*
X99004643Y-103658200D02*
X99029405Y-103670581D01*
X99029405Y-103670581D02*
X99041786Y-103682962D01*
X99041786Y-103682962D02*
X99054167Y-103707724D01*
X99054167Y-103707724D02*
X99054167Y-103744867D01*
X99054167Y-103744867D02*
X99041786Y-103769629D01*
X99041786Y-103769629D02*
X99029405Y-103782010D01*
X99029405Y-103782010D02*
X99004643Y-103794391D01*
X99004643Y-103794391D02*
X98905595Y-103794391D01*
X99301786Y-103918200D02*
X99153214Y-103918200D01*
X99227500Y-103918200D02*
X99227500Y-103658200D01*
X99227500Y-103658200D02*
X99202738Y-103695343D01*
X99202738Y-103695343D02*
X99177976Y-103720105D01*
X99177976Y-103720105D02*
X99153214Y-103732486D01*
D10*
X99328571Y-96222319D02*
X98757143Y-96222319D01*
X99042857Y-96222319D02*
X99042857Y-95222319D01*
X99042857Y-95222319D02*
X98947619Y-95365176D01*
X98947619Y-95365176D02*
X98852381Y-95460414D01*
X98852381Y-95460414D02*
X98757143Y-95508033D01*
X99947619Y-95222319D02*
X100042857Y-95222319D01*
X100042857Y-95222319D02*
X100138095Y-95269938D01*
X100138095Y-95269938D02*
X100185714Y-95317557D01*
X100185714Y-95317557D02*
X100233333Y-95412795D01*
X100233333Y-95412795D02*
X100280952Y-95603271D01*
X100280952Y-95603271D02*
X100280952Y-95841366D01*
X100280952Y-95841366D02*
X100233333Y-96031842D01*
X100233333Y-96031842D02*
X100185714Y-96127080D01*
X100185714Y-96127080D02*
X100138095Y-96174700D01*
X100138095Y-96174700D02*
X100042857Y-96222319D01*
X100042857Y-96222319D02*
X99947619Y-96222319D01*
X99947619Y-96222319D02*
X99852381Y-96174700D01*
X99852381Y-96174700D02*
X99804762Y-96127080D01*
X99804762Y-96127080D02*
X99757143Y-96031842D01*
X99757143Y-96031842D02*
X99709524Y-95841366D01*
X99709524Y-95841366D02*
X99709524Y-95603271D01*
X99709524Y-95603271D02*
X99757143Y-95412795D01*
X99757143Y-95412795D02*
X99804762Y-95317557D01*
X99804762Y-95317557D02*
X99852381Y-95269938D01*
X99852381Y-95269938D02*
X99947619Y-95222319D01*
X100709524Y-95555652D02*
X100709524Y-96222319D01*
X100709524Y-95650890D02*
X100757143Y-95603271D01*
X100757143Y-95603271D02*
X100852381Y-95555652D01*
X100852381Y-95555652D02*
X100995238Y-95555652D01*
X100995238Y-95555652D02*
X101090476Y-95603271D01*
X101090476Y-95603271D02*
X101138095Y-95698509D01*
X101138095Y-95698509D02*
X101138095Y-96222319D01*
X101947619Y-95698509D02*
X101614286Y-95698509D01*
X101614286Y-96222319D02*
X101614286Y-95222319D01*
X101614286Y-95222319D02*
X102090476Y-95222319D01*
D11*
X100358333Y-97017265D02*
X100346429Y-97029170D01*
X100346429Y-97029170D02*
X100310714Y-97041074D01*
X100310714Y-97041074D02*
X100286905Y-97041074D01*
X100286905Y-97041074D02*
X100251191Y-97029170D01*
X100251191Y-97029170D02*
X100227381Y-97005360D01*
X100227381Y-97005360D02*
X100215476Y-96981550D01*
X100215476Y-96981550D02*
X100203572Y-96933931D01*
X100203572Y-96933931D02*
X100203572Y-96898217D01*
X100203572Y-96898217D02*
X100215476Y-96850598D01*
X100215476Y-96850598D02*
X100227381Y-96826789D01*
X100227381Y-96826789D02*
X100251191Y-96802979D01*
X100251191Y-96802979D02*
X100286905Y-96791074D01*
X100286905Y-96791074D02*
X100310714Y-96791074D01*
X100310714Y-96791074D02*
X100346429Y-96802979D01*
X100346429Y-96802979D02*
X100358333Y-96814884D01*
X100572619Y-96874408D02*
X100572619Y-97041074D01*
X100513095Y-96779170D02*
X100453572Y-96957741D01*
X100453572Y-96957741D02*
X100608333Y-96957741D01*
D10*
X127194819Y-106757142D02*
X127194819Y-107233332D01*
X127194819Y-107233332D02*
X127671009Y-107280951D01*
X127671009Y-107280951D02*
X127623390Y-107233332D01*
X127623390Y-107233332D02*
X127575771Y-107138094D01*
X127575771Y-107138094D02*
X127575771Y-106899999D01*
X127575771Y-106899999D02*
X127623390Y-106804761D01*
X127623390Y-106804761D02*
X127671009Y-106757142D01*
X127671009Y-106757142D02*
X127766247Y-106709523D01*
X127766247Y-106709523D02*
X128004342Y-106709523D01*
X128004342Y-106709523D02*
X128099580Y-106757142D01*
X128099580Y-106757142D02*
X128147200Y-106804761D01*
X128147200Y-106804761D02*
X128194819Y-106899999D01*
X128194819Y-106899999D02*
X128194819Y-107138094D01*
X128194819Y-107138094D02*
X128147200Y-107233332D01*
X128147200Y-107233332D02*
X128099580Y-107280951D01*
X128099580Y-106280951D02*
X128147200Y-106233332D01*
X128147200Y-106233332D02*
X128194819Y-106280951D01*
X128194819Y-106280951D02*
X128147200Y-106328570D01*
X128147200Y-106328570D02*
X128099580Y-106280951D01*
X128099580Y-106280951D02*
X128194819Y-106280951D01*
X127194819Y-105376190D02*
X127194819Y-105566666D01*
X127194819Y-105566666D02*
X127242438Y-105661904D01*
X127242438Y-105661904D02*
X127290057Y-105709523D01*
X127290057Y-105709523D02*
X127432914Y-105804761D01*
X127432914Y-105804761D02*
X127623390Y-105852380D01*
X127623390Y-105852380D02*
X128004342Y-105852380D01*
X128004342Y-105852380D02*
X128099580Y-105804761D01*
X128099580Y-105804761D02*
X128147200Y-105757142D01*
X128147200Y-105757142D02*
X128194819Y-105661904D01*
X128194819Y-105661904D02*
X128194819Y-105471428D01*
X128194819Y-105471428D02*
X128147200Y-105376190D01*
X128147200Y-105376190D02*
X128099580Y-105328571D01*
X128099580Y-105328571D02*
X128004342Y-105280952D01*
X128004342Y-105280952D02*
X127766247Y-105280952D01*
X127766247Y-105280952D02*
X127671009Y-105328571D01*
X127671009Y-105328571D02*
X127623390Y-105376190D01*
X127623390Y-105376190D02*
X127575771Y-105471428D01*
X127575771Y-105471428D02*
X127575771Y-105661904D01*
X127575771Y-105661904D02*
X127623390Y-105757142D01*
X127623390Y-105757142D02*
X127671009Y-105804761D01*
X127671009Y-105804761D02*
X127766247Y-105852380D01*
X127528152Y-104852380D02*
X128528152Y-104852380D01*
X127575771Y-104852380D02*
X127528152Y-104757142D01*
X127528152Y-104757142D02*
X127528152Y-104566666D01*
X127528152Y-104566666D02*
X127575771Y-104471428D01*
X127575771Y-104471428D02*
X127623390Y-104423809D01*
X127623390Y-104423809D02*
X127718628Y-104376190D01*
X127718628Y-104376190D02*
X128004342Y-104376190D01*
X128004342Y-104376190D02*
X128099580Y-104423809D01*
X128099580Y-104423809D02*
X128147200Y-104471428D01*
X128147200Y-104471428D02*
X128194819Y-104566666D01*
X128194819Y-104566666D02*
X128194819Y-104757142D01*
X128194819Y-104757142D02*
X128147200Y-104852380D01*
X127671009Y-103614285D02*
X127671009Y-103947618D01*
X128194819Y-103947618D02*
X127194819Y-103947618D01*
X127194819Y-103947618D02*
X127194819Y-103471428D01*
D11*
X128989765Y-105560714D02*
X129001670Y-105572618D01*
X129001670Y-105572618D02*
X129013574Y-105608333D01*
X129013574Y-105608333D02*
X129013574Y-105632142D01*
X129013574Y-105632142D02*
X129001670Y-105667856D01*
X129001670Y-105667856D02*
X128977860Y-105691666D01*
X128977860Y-105691666D02*
X128954050Y-105703571D01*
X128954050Y-105703571D02*
X128906431Y-105715475D01*
X128906431Y-105715475D02*
X128870717Y-105715475D01*
X128870717Y-105715475D02*
X128823098Y-105703571D01*
X128823098Y-105703571D02*
X128799289Y-105691666D01*
X128799289Y-105691666D02*
X128775479Y-105667856D01*
X128775479Y-105667856D02*
X128763574Y-105632142D01*
X128763574Y-105632142D02*
X128763574Y-105608333D01*
X128763574Y-105608333D02*
X128775479Y-105572618D01*
X128775479Y-105572618D02*
X128787384Y-105560714D01*
X128787384Y-105465475D02*
X128775479Y-105453571D01*
X128775479Y-105453571D02*
X128763574Y-105429761D01*
X128763574Y-105429761D02*
X128763574Y-105370237D01*
X128763574Y-105370237D02*
X128775479Y-105346428D01*
X128775479Y-105346428D02*
X128787384Y-105334523D01*
X128787384Y-105334523D02*
X128811193Y-105322618D01*
X128811193Y-105322618D02*
X128835003Y-105322618D01*
X128835003Y-105322618D02*
X128870717Y-105334523D01*
X128870717Y-105334523D02*
X129013574Y-105477380D01*
X129013574Y-105477380D02*
X129013574Y-105322618D01*
X128763574Y-105167857D02*
X128763574Y-105144047D01*
X128763574Y-105144047D02*
X128775479Y-105120238D01*
X128775479Y-105120238D02*
X128787384Y-105108333D01*
X128787384Y-105108333D02*
X128811193Y-105096428D01*
X128811193Y-105096428D02*
X128858812Y-105084523D01*
X128858812Y-105084523D02*
X128918336Y-105084523D01*
X128918336Y-105084523D02*
X128965955Y-105096428D01*
X128965955Y-105096428D02*
X128989765Y-105108333D01*
X128989765Y-105108333D02*
X129001670Y-105120238D01*
X129001670Y-105120238D02*
X129013574Y-105144047D01*
X129013574Y-105144047D02*
X129013574Y-105167857D01*
X129013574Y-105167857D02*
X129001670Y-105191666D01*
X129001670Y-105191666D02*
X128989765Y-105203571D01*
X128989765Y-105203571D02*
X128965955Y-105215476D01*
X128965955Y-105215476D02*
X128918336Y-105227380D01*
X128918336Y-105227380D02*
X128858812Y-105227380D01*
X128858812Y-105227380D02*
X128811193Y-105215476D01*
X128811193Y-105215476D02*
X128787384Y-105203571D01*
X128787384Y-105203571D02*
X128775479Y-105191666D01*
X128775479Y-105191666D02*
X128763574Y-105167857D01*
D10*
X118614819Y-95957142D02*
X118614819Y-96433332D01*
X118614819Y-96433332D02*
X119091009Y-96480951D01*
X119091009Y-96480951D02*
X119043390Y-96433332D01*
X119043390Y-96433332D02*
X118995771Y-96338094D01*
X118995771Y-96338094D02*
X118995771Y-96099999D01*
X118995771Y-96099999D02*
X119043390Y-96004761D01*
X119043390Y-96004761D02*
X119091009Y-95957142D01*
X119091009Y-95957142D02*
X119186247Y-95909523D01*
X119186247Y-95909523D02*
X119424342Y-95909523D01*
X119424342Y-95909523D02*
X119519580Y-95957142D01*
X119519580Y-95957142D02*
X119567200Y-96004761D01*
X119567200Y-96004761D02*
X119614819Y-96099999D01*
X119614819Y-96099999D02*
X119614819Y-96338094D01*
X119614819Y-96338094D02*
X119567200Y-96433332D01*
X119567200Y-96433332D02*
X119519580Y-96480951D01*
X119519580Y-95480951D02*
X119567200Y-95433332D01*
X119567200Y-95433332D02*
X119614819Y-95480951D01*
X119614819Y-95480951D02*
X119567200Y-95528570D01*
X119567200Y-95528570D02*
X119519580Y-95480951D01*
X119519580Y-95480951D02*
X119614819Y-95480951D01*
X118614819Y-94576190D02*
X118614819Y-94766666D01*
X118614819Y-94766666D02*
X118662438Y-94861904D01*
X118662438Y-94861904D02*
X118710057Y-94909523D01*
X118710057Y-94909523D02*
X118852914Y-95004761D01*
X118852914Y-95004761D02*
X119043390Y-95052380D01*
X119043390Y-95052380D02*
X119424342Y-95052380D01*
X119424342Y-95052380D02*
X119519580Y-95004761D01*
X119519580Y-95004761D02*
X119567200Y-94957142D01*
X119567200Y-94957142D02*
X119614819Y-94861904D01*
X119614819Y-94861904D02*
X119614819Y-94671428D01*
X119614819Y-94671428D02*
X119567200Y-94576190D01*
X119567200Y-94576190D02*
X119519580Y-94528571D01*
X119519580Y-94528571D02*
X119424342Y-94480952D01*
X119424342Y-94480952D02*
X119186247Y-94480952D01*
X119186247Y-94480952D02*
X119091009Y-94528571D01*
X119091009Y-94528571D02*
X119043390Y-94576190D01*
X119043390Y-94576190D02*
X118995771Y-94671428D01*
X118995771Y-94671428D02*
X118995771Y-94861904D01*
X118995771Y-94861904D02*
X119043390Y-94957142D01*
X119043390Y-94957142D02*
X119091009Y-95004761D01*
X119091009Y-95004761D02*
X119186247Y-95052380D01*
X118948152Y-94052380D02*
X119948152Y-94052380D01*
X118995771Y-94052380D02*
X118948152Y-93957142D01*
X118948152Y-93957142D02*
X118948152Y-93766666D01*
X118948152Y-93766666D02*
X118995771Y-93671428D01*
X118995771Y-93671428D02*
X119043390Y-93623809D01*
X119043390Y-93623809D02*
X119138628Y-93576190D01*
X119138628Y-93576190D02*
X119424342Y-93576190D01*
X119424342Y-93576190D02*
X119519580Y-93623809D01*
X119519580Y-93623809D02*
X119567200Y-93671428D01*
X119567200Y-93671428D02*
X119614819Y-93766666D01*
X119614819Y-93766666D02*
X119614819Y-93957142D01*
X119614819Y-93957142D02*
X119567200Y-94052380D01*
X119091009Y-92814285D02*
X119091009Y-93147618D01*
X119614819Y-93147618D02*
X118614819Y-93147618D01*
X118614819Y-93147618D02*
X118614819Y-92671428D01*
D11*
X118089765Y-94760714D02*
X118101670Y-94772618D01*
X118101670Y-94772618D02*
X118113574Y-94808333D01*
X118113574Y-94808333D02*
X118113574Y-94832142D01*
X118113574Y-94832142D02*
X118101670Y-94867856D01*
X118101670Y-94867856D02*
X118077860Y-94891666D01*
X118077860Y-94891666D02*
X118054050Y-94903571D01*
X118054050Y-94903571D02*
X118006431Y-94915475D01*
X118006431Y-94915475D02*
X117970717Y-94915475D01*
X117970717Y-94915475D02*
X117923098Y-94903571D01*
X117923098Y-94903571D02*
X117899289Y-94891666D01*
X117899289Y-94891666D02*
X117875479Y-94867856D01*
X117875479Y-94867856D02*
X117863574Y-94832142D01*
X117863574Y-94832142D02*
X117863574Y-94808333D01*
X117863574Y-94808333D02*
X117875479Y-94772618D01*
X117875479Y-94772618D02*
X117887384Y-94760714D01*
X117887384Y-94665475D02*
X117875479Y-94653571D01*
X117875479Y-94653571D02*
X117863574Y-94629761D01*
X117863574Y-94629761D02*
X117863574Y-94570237D01*
X117863574Y-94570237D02*
X117875479Y-94546428D01*
X117875479Y-94546428D02*
X117887384Y-94534523D01*
X117887384Y-94534523D02*
X117911193Y-94522618D01*
X117911193Y-94522618D02*
X117935003Y-94522618D01*
X117935003Y-94522618D02*
X117970717Y-94534523D01*
X117970717Y-94534523D02*
X118113574Y-94677380D01*
X118113574Y-94677380D02*
X118113574Y-94522618D01*
X117946908Y-94308333D02*
X118113574Y-94308333D01*
X117851670Y-94367857D02*
X118030241Y-94427380D01*
X118030241Y-94427380D02*
X118030241Y-94272619D01*
D10*
X130002380Y-92724819D02*
X129430952Y-92724819D01*
X129716666Y-92724819D02*
X129716666Y-91724819D01*
X129716666Y-91724819D02*
X129621428Y-91867676D01*
X129621428Y-91867676D02*
X129526190Y-91962914D01*
X129526190Y-91962914D02*
X129430952Y-92010533D01*
X130621428Y-91724819D02*
X130716666Y-91724819D01*
X130716666Y-91724819D02*
X130811904Y-91772438D01*
X130811904Y-91772438D02*
X130859523Y-91820057D01*
X130859523Y-91820057D02*
X130907142Y-91915295D01*
X130907142Y-91915295D02*
X130954761Y-92105771D01*
X130954761Y-92105771D02*
X130954761Y-92343866D01*
X130954761Y-92343866D02*
X130907142Y-92534342D01*
X130907142Y-92534342D02*
X130859523Y-92629580D01*
X130859523Y-92629580D02*
X130811904Y-92677200D01*
X130811904Y-92677200D02*
X130716666Y-92724819D01*
X130716666Y-92724819D02*
X130621428Y-92724819D01*
X130621428Y-92724819D02*
X130526190Y-92677200D01*
X130526190Y-92677200D02*
X130478571Y-92629580D01*
X130478571Y-92629580D02*
X130430952Y-92534342D01*
X130430952Y-92534342D02*
X130383333Y-92343866D01*
X130383333Y-92343866D02*
X130383333Y-92105771D01*
X130383333Y-92105771D02*
X130430952Y-91915295D01*
X130430952Y-91915295D02*
X130478571Y-91820057D01*
X130478571Y-91820057D02*
X130526190Y-91772438D01*
X130526190Y-91772438D02*
X130621428Y-91724819D01*
X131573809Y-91724819D02*
X131669047Y-91724819D01*
X131669047Y-91724819D02*
X131764285Y-91772438D01*
X131764285Y-91772438D02*
X131811904Y-91820057D01*
X131811904Y-91820057D02*
X131859523Y-91915295D01*
X131859523Y-91915295D02*
X131907142Y-92105771D01*
X131907142Y-92105771D02*
X131907142Y-92343866D01*
X131907142Y-92343866D02*
X131859523Y-92534342D01*
X131859523Y-92534342D02*
X131811904Y-92629580D01*
X131811904Y-92629580D02*
X131764285Y-92677200D01*
X131764285Y-92677200D02*
X131669047Y-92724819D01*
X131669047Y-92724819D02*
X131573809Y-92724819D01*
X131573809Y-92724819D02*
X131478571Y-92677200D01*
X131478571Y-92677200D02*
X131430952Y-92629580D01*
X131430952Y-92629580D02*
X131383333Y-92534342D01*
X131383333Y-92534342D02*
X131335714Y-92343866D01*
X131335714Y-92343866D02*
X131335714Y-92105771D01*
X131335714Y-92105771D02*
X131383333Y-91915295D01*
X131383333Y-91915295D02*
X131430952Y-91820057D01*
X131430952Y-91820057D02*
X131478571Y-91772438D01*
X131478571Y-91772438D02*
X131573809Y-91724819D01*
X132335714Y-92058152D02*
X132335714Y-92724819D01*
X132335714Y-92153390D02*
X132383333Y-92105771D01*
X132383333Y-92105771D02*
X132478571Y-92058152D01*
X132478571Y-92058152D02*
X132621428Y-92058152D01*
X132621428Y-92058152D02*
X132716666Y-92105771D01*
X132716666Y-92105771D02*
X132764285Y-92201009D01*
X132764285Y-92201009D02*
X132764285Y-92724819D01*
X133573809Y-92201009D02*
X133240476Y-92201009D01*
X133240476Y-92724819D02*
X133240476Y-91724819D01*
X133240476Y-91724819D02*
X133716666Y-91724819D01*
D13*
X131292857Y-93843832D02*
X131273809Y-93862880D01*
X131273809Y-93862880D02*
X131216667Y-93881927D01*
X131216667Y-93881927D02*
X131178571Y-93881927D01*
X131178571Y-93881927D02*
X131121428Y-93862880D01*
X131121428Y-93862880D02*
X131083333Y-93824784D01*
X131083333Y-93824784D02*
X131064286Y-93786689D01*
X131064286Y-93786689D02*
X131045238Y-93710499D01*
X131045238Y-93710499D02*
X131045238Y-93653356D01*
X131045238Y-93653356D02*
X131064286Y-93577165D01*
X131064286Y-93577165D02*
X131083333Y-93539070D01*
X131083333Y-93539070D02*
X131121428Y-93500975D01*
X131121428Y-93500975D02*
X131178571Y-93481927D01*
X131178571Y-93481927D02*
X131216667Y-93481927D01*
X131216667Y-93481927D02*
X131273809Y-93500975D01*
X131273809Y-93500975D02*
X131292857Y-93520022D01*
X131445238Y-93520022D02*
X131464286Y-93500975D01*
X131464286Y-93500975D02*
X131502381Y-93481927D01*
X131502381Y-93481927D02*
X131597619Y-93481927D01*
X131597619Y-93481927D02*
X131635714Y-93500975D01*
X131635714Y-93500975D02*
X131654762Y-93520022D01*
X131654762Y-93520022D02*
X131673809Y-93558118D01*
X131673809Y-93558118D02*
X131673809Y-93596213D01*
X131673809Y-93596213D02*
X131654762Y-93653356D01*
X131654762Y-93653356D02*
X131426190Y-93881927D01*
X131426190Y-93881927D02*
X131673809Y-93881927D01*
X132016666Y-93481927D02*
X131940476Y-93481927D01*
X131940476Y-93481927D02*
X131902380Y-93500975D01*
X131902380Y-93500975D02*
X131883333Y-93520022D01*
X131883333Y-93520022D02*
X131845238Y-93577165D01*
X131845238Y-93577165D02*
X131826190Y-93653356D01*
X131826190Y-93653356D02*
X131826190Y-93805737D01*
X131826190Y-93805737D02*
X131845238Y-93843832D01*
X131845238Y-93843832D02*
X131864285Y-93862880D01*
X131864285Y-93862880D02*
X131902380Y-93881927D01*
X131902380Y-93881927D02*
X131978571Y-93881927D01*
X131978571Y-93881927D02*
X132016666Y-93862880D01*
X132016666Y-93862880D02*
X132035714Y-93843832D01*
X132035714Y-93843832D02*
X132054761Y-93805737D01*
X132054761Y-93805737D02*
X132054761Y-93710499D01*
X132054761Y-93710499D02*
X132035714Y-93672403D01*
X132035714Y-93672403D02*
X132016666Y-93653356D01*
X132016666Y-93653356D02*
X131978571Y-93634308D01*
X131978571Y-93634308D02*
X131902380Y-93634308D01*
X131902380Y-93634308D02*
X131864285Y-93653356D01*
X131864285Y-93653356D02*
X131845238Y-93672403D01*
X131845238Y-93672403D02*
X131826190Y-93710499D01*
X130955238Y-93681927D02*
X132144761Y-93681927D01*
D10*
X123024819Y-92105357D02*
X123024819Y-92676785D01*
X123024819Y-92391071D02*
X122024819Y-92391071D01*
X122024819Y-92391071D02*
X122167676Y-92486309D01*
X122167676Y-92486309D02*
X122262914Y-92581547D01*
X122262914Y-92581547D02*
X122310533Y-92676785D01*
X122024819Y-91486309D02*
X122024819Y-91391071D01*
X122024819Y-91391071D02*
X122072438Y-91295833D01*
X122072438Y-91295833D02*
X122120057Y-91248214D01*
X122120057Y-91248214D02*
X122215295Y-91200595D01*
X122215295Y-91200595D02*
X122405771Y-91152976D01*
X122405771Y-91152976D02*
X122643866Y-91152976D01*
X122643866Y-91152976D02*
X122834342Y-91200595D01*
X122834342Y-91200595D02*
X122929580Y-91248214D01*
X122929580Y-91248214D02*
X122977200Y-91295833D01*
X122977200Y-91295833D02*
X123024819Y-91391071D01*
X123024819Y-91391071D02*
X123024819Y-91486309D01*
X123024819Y-91486309D02*
X122977200Y-91581547D01*
X122977200Y-91581547D02*
X122929580Y-91629166D01*
X122929580Y-91629166D02*
X122834342Y-91676785D01*
X122834342Y-91676785D02*
X122643866Y-91724404D01*
X122643866Y-91724404D02*
X122405771Y-91724404D01*
X122405771Y-91724404D02*
X122215295Y-91676785D01*
X122215295Y-91676785D02*
X122120057Y-91629166D01*
X122120057Y-91629166D02*
X122072438Y-91581547D01*
X122072438Y-91581547D02*
X122024819Y-91486309D01*
X122358152Y-90295833D02*
X123024819Y-90295833D01*
X122358152Y-90724404D02*
X122881961Y-90724404D01*
X122881961Y-90724404D02*
X122977200Y-90676785D01*
X122977200Y-90676785D02*
X123024819Y-90581547D01*
X123024819Y-90581547D02*
X123024819Y-90438690D01*
X123024819Y-90438690D02*
X122977200Y-90343452D01*
X122977200Y-90343452D02*
X122929580Y-90295833D01*
D13*
X124143832Y-91529166D02*
X124162880Y-91548214D01*
X124162880Y-91548214D02*
X124181927Y-91605356D01*
X124181927Y-91605356D02*
X124181927Y-91643452D01*
X124181927Y-91643452D02*
X124162880Y-91700595D01*
X124162880Y-91700595D02*
X124124784Y-91738690D01*
X124124784Y-91738690D02*
X124086689Y-91757737D01*
X124086689Y-91757737D02*
X124010499Y-91776785D01*
X124010499Y-91776785D02*
X123953356Y-91776785D01*
X123953356Y-91776785D02*
X123877165Y-91757737D01*
X123877165Y-91757737D02*
X123839070Y-91738690D01*
X123839070Y-91738690D02*
X123800975Y-91700595D01*
X123800975Y-91700595D02*
X123781927Y-91643452D01*
X123781927Y-91643452D02*
X123781927Y-91605356D01*
X123781927Y-91605356D02*
X123800975Y-91548214D01*
X123800975Y-91548214D02*
X123820022Y-91529166D01*
X123953356Y-91300595D02*
X123934308Y-91338690D01*
X123934308Y-91338690D02*
X123915260Y-91357737D01*
X123915260Y-91357737D02*
X123877165Y-91376785D01*
X123877165Y-91376785D02*
X123858118Y-91376785D01*
X123858118Y-91376785D02*
X123820022Y-91357737D01*
X123820022Y-91357737D02*
X123800975Y-91338690D01*
X123800975Y-91338690D02*
X123781927Y-91300595D01*
X123781927Y-91300595D02*
X123781927Y-91224404D01*
X123781927Y-91224404D02*
X123800975Y-91186309D01*
X123800975Y-91186309D02*
X123820022Y-91167261D01*
X123820022Y-91167261D02*
X123858118Y-91148214D01*
X123858118Y-91148214D02*
X123877165Y-91148214D01*
X123877165Y-91148214D02*
X123915260Y-91167261D01*
X123915260Y-91167261D02*
X123934308Y-91186309D01*
X123934308Y-91186309D02*
X123953356Y-91224404D01*
X123953356Y-91224404D02*
X123953356Y-91300595D01*
X123953356Y-91300595D02*
X123972403Y-91338690D01*
X123972403Y-91338690D02*
X123991451Y-91357737D01*
X123991451Y-91357737D02*
X124029546Y-91376785D01*
X124029546Y-91376785D02*
X124105737Y-91376785D01*
X124105737Y-91376785D02*
X124143832Y-91357737D01*
X124143832Y-91357737D02*
X124162880Y-91338690D01*
X124162880Y-91338690D02*
X124181927Y-91300595D01*
X124181927Y-91300595D02*
X124181927Y-91224404D01*
X124181927Y-91224404D02*
X124162880Y-91186309D01*
X124162880Y-91186309D02*
X124143832Y-91167261D01*
X124143832Y-91167261D02*
X124105737Y-91148214D01*
X124105737Y-91148214D02*
X124029546Y-91148214D01*
X124029546Y-91148214D02*
X123991451Y-91167261D01*
X123991451Y-91167261D02*
X123972403Y-91186309D01*
X123972403Y-91186309D02*
X123953356Y-91224404D01*
D10*
X115684819Y-94826785D02*
X115684819Y-95398213D01*
X115684819Y-95112499D02*
X114684819Y-95112499D01*
X114684819Y-95112499D02*
X114827676Y-95207737D01*
X114827676Y-95207737D02*
X114922914Y-95302975D01*
X114922914Y-95302975D02*
X114970533Y-95398213D01*
X115684819Y-94398213D02*
X114684819Y-94398213D01*
X115684819Y-93826785D02*
X115113390Y-94255356D01*
X114684819Y-93826785D02*
X115256247Y-94398213D01*
D11*
X116518200Y-94779642D02*
X116394391Y-94866309D01*
X116518200Y-94928214D02*
X116258200Y-94928214D01*
X116258200Y-94928214D02*
X116258200Y-94829166D01*
X116258200Y-94829166D02*
X116270581Y-94804404D01*
X116270581Y-94804404D02*
X116282962Y-94792023D01*
X116282962Y-94792023D02*
X116307724Y-94779642D01*
X116307724Y-94779642D02*
X116344867Y-94779642D01*
X116344867Y-94779642D02*
X116369629Y-94792023D01*
X116369629Y-94792023D02*
X116382010Y-94804404D01*
X116382010Y-94804404D02*
X116394391Y-94829166D01*
X116394391Y-94829166D02*
X116394391Y-94928214D01*
X116518200Y-94532023D02*
X116518200Y-94680595D01*
X116518200Y-94606309D02*
X116258200Y-94606309D01*
X116258200Y-94606309D02*
X116295343Y-94631071D01*
X116295343Y-94631071D02*
X116320105Y-94655833D01*
X116320105Y-94655833D02*
X116332486Y-94680595D01*
X116258200Y-94296785D02*
X116258200Y-94420595D01*
X116258200Y-94420595D02*
X116382010Y-94432976D01*
X116382010Y-94432976D02*
X116369629Y-94420595D01*
X116369629Y-94420595D02*
X116357248Y-94395833D01*
X116357248Y-94395833D02*
X116357248Y-94333928D01*
X116357248Y-94333928D02*
X116369629Y-94309166D01*
X116369629Y-94309166D02*
X116382010Y-94296785D01*
X116382010Y-94296785D02*
X116406772Y-94284404D01*
X116406772Y-94284404D02*
X116468677Y-94284404D01*
X116468677Y-94284404D02*
X116493439Y-94296785D01*
X116493439Y-94296785D02*
X116505820Y-94309166D01*
X116505820Y-94309166D02*
X116518200Y-94333928D01*
X116518200Y-94333928D02*
X116518200Y-94395833D01*
X116518200Y-94395833D02*
X116505820Y-94420595D01*
X116505820Y-94420595D02*
X116493439Y-94432976D01*
D10*
X119294819Y-108469642D02*
X119294819Y-108945832D01*
X119294819Y-108945832D02*
X119771009Y-108993451D01*
X119771009Y-108993451D02*
X119723390Y-108945832D01*
X119723390Y-108945832D02*
X119675771Y-108850594D01*
X119675771Y-108850594D02*
X119675771Y-108612499D01*
X119675771Y-108612499D02*
X119723390Y-108517261D01*
X119723390Y-108517261D02*
X119771009Y-108469642D01*
X119771009Y-108469642D02*
X119866247Y-108422023D01*
X119866247Y-108422023D02*
X120104342Y-108422023D01*
X120104342Y-108422023D02*
X120199580Y-108469642D01*
X120199580Y-108469642D02*
X120247200Y-108517261D01*
X120247200Y-108517261D02*
X120294819Y-108612499D01*
X120294819Y-108612499D02*
X120294819Y-108850594D01*
X120294819Y-108850594D02*
X120247200Y-108945832D01*
X120247200Y-108945832D02*
X120199580Y-108993451D01*
X120199580Y-107993451D02*
X120247200Y-107945832D01*
X120247200Y-107945832D02*
X120294819Y-107993451D01*
X120294819Y-107993451D02*
X120247200Y-108041070D01*
X120247200Y-108041070D02*
X120199580Y-107993451D01*
X120199580Y-107993451D02*
X120294819Y-107993451D01*
X119294819Y-107088690D02*
X119294819Y-107279166D01*
X119294819Y-107279166D02*
X119342438Y-107374404D01*
X119342438Y-107374404D02*
X119390057Y-107422023D01*
X119390057Y-107422023D02*
X119532914Y-107517261D01*
X119532914Y-107517261D02*
X119723390Y-107564880D01*
X119723390Y-107564880D02*
X120104342Y-107564880D01*
X120104342Y-107564880D02*
X120199580Y-107517261D01*
X120199580Y-107517261D02*
X120247200Y-107469642D01*
X120247200Y-107469642D02*
X120294819Y-107374404D01*
X120294819Y-107374404D02*
X120294819Y-107183928D01*
X120294819Y-107183928D02*
X120247200Y-107088690D01*
X120247200Y-107088690D02*
X120199580Y-107041071D01*
X120199580Y-107041071D02*
X120104342Y-106993452D01*
X120104342Y-106993452D02*
X119866247Y-106993452D01*
X119866247Y-106993452D02*
X119771009Y-107041071D01*
X119771009Y-107041071D02*
X119723390Y-107088690D01*
X119723390Y-107088690D02*
X119675771Y-107183928D01*
X119675771Y-107183928D02*
X119675771Y-107374404D01*
X119675771Y-107374404D02*
X119723390Y-107469642D01*
X119723390Y-107469642D02*
X119771009Y-107517261D01*
X119771009Y-107517261D02*
X119866247Y-107564880D01*
X119628152Y-106564880D02*
X120628152Y-106564880D01*
X119675771Y-106564880D02*
X119628152Y-106469642D01*
X119628152Y-106469642D02*
X119628152Y-106279166D01*
X119628152Y-106279166D02*
X119675771Y-106183928D01*
X119675771Y-106183928D02*
X119723390Y-106136309D01*
X119723390Y-106136309D02*
X119818628Y-106088690D01*
X119818628Y-106088690D02*
X120104342Y-106088690D01*
X120104342Y-106088690D02*
X120199580Y-106136309D01*
X120199580Y-106136309D02*
X120247200Y-106183928D01*
X120247200Y-106183928D02*
X120294819Y-106279166D01*
X120294819Y-106279166D02*
X120294819Y-106469642D01*
X120294819Y-106469642D02*
X120247200Y-106564880D01*
X119771009Y-105326785D02*
X119771009Y-105660118D01*
X120294819Y-105660118D02*
X119294819Y-105660118D01*
X119294819Y-105660118D02*
X119294819Y-105183928D01*
D11*
X121089765Y-107273214D02*
X121101670Y-107285118D01*
X121101670Y-107285118D02*
X121113574Y-107320833D01*
X121113574Y-107320833D02*
X121113574Y-107344642D01*
X121113574Y-107344642D02*
X121101670Y-107380356D01*
X121101670Y-107380356D02*
X121077860Y-107404166D01*
X121077860Y-107404166D02*
X121054050Y-107416071D01*
X121054050Y-107416071D02*
X121006431Y-107427975D01*
X121006431Y-107427975D02*
X120970717Y-107427975D01*
X120970717Y-107427975D02*
X120923098Y-107416071D01*
X120923098Y-107416071D02*
X120899289Y-107404166D01*
X120899289Y-107404166D02*
X120875479Y-107380356D01*
X120875479Y-107380356D02*
X120863574Y-107344642D01*
X120863574Y-107344642D02*
X120863574Y-107320833D01*
X120863574Y-107320833D02*
X120875479Y-107285118D01*
X120875479Y-107285118D02*
X120887384Y-107273214D01*
X120887384Y-107177975D02*
X120875479Y-107166071D01*
X120875479Y-107166071D02*
X120863574Y-107142261D01*
X120863574Y-107142261D02*
X120863574Y-107082737D01*
X120863574Y-107082737D02*
X120875479Y-107058928D01*
X120875479Y-107058928D02*
X120887384Y-107047023D01*
X120887384Y-107047023D02*
X120911193Y-107035118D01*
X120911193Y-107035118D02*
X120935003Y-107035118D01*
X120935003Y-107035118D02*
X120970717Y-107047023D01*
X120970717Y-107047023D02*
X121113574Y-107189880D01*
X121113574Y-107189880D02*
X121113574Y-107035118D01*
X120887384Y-106939880D02*
X120875479Y-106927976D01*
X120875479Y-106927976D02*
X120863574Y-106904166D01*
X120863574Y-106904166D02*
X120863574Y-106844642D01*
X120863574Y-106844642D02*
X120875479Y-106820833D01*
X120875479Y-106820833D02*
X120887384Y-106808928D01*
X120887384Y-106808928D02*
X120911193Y-106797023D01*
X120911193Y-106797023D02*
X120935003Y-106797023D01*
X120935003Y-106797023D02*
X120970717Y-106808928D01*
X120970717Y-106808928D02*
X121113574Y-106951785D01*
X121113574Y-106951785D02*
X121113574Y-106797023D01*
D10*
X94866071Y-106584819D02*
X94294643Y-106584819D01*
X94580357Y-106584819D02*
X94580357Y-105584819D01*
X94580357Y-105584819D02*
X94485119Y-105727676D01*
X94485119Y-105727676D02*
X94389881Y-105822914D01*
X94389881Y-105822914D02*
X94294643Y-105870533D01*
X95485119Y-105584819D02*
X95580357Y-105584819D01*
X95580357Y-105584819D02*
X95675595Y-105632438D01*
X95675595Y-105632438D02*
X95723214Y-105680057D01*
X95723214Y-105680057D02*
X95770833Y-105775295D01*
X95770833Y-105775295D02*
X95818452Y-105965771D01*
X95818452Y-105965771D02*
X95818452Y-106203866D01*
X95818452Y-106203866D02*
X95770833Y-106394342D01*
X95770833Y-106394342D02*
X95723214Y-106489580D01*
X95723214Y-106489580D02*
X95675595Y-106537200D01*
X95675595Y-106537200D02*
X95580357Y-106584819D01*
X95580357Y-106584819D02*
X95485119Y-106584819D01*
X95485119Y-106584819D02*
X95389881Y-106537200D01*
X95389881Y-106537200D02*
X95342262Y-106489580D01*
X95342262Y-106489580D02*
X95294643Y-106394342D01*
X95294643Y-106394342D02*
X95247024Y-106203866D01*
X95247024Y-106203866D02*
X95247024Y-105965771D01*
X95247024Y-105965771D02*
X95294643Y-105775295D01*
X95294643Y-105775295D02*
X95342262Y-105680057D01*
X95342262Y-105680057D02*
X95389881Y-105632438D01*
X95389881Y-105632438D02*
X95485119Y-105584819D01*
X96675595Y-105918152D02*
X96675595Y-106584819D01*
X96247024Y-105918152D02*
X96247024Y-106441961D01*
X96247024Y-106441961D02*
X96294643Y-106537200D01*
X96294643Y-106537200D02*
X96389881Y-106584819D01*
X96389881Y-106584819D02*
X96532738Y-106584819D01*
X96532738Y-106584819D02*
X96627976Y-106537200D01*
X96627976Y-106537200D02*
X96675595Y-106489580D01*
X97485119Y-106061009D02*
X97151786Y-106061009D01*
X97151786Y-106584819D02*
X97151786Y-105584819D01*
X97151786Y-105584819D02*
X97627976Y-105584819D01*
D13*
X95870833Y-104843832D02*
X95851785Y-104862880D01*
X95851785Y-104862880D02*
X95794643Y-104881927D01*
X95794643Y-104881927D02*
X95756547Y-104881927D01*
X95756547Y-104881927D02*
X95699404Y-104862880D01*
X95699404Y-104862880D02*
X95661309Y-104824784D01*
X95661309Y-104824784D02*
X95642262Y-104786689D01*
X95642262Y-104786689D02*
X95623214Y-104710499D01*
X95623214Y-104710499D02*
X95623214Y-104653356D01*
X95623214Y-104653356D02*
X95642262Y-104577165D01*
X95642262Y-104577165D02*
X95661309Y-104539070D01*
X95661309Y-104539070D02*
X95699404Y-104500975D01*
X95699404Y-104500975D02*
X95756547Y-104481927D01*
X95756547Y-104481927D02*
X95794643Y-104481927D01*
X95794643Y-104481927D02*
X95851785Y-104500975D01*
X95851785Y-104500975D02*
X95870833Y-104520022D01*
X96023214Y-104520022D02*
X96042262Y-104500975D01*
X96042262Y-104500975D02*
X96080357Y-104481927D01*
X96080357Y-104481927D02*
X96175595Y-104481927D01*
X96175595Y-104481927D02*
X96213690Y-104500975D01*
X96213690Y-104500975D02*
X96232738Y-104520022D01*
X96232738Y-104520022D02*
X96251785Y-104558118D01*
X96251785Y-104558118D02*
X96251785Y-104596213D01*
X96251785Y-104596213D02*
X96232738Y-104653356D01*
X96232738Y-104653356D02*
X96004166Y-104881927D01*
X96004166Y-104881927D02*
X96251785Y-104881927D01*
D10*
X115594819Y-104957142D02*
X115594819Y-105433332D01*
X115594819Y-105433332D02*
X116071009Y-105480951D01*
X116071009Y-105480951D02*
X116023390Y-105433332D01*
X116023390Y-105433332D02*
X115975771Y-105338094D01*
X115975771Y-105338094D02*
X115975771Y-105099999D01*
X115975771Y-105099999D02*
X116023390Y-105004761D01*
X116023390Y-105004761D02*
X116071009Y-104957142D01*
X116071009Y-104957142D02*
X116166247Y-104909523D01*
X116166247Y-104909523D02*
X116404342Y-104909523D01*
X116404342Y-104909523D02*
X116499580Y-104957142D01*
X116499580Y-104957142D02*
X116547200Y-105004761D01*
X116547200Y-105004761D02*
X116594819Y-105099999D01*
X116594819Y-105099999D02*
X116594819Y-105338094D01*
X116594819Y-105338094D02*
X116547200Y-105433332D01*
X116547200Y-105433332D02*
X116499580Y-105480951D01*
X116499580Y-104480951D02*
X116547200Y-104433332D01*
X116547200Y-104433332D02*
X116594819Y-104480951D01*
X116594819Y-104480951D02*
X116547200Y-104528570D01*
X116547200Y-104528570D02*
X116499580Y-104480951D01*
X116499580Y-104480951D02*
X116594819Y-104480951D01*
X115594819Y-103576190D02*
X115594819Y-103766666D01*
X115594819Y-103766666D02*
X115642438Y-103861904D01*
X115642438Y-103861904D02*
X115690057Y-103909523D01*
X115690057Y-103909523D02*
X115832914Y-104004761D01*
X115832914Y-104004761D02*
X116023390Y-104052380D01*
X116023390Y-104052380D02*
X116404342Y-104052380D01*
X116404342Y-104052380D02*
X116499580Y-104004761D01*
X116499580Y-104004761D02*
X116547200Y-103957142D01*
X116547200Y-103957142D02*
X116594819Y-103861904D01*
X116594819Y-103861904D02*
X116594819Y-103671428D01*
X116594819Y-103671428D02*
X116547200Y-103576190D01*
X116547200Y-103576190D02*
X116499580Y-103528571D01*
X116499580Y-103528571D02*
X116404342Y-103480952D01*
X116404342Y-103480952D02*
X116166247Y-103480952D01*
X116166247Y-103480952D02*
X116071009Y-103528571D01*
X116071009Y-103528571D02*
X116023390Y-103576190D01*
X116023390Y-103576190D02*
X115975771Y-103671428D01*
X115975771Y-103671428D02*
X115975771Y-103861904D01*
X115975771Y-103861904D02*
X116023390Y-103957142D01*
X116023390Y-103957142D02*
X116071009Y-104004761D01*
X116071009Y-104004761D02*
X116166247Y-104052380D01*
X115928152Y-103052380D02*
X116928152Y-103052380D01*
X115975771Y-103052380D02*
X115928152Y-102957142D01*
X115928152Y-102957142D02*
X115928152Y-102766666D01*
X115928152Y-102766666D02*
X115975771Y-102671428D01*
X115975771Y-102671428D02*
X116023390Y-102623809D01*
X116023390Y-102623809D02*
X116118628Y-102576190D01*
X116118628Y-102576190D02*
X116404342Y-102576190D01*
X116404342Y-102576190D02*
X116499580Y-102623809D01*
X116499580Y-102623809D02*
X116547200Y-102671428D01*
X116547200Y-102671428D02*
X116594819Y-102766666D01*
X116594819Y-102766666D02*
X116594819Y-102957142D01*
X116594819Y-102957142D02*
X116547200Y-103052380D01*
X116071009Y-101814285D02*
X116071009Y-102147618D01*
X116594819Y-102147618D02*
X115594819Y-102147618D01*
X115594819Y-102147618D02*
X115594819Y-101671428D01*
D11*
X117389765Y-103760714D02*
X117401670Y-103772618D01*
X117401670Y-103772618D02*
X117413574Y-103808333D01*
X117413574Y-103808333D02*
X117413574Y-103832142D01*
X117413574Y-103832142D02*
X117401670Y-103867856D01*
X117401670Y-103867856D02*
X117377860Y-103891666D01*
X117377860Y-103891666D02*
X117354050Y-103903571D01*
X117354050Y-103903571D02*
X117306431Y-103915475D01*
X117306431Y-103915475D02*
X117270717Y-103915475D01*
X117270717Y-103915475D02*
X117223098Y-103903571D01*
X117223098Y-103903571D02*
X117199289Y-103891666D01*
X117199289Y-103891666D02*
X117175479Y-103867856D01*
X117175479Y-103867856D02*
X117163574Y-103832142D01*
X117163574Y-103832142D02*
X117163574Y-103808333D01*
X117163574Y-103808333D02*
X117175479Y-103772618D01*
X117175479Y-103772618D02*
X117187384Y-103760714D01*
X117187384Y-103665475D02*
X117175479Y-103653571D01*
X117175479Y-103653571D02*
X117163574Y-103629761D01*
X117163574Y-103629761D02*
X117163574Y-103570237D01*
X117163574Y-103570237D02*
X117175479Y-103546428D01*
X117175479Y-103546428D02*
X117187384Y-103534523D01*
X117187384Y-103534523D02*
X117211193Y-103522618D01*
X117211193Y-103522618D02*
X117235003Y-103522618D01*
X117235003Y-103522618D02*
X117270717Y-103534523D01*
X117270717Y-103534523D02*
X117413574Y-103677380D01*
X117413574Y-103677380D02*
X117413574Y-103522618D01*
X117163574Y-103439285D02*
X117163574Y-103284523D01*
X117163574Y-103284523D02*
X117258812Y-103367857D01*
X117258812Y-103367857D02*
X117258812Y-103332142D01*
X117258812Y-103332142D02*
X117270717Y-103308333D01*
X117270717Y-103308333D02*
X117282622Y-103296428D01*
X117282622Y-103296428D02*
X117306431Y-103284523D01*
X117306431Y-103284523D02*
X117365955Y-103284523D01*
X117365955Y-103284523D02*
X117389765Y-103296428D01*
X117389765Y-103296428D02*
X117401670Y-103308333D01*
X117401670Y-103308333D02*
X117413574Y-103332142D01*
X117413574Y-103332142D02*
X117413574Y-103403571D01*
X117413574Y-103403571D02*
X117401670Y-103427380D01*
X117401670Y-103427380D02*
X117389765Y-103439285D01*
D10*
X116824819Y-104433332D02*
X116824819Y-103814285D01*
X116824819Y-103814285D02*
X117205771Y-104147618D01*
X117205771Y-104147618D02*
X117205771Y-104004761D01*
X117205771Y-104004761D02*
X117253390Y-103909523D01*
X117253390Y-103909523D02*
X117301009Y-103861904D01*
X117301009Y-103861904D02*
X117396247Y-103814285D01*
X117396247Y-103814285D02*
X117634342Y-103814285D01*
X117634342Y-103814285D02*
X117729580Y-103861904D01*
X117729580Y-103861904D02*
X117777200Y-103909523D01*
X117777200Y-103909523D02*
X117824819Y-104004761D01*
X117824819Y-104004761D02*
X117824819Y-104290475D01*
X117824819Y-104290475D02*
X117777200Y-104385713D01*
X117777200Y-104385713D02*
X117729580Y-104433332D01*
X117824819Y-103385713D02*
X116824819Y-103385713D01*
X117824819Y-102814285D02*
X117253390Y-103242856D01*
X116824819Y-102814285D02*
X117396247Y-103385713D01*
D11*
X116318200Y-103767142D02*
X116194391Y-103853809D01*
X116318200Y-103915714D02*
X116058200Y-103915714D01*
X116058200Y-103915714D02*
X116058200Y-103816666D01*
X116058200Y-103816666D02*
X116070581Y-103791904D01*
X116070581Y-103791904D02*
X116082962Y-103779523D01*
X116082962Y-103779523D02*
X116107724Y-103767142D01*
X116107724Y-103767142D02*
X116144867Y-103767142D01*
X116144867Y-103767142D02*
X116169629Y-103779523D01*
X116169629Y-103779523D02*
X116182010Y-103791904D01*
X116182010Y-103791904D02*
X116194391Y-103816666D01*
X116194391Y-103816666D02*
X116194391Y-103915714D01*
X116318200Y-103519523D02*
X116318200Y-103668095D01*
X116318200Y-103593809D02*
X116058200Y-103593809D01*
X116058200Y-103593809D02*
X116095343Y-103618571D01*
X116095343Y-103618571D02*
X116120105Y-103643333D01*
X116120105Y-103643333D02*
X116132486Y-103668095D01*
X116058200Y-103296666D02*
X116058200Y-103346190D01*
X116058200Y-103346190D02*
X116070581Y-103370952D01*
X116070581Y-103370952D02*
X116082962Y-103383333D01*
X116082962Y-103383333D02*
X116120105Y-103408095D01*
X116120105Y-103408095D02*
X116169629Y-103420476D01*
X116169629Y-103420476D02*
X116268677Y-103420476D01*
X116268677Y-103420476D02*
X116293439Y-103408095D01*
X116293439Y-103408095D02*
X116305820Y-103395714D01*
X116305820Y-103395714D02*
X116318200Y-103370952D01*
X116318200Y-103370952D02*
X116318200Y-103321428D01*
X116318200Y-103321428D02*
X116305820Y-103296666D01*
X116305820Y-103296666D02*
X116293439Y-103284285D01*
X116293439Y-103284285D02*
X116268677Y-103271904D01*
X116268677Y-103271904D02*
X116206772Y-103271904D01*
X116206772Y-103271904D02*
X116182010Y-103284285D01*
X116182010Y-103284285D02*
X116169629Y-103296666D01*
X116169629Y-103296666D02*
X116157248Y-103321428D01*
X116157248Y-103321428D02*
X116157248Y-103370952D01*
X116157248Y-103370952D02*
X116169629Y-103395714D01*
X116169629Y-103395714D02*
X116182010Y-103408095D01*
X116182010Y-103408095D02*
X116206772Y-103420476D01*
D10*
X124847619Y-86204819D02*
X125038095Y-86204819D01*
X125038095Y-86204819D02*
X125133333Y-86252438D01*
X125133333Y-86252438D02*
X125228571Y-86347676D01*
X125228571Y-86347676D02*
X125276190Y-86538152D01*
X125276190Y-86538152D02*
X125276190Y-86871485D01*
X125276190Y-86871485D02*
X125228571Y-87061961D01*
X125228571Y-87061961D02*
X125133333Y-87157200D01*
X125133333Y-87157200D02*
X125038095Y-87204819D01*
X125038095Y-87204819D02*
X124847619Y-87204819D01*
X124847619Y-87204819D02*
X124752381Y-87157200D01*
X124752381Y-87157200D02*
X124657143Y-87061961D01*
X124657143Y-87061961D02*
X124609524Y-86871485D01*
X124609524Y-86871485D02*
X124609524Y-86538152D01*
X124609524Y-86538152D02*
X124657143Y-86347676D01*
X124657143Y-86347676D02*
X124752381Y-86252438D01*
X124752381Y-86252438D02*
X124847619Y-86204819D01*
X125704762Y-87204819D02*
X125704762Y-86204819D01*
X125704762Y-86204819D02*
X126085714Y-86204819D01*
X126085714Y-86204819D02*
X126180952Y-86252438D01*
X126180952Y-86252438D02*
X126228571Y-86300057D01*
X126228571Y-86300057D02*
X126276190Y-86395295D01*
X126276190Y-86395295D02*
X126276190Y-86538152D01*
X126276190Y-86538152D02*
X126228571Y-86633390D01*
X126228571Y-86633390D02*
X126180952Y-86681009D01*
X126180952Y-86681009D02*
X126085714Y-86728628D01*
X126085714Y-86728628D02*
X125704762Y-86728628D01*
X126657143Y-86919104D02*
X127133333Y-86919104D01*
X126561905Y-87204819D02*
X126895238Y-86204819D01*
X126895238Y-86204819D02*
X127228571Y-87204819D01*
X127514286Y-86300057D02*
X127561905Y-86252438D01*
X127561905Y-86252438D02*
X127657143Y-86204819D01*
X127657143Y-86204819D02*
X127895238Y-86204819D01*
X127895238Y-86204819D02*
X127990476Y-86252438D01*
X127990476Y-86252438D02*
X128038095Y-86300057D01*
X128038095Y-86300057D02*
X128085714Y-86395295D01*
X128085714Y-86395295D02*
X128085714Y-86490533D01*
X128085714Y-86490533D02*
X128038095Y-86633390D01*
X128038095Y-86633390D02*
X127466667Y-87204819D01*
X127466667Y-87204819D02*
X128085714Y-87204819D01*
X129038095Y-87204819D02*
X128466667Y-87204819D01*
X128752381Y-87204819D02*
X128752381Y-86204819D01*
X128752381Y-86204819D02*
X128657143Y-86347676D01*
X128657143Y-86347676D02*
X128561905Y-86442914D01*
X128561905Y-86442914D02*
X128466667Y-86490533D01*
X129657143Y-86204819D02*
X129752381Y-86204819D01*
X129752381Y-86204819D02*
X129847619Y-86252438D01*
X129847619Y-86252438D02*
X129895238Y-86300057D01*
X129895238Y-86300057D02*
X129942857Y-86395295D01*
X129942857Y-86395295D02*
X129990476Y-86585771D01*
X129990476Y-86585771D02*
X129990476Y-86823866D01*
X129990476Y-86823866D02*
X129942857Y-87014342D01*
X129942857Y-87014342D02*
X129895238Y-87109580D01*
X129895238Y-87109580D02*
X129847619Y-87157200D01*
X129847619Y-87157200D02*
X129752381Y-87204819D01*
X129752381Y-87204819D02*
X129657143Y-87204819D01*
X129657143Y-87204819D02*
X129561905Y-87157200D01*
X129561905Y-87157200D02*
X129514286Y-87109580D01*
X129514286Y-87109580D02*
X129466667Y-87014342D01*
X129466667Y-87014342D02*
X129419048Y-86823866D01*
X129419048Y-86823866D02*
X129419048Y-86585771D01*
X129419048Y-86585771D02*
X129466667Y-86395295D01*
X129466667Y-86395295D02*
X129514286Y-86300057D01*
X129514286Y-86300057D02*
X129561905Y-86252438D01*
X129561905Y-86252438D02*
X129657143Y-86204819D01*
D14*
X127027409Y-90030952D02*
X127432171Y-90030952D01*
X127432171Y-90030952D02*
X127479790Y-90007142D01*
X127479790Y-90007142D02*
X127503600Y-89983333D01*
X127503600Y-89983333D02*
X127527409Y-89935714D01*
X127527409Y-89935714D02*
X127527409Y-89840476D01*
X127527409Y-89840476D02*
X127503600Y-89792857D01*
X127503600Y-89792857D02*
X127479790Y-89769047D01*
X127479790Y-89769047D02*
X127432171Y-89745238D01*
X127432171Y-89745238D02*
X127027409Y-89745238D01*
X127194076Y-89292856D02*
X127527409Y-89292856D01*
X127003600Y-89411904D02*
X127360742Y-89530951D01*
X127360742Y-89530951D02*
X127360742Y-89221428D01*
D10*
X130819642Y-91534819D02*
X130248214Y-91534819D01*
X130533928Y-91534819D02*
X130533928Y-90534819D01*
X130533928Y-90534819D02*
X130438690Y-90677676D01*
X130438690Y-90677676D02*
X130343452Y-90772914D01*
X130343452Y-90772914D02*
X130248214Y-90820533D01*
X131438690Y-90534819D02*
X131533928Y-90534819D01*
X131533928Y-90534819D02*
X131629166Y-90582438D01*
X131629166Y-90582438D02*
X131676785Y-90630057D01*
X131676785Y-90630057D02*
X131724404Y-90725295D01*
X131724404Y-90725295D02*
X131772023Y-90915771D01*
X131772023Y-90915771D02*
X131772023Y-91153866D01*
X131772023Y-91153866D02*
X131724404Y-91344342D01*
X131724404Y-91344342D02*
X131676785Y-91439580D01*
X131676785Y-91439580D02*
X131629166Y-91487200D01*
X131629166Y-91487200D02*
X131533928Y-91534819D01*
X131533928Y-91534819D02*
X131438690Y-91534819D01*
X131438690Y-91534819D02*
X131343452Y-91487200D01*
X131343452Y-91487200D02*
X131295833Y-91439580D01*
X131295833Y-91439580D02*
X131248214Y-91344342D01*
X131248214Y-91344342D02*
X131200595Y-91153866D01*
X131200595Y-91153866D02*
X131200595Y-90915771D01*
X131200595Y-90915771D02*
X131248214Y-90725295D01*
X131248214Y-90725295D02*
X131295833Y-90630057D01*
X131295833Y-90630057D02*
X131343452Y-90582438D01*
X131343452Y-90582438D02*
X131438690Y-90534819D01*
X132629166Y-90868152D02*
X132629166Y-91534819D01*
X132200595Y-90868152D02*
X132200595Y-91391961D01*
X132200595Y-91391961D02*
X132248214Y-91487200D01*
X132248214Y-91487200D02*
X132343452Y-91534819D01*
X132343452Y-91534819D02*
X132486309Y-91534819D01*
X132486309Y-91534819D02*
X132581547Y-91487200D01*
X132581547Y-91487200D02*
X132629166Y-91439580D01*
D13*
X131395833Y-89793832D02*
X131376785Y-89812880D01*
X131376785Y-89812880D02*
X131319643Y-89831927D01*
X131319643Y-89831927D02*
X131281547Y-89831927D01*
X131281547Y-89831927D02*
X131224404Y-89812880D01*
X131224404Y-89812880D02*
X131186309Y-89774784D01*
X131186309Y-89774784D02*
X131167262Y-89736689D01*
X131167262Y-89736689D02*
X131148214Y-89660499D01*
X131148214Y-89660499D02*
X131148214Y-89603356D01*
X131148214Y-89603356D02*
X131167262Y-89527165D01*
X131167262Y-89527165D02*
X131186309Y-89489070D01*
X131186309Y-89489070D02*
X131224404Y-89450975D01*
X131224404Y-89450975D02*
X131281547Y-89431927D01*
X131281547Y-89431927D02*
X131319643Y-89431927D01*
X131319643Y-89431927D02*
X131376785Y-89450975D01*
X131376785Y-89450975D02*
X131395833Y-89470022D01*
X131529166Y-89431927D02*
X131795833Y-89431927D01*
X131795833Y-89431927D02*
X131624404Y-89831927D01*
D10*
X126984819Y-100254166D02*
X126984819Y-100825594D01*
X126984819Y-100539880D02*
X125984819Y-100539880D01*
X125984819Y-100539880D02*
X126127676Y-100635118D01*
X126127676Y-100635118D02*
X126222914Y-100730356D01*
X126222914Y-100730356D02*
X126270533Y-100825594D01*
X125984819Y-99349404D02*
X125984819Y-99825594D01*
X125984819Y-99825594D02*
X126461009Y-99873213D01*
X126461009Y-99873213D02*
X126413390Y-99825594D01*
X126413390Y-99825594D02*
X126365771Y-99730356D01*
X126365771Y-99730356D02*
X126365771Y-99492261D01*
X126365771Y-99492261D02*
X126413390Y-99397023D01*
X126413390Y-99397023D02*
X126461009Y-99349404D01*
X126461009Y-99349404D02*
X126556247Y-99301785D01*
X126556247Y-99301785D02*
X126794342Y-99301785D01*
X126794342Y-99301785D02*
X126889580Y-99349404D01*
X126889580Y-99349404D02*
X126937200Y-99397023D01*
X126937200Y-99397023D02*
X126984819Y-99492261D01*
X126984819Y-99492261D02*
X126984819Y-99730356D01*
X126984819Y-99730356D02*
X126937200Y-99825594D01*
X126937200Y-99825594D02*
X126889580Y-99873213D01*
X125984819Y-98682737D02*
X125984819Y-98587499D01*
X125984819Y-98587499D02*
X126032438Y-98492261D01*
X126032438Y-98492261D02*
X126080057Y-98444642D01*
X126080057Y-98444642D02*
X126175295Y-98397023D01*
X126175295Y-98397023D02*
X126365771Y-98349404D01*
X126365771Y-98349404D02*
X126603866Y-98349404D01*
X126603866Y-98349404D02*
X126794342Y-98397023D01*
X126794342Y-98397023D02*
X126889580Y-98444642D01*
X126889580Y-98444642D02*
X126937200Y-98492261D01*
X126937200Y-98492261D02*
X126984819Y-98587499D01*
X126984819Y-98587499D02*
X126984819Y-98682737D01*
X126984819Y-98682737D02*
X126937200Y-98777975D01*
X126937200Y-98777975D02*
X126889580Y-98825594D01*
X126889580Y-98825594D02*
X126794342Y-98873213D01*
X126794342Y-98873213D02*
X126603866Y-98920832D01*
X126603866Y-98920832D02*
X126365771Y-98920832D01*
X126365771Y-98920832D02*
X126175295Y-98873213D01*
X126175295Y-98873213D02*
X126080057Y-98825594D01*
X126080057Y-98825594D02*
X126032438Y-98777975D01*
X126032438Y-98777975D02*
X125984819Y-98682737D01*
X126984819Y-97920832D02*
X125984819Y-97920832D01*
X126984819Y-97349404D02*
X126413390Y-97777975D01*
X125984819Y-97349404D02*
X126556247Y-97920832D01*
D11*
X127818200Y-99254642D02*
X127694391Y-99341309D01*
X127818200Y-99403214D02*
X127558200Y-99403214D01*
X127558200Y-99403214D02*
X127558200Y-99304166D01*
X127558200Y-99304166D02*
X127570581Y-99279404D01*
X127570581Y-99279404D02*
X127582962Y-99267023D01*
X127582962Y-99267023D02*
X127607724Y-99254642D01*
X127607724Y-99254642D02*
X127644867Y-99254642D01*
X127644867Y-99254642D02*
X127669629Y-99267023D01*
X127669629Y-99267023D02*
X127682010Y-99279404D01*
X127682010Y-99279404D02*
X127694391Y-99304166D01*
X127694391Y-99304166D02*
X127694391Y-99403214D01*
X127582962Y-99155595D02*
X127570581Y-99143214D01*
X127570581Y-99143214D02*
X127558200Y-99118452D01*
X127558200Y-99118452D02*
X127558200Y-99056547D01*
X127558200Y-99056547D02*
X127570581Y-99031785D01*
X127570581Y-99031785D02*
X127582962Y-99019404D01*
X127582962Y-99019404D02*
X127607724Y-99007023D01*
X127607724Y-99007023D02*
X127632486Y-99007023D01*
X127632486Y-99007023D02*
X127669629Y-99019404D01*
X127669629Y-99019404D02*
X127818200Y-99167976D01*
X127818200Y-99167976D02*
X127818200Y-99007023D01*
X127558200Y-98846071D02*
X127558200Y-98821309D01*
X127558200Y-98821309D02*
X127570581Y-98796547D01*
X127570581Y-98796547D02*
X127582962Y-98784166D01*
X127582962Y-98784166D02*
X127607724Y-98771785D01*
X127607724Y-98771785D02*
X127657248Y-98759404D01*
X127657248Y-98759404D02*
X127719153Y-98759404D01*
X127719153Y-98759404D02*
X127768677Y-98771785D01*
X127768677Y-98771785D02*
X127793439Y-98784166D01*
X127793439Y-98784166D02*
X127805820Y-98796547D01*
X127805820Y-98796547D02*
X127818200Y-98821309D01*
X127818200Y-98821309D02*
X127818200Y-98846071D01*
X127818200Y-98846071D02*
X127805820Y-98870833D01*
X127805820Y-98870833D02*
X127793439Y-98883214D01*
X127793439Y-98883214D02*
X127768677Y-98895595D01*
X127768677Y-98895595D02*
X127719153Y-98907976D01*
X127719153Y-98907976D02*
X127657248Y-98907976D01*
X127657248Y-98907976D02*
X127607724Y-98895595D01*
X127607724Y-98895595D02*
X127582962Y-98883214D01*
X127582962Y-98883214D02*
X127570581Y-98870833D01*
X127570581Y-98870833D02*
X127558200Y-98846071D01*
D10*
X133461904Y-111739580D02*
X133414285Y-111787200D01*
X133414285Y-111787200D02*
X133271428Y-111834819D01*
X133271428Y-111834819D02*
X133176190Y-111834819D01*
X133176190Y-111834819D02*
X133033333Y-111787200D01*
X133033333Y-111787200D02*
X132938095Y-111691961D01*
X132938095Y-111691961D02*
X132890476Y-111596723D01*
X132890476Y-111596723D02*
X132842857Y-111406247D01*
X132842857Y-111406247D02*
X132842857Y-111263390D01*
X132842857Y-111263390D02*
X132890476Y-111072914D01*
X132890476Y-111072914D02*
X132938095Y-110977676D01*
X132938095Y-110977676D02*
X133033333Y-110882438D01*
X133033333Y-110882438D02*
X133176190Y-110834819D01*
X133176190Y-110834819D02*
X133271428Y-110834819D01*
X133271428Y-110834819D02*
X133414285Y-110882438D01*
X133414285Y-110882438D02*
X133461904Y-110930057D01*
X134033333Y-111834819D02*
X133938095Y-111787200D01*
X133938095Y-111787200D02*
X133890476Y-111739580D01*
X133890476Y-111739580D02*
X133842857Y-111644342D01*
X133842857Y-111644342D02*
X133842857Y-111358628D01*
X133842857Y-111358628D02*
X133890476Y-111263390D01*
X133890476Y-111263390D02*
X133938095Y-111215771D01*
X133938095Y-111215771D02*
X134033333Y-111168152D01*
X134033333Y-111168152D02*
X134176190Y-111168152D01*
X134176190Y-111168152D02*
X134271428Y-111215771D01*
X134271428Y-111215771D02*
X134319047Y-111263390D01*
X134319047Y-111263390D02*
X134366666Y-111358628D01*
X134366666Y-111358628D02*
X134366666Y-111644342D01*
X134366666Y-111644342D02*
X134319047Y-111739580D01*
X134319047Y-111739580D02*
X134271428Y-111787200D01*
X134271428Y-111787200D02*
X134176190Y-111834819D01*
X134176190Y-111834819D02*
X134033333Y-111834819D01*
X134795238Y-111168152D02*
X134795238Y-111834819D01*
X134795238Y-111263390D02*
X134842857Y-111215771D01*
X134842857Y-111215771D02*
X134938095Y-111168152D01*
X134938095Y-111168152D02*
X135080952Y-111168152D01*
X135080952Y-111168152D02*
X135176190Y-111215771D01*
X135176190Y-111215771D02*
X135223809Y-111311009D01*
X135223809Y-111311009D02*
X135223809Y-111834819D01*
X135700000Y-111168152D02*
X135700000Y-111834819D01*
X135700000Y-111263390D02*
X135747619Y-111215771D01*
X135747619Y-111215771D02*
X135842857Y-111168152D01*
X135842857Y-111168152D02*
X135985714Y-111168152D01*
X135985714Y-111168152D02*
X136080952Y-111215771D01*
X136080952Y-111215771D02*
X136128571Y-111311009D01*
X136128571Y-111311009D02*
X136128571Y-111834819D01*
X136366667Y-111930057D02*
X137128571Y-111930057D01*
X137557143Y-110834819D02*
X137652381Y-110834819D01*
X137652381Y-110834819D02*
X137747619Y-110882438D01*
X137747619Y-110882438D02*
X137795238Y-110930057D01*
X137795238Y-110930057D02*
X137842857Y-111025295D01*
X137842857Y-111025295D02*
X137890476Y-111215771D01*
X137890476Y-111215771D02*
X137890476Y-111453866D01*
X137890476Y-111453866D02*
X137842857Y-111644342D01*
X137842857Y-111644342D02*
X137795238Y-111739580D01*
X137795238Y-111739580D02*
X137747619Y-111787200D01*
X137747619Y-111787200D02*
X137652381Y-111834819D01*
X137652381Y-111834819D02*
X137557143Y-111834819D01*
X137557143Y-111834819D02*
X137461905Y-111787200D01*
X137461905Y-111787200D02*
X137414286Y-111739580D01*
X137414286Y-111739580D02*
X137366667Y-111644342D01*
X137366667Y-111644342D02*
X137319048Y-111453866D01*
X137319048Y-111453866D02*
X137319048Y-111215771D01*
X137319048Y-111215771D02*
X137366667Y-111025295D01*
X137366667Y-111025295D02*
X137414286Y-110930057D01*
X137414286Y-110930057D02*
X137461905Y-110882438D01*
X137461905Y-110882438D02*
X137557143Y-110834819D01*
X138842857Y-111834819D02*
X138271429Y-111834819D01*
X138557143Y-111834819D02*
X138557143Y-110834819D01*
X138557143Y-110834819D02*
X138461905Y-110977676D01*
X138461905Y-110977676D02*
X138366667Y-111072914D01*
X138366667Y-111072914D02*
X138271429Y-111120533D01*
X139176191Y-111834819D02*
X139700000Y-111168152D01*
X139176191Y-111168152D02*
X139700000Y-111834819D01*
X140271429Y-110834819D02*
X140366667Y-110834819D01*
X140366667Y-110834819D02*
X140461905Y-110882438D01*
X140461905Y-110882438D02*
X140509524Y-110930057D01*
X140509524Y-110930057D02*
X140557143Y-111025295D01*
X140557143Y-111025295D02*
X140604762Y-111215771D01*
X140604762Y-111215771D02*
X140604762Y-111453866D01*
X140604762Y-111453866D02*
X140557143Y-111644342D01*
X140557143Y-111644342D02*
X140509524Y-111739580D01*
X140509524Y-111739580D02*
X140461905Y-111787200D01*
X140461905Y-111787200D02*
X140366667Y-111834819D01*
X140366667Y-111834819D02*
X140271429Y-111834819D01*
X140271429Y-111834819D02*
X140176191Y-111787200D01*
X140176191Y-111787200D02*
X140128572Y-111739580D01*
X140128572Y-111739580D02*
X140080953Y-111644342D01*
X140080953Y-111644342D02*
X140033334Y-111453866D01*
X140033334Y-111453866D02*
X140033334Y-111215771D01*
X140033334Y-111215771D02*
X140080953Y-111025295D01*
X140080953Y-111025295D02*
X140128572Y-110930057D01*
X140128572Y-110930057D02*
X140176191Y-110882438D01*
X140176191Y-110882438D02*
X140271429Y-110834819D01*
X140938096Y-110834819D02*
X141557143Y-110834819D01*
X141557143Y-110834819D02*
X141223810Y-111215771D01*
X141223810Y-111215771D02*
X141366667Y-111215771D01*
X141366667Y-111215771D02*
X141461905Y-111263390D01*
X141461905Y-111263390D02*
X141509524Y-111311009D01*
X141509524Y-111311009D02*
X141557143Y-111406247D01*
X141557143Y-111406247D02*
X141557143Y-111644342D01*
X141557143Y-111644342D02*
X141509524Y-111739580D01*
X141509524Y-111739580D02*
X141461905Y-111787200D01*
X141461905Y-111787200D02*
X141366667Y-111834819D01*
X141366667Y-111834819D02*
X141080953Y-111834819D01*
X141080953Y-111834819D02*
X140985715Y-111787200D01*
X140985715Y-111787200D02*
X140938096Y-111739580D01*
X136654819Y-109333333D02*
X137369104Y-109333333D01*
X137369104Y-109333333D02*
X137511961Y-109380952D01*
X137511961Y-109380952D02*
X137607200Y-109476190D01*
X137607200Y-109476190D02*
X137654819Y-109619047D01*
X137654819Y-109619047D02*
X137654819Y-109714285D01*
X137654819Y-108333333D02*
X137654819Y-108904761D01*
X137654819Y-108619047D02*
X136654819Y-108619047D01*
X136654819Y-108619047D02*
X136797676Y-108714285D01*
X136797676Y-108714285D02*
X136892914Y-108809523D01*
X136892914Y-108809523D02*
X136940533Y-108904761D01*
X137155532Y-109933576D02*
X137155532Y-108114042D01*
X107738095Y-104431009D02*
X107404762Y-104431009D01*
X107404762Y-104954819D02*
X107404762Y-103954819D01*
X107404762Y-103954819D02*
X107880952Y-103954819D01*
X108261905Y-104954819D02*
X108261905Y-103954819D01*
X108261905Y-103954819D02*
X108500000Y-103954819D01*
X108500000Y-103954819D02*
X108642857Y-104002438D01*
X108642857Y-104002438D02*
X108738095Y-104097676D01*
X108738095Y-104097676D02*
X108785714Y-104192914D01*
X108785714Y-104192914D02*
X108833333Y-104383390D01*
X108833333Y-104383390D02*
X108833333Y-104526247D01*
X108833333Y-104526247D02*
X108785714Y-104716723D01*
X108785714Y-104716723D02*
X108738095Y-104811961D01*
X108738095Y-104811961D02*
X108642857Y-104907200D01*
X108642857Y-104907200D02*
X108500000Y-104954819D01*
X108500000Y-104954819D02*
X108261905Y-104954819D01*
X109214286Y-104907200D02*
X109357143Y-104954819D01*
X109357143Y-104954819D02*
X109595238Y-104954819D01*
X109595238Y-104954819D02*
X109690476Y-104907200D01*
X109690476Y-104907200D02*
X109738095Y-104859580D01*
X109738095Y-104859580D02*
X109785714Y-104764342D01*
X109785714Y-104764342D02*
X109785714Y-104669104D01*
X109785714Y-104669104D02*
X109738095Y-104573866D01*
X109738095Y-104573866D02*
X109690476Y-104526247D01*
X109690476Y-104526247D02*
X109595238Y-104478628D01*
X109595238Y-104478628D02*
X109404762Y-104431009D01*
X109404762Y-104431009D02*
X109309524Y-104383390D01*
X109309524Y-104383390D02*
X109261905Y-104335771D01*
X109261905Y-104335771D02*
X109214286Y-104240533D01*
X109214286Y-104240533D02*
X109214286Y-104145295D01*
X109214286Y-104145295D02*
X109261905Y-104050057D01*
X109261905Y-104050057D02*
X109309524Y-104002438D01*
X109309524Y-104002438D02*
X109404762Y-103954819D01*
X109404762Y-103954819D02*
X109642857Y-103954819D01*
X109642857Y-103954819D02*
X109785714Y-104002438D01*
X110738095Y-104954819D02*
X110166667Y-104954819D01*
X110452381Y-104954819D02*
X110452381Y-103954819D01*
X110452381Y-103954819D02*
X110357143Y-104097676D01*
X110357143Y-104097676D02*
X110261905Y-104192914D01*
X110261905Y-104192914D02*
X110166667Y-104240533D01*
X111357143Y-103954819D02*
X111452381Y-103954819D01*
X111452381Y-103954819D02*
X111547619Y-104002438D01*
X111547619Y-104002438D02*
X111595238Y-104050057D01*
X111595238Y-104050057D02*
X111642857Y-104145295D01*
X111642857Y-104145295D02*
X111690476Y-104335771D01*
X111690476Y-104335771D02*
X111690476Y-104573866D01*
X111690476Y-104573866D02*
X111642857Y-104764342D01*
X111642857Y-104764342D02*
X111595238Y-104859580D01*
X111595238Y-104859580D02*
X111547619Y-104907200D01*
X111547619Y-104907200D02*
X111452381Y-104954819D01*
X111452381Y-104954819D02*
X111357143Y-104954819D01*
X111357143Y-104954819D02*
X111261905Y-104907200D01*
X111261905Y-104907200D02*
X111214286Y-104859580D01*
X111214286Y-104859580D02*
X111166667Y-104764342D01*
X111166667Y-104764342D02*
X111119048Y-104573866D01*
X111119048Y-104573866D02*
X111119048Y-104335771D01*
X111119048Y-104335771D02*
X111166667Y-104145295D01*
X111166667Y-104145295D02*
X111214286Y-104050057D01*
X111214286Y-104050057D02*
X111261905Y-104002438D01*
X111261905Y-104002438D02*
X111357143Y-103954819D01*
X112309524Y-103954819D02*
X112404762Y-103954819D01*
X112404762Y-103954819D02*
X112500000Y-104002438D01*
X112500000Y-104002438D02*
X112547619Y-104050057D01*
X112547619Y-104050057D02*
X112595238Y-104145295D01*
X112595238Y-104145295D02*
X112642857Y-104335771D01*
X112642857Y-104335771D02*
X112642857Y-104573866D01*
X112642857Y-104573866D02*
X112595238Y-104764342D01*
X112595238Y-104764342D02*
X112547619Y-104859580D01*
X112547619Y-104859580D02*
X112500000Y-104907200D01*
X112500000Y-104907200D02*
X112404762Y-104954819D01*
X112404762Y-104954819D02*
X112309524Y-104954819D01*
X112309524Y-104954819D02*
X112214286Y-104907200D01*
X112214286Y-104907200D02*
X112166667Y-104859580D01*
X112166667Y-104859580D02*
X112119048Y-104764342D01*
X112119048Y-104764342D02*
X112071429Y-104573866D01*
X112071429Y-104573866D02*
X112071429Y-104335771D01*
X112071429Y-104335771D02*
X112119048Y-104145295D01*
X112119048Y-104145295D02*
X112166667Y-104050057D01*
X112166667Y-104050057D02*
X112214286Y-104002438D01*
X112214286Y-104002438D02*
X112309524Y-103954819D01*
X109261905Y-106754819D02*
X109261905Y-105754819D01*
X109261905Y-105754819D02*
X109500000Y-105754819D01*
X109500000Y-105754819D02*
X109642857Y-105802438D01*
X109642857Y-105802438D02*
X109738095Y-105897676D01*
X109738095Y-105897676D02*
X109785714Y-105992914D01*
X109785714Y-105992914D02*
X109833333Y-106183390D01*
X109833333Y-106183390D02*
X109833333Y-106326247D01*
X109833333Y-106326247D02*
X109785714Y-106516723D01*
X109785714Y-106516723D02*
X109738095Y-106611961D01*
X109738095Y-106611961D02*
X109642857Y-106707200D01*
X109642857Y-106707200D02*
X109500000Y-106754819D01*
X109500000Y-106754819D02*
X109261905Y-106754819D01*
X110166667Y-105754819D02*
X110785714Y-105754819D01*
X110785714Y-105754819D02*
X110452381Y-106135771D01*
X110452381Y-106135771D02*
X110595238Y-106135771D01*
X110595238Y-106135771D02*
X110690476Y-106183390D01*
X110690476Y-106183390D02*
X110738095Y-106231009D01*
X110738095Y-106231009D02*
X110785714Y-106326247D01*
X110785714Y-106326247D02*
X110785714Y-106564342D01*
X110785714Y-106564342D02*
X110738095Y-106659580D01*
X110738095Y-106659580D02*
X110690476Y-106707200D01*
X110690476Y-106707200D02*
X110595238Y-106754819D01*
X110595238Y-106754819D02*
X110309524Y-106754819D01*
X110309524Y-106754819D02*
X110214286Y-106707200D01*
X110214286Y-106707200D02*
X110166667Y-106659580D01*
X98184819Y-97298928D02*
X98184819Y-97870356D01*
X98184819Y-97584642D02*
X97184819Y-97584642D01*
X97184819Y-97584642D02*
X97327676Y-97679880D01*
X97327676Y-97679880D02*
X97422914Y-97775118D01*
X97422914Y-97775118D02*
X97470533Y-97870356D01*
X97184819Y-96679880D02*
X97184819Y-96584642D01*
X97184819Y-96584642D02*
X97232438Y-96489404D01*
X97232438Y-96489404D02*
X97280057Y-96441785D01*
X97280057Y-96441785D02*
X97375295Y-96394166D01*
X97375295Y-96394166D02*
X97565771Y-96346547D01*
X97565771Y-96346547D02*
X97803866Y-96346547D01*
X97803866Y-96346547D02*
X97994342Y-96394166D01*
X97994342Y-96394166D02*
X98089580Y-96441785D01*
X98089580Y-96441785D02*
X98137200Y-96489404D01*
X98137200Y-96489404D02*
X98184819Y-96584642D01*
X98184819Y-96584642D02*
X98184819Y-96679880D01*
X98184819Y-96679880D02*
X98137200Y-96775118D01*
X98137200Y-96775118D02*
X98089580Y-96822737D01*
X98089580Y-96822737D02*
X97994342Y-96870356D01*
X97994342Y-96870356D02*
X97803866Y-96917975D01*
X97803866Y-96917975D02*
X97565771Y-96917975D01*
X97565771Y-96917975D02*
X97375295Y-96870356D01*
X97375295Y-96870356D02*
X97280057Y-96822737D01*
X97280057Y-96822737D02*
X97232438Y-96775118D01*
X97232438Y-96775118D02*
X97184819Y-96679880D01*
X97518152Y-95489404D02*
X98184819Y-95489404D01*
X97518152Y-95917975D02*
X98041961Y-95917975D01*
X98041961Y-95917975D02*
X98137200Y-95870356D01*
X98137200Y-95870356D02*
X98184819Y-95775118D01*
X98184819Y-95775118D02*
X98184819Y-95632261D01*
X98184819Y-95632261D02*
X98137200Y-95537023D01*
X98137200Y-95537023D02*
X98089580Y-95489404D01*
X97661009Y-94679880D02*
X97661009Y-95013213D01*
X98184819Y-95013213D02*
X97184819Y-95013213D01*
X97184819Y-95013213D02*
X97184819Y-94537023D01*
D13*
X96443832Y-96294166D02*
X96462880Y-96313214D01*
X96462880Y-96313214D02*
X96481927Y-96370356D01*
X96481927Y-96370356D02*
X96481927Y-96408452D01*
X96481927Y-96408452D02*
X96462880Y-96465595D01*
X96462880Y-96465595D02*
X96424784Y-96503690D01*
X96424784Y-96503690D02*
X96386689Y-96522737D01*
X96386689Y-96522737D02*
X96310499Y-96541785D01*
X96310499Y-96541785D02*
X96253356Y-96541785D01*
X96253356Y-96541785D02*
X96177165Y-96522737D01*
X96177165Y-96522737D02*
X96139070Y-96503690D01*
X96139070Y-96503690D02*
X96100975Y-96465595D01*
X96100975Y-96465595D02*
X96081927Y-96408452D01*
X96081927Y-96408452D02*
X96081927Y-96370356D01*
X96081927Y-96370356D02*
X96100975Y-96313214D01*
X96100975Y-96313214D02*
X96120022Y-96294166D01*
X96081927Y-96160833D02*
X96081927Y-95913214D01*
X96081927Y-95913214D02*
X96234308Y-96046547D01*
X96234308Y-96046547D02*
X96234308Y-95989404D01*
X96234308Y-95989404D02*
X96253356Y-95951309D01*
X96253356Y-95951309D02*
X96272403Y-95932261D01*
X96272403Y-95932261D02*
X96310499Y-95913214D01*
X96310499Y-95913214D02*
X96405737Y-95913214D01*
X96405737Y-95913214D02*
X96443832Y-95932261D01*
X96443832Y-95932261D02*
X96462880Y-95951309D01*
X96462880Y-95951309D02*
X96481927Y-95989404D01*
X96481927Y-95989404D02*
X96481927Y-96103690D01*
X96481927Y-96103690D02*
X96462880Y-96141785D01*
X96462880Y-96141785D02*
X96443832Y-96160833D01*
D10*
X106352381Y-94244819D02*
X106447619Y-94244819D01*
X106447619Y-94244819D02*
X106542857Y-94292438D01*
X106542857Y-94292438D02*
X106590476Y-94340057D01*
X106590476Y-94340057D02*
X106638095Y-94435295D01*
X106638095Y-94435295D02*
X106685714Y-94625771D01*
X106685714Y-94625771D02*
X106685714Y-94863866D01*
X106685714Y-94863866D02*
X106638095Y-95054342D01*
X106638095Y-95054342D02*
X106590476Y-95149580D01*
X106590476Y-95149580D02*
X106542857Y-95197200D01*
X106542857Y-95197200D02*
X106447619Y-95244819D01*
X106447619Y-95244819D02*
X106352381Y-95244819D01*
X106352381Y-95244819D02*
X106257143Y-95197200D01*
X106257143Y-95197200D02*
X106209524Y-95149580D01*
X106209524Y-95149580D02*
X106161905Y-95054342D01*
X106161905Y-95054342D02*
X106114286Y-94863866D01*
X106114286Y-94863866D02*
X106114286Y-94625771D01*
X106114286Y-94625771D02*
X106161905Y-94435295D01*
X106161905Y-94435295D02*
X106209524Y-94340057D01*
X106209524Y-94340057D02*
X106257143Y-94292438D01*
X106257143Y-94292438D02*
X106352381Y-94244819D01*
X107685714Y-95244819D02*
X107352381Y-94768628D01*
X107114286Y-95244819D02*
X107114286Y-94244819D01*
X107114286Y-94244819D02*
X107495238Y-94244819D01*
X107495238Y-94244819D02*
X107590476Y-94292438D01*
X107590476Y-94292438D02*
X107638095Y-94340057D01*
X107638095Y-94340057D02*
X107685714Y-94435295D01*
X107685714Y-94435295D02*
X107685714Y-94578152D01*
X107685714Y-94578152D02*
X107638095Y-94673390D01*
X107638095Y-94673390D02*
X107590476Y-94721009D01*
X107590476Y-94721009D02*
X107495238Y-94768628D01*
X107495238Y-94768628D02*
X107114286Y-94768628D01*
D13*
X106642857Y-93541927D02*
X106509524Y-93351451D01*
X106414286Y-93541927D02*
X106414286Y-93141927D01*
X106414286Y-93141927D02*
X106566667Y-93141927D01*
X106566667Y-93141927D02*
X106604762Y-93160975D01*
X106604762Y-93160975D02*
X106623809Y-93180022D01*
X106623809Y-93180022D02*
X106642857Y-93218118D01*
X106642857Y-93218118D02*
X106642857Y-93275260D01*
X106642857Y-93275260D02*
X106623809Y-93313356D01*
X106623809Y-93313356D02*
X106604762Y-93332403D01*
X106604762Y-93332403D02*
X106566667Y-93351451D01*
X106566667Y-93351451D02*
X106414286Y-93351451D01*
X107023809Y-93541927D02*
X106795238Y-93541927D01*
X106909524Y-93541927D02*
X106909524Y-93141927D01*
X106909524Y-93141927D02*
X106871428Y-93199070D01*
X106871428Y-93199070D02*
X106833333Y-93237165D01*
X106833333Y-93237165D02*
X106795238Y-93256213D01*
X107366666Y-93275260D02*
X107366666Y-93541927D01*
X107271428Y-93122880D02*
X107176190Y-93408594D01*
X107176190Y-93408594D02*
X107423809Y-93408594D01*
X106324286Y-93332441D02*
X107511525Y-93332441D01*
D10*
X99739523Y-97452319D02*
X99168095Y-97452319D01*
X99453809Y-97452319D02*
X99453809Y-96452319D01*
X99453809Y-96452319D02*
X99358571Y-96595176D01*
X99358571Y-96595176D02*
X99263333Y-96690414D01*
X99263333Y-96690414D02*
X99168095Y-96738033D01*
X100358571Y-96452319D02*
X100453809Y-96452319D01*
X100453809Y-96452319D02*
X100549047Y-96499938D01*
X100549047Y-96499938D02*
X100596666Y-96547557D01*
X100596666Y-96547557D02*
X100644285Y-96642795D01*
X100644285Y-96642795D02*
X100691904Y-96833271D01*
X100691904Y-96833271D02*
X100691904Y-97071366D01*
X100691904Y-97071366D02*
X100644285Y-97261842D01*
X100644285Y-97261842D02*
X100596666Y-97357080D01*
X100596666Y-97357080D02*
X100549047Y-97404700D01*
X100549047Y-97404700D02*
X100453809Y-97452319D01*
X100453809Y-97452319D02*
X100358571Y-97452319D01*
X100358571Y-97452319D02*
X100263333Y-97404700D01*
X100263333Y-97404700D02*
X100215714Y-97357080D01*
X100215714Y-97357080D02*
X100168095Y-97261842D01*
X100168095Y-97261842D02*
X100120476Y-97071366D01*
X100120476Y-97071366D02*
X100120476Y-96833271D01*
X100120476Y-96833271D02*
X100168095Y-96642795D01*
X100168095Y-96642795D02*
X100215714Y-96547557D01*
X100215714Y-96547557D02*
X100263333Y-96499938D01*
X100263333Y-96499938D02*
X100358571Y-96452319D01*
X101120476Y-97452319D02*
X101120476Y-96452319D01*
X101691904Y-97452319D02*
X101263333Y-96880890D01*
X101691904Y-96452319D02*
X101120476Y-97023747D01*
D11*
X100386667Y-95945700D02*
X100300000Y-95821891D01*
X100238095Y-95945700D02*
X100238095Y-95685700D01*
X100238095Y-95685700D02*
X100337143Y-95685700D01*
X100337143Y-95685700D02*
X100361905Y-95698081D01*
X100361905Y-95698081D02*
X100374286Y-95710462D01*
X100374286Y-95710462D02*
X100386667Y-95735224D01*
X100386667Y-95735224D02*
X100386667Y-95772367D01*
X100386667Y-95772367D02*
X100374286Y-95797129D01*
X100374286Y-95797129D02*
X100361905Y-95809510D01*
X100361905Y-95809510D02*
X100337143Y-95821891D01*
X100337143Y-95821891D02*
X100238095Y-95821891D01*
X100609524Y-95772367D02*
X100609524Y-95945700D01*
X100547619Y-95673320D02*
X100485714Y-95859034D01*
X100485714Y-95859034D02*
X100646667Y-95859034D01*
D10*
X97827319Y-100595238D02*
X97827319Y-101166666D01*
X97827319Y-100880952D02*
X96827319Y-100880952D01*
X96827319Y-100880952D02*
X96970176Y-100976190D01*
X96970176Y-100976190D02*
X97065414Y-101071428D01*
X97065414Y-101071428D02*
X97113033Y-101166666D01*
X97160652Y-99738095D02*
X97827319Y-99738095D01*
X97160652Y-100166666D02*
X97684461Y-100166666D01*
X97684461Y-100166666D02*
X97779700Y-100119047D01*
X97779700Y-100119047D02*
X97827319Y-100023809D01*
X97827319Y-100023809D02*
X97827319Y-99880952D01*
X97827319Y-99880952D02*
X97779700Y-99785714D01*
X97779700Y-99785714D02*
X97732080Y-99738095D01*
X97303509Y-98928571D02*
X97303509Y-99261904D01*
X97827319Y-99261904D02*
X96827319Y-99261904D01*
X96827319Y-99261904D02*
X96827319Y-98785714D01*
D11*
X96302265Y-100041666D02*
X96314170Y-100053570D01*
X96314170Y-100053570D02*
X96326074Y-100089285D01*
X96326074Y-100089285D02*
X96326074Y-100113094D01*
X96326074Y-100113094D02*
X96314170Y-100148808D01*
X96314170Y-100148808D02*
X96290360Y-100172618D01*
X96290360Y-100172618D02*
X96266550Y-100184523D01*
X96266550Y-100184523D02*
X96218931Y-100196427D01*
X96218931Y-100196427D02*
X96183217Y-100196427D01*
X96183217Y-100196427D02*
X96135598Y-100184523D01*
X96135598Y-100184523D02*
X96111789Y-100172618D01*
X96111789Y-100172618D02*
X96087979Y-100148808D01*
X96087979Y-100148808D02*
X96076074Y-100113094D01*
X96076074Y-100113094D02*
X96076074Y-100089285D01*
X96076074Y-100089285D02*
X96087979Y-100053570D01*
X96087979Y-100053570D02*
X96099884Y-100041666D01*
X96326074Y-99803570D02*
X96326074Y-99946427D01*
X96326074Y-99874999D02*
X96076074Y-99874999D01*
X96076074Y-99874999D02*
X96111789Y-99898808D01*
X96111789Y-99898808D02*
X96135598Y-99922618D01*
X96135598Y-99922618D02*
X96147503Y-99946427D01*
D10*
X124324819Y-108392023D02*
X124324819Y-107772976D01*
X124324819Y-107772976D02*
X124705771Y-108106309D01*
X124705771Y-108106309D02*
X124705771Y-107963452D01*
X124705771Y-107963452D02*
X124753390Y-107868214D01*
X124753390Y-107868214D02*
X124801009Y-107820595D01*
X124801009Y-107820595D02*
X124896247Y-107772976D01*
X124896247Y-107772976D02*
X125134342Y-107772976D01*
X125134342Y-107772976D02*
X125229580Y-107820595D01*
X125229580Y-107820595D02*
X125277200Y-107868214D01*
X125277200Y-107868214D02*
X125324819Y-107963452D01*
X125324819Y-107963452D02*
X125324819Y-108249166D01*
X125324819Y-108249166D02*
X125277200Y-108344404D01*
X125277200Y-108344404D02*
X125229580Y-108392023D01*
X124324819Y-107153928D02*
X124324819Y-107058690D01*
X124324819Y-107058690D02*
X124372438Y-106963452D01*
X124372438Y-106963452D02*
X124420057Y-106915833D01*
X124420057Y-106915833D02*
X124515295Y-106868214D01*
X124515295Y-106868214D02*
X124705771Y-106820595D01*
X124705771Y-106820595D02*
X124943866Y-106820595D01*
X124943866Y-106820595D02*
X125134342Y-106868214D01*
X125134342Y-106868214D02*
X125229580Y-106915833D01*
X125229580Y-106915833D02*
X125277200Y-106963452D01*
X125277200Y-106963452D02*
X125324819Y-107058690D01*
X125324819Y-107058690D02*
X125324819Y-107153928D01*
X125324819Y-107153928D02*
X125277200Y-107249166D01*
X125277200Y-107249166D02*
X125229580Y-107296785D01*
X125229580Y-107296785D02*
X125134342Y-107344404D01*
X125134342Y-107344404D02*
X124943866Y-107392023D01*
X124943866Y-107392023D02*
X124705771Y-107392023D01*
X124705771Y-107392023D02*
X124515295Y-107344404D01*
X124515295Y-107344404D02*
X124420057Y-107296785D01*
X124420057Y-107296785D02*
X124372438Y-107249166D01*
X124372438Y-107249166D02*
X124324819Y-107153928D01*
X125324819Y-106392023D02*
X124324819Y-106392023D01*
X125324819Y-105820595D02*
X124753390Y-106249166D01*
X124324819Y-105820595D02*
X124896247Y-106392023D01*
D11*
X123818200Y-107125832D02*
X123694391Y-107212499D01*
X123818200Y-107274404D02*
X123558200Y-107274404D01*
X123558200Y-107274404D02*
X123558200Y-107175356D01*
X123558200Y-107175356D02*
X123570581Y-107150594D01*
X123570581Y-107150594D02*
X123582962Y-107138213D01*
X123582962Y-107138213D02*
X123607724Y-107125832D01*
X123607724Y-107125832D02*
X123644867Y-107125832D01*
X123644867Y-107125832D02*
X123669629Y-107138213D01*
X123669629Y-107138213D02*
X123682010Y-107150594D01*
X123682010Y-107150594D02*
X123694391Y-107175356D01*
X123694391Y-107175356D02*
X123694391Y-107274404D01*
X123558200Y-106890594D02*
X123558200Y-107014404D01*
X123558200Y-107014404D02*
X123682010Y-107026785D01*
X123682010Y-107026785D02*
X123669629Y-107014404D01*
X123669629Y-107014404D02*
X123657248Y-106989642D01*
X123657248Y-106989642D02*
X123657248Y-106927737D01*
X123657248Y-106927737D02*
X123669629Y-106902975D01*
X123669629Y-106902975D02*
X123682010Y-106890594D01*
X123682010Y-106890594D02*
X123706772Y-106878213D01*
X123706772Y-106878213D02*
X123768677Y-106878213D01*
X123768677Y-106878213D02*
X123793439Y-106890594D01*
X123793439Y-106890594D02*
X123805820Y-106902975D01*
X123805820Y-106902975D02*
X123818200Y-106927737D01*
X123818200Y-106927737D02*
X123818200Y-106989642D01*
X123818200Y-106989642D02*
X123805820Y-107014404D01*
X123805820Y-107014404D02*
X123793439Y-107026785D01*
D10*
X130811904Y-92834819D02*
X130335714Y-92834819D01*
X130335714Y-92834819D02*
X130288095Y-93311009D01*
X130288095Y-93311009D02*
X130335714Y-93263390D01*
X130335714Y-93263390D02*
X130430952Y-93215771D01*
X130430952Y-93215771D02*
X130669047Y-93215771D01*
X130669047Y-93215771D02*
X130764285Y-93263390D01*
X130764285Y-93263390D02*
X130811904Y-93311009D01*
X130811904Y-93311009D02*
X130859523Y-93406247D01*
X130859523Y-93406247D02*
X130859523Y-93644342D01*
X130859523Y-93644342D02*
X130811904Y-93739580D01*
X130811904Y-93739580D02*
X130764285Y-93787200D01*
X130764285Y-93787200D02*
X130669047Y-93834819D01*
X130669047Y-93834819D02*
X130430952Y-93834819D01*
X130430952Y-93834819D02*
X130335714Y-93787200D01*
X130335714Y-93787200D02*
X130288095Y-93739580D01*
X131811904Y-93834819D02*
X131240476Y-93834819D01*
X131526190Y-93834819D02*
X131526190Y-92834819D01*
X131526190Y-92834819D02*
X131430952Y-92977676D01*
X131430952Y-92977676D02*
X131335714Y-93072914D01*
X131335714Y-93072914D02*
X131240476Y-93120533D01*
X132811904Y-93834819D02*
X132478571Y-93358628D01*
X132240476Y-93834819D02*
X132240476Y-92834819D01*
X132240476Y-92834819D02*
X132621428Y-92834819D01*
X132621428Y-92834819D02*
X132716666Y-92882438D01*
X132716666Y-92882438D02*
X132764285Y-92930057D01*
X132764285Y-92930057D02*
X132811904Y-93025295D01*
X132811904Y-93025295D02*
X132811904Y-93168152D01*
X132811904Y-93168152D02*
X132764285Y-93263390D01*
X132764285Y-93263390D02*
X132716666Y-93311009D01*
X132716666Y-93311009D02*
X132621428Y-93358628D01*
X132621428Y-93358628D02*
X132240476Y-93358628D01*
D13*
X131292857Y-92131927D02*
X131159524Y-91941451D01*
X131064286Y-92131927D02*
X131064286Y-91731927D01*
X131064286Y-91731927D02*
X131216667Y-91731927D01*
X131216667Y-91731927D02*
X131254762Y-91750975D01*
X131254762Y-91750975D02*
X131273809Y-91770022D01*
X131273809Y-91770022D02*
X131292857Y-91808118D01*
X131292857Y-91808118D02*
X131292857Y-91865260D01*
X131292857Y-91865260D02*
X131273809Y-91903356D01*
X131273809Y-91903356D02*
X131254762Y-91922403D01*
X131254762Y-91922403D02*
X131216667Y-91941451D01*
X131216667Y-91941451D02*
X131064286Y-91941451D01*
X131445238Y-91770022D02*
X131464286Y-91750975D01*
X131464286Y-91750975D02*
X131502381Y-91731927D01*
X131502381Y-91731927D02*
X131597619Y-91731927D01*
X131597619Y-91731927D02*
X131635714Y-91750975D01*
X131635714Y-91750975D02*
X131654762Y-91770022D01*
X131654762Y-91770022D02*
X131673809Y-91808118D01*
X131673809Y-91808118D02*
X131673809Y-91846213D01*
X131673809Y-91846213D02*
X131654762Y-91903356D01*
X131654762Y-91903356D02*
X131426190Y-92131927D01*
X131426190Y-92131927D02*
X131673809Y-92131927D01*
X131826190Y-91770022D02*
X131845238Y-91750975D01*
X131845238Y-91750975D02*
X131883333Y-91731927D01*
X131883333Y-91731927D02*
X131978571Y-91731927D01*
X131978571Y-91731927D02*
X132016666Y-91750975D01*
X132016666Y-91750975D02*
X132035714Y-91770022D01*
X132035714Y-91770022D02*
X132054761Y-91808118D01*
X132054761Y-91808118D02*
X132054761Y-91846213D01*
X132054761Y-91846213D02*
X132035714Y-91903356D01*
X132035714Y-91903356D02*
X131807142Y-92131927D01*
X131807142Y-92131927D02*
X132054761Y-92131927D01*
D10*
X99358152Y-97686904D02*
X100024819Y-97686904D01*
X98977200Y-97924999D02*
X99691485Y-98163094D01*
X99691485Y-98163094D02*
X99691485Y-97544047D01*
X99024819Y-96972618D02*
X99024819Y-96877380D01*
X99024819Y-96877380D02*
X99072438Y-96782142D01*
X99072438Y-96782142D02*
X99120057Y-96734523D01*
X99120057Y-96734523D02*
X99215295Y-96686904D01*
X99215295Y-96686904D02*
X99405771Y-96639285D01*
X99405771Y-96639285D02*
X99643866Y-96639285D01*
X99643866Y-96639285D02*
X99834342Y-96686904D01*
X99834342Y-96686904D02*
X99929580Y-96734523D01*
X99929580Y-96734523D02*
X99977200Y-96782142D01*
X99977200Y-96782142D02*
X100024819Y-96877380D01*
X100024819Y-96877380D02*
X100024819Y-96972618D01*
X100024819Y-96972618D02*
X99977200Y-97067856D01*
X99977200Y-97067856D02*
X99929580Y-97115475D01*
X99929580Y-97115475D02*
X99834342Y-97163094D01*
X99834342Y-97163094D02*
X99643866Y-97210713D01*
X99643866Y-97210713D02*
X99405771Y-97210713D01*
X99405771Y-97210713D02*
X99215295Y-97163094D01*
X99215295Y-97163094D02*
X99120057Y-97115475D01*
X99120057Y-97115475D02*
X99072438Y-97067856D01*
X99072438Y-97067856D02*
X99024819Y-96972618D01*
X100024819Y-96210713D02*
X99024819Y-96210713D01*
X100024819Y-95639285D02*
X99453390Y-96067856D01*
X99024819Y-95639285D02*
X99596247Y-96210713D01*
X99120057Y-95258332D02*
X99072438Y-95210713D01*
X99072438Y-95210713D02*
X99024819Y-95115475D01*
X99024819Y-95115475D02*
X99024819Y-94877380D01*
X99024819Y-94877380D02*
X99072438Y-94782142D01*
X99072438Y-94782142D02*
X99120057Y-94734523D01*
X99120057Y-94734523D02*
X99215295Y-94686904D01*
X99215295Y-94686904D02*
X99310533Y-94686904D01*
X99310533Y-94686904D02*
X99453390Y-94734523D01*
X99453390Y-94734523D02*
X100024819Y-95305951D01*
X100024819Y-95305951D02*
X100024819Y-94686904D01*
D11*
X98518200Y-96468332D02*
X98394391Y-96554999D01*
X98518200Y-96616904D02*
X98258200Y-96616904D01*
X98258200Y-96616904D02*
X98258200Y-96517856D01*
X98258200Y-96517856D02*
X98270581Y-96493094D01*
X98270581Y-96493094D02*
X98282962Y-96480713D01*
X98282962Y-96480713D02*
X98307724Y-96468332D01*
X98307724Y-96468332D02*
X98344867Y-96468332D01*
X98344867Y-96468332D02*
X98369629Y-96480713D01*
X98369629Y-96480713D02*
X98382010Y-96493094D01*
X98382010Y-96493094D02*
X98394391Y-96517856D01*
X98394391Y-96517856D02*
X98394391Y-96616904D01*
X98258200Y-96381666D02*
X98258200Y-96220713D01*
X98258200Y-96220713D02*
X98357248Y-96307380D01*
X98357248Y-96307380D02*
X98357248Y-96270237D01*
X98357248Y-96270237D02*
X98369629Y-96245475D01*
X98369629Y-96245475D02*
X98382010Y-96233094D01*
X98382010Y-96233094D02*
X98406772Y-96220713D01*
X98406772Y-96220713D02*
X98468677Y-96220713D01*
X98468677Y-96220713D02*
X98493439Y-96233094D01*
X98493439Y-96233094D02*
X98505820Y-96245475D01*
X98505820Y-96245475D02*
X98518200Y-96270237D01*
X98518200Y-96270237D02*
X98518200Y-96344523D01*
X98518200Y-96344523D02*
X98505820Y-96369285D01*
X98505820Y-96369285D02*
X98493439Y-96381666D01*
D10*
X136747618Y-103035580D02*
X136699999Y-103083200D01*
X136699999Y-103083200D02*
X136557142Y-103130819D01*
X136557142Y-103130819D02*
X136461904Y-103130819D01*
X136461904Y-103130819D02*
X136319047Y-103083200D01*
X136319047Y-103083200D02*
X136223809Y-102987961D01*
X136223809Y-102987961D02*
X136176190Y-102892723D01*
X136176190Y-102892723D02*
X136128571Y-102702247D01*
X136128571Y-102702247D02*
X136128571Y-102559390D01*
X136128571Y-102559390D02*
X136176190Y-102368914D01*
X136176190Y-102368914D02*
X136223809Y-102273676D01*
X136223809Y-102273676D02*
X136319047Y-102178438D01*
X136319047Y-102178438D02*
X136461904Y-102130819D01*
X136461904Y-102130819D02*
X136557142Y-102130819D01*
X136557142Y-102130819D02*
X136699999Y-102178438D01*
X136699999Y-102178438D02*
X136747618Y-102226057D01*
X137319047Y-103130819D02*
X137223809Y-103083200D01*
X137223809Y-103083200D02*
X137176190Y-103035580D01*
X137176190Y-103035580D02*
X137128571Y-102940342D01*
X137128571Y-102940342D02*
X137128571Y-102654628D01*
X137128571Y-102654628D02*
X137176190Y-102559390D01*
X137176190Y-102559390D02*
X137223809Y-102511771D01*
X137223809Y-102511771D02*
X137319047Y-102464152D01*
X137319047Y-102464152D02*
X137461904Y-102464152D01*
X137461904Y-102464152D02*
X137557142Y-102511771D01*
X137557142Y-102511771D02*
X137604761Y-102559390D01*
X137604761Y-102559390D02*
X137652380Y-102654628D01*
X137652380Y-102654628D02*
X137652380Y-102940342D01*
X137652380Y-102940342D02*
X137604761Y-103035580D01*
X137604761Y-103035580D02*
X137557142Y-103083200D01*
X137557142Y-103083200D02*
X137461904Y-103130819D01*
X137461904Y-103130819D02*
X137319047Y-103130819D01*
X138080952Y-102464152D02*
X138080952Y-103130819D01*
X138080952Y-102559390D02*
X138128571Y-102511771D01*
X138128571Y-102511771D02*
X138223809Y-102464152D01*
X138223809Y-102464152D02*
X138366666Y-102464152D01*
X138366666Y-102464152D02*
X138461904Y-102511771D01*
X138461904Y-102511771D02*
X138509523Y-102607009D01*
X138509523Y-102607009D02*
X138509523Y-103130819D01*
X138985714Y-102464152D02*
X138985714Y-103130819D01*
X138985714Y-102559390D02*
X139033333Y-102511771D01*
X139033333Y-102511771D02*
X139128571Y-102464152D01*
X139128571Y-102464152D02*
X139271428Y-102464152D01*
X139271428Y-102464152D02*
X139366666Y-102511771D01*
X139366666Y-102511771D02*
X139414285Y-102607009D01*
X139414285Y-102607009D02*
X139414285Y-103130819D01*
X139652381Y-103226057D02*
X140414285Y-103226057D01*
X140985714Y-102607009D02*
X141128571Y-102654628D01*
X141128571Y-102654628D02*
X141176190Y-102702247D01*
X141176190Y-102702247D02*
X141223809Y-102797485D01*
X141223809Y-102797485D02*
X141223809Y-102940342D01*
X141223809Y-102940342D02*
X141176190Y-103035580D01*
X141176190Y-103035580D02*
X141128571Y-103083200D01*
X141128571Y-103083200D02*
X141033333Y-103130819D01*
X141033333Y-103130819D02*
X140652381Y-103130819D01*
X140652381Y-103130819D02*
X140652381Y-102130819D01*
X140652381Y-102130819D02*
X140985714Y-102130819D01*
X140985714Y-102130819D02*
X141080952Y-102178438D01*
X141080952Y-102178438D02*
X141128571Y-102226057D01*
X141128571Y-102226057D02*
X141176190Y-102321295D01*
X141176190Y-102321295D02*
X141176190Y-102416533D01*
X141176190Y-102416533D02*
X141128571Y-102511771D01*
X141128571Y-102511771D02*
X141080952Y-102559390D01*
X141080952Y-102559390D02*
X140985714Y-102607009D01*
X140985714Y-102607009D02*
X140652381Y-102607009D01*
X141652381Y-103130819D02*
X141652381Y-102130819D01*
X141652381Y-102130819D02*
X142223809Y-103130819D01*
X142223809Y-103130819D02*
X142223809Y-102130819D01*
X143271428Y-103035580D02*
X143223809Y-103083200D01*
X143223809Y-103083200D02*
X143080952Y-103130819D01*
X143080952Y-103130819D02*
X142985714Y-103130819D01*
X142985714Y-103130819D02*
X142842857Y-103083200D01*
X142842857Y-103083200D02*
X142747619Y-102987961D01*
X142747619Y-102987961D02*
X142700000Y-102892723D01*
X142700000Y-102892723D02*
X142652381Y-102702247D01*
X142652381Y-102702247D02*
X142652381Y-102559390D01*
X142652381Y-102559390D02*
X142700000Y-102368914D01*
X142700000Y-102368914D02*
X142747619Y-102273676D01*
X142747619Y-102273676D02*
X142842857Y-102178438D01*
X142842857Y-102178438D02*
X142985714Y-102130819D01*
X142985714Y-102130819D02*
X143080952Y-102130819D01*
X143080952Y-102130819D02*
X143223809Y-102178438D01*
X143223809Y-102178438D02*
X143271428Y-102226057D01*
X139366666Y-99058819D02*
X139366666Y-99773104D01*
X139366666Y-99773104D02*
X139319047Y-99915961D01*
X139319047Y-99915961D02*
X139223809Y-100011200D01*
X139223809Y-100011200D02*
X139080952Y-100058819D01*
X139080952Y-100058819D02*
X138985714Y-100058819D01*
X139795238Y-99154057D02*
X139842857Y-99106438D01*
X139842857Y-99106438D02*
X139938095Y-99058819D01*
X139938095Y-99058819D02*
X140176190Y-99058819D01*
X140176190Y-99058819D02*
X140271428Y-99106438D01*
X140271428Y-99106438D02*
X140319047Y-99154057D01*
X140319047Y-99154057D02*
X140366666Y-99249295D01*
X140366666Y-99249295D02*
X140366666Y-99344533D01*
X140366666Y-99344533D02*
X140319047Y-99487390D01*
X140319047Y-99487390D02*
X139747619Y-100058819D01*
X139747619Y-100058819D02*
X140366666Y-100058819D01*
X138766423Y-99558819D02*
X140591666Y-99558819D01*
G04 #@! TO.C,R2*
D15*
X101330000Y-102772500D02*
X101870000Y-102772500D01*
X101870000Y-103822500D01*
X101330000Y-103822500D01*
X101330000Y-102772500D01*
G04 #@! TO.C,R17*
X119630000Y-106572500D02*
X120170000Y-106572500D01*
X120170000Y-107622500D01*
X119630000Y-107622500D01*
X119630000Y-106572500D01*
G04 #@! TO.C,U3*
X97000000Y-98500000D02*
X100250000Y-98500000D01*
X97000000Y-101500000D02*
X97000000Y-98500000D01*
X100250000Y-98500000D02*
X101000000Y-99250000D01*
X101000000Y-99250000D02*
X101000000Y-101500000D01*
X101000000Y-101500000D02*
X97000000Y-101500000D01*
G04 #@! TO.C,C5*
X101967500Y-101200000D02*
X102967500Y-101200000D01*
X102967500Y-101700000D01*
X101967500Y-101700000D01*
X101967500Y-101200000D01*
G04 #@! TO.C,R21*
X133587500Y-87850000D02*
X134412500Y-87850000D01*
X134412500Y-89450000D01*
X133587500Y-89450000D01*
X133587500Y-87850000D01*
G04 #@! TO.C,C21*
X124550000Y-106612500D02*
X125050000Y-106612500D01*
X125050000Y-107612500D01*
X124550000Y-107612500D01*
X124550000Y-106612500D01*
G04 #@! TO.C,C25*
X129200000Y-98587500D02*
X129700000Y-98587500D01*
X129700000Y-99587500D01*
X129200000Y-99587500D01*
X129200000Y-98587500D01*
G04 #@! TO.C,R13*
X109587500Y-89400000D02*
X110412500Y-89400000D01*
X110412500Y-91000000D01*
X109587500Y-91000000D01*
X109587500Y-89400000D01*
G04 #@! TO.C,R19*
X127430000Y-104875000D02*
X127970000Y-104875000D01*
X127970000Y-105925000D01*
X127430000Y-105925000D01*
X127430000Y-104875000D01*
G04 #@! TO.C,R1*
X98572500Y-103530000D02*
X99622500Y-103530000D01*
X99622500Y-104070000D01*
X98572500Y-104070000D01*
X98572500Y-103530000D01*
G04 #@! TO.C,C4*
X99900000Y-96677500D02*
X100900000Y-96677500D01*
X100900000Y-97177500D01*
X99900000Y-97177500D01*
X99900000Y-96677500D01*
G04 #@! TO.C,C20*
X128650000Y-104900000D02*
X129150000Y-104900000D01*
X129150000Y-105900000D01*
X128650000Y-105900000D01*
X128650000Y-104900000D01*
G04 #@! TO.C,C24*
X117750000Y-94100000D02*
X118250000Y-94100000D01*
X118250000Y-95100000D01*
X117750000Y-95100000D01*
X117750000Y-94100000D01*
G04 #@! TO.C,C26*
X130750000Y-93300000D02*
X132350000Y-93300000D01*
X132350000Y-94100000D01*
X130750000Y-94100000D01*
X130750000Y-93300000D01*
G04 #@! TO.C,C8*
X123600000Y-90662500D02*
X124400000Y-90662500D01*
X124400000Y-92262500D01*
X123600000Y-92262500D01*
X123600000Y-90662500D01*
G04 #@! TO.C,R15*
X116130000Y-94087500D02*
X116670000Y-94087500D01*
X116670000Y-95137500D01*
X116130000Y-95137500D01*
X116130000Y-94087500D01*
G04 #@! TO.C,C22*
X120750000Y-106612500D02*
X121250000Y-106612500D01*
X121250000Y-107612500D01*
X120750000Y-107612500D01*
X120750000Y-106612500D01*
G04 #@! TO.C,C2*
X95137500Y-104300000D02*
X96737500Y-104300000D01*
X96737500Y-105100000D01*
X95137500Y-105100000D01*
X95137500Y-104300000D01*
G04 #@! TO.C,C23*
X117050000Y-103100000D02*
X117550000Y-103100000D01*
X117550000Y-104100000D01*
X117050000Y-104100000D01*
X117050000Y-103100000D01*
G04 #@! TO.C,R16*
X115930000Y-103075000D02*
X116470000Y-103075000D01*
X116470000Y-104125000D01*
X115930000Y-104125000D01*
X115930000Y-103075000D01*
G04 #@! TO.C,U4*
X126400000Y-88100000D02*
X128200000Y-88100000D01*
X126400000Y-91200000D02*
X126400000Y-88100000D01*
X126400000Y-91200000D02*
X127550000Y-91200000D01*
X128200000Y-90550000D02*
X127550000Y-91200000D01*
X128200000Y-90550000D02*
X128200000Y-88100000D01*
G04 #@! TO.C,C7*
X130662500Y-89250000D02*
X132262500Y-89250000D01*
X132262500Y-90050000D01*
X130662500Y-90050000D01*
X130662500Y-89250000D01*
G04 #@! TO.C,R20*
X127430000Y-98562500D02*
X127970000Y-98562500D01*
X127970000Y-99612500D01*
X127430000Y-99612500D01*
X127430000Y-98562500D01*
G04 #@! TO.C,J1*
X136150000Y-108255000D02*
X136675000Y-107730000D01*
X136150000Y-110270000D02*
X136150000Y-108255000D01*
X136675000Y-107730000D02*
X138250000Y-107730000D01*
X138250000Y-107730000D02*
X138250000Y-110270000D01*
X138250000Y-110270000D02*
X136150000Y-110270000D01*
G04 #@! TO.C,C3*
X95900000Y-95427500D02*
X96700000Y-95427500D01*
X96700000Y-97027500D01*
X95900000Y-97027500D01*
X95900000Y-95427500D01*
G04 #@! TO.C,R14*
X106100000Y-92947500D02*
X107700000Y-92947500D01*
X107700000Y-93772500D01*
X106100000Y-93772500D01*
X106100000Y-92947500D01*
G04 #@! TO.C,R4*
X99905000Y-95557500D02*
X100955000Y-95557500D01*
X100955000Y-96097500D01*
X99905000Y-96097500D01*
X99905000Y-95557500D01*
G04 #@! TO.C,C1*
X95962500Y-99500000D02*
X96462500Y-99500000D01*
X96462500Y-100500000D01*
X95962500Y-100500000D01*
X95962500Y-99500000D01*
G04 #@! TO.C,R5*
X123430000Y-106557500D02*
X123970000Y-106557500D01*
X123970000Y-107607500D01*
X123430000Y-107607500D01*
X123430000Y-106557500D01*
G04 #@! TO.C,R22*
X130750000Y-91537500D02*
X132350000Y-91537500D01*
X132350000Y-92362500D01*
X130750000Y-92362500D01*
X130750000Y-91537500D01*
G04 #@! TO.C,R3*
X98130000Y-95900000D02*
X98670000Y-95900000D01*
X98670000Y-96950000D01*
X98130000Y-96950000D01*
X98130000Y-95900000D01*
G04 #@! TD*
X133245000Y-94475000D02*
X129855000Y-92925000D01*
X129855000Y-94475000D02*
X133245000Y-92925000D01*
X135605000Y-107180000D02*
X138795000Y-110820000D01*
X138795000Y-107180000D02*
X135605000Y-110820000D01*
X105205000Y-92585000D02*
X108595000Y-94135000D01*
X108595000Y-92585000D02*
X105205000Y-94135000D01*
X135355000Y-91495000D02*
X144045000Y-96645000D01*
X144045000Y-91495000D02*
X135355000Y-96645000D01*
D16*
X90000000Y-86000000D02*
X90000000Y-114000000D01*
X90000000Y-86000000D02*
G75*
G02*
X91000000Y-85000000I1000000J0D01*
G01*
X91000000Y-115000000D02*
G75*
G02*
X90000000Y-114000000I0J1000000D01*
G01*
X91000000Y-115000000D02*
X144000000Y-115000000D01*
X93150000Y-113000000D02*
G75*
G02*
X90850000Y-113000000I-1150000J0D01*
G01*
X90850000Y-113000000D02*
G75*
G02*
X93150000Y-113000000I1150000J0D01*
G01*
X144150000Y-87000000D02*
G75*
G02*
X141850000Y-87000000I-1150000J0D01*
G01*
X141850000Y-87000000D02*
G75*
G02*
X144150000Y-87000000I1150000J0D01*
G01*
X144000000Y-85000000D02*
X91000000Y-85000000D01*
X144000000Y-85000000D02*
G75*
G02*
X145000000Y-86000000I0J-1000000D01*
G01*
X145000000Y-114000000D02*
G75*
G02*
X144000000Y-115000000I-1000000J0D01*
G01*
X145000000Y-114000000D02*
X145000000Y-86000000D01*
G04 #@! TO.C,SW1*
X118935898Y-98000000D02*
G75*
G02*
X118135898Y-98000000I-400000J0D01*
G01*
X118135898Y-98000000D02*
G75*
G02*
X118935898Y-98000000I400000J0D01*
G01*
X122400000Y-104000000D02*
G75*
G02*
X121600000Y-104000000I-400000J0D01*
G01*
X121600000Y-104000000D02*
G75*
G02*
X122400000Y-104000000I400000J0D01*
G01*
X125864102Y-98000000D02*
G75*
G02*
X125064102Y-98000000I-400000J0D01*
G01*
X125064102Y-98000000D02*
G75*
G02*
X125864102Y-98000000I400000J0D01*
G01*
G04 #@! TD*
M02*
