G04 #@! TF.GenerationSoftware,KiCad,Pcbnew,10.0.1*
G04 #@! TF.CreationDate,2026-06-11T12:54:59+08:00*
G04 #@! TF.ProjectId,photodiodes_kicadproject,70686f74-6f64-4696-9f64-65735f6b6963,rev?*
G04 #@! TF.SameCoordinates,Original*
G04 #@! TF.FileFunction,Paste,Top*
G04 #@! TF.FilePolarity,Positive*
%FSLAX46Y46*%
G04 Gerber Fmt 4.6, Leading zero omitted, Abs format (unit mm)*
G04 Created by KiCad (PCBNEW 10.0.1) date 2026-06-11 12:54:59*
%MOMM*%
%LPD*%
G01*
G04 APERTURE LIST*
G04 Aperture macros list*
%AMRoundRect*
0 Rectangle with rounded corners*
0 $1 Rounding radius*
0 $2 $3 $4 $5 $6 $7 $8 $9 X,Y pos of 4 corners*
0 Add a 4 corners polygon primitive as box body*
4,1,4,$2,$3,$4,$5,$6,$7,$8,$9,$2,$3,0*
0 Add four circle primitives for the rounded corners*
1,1,$1+$1,$2,$3*
1,1,$1+$1,$4,$5*
1,1,$1+$1,$6,$7*
1,1,$1+$1,$8,$9*
0 Add four rect primitives between the rounded corners*
20,1,$1+$1,$2,$3,$4,$5,0*
20,1,$1+$1,$4,$5,$6,$7,0*
20,1,$1+$1,$6,$7,$8,$9,0*
20,1,$1+$1,$8,$9,$2,$3,0*%
G04 Aperture macros list end*
%ADD10RoundRect,0.160000X0.160000X-0.197500X0.160000X0.197500X-0.160000X0.197500X-0.160000X-0.197500X0*%
%ADD11R,0.670000X0.685000*%
%ADD12R,0.250000X0.700000*%
%ADD13RoundRect,0.155000X-0.212500X-0.155000X0.212500X-0.155000X0.212500X0.155000X-0.212500X0.155000X0*%
%ADD14RoundRect,0.237500X-0.237500X0.250000X-0.237500X-0.250000X0.237500X-0.250000X0.237500X0.250000X0*%
%ADD15RoundRect,0.155000X-0.155000X0.212500X-0.155000X-0.212500X0.155000X-0.212500X0.155000X0.212500X0*%
%ADD16RoundRect,0.155000X0.155000X-0.212500X0.155000X0.212500X-0.155000X0.212500X-0.155000X-0.212500X0*%
%ADD17RoundRect,0.160000X0.197500X0.160000X-0.197500X0.160000X-0.197500X-0.160000X0.197500X-0.160000X0*%
%ADD18RoundRect,0.155000X0.212500X0.155000X-0.212500X0.155000X-0.212500X-0.155000X0.212500X-0.155000X0*%
%ADD19RoundRect,0.237500X0.300000X0.237500X-0.300000X0.237500X-0.300000X-0.237500X0.300000X-0.237500X0*%
%ADD20RoundRect,0.237500X-0.237500X0.300000X-0.237500X-0.300000X0.237500X-0.300000X0.237500X0.300000X0*%
%ADD21RoundRect,0.160000X-0.160000X0.197500X-0.160000X-0.197500X0.160000X-0.197500X0.160000X0.197500X0*%
%ADD22RoundRect,0.237500X-0.300000X-0.237500X0.300000X-0.237500X0.300000X0.237500X-0.300000X0.237500X0*%
%ADD23RoundRect,0.162500X0.617500X0.162500X-0.617500X0.162500X-0.617500X-0.162500X0.617500X-0.162500X0*%
%ADD24RoundRect,0.237500X0.237500X-0.300000X0.237500X0.300000X-0.237500X0.300000X-0.237500X-0.300000X0*%
%ADD25RoundRect,0.237500X-0.250000X-0.237500X0.250000X-0.237500X0.250000X0.237500X-0.250000X0.237500X0*%
%ADD26RoundRect,0.160000X-0.197500X-0.160000X0.197500X-0.160000X0.197500X0.160000X-0.197500X0.160000X0*%
%ADD27RoundRect,0.330000X-3.670000X-0.770000X3.670000X-0.770000X3.670000X0.770000X-3.670000X0.770000X0*%
%ADD28RoundRect,0.180000X-3.820000X-0.420000X3.820000X-0.420000X3.820000X0.420000X-3.820000X0.420000X0*%
G04 #@! TA.AperFunction,Profile*
%ADD29C,0.050000*%
G04 #@! TD*
G04 APERTURE END LIST*
D10*
G04 #@! TO.C,R2*
X101600000Y-103895000D03*
X101600000Y-102700000D03*
G04 #@! TD*
G04 #@! TO.C,R17*
X119900000Y-107695000D03*
X119900000Y-106500000D03*
G04 #@! TD*
D11*
G04 #@! TO.C,U3*
X100237500Y-99575000D03*
X99412500Y-99575000D03*
X98587500Y-99575000D03*
X97762500Y-99575000D03*
X100237500Y-100425000D03*
X99412500Y-100425000D03*
X98587500Y-100425000D03*
X97762500Y-100425000D03*
D12*
X100500000Y-98550000D03*
X100000000Y-98550000D03*
X99500000Y-98550000D03*
X99000000Y-98550000D03*
X98500000Y-98550000D03*
X98000000Y-98550000D03*
X97500000Y-98550000D03*
X97500000Y-101450000D03*
X98000000Y-101450000D03*
X98500000Y-101450000D03*
X99000000Y-101450000D03*
X99500000Y-101450000D03*
X100000000Y-101450000D03*
X100500000Y-101450000D03*
G04 #@! TD*
D13*
G04 #@! TO.C,C5*
X101900000Y-101450000D03*
X103035000Y-101450000D03*
G04 #@! TD*
D14*
G04 #@! TO.C,R21*
X134000000Y-87737500D03*
X134000000Y-89562500D03*
G04 #@! TD*
D15*
G04 #@! TO.C,C21*
X124800000Y-106545000D03*
X124800000Y-107680000D03*
G04 #@! TD*
D16*
G04 #@! TO.C,C25*
X129450000Y-99655000D03*
X129450000Y-98520000D03*
G04 #@! TD*
D14*
G04 #@! TO.C,R13*
X110000000Y-89287500D03*
X110000000Y-91112500D03*
G04 #@! TD*
D10*
G04 #@! TO.C,R19*
X127700000Y-105997500D03*
X127700000Y-104802500D03*
G04 #@! TD*
D17*
G04 #@! TO.C,R1*
X99695000Y-103800000D03*
X98500000Y-103800000D03*
G04 #@! TD*
D18*
G04 #@! TO.C,C4*
X100967500Y-96927500D03*
X99832500Y-96927500D03*
G04 #@! TD*
D15*
G04 #@! TO.C,C20*
X128900000Y-104832500D03*
X128900000Y-105967500D03*
G04 #@! TD*
D16*
G04 #@! TO.C,C24*
X118000000Y-95167500D03*
X118000000Y-94032500D03*
G04 #@! TD*
D19*
G04 #@! TO.C,C26*
X132412500Y-93700000D03*
X130687500Y-93700000D03*
G04 #@! TD*
D20*
G04 #@! TO.C,C8*
X124000000Y-90600000D03*
X124000000Y-92325000D03*
G04 #@! TD*
D21*
G04 #@! TO.C,R15*
X116400000Y-94015000D03*
X116400000Y-95210000D03*
G04 #@! TD*
D15*
G04 #@! TO.C,C22*
X121000000Y-106545000D03*
X121000000Y-107680000D03*
G04 #@! TD*
D22*
G04 #@! TO.C,C2*
X95075000Y-104700000D03*
X96800000Y-104700000D03*
G04 #@! TD*
D15*
G04 #@! TO.C,C23*
X117300000Y-103032500D03*
X117300000Y-104167500D03*
G04 #@! TD*
D10*
G04 #@! TO.C,R16*
X116200000Y-104197500D03*
X116200000Y-103002500D03*
G04 #@! TD*
D23*
G04 #@! TO.C,U4*
X128650000Y-90600000D03*
X128650000Y-89650000D03*
X128650000Y-88700000D03*
X125950000Y-88700000D03*
X125950000Y-90600000D03*
G04 #@! TD*
D22*
G04 #@! TO.C,C7*
X130600000Y-89650000D03*
X132325000Y-89650000D03*
G04 #@! TD*
D21*
G04 #@! TO.C,R20*
X127700000Y-98490000D03*
X127700000Y-99685000D03*
G04 #@! TD*
D24*
G04 #@! TO.C,C3*
X96300000Y-97090000D03*
X96300000Y-95365000D03*
G04 #@! TD*
D25*
G04 #@! TO.C,R14*
X105987500Y-93360000D03*
X107812500Y-93360000D03*
G04 #@! TD*
D26*
G04 #@! TO.C,R4*
X99832500Y-95827500D03*
X101027500Y-95827500D03*
G04 #@! TD*
D16*
G04 #@! TO.C,C1*
X96212500Y-100567500D03*
X96212500Y-99432500D03*
G04 #@! TD*
D10*
G04 #@! TO.C,R5*
X123700000Y-107680000D03*
X123700000Y-106485000D03*
G04 #@! TD*
D25*
G04 #@! TO.C,R22*
X130637500Y-91950000D03*
X132462500Y-91950000D03*
G04 #@! TD*
D10*
G04 #@! TO.C,R3*
X98400000Y-97022500D03*
X98400000Y-95827500D03*
G04 #@! TD*
D27*
G04 #@! TO.C,J2*
X139720000Y-93500000D03*
D28*
X139700000Y-96000000D03*
G04 #@! TD*
D29*
X90000000Y-86000000D02*
X90000000Y-114000000D01*
X90000000Y-86000000D02*
G75*
G02*
X91000000Y-85000000I1000000J0D01*
G01*
X91000000Y-115000000D02*
G75*
G02*
X90000000Y-114000000I0J1000000D01*
G01*
X91000000Y-115000000D02*
X144000000Y-115000000D01*
X93150000Y-113000000D02*
G75*
G02*
X90850000Y-113000000I-1150000J0D01*
G01*
X90850000Y-113000000D02*
G75*
G02*
X93150000Y-113000000I1150000J0D01*
G01*
X144150000Y-87000000D02*
G75*
G02*
X141850000Y-87000000I-1150000J0D01*
G01*
X141850000Y-87000000D02*
G75*
G02*
X144150000Y-87000000I1150000J0D01*
G01*
X144000000Y-85000000D02*
X91000000Y-85000000D01*
X144000000Y-85000000D02*
G75*
G02*
X145000000Y-86000000I0J-1000000D01*
G01*
X145000000Y-114000000D02*
G75*
G02*
X144000000Y-115000000I-1000000J0D01*
G01*
X145000000Y-114000000D02*
X145000000Y-86000000D01*
G04 #@! TO.C,SW1*
X118935898Y-98000000D02*
G75*
G02*
X118135898Y-98000000I-400000J0D01*
G01*
X118135898Y-98000000D02*
G75*
G02*
X118935898Y-98000000I400000J0D01*
G01*
X122400000Y-104000000D02*
G75*
G02*
X121600000Y-104000000I-400000J0D01*
G01*
X121600000Y-104000000D02*
G75*
G02*
X122400000Y-104000000I400000J0D01*
G01*
X125864102Y-98000000D02*
G75*
G02*
X125064102Y-98000000I-400000J0D01*
G01*
X125064102Y-98000000D02*
G75*
G02*
X125864102Y-98000000I400000J0D01*
G01*
G04 #@! TD*
M02*
