M48
; DRILL file KiCad 10.0.1 date 2026-06-10T21:04:00
; FORMAT={-:-/ absolute / metric / decimal}
; #@! TF.CreationDate,2026-06-10T21:04:00+08:00
; #@! TF.GenerationSoftware,Kicad,Pcbnew,10.0.1
; #@! TF.FileFunction,MixedPlating,1,2
FMAT,2
METRIC
; #@! TA.AperFunction,Plated,PTH,ViaDrill
T1C0.300
; #@! TA.AperFunction,Plated,PTH,ComponentDrill
T2C0.600
; #@! TA.AperFunction,Plated,PTH,ComponentDrill
T3C0.650
; #@! TA.AperFunction,Plated,PTH,ComponentDrill
T4C0.850
%
G90
G05
T1
X95.075Y-103.6
X96.287Y-94.3
X97.9Y-104.7
X98.7Y-102.9
X99.773Y-102.873
X100.968Y-97.7
X101.5Y-99.3
X101.5Y-100.0
X101.5Y-100.7
X101.8Y-95.828
X102.0Y-98.0
X102.5Y-103.895
X103.85Y-101.45
X104.922Y-93.373
X125.065Y-92.312
X128.637Y-87.635
X129.635Y-93.712
X132.312Y-88.585
X133.987Y-86.672
X134.635Y-95.512
X137.612Y-97.165
X141.713Y-97.165
T2
X107.45Y-100.0
X110.0Y-97.45
X110.0Y-102.55
T3
X137.2Y-108.365
X137.2Y-109.635
T4
X119.46Y-100.0
X120.204Y-98.204
X120.204Y-101.796
X122.0Y-97.46
X122.0Y-102.54
X123.796Y-98.204
X123.796Y-101.796
X124.54Y-100.0
M30
