G04 #@! TF.GenerationSoftware,KiCad,Pcbnew,10.0.1*
G04 #@! TF.CreationDate,2026-06-11T14:30:42+08:00*
G04 #@! TF.ProjectId,photodiodes_kicadproject,70686f74-6f64-4696-9f64-65735f6b6963,rev?*
G04 #@! TF.SameCoordinates,Original*
G04 #@! TF.FileFunction,Copper,L2,Inr*
G04 #@! TF.FilePolarity,Positive*
%FSLAX46Y46*%
G04 Gerber Fmt 4.6, Leading zero omitted, Abs format (unit mm)*
G04 Created by KiCad (PCBNEW 10.0.1) date 2026-06-11 14:30:42*
%MOMM*%
%LPD*%
G01*
G04 APERTURE LIST*
G04 #@! TA.AperFunction,ComponentPad*
%ADD10R,1.000000X1.000000*%
G04 #@! TD*
G04 #@! TA.AperFunction,ComponentPad*
%ADD11C,1.000000*%
G04 #@! TD*
G04 #@! TA.AperFunction,ComponentPad*
%ADD12C,1.500000*%
G04 #@! TD*
G04 #@! TA.AperFunction,ViaPad*
%ADD13C,0.600000*%
G04 #@! TD*
G04 #@! TA.AperFunction,ViaPad*
%ADD14C,0.500000*%
G04 #@! TD*
G04 #@! TA.AperFunction,Profile*
%ADD15C,0.050000*%
G04 #@! TD*
G04 APERTURE END LIST*
D10*
G04 #@! TO.N,/Power Input/+5VIN*
G04 #@! TO.C,J1*
X140000000Y-111217500D03*
D11*
G04 #@! TO.N,GND*
X140000000Y-112487500D03*
G04 #@! TD*
G04 #@! TO.N,Net-(D3-A)*
G04 #@! TO.C,D3*
X110000000Y-97450000D03*
G04 #@! TO.N,GND*
X107450000Y-100000000D03*
G04 #@! TO.N,Net-(D3-K)*
X110000000Y-102550000D03*
G04 #@! TD*
D12*
G04 #@! TO.N,Net-(C24-Pad1)*
G04 #@! TO.C,SW1*
X120203949Y-98203949D03*
G04 #@! TO.N,Net-(C23-Pad1)*
X119460000Y-100000000D03*
G04 #@! TO.N,Net-(C22-Pad1)*
X120203949Y-101796051D03*
G04 #@! TO.N,Net-(C21-Pad1)*
X122000000Y-102540000D03*
G04 #@! TO.N,Net-(C20-Pad1)*
X123796051Y-101796051D03*
G04 #@! TO.N,Net-(C25-Pad1)*
X124540000Y-100000000D03*
G04 #@! TO.N,N/C*
X123796051Y-98203949D03*
G04 #@! TO.N,Net-(D3-K)*
X122000000Y-97460000D03*
G04 #@! TD*
D13*
G04 #@! TO.N,GND*
X135350000Y-96000000D03*
X140000000Y-97500000D03*
D14*
X141177804Y-100732500D03*
D13*
X105987500Y-94460000D03*
X130950000Y-98320000D03*
X129500000Y-93700000D03*
D14*
X141177804Y-102482500D03*
D13*
X132340000Y-88550000D03*
D14*
X141177804Y-98982500D03*
D13*
X132940000Y-87737500D03*
D14*
X134350000Y-107732500D03*
D13*
X128630000Y-87820000D03*
X127675000Y-93550000D03*
D14*
X137100000Y-108732500D03*
X135600000Y-108232500D03*
D13*
G04 #@! TO.N,-6V*
X108850000Y-89287500D03*
X93000000Y-103950000D03*
X130600000Y-88500000D03*
X93000000Y-102800000D03*
X93000000Y-105100000D03*
G04 #@! TO.N,+6V*
X93000000Y-95800000D03*
X93000000Y-97268408D03*
X93000000Y-94300000D03*
G04 #@! TO.N,-9V*
X103960000Y-106250000D03*
D14*
G04 #@! TO.N,/Power Input/+5VIN*
X138975000Y-106107500D03*
D13*
G04 #@! TO.N,/Voltage Regulator/VIN*
X135500000Y-102937500D03*
X132755999Y-105500000D03*
G04 #@! TD*
G04 #@! TA.AperFunction,Conductor*
G04 #@! TO.N,GND*
G36*
X139400485Y-111892145D02*
G01*
X139421769Y-111906367D01*
X139480252Y-111918000D01*
X139480255Y-111918000D01*
X139551625Y-111918000D01*
X139586273Y-111932352D01*
X139851741Y-112197820D01*
X139800446Y-112227436D01*
X139739936Y-112287946D01*
X139710320Y-112339241D01*
X139338616Y-111967536D01*
X139324264Y-111932888D01*
X139338616Y-111898240D01*
X139373264Y-111883888D01*
X139400485Y-111892145D01*
G37*
G04 #@! TD.AperFunction*
G04 #@! TA.AperFunction,Conductor*
G36*
X140667473Y-111905666D02*
G01*
X140674791Y-111942448D01*
X140661380Y-111967538D01*
X140289678Y-112339240D01*
X140260064Y-112287946D01*
X140199554Y-112227436D01*
X140148258Y-112197820D01*
X140413727Y-111932352D01*
X140448375Y-111918000D01*
X140519745Y-111918000D01*
X140519748Y-111918000D01*
X140578231Y-111906367D01*
X140599509Y-111892148D01*
X140636290Y-111884831D01*
X140667473Y-111905666D01*
G37*
G04 #@! TD.AperFunction*
G04 #@! TA.AperFunction,Conductor*
G36*
X141604274Y-86005811D02*
G01*
X141619047Y-86009358D01*
X141621159Y-86012805D01*
X141624893Y-86014352D01*
X141630704Y-86028381D01*
X141638642Y-86041335D01*
X141637698Y-86045265D01*
X141639245Y-86049000D01*
X141629888Y-86077798D01*
X141588366Y-86134949D01*
X141588364Y-86134952D01*
X141470420Y-86366429D01*
X141390140Y-86613506D01*
X141390139Y-86613509D01*
X141349500Y-86870103D01*
X141349500Y-87129896D01*
X141390139Y-87386490D01*
X141390140Y-87386493D01*
X141450677Y-87572808D01*
X141470421Y-87633572D01*
X141588366Y-87865051D01*
X141686049Y-87999500D01*
X141741070Y-88075230D01*
X141741074Y-88075235D01*
X141924765Y-88258926D01*
X141924769Y-88258929D01*
X141924771Y-88258931D01*
X142134949Y-88411634D01*
X142366428Y-88529579D01*
X142613507Y-88609860D01*
X142870103Y-88650500D01*
X142870104Y-88650500D01*
X143129896Y-88650500D01*
X143129897Y-88650500D01*
X143386493Y-88609860D01*
X143633572Y-88529579D01*
X143865051Y-88411634D01*
X143922200Y-88370112D01*
X143958665Y-88361358D01*
X143990642Y-88380953D01*
X144000000Y-88409755D01*
X144000000Y-112997593D01*
X143999764Y-113002396D01*
X143981258Y-113190287D01*
X143979384Y-113199708D01*
X143925280Y-113378066D01*
X143921604Y-113386940D01*
X143833746Y-113551311D01*
X143828409Y-113559298D01*
X143710167Y-113703375D01*
X143703375Y-113710167D01*
X143559298Y-113828409D01*
X143551311Y-113833746D01*
X143386940Y-113921604D01*
X143378066Y-113925280D01*
X143199708Y-113979384D01*
X143190287Y-113981258D01*
X143002396Y-113999764D01*
X142997593Y-114000000D01*
X93409755Y-114000000D01*
X93375107Y-113985648D01*
X93360755Y-113951000D01*
X93370111Y-113922201D01*
X93411634Y-113865051D01*
X93529579Y-113633572D01*
X93609860Y-113386493D01*
X93650500Y-113129897D01*
X93650500Y-112870103D01*
X93609860Y-112613507D01*
X93536917Y-112389012D01*
X139000000Y-112389012D01*
X139000000Y-112585987D01*
X139038429Y-112779189D01*
X139038429Y-112779190D01*
X139113809Y-112961174D01*
X139222393Y-113123683D01*
X139222394Y-113123683D01*
X139710320Y-112635757D01*
X139739936Y-112687054D01*
X139800446Y-112747564D01*
X139851741Y-112777179D01*
X139363814Y-113265104D01*
X139526325Y-113373690D01*
X139708310Y-113449070D01*
X139901512Y-113487500D01*
X140098488Y-113487500D01*
X140291689Y-113449070D01*
X140291690Y-113449070D01*
X140473677Y-113373689D01*
X140636184Y-113265104D01*
X140148258Y-112777179D01*
X140199554Y-112747564D01*
X140260064Y-112687054D01*
X140289679Y-112635758D01*
X140777604Y-113123684D01*
X140886189Y-112961177D01*
X140961570Y-112779190D01*
X140961570Y-112779189D01*
X141000000Y-112585987D01*
X141000000Y-112389012D01*
X140961570Y-112195810D01*
X140961570Y-112195809D01*
X140886190Y-112013825D01*
X140777604Y-111851314D01*
X140750039Y-111878880D01*
X140715391Y-111893232D01*
X140680743Y-111878880D01*
X140666391Y-111844232D01*
X140674649Y-111817009D01*
X140688867Y-111795731D01*
X140700500Y-111737248D01*
X140700500Y-110697752D01*
X140688867Y-110639269D01*
X140662301Y-110599512D01*
X140644552Y-110572947D01*
X140604795Y-110546382D01*
X140578231Y-110528633D01*
X140519748Y-110517000D01*
X139480252Y-110517000D01*
X139421769Y-110528633D01*
X139355447Y-110572947D01*
X139311133Y-110639269D01*
X139299500Y-110697752D01*
X139299500Y-111737248D01*
X139311133Y-111795731D01*
X139319943Y-111808916D01*
X139325353Y-111817013D01*
X139332668Y-111853796D01*
X139311832Y-111884978D01*
X139275049Y-111892293D01*
X139249961Y-111878883D01*
X139222393Y-111851315D01*
X139113809Y-112013825D01*
X139038429Y-112195809D01*
X139038429Y-112195810D01*
X139000000Y-112389012D01*
X93536917Y-112389012D01*
X93529579Y-112366428D01*
X93411634Y-112134949D01*
X93258931Y-111924771D01*
X93258929Y-111924769D01*
X93258926Y-111924765D01*
X93075235Y-111741074D01*
X93075230Y-111741070D01*
X93075229Y-111741069D01*
X92865051Y-111588366D01*
X92633572Y-111470421D01*
X92633571Y-111470420D01*
X92633570Y-111470420D01*
X92386493Y-111390140D01*
X92386490Y-111390139D01*
X92189377Y-111358920D01*
X92129897Y-111349500D01*
X91870103Y-111349500D01*
X91821816Y-111357147D01*
X91613509Y-111390139D01*
X91613506Y-111390140D01*
X91366429Y-111470420D01*
X91134949Y-111588366D01*
X91077801Y-111629886D01*
X91041334Y-111638641D01*
X91009358Y-111619045D01*
X91000000Y-111590244D01*
X91000000Y-106184104D01*
X103459500Y-106184104D01*
X103459500Y-106315895D01*
X103493607Y-106443184D01*
X103493608Y-106443188D01*
X103559500Y-106557314D01*
X103652686Y-106650500D01*
X103694457Y-106674617D01*
X103766811Y-106716391D01*
X103766813Y-106716391D01*
X103766814Y-106716392D01*
X103867207Y-106743292D01*
X103894104Y-106750499D01*
X103894105Y-106750500D01*
X103894108Y-106750500D01*
X104025895Y-106750500D01*
X104025895Y-106750499D01*
X104153186Y-106716392D01*
X104267314Y-106650500D01*
X104360500Y-106557314D01*
X104426392Y-106443186D01*
X104460499Y-106315895D01*
X104460500Y-106315895D01*
X104460500Y-106184105D01*
X104460499Y-106184104D01*
X104426392Y-106056815D01*
X104426391Y-106056811D01*
X104421412Y-106048188D01*
X138524500Y-106048188D01*
X138524500Y-106166811D01*
X138555200Y-106281384D01*
X138555201Y-106281387D01*
X138575123Y-106315892D01*
X138614511Y-106384113D01*
X138698387Y-106467989D01*
X138801114Y-106527299D01*
X138829758Y-106534974D01*
X138915688Y-106558000D01*
X138915691Y-106558000D01*
X139034311Y-106558000D01*
X139091597Y-106542649D01*
X139148886Y-106527299D01*
X139251613Y-106467989D01*
X139335489Y-106384113D01*
X139394799Y-106281386D01*
X139420866Y-106184104D01*
X139425500Y-106166811D01*
X139425500Y-106048188D01*
X139397230Y-105942686D01*
X139394799Y-105933614D01*
X139335489Y-105830887D01*
X139251613Y-105747011D01*
X139148887Y-105687701D01*
X139148884Y-105687700D01*
X139034312Y-105657000D01*
X139034309Y-105657000D01*
X138915691Y-105657000D01*
X138915688Y-105657000D01*
X138801115Y-105687700D01*
X138801112Y-105687701D01*
X138698386Y-105747011D01*
X138698386Y-105747012D01*
X138614512Y-105830886D01*
X138614511Y-105830886D01*
X138555201Y-105933612D01*
X138555200Y-105933615D01*
X138524500Y-106048188D01*
X104421412Y-106048188D01*
X104360499Y-105942685D01*
X104267314Y-105849500D01*
X104153188Y-105783608D01*
X104153184Y-105783607D01*
X104025895Y-105749500D01*
X104025892Y-105749500D01*
X103894108Y-105749500D01*
X103894105Y-105749500D01*
X103766815Y-105783607D01*
X103766811Y-105783608D01*
X103652685Y-105849500D01*
X103652685Y-105849501D01*
X103559501Y-105942685D01*
X103559500Y-105942685D01*
X103493608Y-106056811D01*
X103493607Y-106056815D01*
X103459500Y-106184104D01*
X91000000Y-106184104D01*
X91000000Y-105034104D01*
X92499500Y-105034104D01*
X92499500Y-105165895D01*
X92533607Y-105293184D01*
X92533608Y-105293188D01*
X92598968Y-105406393D01*
X92599500Y-105407314D01*
X92692686Y-105500500D01*
X92734457Y-105524617D01*
X92806811Y-105566391D01*
X92806813Y-105566391D01*
X92806814Y-105566392D01*
X92907207Y-105593292D01*
X92934104Y-105600499D01*
X92934105Y-105600500D01*
X92934108Y-105600500D01*
X93065895Y-105600500D01*
X93065895Y-105600499D01*
X93193186Y-105566392D01*
X93307314Y-105500500D01*
X93373710Y-105434104D01*
X132255499Y-105434104D01*
X132255499Y-105565895D01*
X132289606Y-105693184D01*
X132289607Y-105693188D01*
X132341812Y-105783608D01*
X132355499Y-105807314D01*
X132448685Y-105900500D01*
X132490456Y-105924617D01*
X132562810Y-105966391D01*
X132562812Y-105966391D01*
X132562813Y-105966392D01*
X132663206Y-105993292D01*
X132690103Y-106000499D01*
X132690104Y-106000500D01*
X132690107Y-106000500D01*
X132821894Y-106000500D01*
X132821894Y-106000499D01*
X132824085Y-105999911D01*
X132832534Y-105997649D01*
X132900800Y-105979356D01*
X132949185Y-105966392D01*
X133063313Y-105900500D01*
X133156499Y-105807314D01*
X133222391Y-105693186D01*
X133256498Y-105565895D01*
X133256499Y-105565895D01*
X133256499Y-105434105D01*
X133256498Y-105434104D01*
X133222391Y-105306815D01*
X133222390Y-105306811D01*
X133156498Y-105192685D01*
X133063313Y-105099500D01*
X132949187Y-105033608D01*
X132949183Y-105033607D01*
X132821894Y-104999500D01*
X132821891Y-104999500D01*
X132690107Y-104999500D01*
X132690104Y-104999500D01*
X132562814Y-105033607D01*
X132562810Y-105033608D01*
X132448684Y-105099500D01*
X132448684Y-105099501D01*
X132355500Y-105192685D01*
X132355499Y-105192685D01*
X132289607Y-105306811D01*
X132289606Y-105306815D01*
X132255499Y-105434104D01*
X93373710Y-105434104D01*
X93400500Y-105407314D01*
X93466392Y-105293186D01*
X93500499Y-105165895D01*
X93500500Y-105165895D01*
X93500500Y-105034105D01*
X93500499Y-105034104D01*
X93466392Y-104906815D01*
X93466391Y-104906811D01*
X93403576Y-104798014D01*
X93400500Y-104792686D01*
X93307314Y-104699500D01*
X93307252Y-104699464D01*
X93193188Y-104633608D01*
X93193184Y-104633607D01*
X93065895Y-104599500D01*
X93065892Y-104599500D01*
X92934108Y-104599500D01*
X92934105Y-104599500D01*
X92806815Y-104633607D01*
X92806811Y-104633608D01*
X92692685Y-104699500D01*
X92692685Y-104699501D01*
X92599501Y-104792685D01*
X92599500Y-104792685D01*
X92533608Y-104906811D01*
X92533607Y-104906815D01*
X92499500Y-105034104D01*
X91000000Y-105034104D01*
X91000000Y-103884104D01*
X92499500Y-103884104D01*
X92499500Y-104015895D01*
X92533607Y-104143184D01*
X92533608Y-104143188D01*
X92599500Y-104257314D01*
X92692686Y-104350500D01*
X92734457Y-104374617D01*
X92806811Y-104416391D01*
X92806813Y-104416391D01*
X92806814Y-104416392D01*
X92907207Y-104443292D01*
X92934104Y-104450499D01*
X92934105Y-104450500D01*
X92934108Y-104450500D01*
X93065895Y-104450500D01*
X93065895Y-104450499D01*
X93193186Y-104416392D01*
X93307314Y-104350500D01*
X93400500Y-104257314D01*
X93466392Y-104143186D01*
X93500499Y-104015895D01*
X93500500Y-104015895D01*
X93500500Y-103884105D01*
X93500499Y-103884104D01*
X93466392Y-103756815D01*
X93466391Y-103756811D01*
X93400499Y-103642685D01*
X93307314Y-103549500D01*
X93193188Y-103483608D01*
X93193184Y-103483607D01*
X93065895Y-103449500D01*
X93065892Y-103449500D01*
X92934108Y-103449500D01*
X92934105Y-103449500D01*
X92806815Y-103483607D01*
X92806811Y-103483608D01*
X92692685Y-103549500D01*
X92692685Y-103549501D01*
X92599501Y-103642685D01*
X92599500Y-103642685D01*
X92533608Y-103756811D01*
X92533607Y-103756815D01*
X92499500Y-103884104D01*
X91000000Y-103884104D01*
X91000000Y-102734104D01*
X92499500Y-102734104D01*
X92499500Y-102865895D01*
X92533607Y-102993184D01*
X92533608Y-102993188D01*
X92591879Y-103094114D01*
X92599500Y-103107314D01*
X92692686Y-103200500D01*
X92732660Y-103223579D01*
X92806811Y-103266391D01*
X92806813Y-103266391D01*
X92806814Y-103266392D01*
X92907207Y-103293292D01*
X92934104Y-103300499D01*
X92934105Y-103300500D01*
X92934108Y-103300500D01*
X93065895Y-103300500D01*
X93065895Y-103300499D01*
X93193186Y-103266392D01*
X93307314Y-103200500D01*
X93400500Y-103107314D01*
X93460500Y-103003392D01*
X93466391Y-102993188D01*
X93466391Y-102993187D01*
X93466392Y-102993186D01*
X93500499Y-102865895D01*
X93500500Y-102865895D01*
X93500500Y-102734105D01*
X93500499Y-102734104D01*
X93493292Y-102707207D01*
X93466392Y-102606814D01*
X93400500Y-102492686D01*
X93388815Y-102481001D01*
X109299500Y-102481001D01*
X109299500Y-102618998D01*
X109326417Y-102754318D01*
X109326420Y-102754329D01*
X109379223Y-102881807D01*
X109379225Y-102881811D01*
X109410137Y-102928074D01*
X109455883Y-102996539D01*
X109553460Y-103094116D01*
X109599102Y-103124613D01*
X109668189Y-103170775D01*
X109795672Y-103223580D01*
X109795678Y-103223581D01*
X109795681Y-103223582D01*
X109931001Y-103250499D01*
X109931007Y-103250500D01*
X110068993Y-103250500D01*
X110204328Y-103223580D01*
X110331811Y-103170775D01*
X110446542Y-103094114D01*
X110544114Y-102996542D01*
X110620775Y-102881811D01*
X110673580Y-102754328D01*
X110700500Y-102618993D01*
X110700500Y-102481007D01*
X110693613Y-102446384D01*
X110673582Y-102345681D01*
X110673579Y-102345670D01*
X110668583Y-102333608D01*
X110620775Y-102218189D01*
X110574613Y-102149102D01*
X110544116Y-102103460D01*
X110446539Y-102005883D01*
X110376344Y-101958981D01*
X110331811Y-101929225D01*
X110331808Y-101929223D01*
X110331807Y-101929223D01*
X110204329Y-101876420D01*
X110204318Y-101876417D01*
X110068998Y-101849500D01*
X110068993Y-101849500D01*
X109931007Y-101849500D01*
X109931001Y-101849500D01*
X109795681Y-101876417D01*
X109795670Y-101876420D01*
X109668192Y-101929223D01*
X109553460Y-102005883D01*
X109455883Y-102103460D01*
X109379223Y-102218192D01*
X109326420Y-102345670D01*
X109326417Y-102345681D01*
X109299500Y-102481001D01*
X93388815Y-102481001D01*
X93307314Y-102399500D01*
X93193188Y-102333608D01*
X93193184Y-102333607D01*
X93065895Y-102299500D01*
X93065892Y-102299500D01*
X92934108Y-102299500D01*
X92934105Y-102299500D01*
X92806815Y-102333607D01*
X92806811Y-102333608D01*
X92692685Y-102399500D01*
X92692685Y-102399501D01*
X92599501Y-102492685D01*
X92599500Y-102492685D01*
X92533608Y-102606811D01*
X92533607Y-102606815D01*
X92499500Y-102734104D01*
X91000000Y-102734104D01*
X91000000Y-99901512D01*
X106450000Y-99901512D01*
X106450000Y-100098487D01*
X106488429Y-100291689D01*
X106488429Y-100291690D01*
X106563809Y-100473674D01*
X106672393Y-100636183D01*
X106672394Y-100636183D01*
X107178620Y-100129957D01*
X107209940Y-100184205D01*
X107265795Y-100240060D01*
X107320041Y-100271379D01*
X106813814Y-100777604D01*
X106976325Y-100886190D01*
X107158310Y-100961570D01*
X107351512Y-101000000D01*
X107548488Y-101000000D01*
X107741689Y-100961570D01*
X107741690Y-100961570D01*
X107923677Y-100886189D01*
X108086184Y-100777604D01*
X107579958Y-100271379D01*
X107634205Y-100240060D01*
X107690060Y-100184205D01*
X107721378Y-100129958D01*
X108227604Y-100636184D01*
X108336189Y-100473677D01*
X108411570Y-100291690D01*
X108411570Y-100291689D01*
X108450000Y-100098487D01*
X108450000Y-99901512D01*
X108411570Y-99708310D01*
X108411570Y-99708309D01*
X108336190Y-99526325D01*
X108227604Y-99363814D01*
X107721378Y-99870040D01*
X107690060Y-99815795D01*
X107634205Y-99759940D01*
X107579957Y-99728619D01*
X108086183Y-99222394D01*
X108086183Y-99222393D01*
X107923674Y-99113809D01*
X107741689Y-99038429D01*
X107548488Y-99000000D01*
X107351512Y-99000000D01*
X107158310Y-99038429D01*
X107158309Y-99038429D01*
X106976325Y-99113809D01*
X106813815Y-99222393D01*
X106813815Y-99222394D01*
X107320041Y-99728620D01*
X107265795Y-99759940D01*
X107209940Y-99815795D01*
X107178620Y-99870041D01*
X106672394Y-99363815D01*
X106672393Y-99363815D01*
X106563809Y-99526325D01*
X106488429Y-99708309D01*
X106488429Y-99708310D01*
X106450000Y-99901512D01*
X91000000Y-99901512D01*
X91000000Y-97202512D01*
X92499500Y-97202512D01*
X92499500Y-97334303D01*
X92533607Y-97461592D01*
X92533608Y-97461596D01*
X92566747Y-97518993D01*
X92599500Y-97575722D01*
X92692686Y-97668908D01*
X92734457Y-97693025D01*
X92806811Y-97734799D01*
X92806813Y-97734799D01*
X92806814Y-97734800D01*
X92877418Y-97753718D01*
X92934104Y-97768907D01*
X92934105Y-97768908D01*
X92934108Y-97768908D01*
X93065895Y-97768908D01*
X93065895Y-97768907D01*
X93193186Y-97734800D01*
X93307314Y-97668908D01*
X93400500Y-97575722D01*
X93466392Y-97461594D01*
X93475939Y-97425965D01*
X93487987Y-97381001D01*
X109299500Y-97381001D01*
X109299500Y-97518998D01*
X109326417Y-97654318D01*
X109326420Y-97654329D01*
X109373880Y-97768907D01*
X109379225Y-97781811D01*
X109410137Y-97828074D01*
X109455883Y-97896539D01*
X109553460Y-97994116D01*
X109576986Y-98009835D01*
X109668189Y-98070775D01*
X109795672Y-98123580D01*
X109795678Y-98123581D01*
X109795681Y-98123582D01*
X109931001Y-98150499D01*
X109931007Y-98150500D01*
X110068993Y-98150500D01*
X110204328Y-98123580D01*
X110331811Y-98070775D01*
X110446542Y-97994114D01*
X110529353Y-97911303D01*
X117635398Y-97911303D01*
X117635398Y-98088696D01*
X117670001Y-98262656D01*
X117670004Y-98262667D01*
X117716107Y-98373970D01*
X117737885Y-98426547D01*
X117774401Y-98481197D01*
X117836431Y-98574032D01*
X117961865Y-98699466D01*
X118020538Y-98738670D01*
X118109351Y-98798013D01*
X118273232Y-98865894D01*
X118273238Y-98865895D01*
X118273241Y-98865896D01*
X118447201Y-98900499D01*
X118447207Y-98900500D01*
X118624589Y-98900500D01*
X118798564Y-98865894D01*
X118962445Y-98798013D01*
X119109933Y-98699464D01*
X119235362Y-98574035D01*
X119241882Y-98564275D01*
X119273062Y-98543439D01*
X119309845Y-98550753D01*
X119327895Y-98572745D01*
X119361624Y-98654174D01*
X119361627Y-98654180D01*
X119431285Y-98758431D01*
X119465646Y-98809856D01*
X119598041Y-98942251D01*
X119640594Y-98970684D01*
X119661429Y-99001867D01*
X119654113Y-99038649D01*
X119622930Y-99059484D01*
X119603814Y-99059484D01*
X119553616Y-99049500D01*
X119366384Y-99049500D01*
X119274986Y-99067680D01*
X119182751Y-99086026D01*
X119182741Y-99086029D01*
X119009774Y-99157675D01*
X119009770Y-99157677D01*
X119009769Y-99157678D01*
X118971929Y-99182962D01*
X118854092Y-99261697D01*
X118721697Y-99394092D01*
X118617675Y-99549774D01*
X118546029Y-99722741D01*
X118546026Y-99722751D01*
X118538629Y-99759940D01*
X118509500Y-99906384D01*
X118509500Y-100093616D01*
X118513912Y-100115796D01*
X118546026Y-100277248D01*
X118546029Y-100277258D01*
X118617675Y-100450225D01*
X118617676Y-100450227D01*
X118617678Y-100450231D01*
X118721698Y-100605908D01*
X118854092Y-100738302D01*
X119009769Y-100842322D01*
X119024006Y-100848219D01*
X119182741Y-100913970D01*
X119182743Y-100913970D01*
X119182749Y-100913973D01*
X119366384Y-100950500D01*
X119366387Y-100950500D01*
X119553615Y-100950500D01*
X119553616Y-100950500D01*
X119603812Y-100940515D01*
X119640593Y-100947831D01*
X119661429Y-100979013D01*
X119654113Y-101015795D01*
X119640595Y-101029315D01*
X119598039Y-101057750D01*
X119465646Y-101190143D01*
X119361624Y-101345825D01*
X119289978Y-101518792D01*
X119289975Y-101518802D01*
X119275913Y-101589500D01*
X119253449Y-101702435D01*
X119253449Y-101889667D01*
X119270750Y-101976645D01*
X119289975Y-102073299D01*
X119289978Y-102073309D01*
X119361624Y-102246276D01*
X119361625Y-102246278D01*
X119361627Y-102246282D01*
X119423292Y-102338570D01*
X119465643Y-102401954D01*
X119465647Y-102401959D01*
X119598041Y-102534353D01*
X119753718Y-102638373D01*
X119753723Y-102638375D01*
X119926690Y-102710021D01*
X119926692Y-102710021D01*
X119926698Y-102710024D01*
X120110333Y-102746551D01*
X120110336Y-102746551D01*
X120297562Y-102746551D01*
X120297565Y-102746551D01*
X120481200Y-102710024D01*
X120654180Y-102638373D01*
X120809857Y-102534353D01*
X120942251Y-102401959D01*
X120970685Y-102359405D01*
X121001866Y-102338570D01*
X121038648Y-102345886D01*
X121059484Y-102377068D01*
X121059484Y-102396185D01*
X121049500Y-102446384D01*
X121049500Y-102633616D01*
X121071519Y-102744314D01*
X121086026Y-102817248D01*
X121086029Y-102817258D01*
X121157673Y-102990221D01*
X121157675Y-102990225D01*
X121157676Y-102990227D01*
X121157678Y-102990231D01*
X121227090Y-103094114D01*
X121261697Y-103145907D01*
X121386497Y-103270707D01*
X121400849Y-103305355D01*
X121386497Y-103340003D01*
X121300533Y-103425967D01*
X121201985Y-103573456D01*
X121134106Y-103737332D01*
X121134103Y-103737343D01*
X121099500Y-103911303D01*
X121099500Y-104088696D01*
X121134103Y-104262656D01*
X121134106Y-104262667D01*
X121201985Y-104426543D01*
X121201987Y-104426547D01*
X121217992Y-104450500D01*
X121300533Y-104574032D01*
X121425967Y-104699466D01*
X121484640Y-104738670D01*
X121573453Y-104798013D01*
X121737334Y-104865894D01*
X121737340Y-104865895D01*
X121737343Y-104865896D01*
X121911303Y-104900499D01*
X121911309Y-104900500D01*
X122088691Y-104900500D01*
X122262666Y-104865894D01*
X122426547Y-104798013D01*
X122574035Y-104699464D01*
X122699464Y-104574035D01*
X122798013Y-104426547D01*
X122865894Y-104262666D01*
X122900500Y-104088691D01*
X122900500Y-103911309D01*
X122900499Y-103911303D01*
X122865896Y-103737343D01*
X122865893Y-103737332D01*
X122826690Y-103642686D01*
X122798013Y-103573453D01*
X122707505Y-103437999D01*
X122699466Y-103425967D01*
X122699465Y-103425966D01*
X122613503Y-103340003D01*
X122599151Y-103305355D01*
X122613503Y-103270707D01*
X122660631Y-103223579D01*
X122738302Y-103145908D01*
X122842322Y-102990231D01*
X122842325Y-102990223D01*
X122842327Y-102990221D01*
X122891459Y-102871604D01*
X134999500Y-102871604D01*
X134999500Y-103003395D01*
X135033607Y-103130684D01*
X135033608Y-103130688D01*
X135099500Y-103244814D01*
X135192686Y-103338000D01*
X135234457Y-103362117D01*
X135306811Y-103403891D01*
X135306813Y-103403891D01*
X135306814Y-103403892D01*
X135389196Y-103425966D01*
X135434104Y-103437999D01*
X135434105Y-103438000D01*
X135434108Y-103438000D01*
X135565895Y-103438000D01*
X135565895Y-103437999D01*
X135693186Y-103403892D01*
X135807314Y-103338000D01*
X135900500Y-103244814D01*
X135966392Y-103130686D01*
X136000499Y-103003395D01*
X136000500Y-103003395D01*
X136000500Y-102871605D01*
X136000499Y-102871604D01*
X135969075Y-102754328D01*
X135966392Y-102744314D01*
X135966391Y-102744313D01*
X135966391Y-102744311D01*
X135905228Y-102638375D01*
X135900500Y-102630186D01*
X135807314Y-102537000D01*
X135802729Y-102534353D01*
X135693188Y-102471108D01*
X135693184Y-102471107D01*
X135565895Y-102437000D01*
X135565892Y-102437000D01*
X135434108Y-102437000D01*
X135434105Y-102437000D01*
X135306815Y-102471107D01*
X135306811Y-102471108D01*
X135192685Y-102537000D01*
X135192685Y-102537001D01*
X135099501Y-102630185D01*
X135099500Y-102630185D01*
X135033608Y-102744311D01*
X135033607Y-102744315D01*
X134999500Y-102871604D01*
X122891459Y-102871604D01*
X122900555Y-102849645D01*
X122900555Y-102849644D01*
X122913973Y-102817251D01*
X122950500Y-102633616D01*
X122950500Y-102446384D01*
X122940515Y-102396186D01*
X122947831Y-102359405D01*
X122979013Y-102338570D01*
X123015796Y-102345886D01*
X123029315Y-102359405D01*
X123057748Y-102401958D01*
X123057749Y-102401959D01*
X123190143Y-102534353D01*
X123345820Y-102638373D01*
X123345825Y-102638375D01*
X123518792Y-102710021D01*
X123518794Y-102710021D01*
X123518800Y-102710024D01*
X123702435Y-102746551D01*
X123702438Y-102746551D01*
X123889664Y-102746551D01*
X123889667Y-102746551D01*
X124073302Y-102710024D01*
X124246282Y-102638373D01*
X124401959Y-102534353D01*
X124534353Y-102401959D01*
X124638373Y-102246282D01*
X124710024Y-102073302D01*
X124746551Y-101889667D01*
X124746551Y-101702435D01*
X124710024Y-101518800D01*
X124638373Y-101345820D01*
X124534353Y-101190143D01*
X124401959Y-101057749D01*
X124401958Y-101057748D01*
X124359405Y-101029315D01*
X124338569Y-100998132D01*
X124345886Y-100961350D01*
X124377069Y-100940514D01*
X124396185Y-100940514D01*
X124446384Y-100950500D01*
X124446385Y-100950500D01*
X124633613Y-100950500D01*
X124633616Y-100950500D01*
X124817251Y-100913973D01*
X124990231Y-100842322D01*
X125145908Y-100738302D01*
X125278302Y-100605908D01*
X125382322Y-100450231D01*
X125453973Y-100277251D01*
X125490500Y-100093616D01*
X125490500Y-99906384D01*
X125453973Y-99722749D01*
X125453018Y-99720444D01*
X125382324Y-99549774D01*
X125382322Y-99549769D01*
X125278302Y-99394092D01*
X125145908Y-99261698D01*
X124990231Y-99157678D01*
X124990227Y-99157676D01*
X124990225Y-99157675D01*
X124817258Y-99086029D01*
X124817248Y-99086026D01*
X124743194Y-99071296D01*
X124633616Y-99049500D01*
X124446384Y-99049500D01*
X124396186Y-99059484D01*
X124359405Y-99052168D01*
X124338569Y-99020985D01*
X124345886Y-98984203D01*
X124359406Y-98970684D01*
X124360255Y-98970116D01*
X124401959Y-98942251D01*
X124534353Y-98809857D01*
X124638373Y-98654180D01*
X124672105Y-98572742D01*
X124698621Y-98546226D01*
X124736124Y-98546226D01*
X124758114Y-98564272D01*
X124764636Y-98574032D01*
X124764639Y-98574036D01*
X124890069Y-98699466D01*
X124948742Y-98738670D01*
X125037555Y-98798013D01*
X125201436Y-98865894D01*
X125201442Y-98865895D01*
X125201445Y-98865896D01*
X125375405Y-98900499D01*
X125375411Y-98900500D01*
X125552793Y-98900500D01*
X125726768Y-98865894D01*
X125890649Y-98798013D01*
X126038137Y-98699464D01*
X126163566Y-98574035D01*
X126262115Y-98426547D01*
X126329996Y-98262666D01*
X126364602Y-98088691D01*
X126364602Y-97911309D01*
X126338842Y-97781807D01*
X126329998Y-97737343D01*
X126329995Y-97737332D01*
X126262115Y-97573453D01*
X126187373Y-97461594D01*
X126163568Y-97425967D01*
X126038134Y-97300533D01*
X125950123Y-97241726D01*
X125890649Y-97201987D01*
X125890646Y-97201985D01*
X125890645Y-97201985D01*
X125726769Y-97134106D01*
X125726758Y-97134103D01*
X125552798Y-97099500D01*
X125552793Y-97099500D01*
X125375411Y-97099500D01*
X125375405Y-97099500D01*
X125201445Y-97134103D01*
X125201434Y-97134106D01*
X125037558Y-97201985D01*
X124890069Y-97300533D01*
X124764635Y-97425967D01*
X124666088Y-97573454D01*
X124644470Y-97625645D01*
X124617951Y-97652163D01*
X124580448Y-97652163D01*
X124558458Y-97634116D01*
X124534355Y-97598043D01*
X124401958Y-97465646D01*
X124363432Y-97439904D01*
X124246282Y-97361627D01*
X124246278Y-97361625D01*
X124246276Y-97361624D01*
X124073309Y-97289978D01*
X124073299Y-97289975D01*
X123999245Y-97275245D01*
X123889667Y-97253449D01*
X123702435Y-97253449D01*
X123611037Y-97271629D01*
X123518802Y-97289975D01*
X123518792Y-97289978D01*
X123345825Y-97361624D01*
X123345821Y-97361626D01*
X123345820Y-97361627D01*
X123316825Y-97381001D01*
X123190143Y-97465646D01*
X123057750Y-97598039D01*
X123029315Y-97640595D01*
X122998132Y-97661430D01*
X122961349Y-97654113D01*
X122940514Y-97622930D01*
X122940515Y-97603812D01*
X122950500Y-97553616D01*
X122950500Y-97366384D01*
X122913973Y-97182749D01*
X122893824Y-97134106D01*
X122842324Y-97009774D01*
X122842322Y-97009769D01*
X122738302Y-96854092D01*
X122605908Y-96721698D01*
X122450231Y-96617678D01*
X122450227Y-96617676D01*
X122450225Y-96617675D01*
X122277258Y-96546029D01*
X122277248Y-96546026D01*
X122203194Y-96531296D01*
X122093616Y-96509500D01*
X121906384Y-96509500D01*
X121814986Y-96527680D01*
X121722751Y-96546026D01*
X121722741Y-96546029D01*
X121549774Y-96617675D01*
X121549770Y-96617677D01*
X121549769Y-96617678D01*
X121510195Y-96644120D01*
X121394092Y-96721697D01*
X121261697Y-96854092D01*
X121157675Y-97009774D01*
X121086029Y-97182741D01*
X121086026Y-97182751D01*
X121082095Y-97202516D01*
X121049500Y-97366384D01*
X121049500Y-97553616D01*
X121059485Y-97603812D01*
X121052168Y-97640594D01*
X121020985Y-97661430D01*
X120984203Y-97654113D01*
X120970684Y-97640594D01*
X120942251Y-97598041D01*
X120809856Y-97465646D01*
X120771330Y-97439904D01*
X120654180Y-97361627D01*
X120654176Y-97361625D01*
X120654174Y-97361624D01*
X120481207Y-97289978D01*
X120481197Y-97289975D01*
X120407143Y-97275245D01*
X120297565Y-97253449D01*
X120110333Y-97253449D01*
X120018935Y-97271629D01*
X119926700Y-97289975D01*
X119926690Y-97289978D01*
X119753723Y-97361624D01*
X119753719Y-97361626D01*
X119753718Y-97361627D01*
X119724723Y-97381001D01*
X119598041Y-97465646D01*
X119465648Y-97598039D01*
X119465645Y-97598043D01*
X119441540Y-97634118D01*
X119410357Y-97654953D01*
X119373575Y-97647635D01*
X119355529Y-97625645D01*
X119333911Y-97573453D01*
X119259169Y-97461594D01*
X119235364Y-97425967D01*
X119109930Y-97300533D01*
X119021919Y-97241726D01*
X118962445Y-97201987D01*
X118962442Y-97201985D01*
X118962441Y-97201985D01*
X118798565Y-97134106D01*
X118798554Y-97134103D01*
X118624594Y-97099500D01*
X118624589Y-97099500D01*
X118447207Y-97099500D01*
X118447201Y-97099500D01*
X118273241Y-97134103D01*
X118273230Y-97134106D01*
X118109354Y-97201985D01*
X117961865Y-97300533D01*
X117836431Y-97425967D01*
X117737883Y-97573456D01*
X117670004Y-97737332D01*
X117670001Y-97737343D01*
X117635398Y-97911303D01*
X110529353Y-97911303D01*
X110544114Y-97896542D01*
X110544169Y-97896458D01*
X110554046Y-97881679D01*
X110576272Y-97848413D01*
X110620775Y-97781811D01*
X110673580Y-97654328D01*
X110679826Y-97622930D01*
X110700499Y-97518998D01*
X110700500Y-97518993D01*
X110700500Y-97381007D01*
X110700499Y-97381001D01*
X110673582Y-97245681D01*
X110673579Y-97245670D01*
X110655703Y-97202513D01*
X110620775Y-97118189D01*
X110574613Y-97049102D01*
X110544116Y-97003460D01*
X110446539Y-96905883D01*
X110369027Y-96854092D01*
X110331811Y-96829225D01*
X110331808Y-96829223D01*
X110331807Y-96829223D01*
X110204329Y-96776420D01*
X110204318Y-96776417D01*
X110068998Y-96749500D01*
X110068993Y-96749500D01*
X109931007Y-96749500D01*
X109931001Y-96749500D01*
X109795681Y-96776417D01*
X109795670Y-96776420D01*
X109668192Y-96829223D01*
X109553460Y-96905883D01*
X109455883Y-97003460D01*
X109379223Y-97118192D01*
X109326420Y-97245670D01*
X109326417Y-97245681D01*
X109299500Y-97381001D01*
X93487987Y-97381001D01*
X93492029Y-97365918D01*
X93500499Y-97334303D01*
X93500500Y-97334303D01*
X93500500Y-97202513D01*
X93500499Y-97202512D01*
X93466392Y-97075223D01*
X93466391Y-97075219D01*
X93400499Y-96961093D01*
X93307314Y-96867908D01*
X93193188Y-96802016D01*
X93193184Y-96802015D01*
X93065895Y-96767908D01*
X93065892Y-96767908D01*
X92934108Y-96767908D01*
X92934105Y-96767908D01*
X92806815Y-96802015D01*
X92806811Y-96802016D01*
X92692685Y-96867908D01*
X92692685Y-96867909D01*
X92599501Y-96961093D01*
X92599500Y-96961093D01*
X92533608Y-97075219D01*
X92533607Y-97075223D01*
X92499500Y-97202512D01*
X91000000Y-97202512D01*
X91000000Y-95734104D01*
X92499500Y-95734104D01*
X92499500Y-95865895D01*
X92533607Y-95993184D01*
X92533608Y-95993188D01*
X92599500Y-96107314D01*
X92692686Y-96200500D01*
X92734457Y-96224617D01*
X92806811Y-96266391D01*
X92806813Y-96266391D01*
X92806814Y-96266392D01*
X92907207Y-96293292D01*
X92934104Y-96300499D01*
X92934105Y-96300500D01*
X92934108Y-96300500D01*
X93065895Y-96300500D01*
X93065895Y-96300499D01*
X93193186Y-96266392D01*
X93307314Y-96200500D01*
X93400500Y-96107314D01*
X93466392Y-95993186D01*
X93500499Y-95865895D01*
X93500500Y-95865895D01*
X93500500Y-95734105D01*
X93500499Y-95734104D01*
X93466392Y-95606815D01*
X93466391Y-95606811D01*
X93400499Y-95492685D01*
X93307314Y-95399500D01*
X93193188Y-95333608D01*
X93193184Y-95333607D01*
X93065895Y-95299500D01*
X93065892Y-95299500D01*
X92934108Y-95299500D01*
X92934105Y-95299500D01*
X92806815Y-95333607D01*
X92806811Y-95333608D01*
X92692685Y-95399500D01*
X92692685Y-95399501D01*
X92599501Y-95492685D01*
X92599500Y-95492685D01*
X92533608Y-95606811D01*
X92533607Y-95606815D01*
X92499500Y-95734104D01*
X91000000Y-95734104D01*
X91000000Y-94234104D01*
X92499500Y-94234104D01*
X92499500Y-94365895D01*
X92533607Y-94493184D01*
X92533608Y-94493188D01*
X92599500Y-94607314D01*
X92692686Y-94700500D01*
X92734457Y-94724617D01*
X92806811Y-94766391D01*
X92806813Y-94766391D01*
X92806814Y-94766392D01*
X92907207Y-94793292D01*
X92934104Y-94800499D01*
X92934105Y-94800500D01*
X92934108Y-94800500D01*
X93065895Y-94800500D01*
X93065895Y-94800499D01*
X93193186Y-94766392D01*
X93307314Y-94700500D01*
X93400500Y-94607314D01*
X93466392Y-94493186D01*
X93500499Y-94365895D01*
X93500500Y-94365895D01*
X93500500Y-94234105D01*
X93500499Y-94234104D01*
X93466392Y-94106815D01*
X93466391Y-94106811D01*
X93400499Y-93992685D01*
X93307314Y-93899500D01*
X93193188Y-93833608D01*
X93193184Y-93833607D01*
X93065895Y-93799500D01*
X93065892Y-93799500D01*
X92934108Y-93799500D01*
X92934105Y-93799500D01*
X92806815Y-93833607D01*
X92806811Y-93833608D01*
X92692685Y-93899500D01*
X92692685Y-93899501D01*
X92599501Y-93992685D01*
X92599500Y-93992685D01*
X92533608Y-94106811D01*
X92533607Y-94106815D01*
X92499500Y-94234104D01*
X91000000Y-94234104D01*
X91000000Y-89221604D01*
X108349500Y-89221604D01*
X108349500Y-89353395D01*
X108383607Y-89480684D01*
X108383608Y-89480688D01*
X108449500Y-89594814D01*
X108542686Y-89688000D01*
X108584457Y-89712117D01*
X108656811Y-89753891D01*
X108656813Y-89753891D01*
X108656814Y-89753892D01*
X108757207Y-89780792D01*
X108784104Y-89787999D01*
X108784105Y-89788000D01*
X108784108Y-89788000D01*
X108915895Y-89788000D01*
X108915895Y-89787999D01*
X109043186Y-89753892D01*
X109157314Y-89688000D01*
X109250500Y-89594814D01*
X109316392Y-89480686D01*
X109350499Y-89353395D01*
X109350500Y-89353395D01*
X109350500Y-89221605D01*
X109350499Y-89221604D01*
X109316392Y-89094315D01*
X109316391Y-89094311D01*
X109250499Y-88980185D01*
X109157314Y-88887000D01*
X109043188Y-88821108D01*
X109043184Y-88821107D01*
X108915895Y-88787000D01*
X108915892Y-88787000D01*
X108784108Y-88787000D01*
X108784105Y-88787000D01*
X108656815Y-88821107D01*
X108656811Y-88821108D01*
X108542685Y-88887000D01*
X108542685Y-88887001D01*
X108449501Y-88980185D01*
X108449500Y-88980185D01*
X108383608Y-89094311D01*
X108383607Y-89094315D01*
X108349500Y-89221604D01*
X91000000Y-89221604D01*
X91000000Y-88434104D01*
X130099500Y-88434104D01*
X130099500Y-88565895D01*
X130133607Y-88693184D01*
X130133608Y-88693188D01*
X130199500Y-88807314D01*
X130292686Y-88900500D01*
X130334457Y-88924617D01*
X130406811Y-88966391D01*
X130406813Y-88966391D01*
X130406814Y-88966392D01*
X130507207Y-88993292D01*
X130534104Y-89000499D01*
X130534105Y-89000500D01*
X130534108Y-89000500D01*
X130665895Y-89000500D01*
X130665895Y-89000499D01*
X130793186Y-88966392D01*
X130907314Y-88900500D01*
X131000500Y-88807314D01*
X131066392Y-88693186D01*
X131100499Y-88565895D01*
X131100500Y-88565895D01*
X131100500Y-88434105D01*
X131100499Y-88434104D01*
X131066392Y-88306815D01*
X131066391Y-88306811D01*
X131000499Y-88192685D01*
X130907314Y-88099500D01*
X130793188Y-88033608D01*
X130793184Y-88033607D01*
X130665895Y-87999500D01*
X130665892Y-87999500D01*
X130534108Y-87999500D01*
X130534105Y-87999500D01*
X130406815Y-88033607D01*
X130406811Y-88033608D01*
X130292685Y-88099500D01*
X130292685Y-88099501D01*
X130199501Y-88192685D01*
X130199500Y-88192685D01*
X130133608Y-88306811D01*
X130133607Y-88306815D01*
X130099500Y-88434104D01*
X91000000Y-88434104D01*
X91000000Y-87002406D01*
X91000236Y-86997603D01*
X91010434Y-86894059D01*
X91018743Y-86809701D01*
X91020612Y-86800301D01*
X91074721Y-86621926D01*
X91078391Y-86613066D01*
X91166258Y-86448680D01*
X91171590Y-86440701D01*
X91289832Y-86296624D01*
X91296624Y-86289832D01*
X91440701Y-86171590D01*
X91448680Y-86166258D01*
X91613066Y-86078391D01*
X91621926Y-86074721D01*
X91800301Y-86020612D01*
X91809701Y-86018743D01*
X91997604Y-86000236D01*
X92002407Y-86000000D01*
X141590245Y-86000000D01*
X141604274Y-86005811D01*
G37*
G04 #@! TD.AperFunction*
G04 #@! TD*
D15*
X90000000Y-86000000D02*
X90000000Y-114000000D01*
X90000000Y-86000000D02*
G75*
G02*
X91000000Y-85000000I1000000J0D01*
G01*
X91000000Y-115000000D02*
G75*
G02*
X90000000Y-114000000I0J1000000D01*
G01*
X91000000Y-115000000D02*
X144000000Y-115000000D01*
X93150000Y-113000000D02*
G75*
G02*
X90850000Y-113000000I-1150000J0D01*
G01*
X90850000Y-113000000D02*
G75*
G02*
X93150000Y-113000000I1150000J0D01*
G01*
X144150000Y-87000000D02*
G75*
G02*
X141850000Y-87000000I-1150000J0D01*
G01*
X141850000Y-87000000D02*
G75*
G02*
X144150000Y-87000000I1150000J0D01*
G01*
X144000000Y-85000000D02*
X91000000Y-85000000D01*
X144000000Y-85000000D02*
G75*
G02*
X145000000Y-86000000I0J-1000000D01*
G01*
X145000000Y-114000000D02*
G75*
G02*
X144000000Y-115000000I-1000000J0D01*
G01*
X145000000Y-114000000D02*
X145000000Y-86000000D01*
G04 #@! TO.C,SW1*
X118935898Y-98000000D02*
G75*
G02*
X118135898Y-98000000I-400000J0D01*
G01*
X118135898Y-98000000D02*
G75*
G02*
X118935898Y-98000000I400000J0D01*
G01*
X122400000Y-104000000D02*
G75*
G02*
X121600000Y-104000000I-400000J0D01*
G01*
X121600000Y-104000000D02*
G75*
G02*
X122400000Y-104000000I400000J0D01*
G01*
X125864102Y-98000000D02*
G75*
G02*
X125064102Y-98000000I-400000J0D01*
G01*
X125064102Y-98000000D02*
G75*
G02*
X125864102Y-98000000I400000J0D01*
G01*
G04 #@! TD*
M02*
